<svg width="174" height="224" viewBox="0 0 174 224" fill="none" xmlns="http://www.w3.org/2000/svg">
<circle cx="87" cy="137" r="85" stroke="black" stroke-width="4"/>
<circle cx="86.5" cy="184.5" r="37.5" stroke="#FDA646" stroke-width="4"/>
<path d="M57.3068 33L54.8948 33.288L54.5348 33L57.5948 18.564L54.0308 18.348L54.1748 17.304L60.2948 15.468L60.7628 15.828L60.0068 19.536C61.2068 18.408 62.4788 17.448 63.8228 16.656C65.1908 15.864 66.4268 15.468 67.5308 15.468C69.0668 15.468 69.8348 16.296 69.8348 17.952C69.8348 18.528 69.7748 19.116 69.6548 19.716C69.5348 20.292 69.4028 20.88 69.2588 21.48L67.6388 28.14C67.5188 28.644 67.4108 29.076 67.3148 29.436C67.2188 29.772 67.1708 30.036 67.1708 30.228C67.1708 30.732 67.3988 30.984 67.8548 30.984C68.3108 30.984 68.8508 30.756 69.4748 30.3C70.1228 29.844 70.7708 29.208 71.4188 28.392L72.2828 29.076C71.8268 29.772 71.2628 30.468 70.5908 31.164C69.9428 31.836 69.2348 32.388 68.4668 32.82C67.6988 33.252 66.8948 33.468 66.0548 33.468C65.5028 33.468 65.0588 33.324 64.7228 33.036C64.4108 32.748 64.2548 32.376 64.2548 31.92C64.2548 31.512 64.3028 31.116 64.3988 30.732C64.5188 30.324 64.6628 29.748 64.8308 29.004L66.3788 22.668C66.5228 22.044 66.6548 21.456 66.7748 20.904C66.8948 20.352 66.9548 19.896 66.9548 19.536C66.9548 18.912 66.8468 18.48 66.6308 18.24C66.4148 18 66.1028 17.88 65.6948 17.88C65.0468 17.88 64.2188 18.144 63.2108 18.672C62.2028 19.2 61.0388 20.004 59.7188 21.084L58.7468 25.44C58.4828 26.688 58.2308 27.948 57.9908 29.22C57.7748 30.468 57.5468 31.728 57.3068 33ZM80.04 33.468C78.936 33.468 77.928 33.228 77.016 32.748C76.104 32.268 75.372 31.56 74.82 30.624C74.292 29.664 74.028 28.5 74.028 27.132C74.028 25.5 74.268 23.988 74.748 22.596C75.252 21.18 75.936 19.944 76.8 18.888C77.664 17.808 78.66 16.968 79.788 16.368C80.94 15.768 82.152 15.468 83.424 15.468C85.128 15.468 86.52 16.008 87.6 17.088C88.704 18.168 89.256 19.728 89.256 21.768C89.256 23.328 89.016 24.816 88.536 26.232C88.056 27.624 87.384 28.872 86.52 29.976C85.68 31.056 84.708 31.908 83.604 32.532C82.5 33.156 81.312 33.468 80.04 33.468ZM80.436 32.028C81.324 32.028 82.128 31.752 82.848 31.2C83.568 30.648 84.18 29.904 84.684 28.968C85.212 28.032 85.62 26.988 85.908 25.836C86.196 24.684 86.34 23.508 86.34 22.308C86.34 20.364 86.028 18.984 85.404 18.168C84.804 17.328 84.012 16.908 83.028 16.908C81.9 16.908 80.868 17.352 79.932 18.24C79.02 19.128 78.3 20.316 77.772 21.804C77.244 23.268 76.98 24.9 76.98 26.7C76.98 28.596 77.304 29.964 77.952 30.804C78.6 31.62 79.428 32.028 80.436 32.028ZM94.1261 27.564C94.1261 28.74 94.3421 29.604 94.7741 30.156C95.2061 30.708 95.7461 30.984 96.3941 30.984C97.0421 30.984 97.7741 30.72 98.5901 30.192C99.4301 29.64 100.45 28.68 101.65 27.312L103.378 18.708C103.018 18.396 102.646 18.18 102.262 18.06C101.902 17.916 101.542 17.844 101.182 17.844C100.414 17.844 99.6581 18.048 98.9141 18.456C98.1701 18.84 97.4861 19.38 96.8621 20.076C96.0461 20.964 95.3861 22.068 94.8821 23.388C94.3781 24.708 94.1261 26.1 94.1261 27.564ZM104.134 28.14C103.942 29.1 103.846 29.784 103.846 30.192C103.846 30.432 103.93 30.624 104.098 30.768C104.266 30.912 104.458 30.984 104.674 30.984C105.154 30.984 105.706 30.744 106.33 30.264C106.978 29.784 107.602 29.16 108.202 28.392L109.066 29.076C108.61 29.772 108.058 30.456 107.41 31.128C106.786 31.8 106.102 32.364 105.358 32.82C104.614 33.252 103.834 33.468 103.018 33.468C102.466 33.468 101.986 33.312 101.578 33C101.194 32.688 101.002 32.22 101.002 31.596C100.978 31.332 100.978 31.032 101.002 30.696C101.05 30.336 101.134 29.844 101.254 29.22C100.174 30.468 99.0341 31.488 97.8341 32.28C96.6581 33.072 95.5781 33.468 94.5941 33.468C93.7301 33.468 92.9741 33.12 92.3261 32.424C91.6781 31.728 91.3541 30.564 91.3541 28.932C91.3541 27.732 91.5701 26.508 92.0021 25.26C92.4581 23.988 93.0581 22.776 93.8021 21.624C94.5461 20.448 95.3861 19.404 96.3221 18.492C97.2581 17.556 98.2421 16.824 99.2741 16.296C100.306 15.744 101.302 15.468 102.262 15.468C102.91 15.468 103.498 15.648 104.026 16.008L105.394 9.456L101.758 9.204L101.902 8.16L108.058 6.36L108.49 6.648L104.134 28.14ZM119.089 17.016C118.537 17.016 117.925 17.232 117.253 17.664C116.605 18.096 115.969 18.696 115.345 19.464C114.721 20.232 114.193 21.12 113.761 22.128C113.353 23.112 113.101 24.168 113.005 25.296C114.997 24.72 116.581 24.084 117.757 23.388C118.957 22.668 119.809 21.948 120.313 21.228C120.841 20.484 121.105 19.788 121.105 19.14C121.105 18.468 120.913 17.952 120.529 17.592C120.169 17.208 119.689 17.016 119.089 17.016ZM115.921 33.468C114.337 33.468 113.029 32.928 111.997 31.848C110.989 30.768 110.485 29.076 110.485 26.772C110.485 25.332 110.737 23.94 111.241 22.596C111.745 21.228 112.429 20.016 113.293 18.96C114.157 17.88 115.153 17.028 116.281 16.404C117.433 15.78 118.633 15.468 119.881 15.468C121.057 15.468 121.945 15.756 122.545 16.332C123.169 16.908 123.481 17.724 123.481 18.78C123.481 19.548 123.181 20.4 122.581 21.336C121.981 22.248 120.913 23.172 119.377 24.108C117.865 25.044 115.741 25.908 113.005 26.7C113.077 28.236 113.437 29.34 114.085 30.012C114.733 30.66 115.609 30.984 116.713 30.984C117.841 30.984 118.813 30.696 119.629 30.12C120.445 29.544 121.093 28.956 121.573 28.356L122.401 29.004C121.657 30.228 120.721 31.284 119.593 32.172C118.465 33.036 117.241 33.468 115.921 33.468Z" fill="black"/>
<path d="M84.6901 93C85.7461 93 86.6461 93.276 87.3901 93.828C88.1581 94.356 88.6141 94.956 88.7581 95.628C88.5181 96.444 88.0501 96.852 87.3541 96.852C86.8261 96.852 86.3581 96.696 85.9501 96.384C85.5661 96.072 85.0861 95.568 84.5101 94.872L83.9341 94.188C83.3341 94.452 82.7581 94.896 82.2061 95.52C81.6541 96.12 81.1501 96.984 80.6941 98.112C80.2621 99.216 79.8901 100.692 79.5781 102.54C79.5541 102.612 79.5421 102.684 79.5421 102.756C79.5421 102.804 79.5301 102.864 79.5061 102.936H84.1501L83.8621 104.844L79.2181 104.7C78.8341 106.98 78.4501 109.32 78.0661 111.72C77.6821 114.12 77.2621 116.46 76.8061 118.74C76.4221 120.66 75.9541 122.328 75.4021 123.744C74.8741 125.16 74.1061 126.324 73.0981 127.236C72.3541 127.908 71.6821 128.364 71.0821 128.604C70.4581 128.868 69.8581 129 69.2821 129C68.4661 129 67.7461 128.796 67.1221 128.388C66.4981 127.98 66.1021 127.44 65.9341 126.768C66.0061 126.384 66.2101 126.072 66.5461 125.832C66.8581 125.592 67.2061 125.472 67.5901 125.472C68.1181 125.472 68.5981 125.616 69.0301 125.904C69.4381 126.192 69.8341 126.54 70.2181 126.948L70.6501 127.38C70.8901 127.188 71.1301 126.96 71.3701 126.696C71.6341 126.456 71.8861 126.168 72.1261 125.832C72.5821 125.16 72.9781 124.272 73.3141 123.168C73.6501 122.088 73.9861 120.612 74.3221 118.74C74.7541 116.316 75.1501 113.964 75.5101 111.684C75.8941 109.404 76.2781 107.052 76.6621 104.628H72.9181L73.2061 103.26L76.9501 102.936L76.9861 102.612C77.2981 100.62 77.7541 99 78.3541 97.752C78.9781 96.48 79.6621 95.508 80.4061 94.836C81.1741 94.14 81.9301 93.66 82.6741 93.396C83.4421 93.132 84.1141 93 84.6901 93ZM80.9081 124.338L81.0341 123.726L82.5821 123.474L84.8501 112.782L83.0681 112.674L83.1401 112.152L86.2001 111.234L86.4341 111.414L86.0021 113.43C86.5661 112.746 87.1721 112.212 87.8201 111.828C88.4681 111.432 89.0501 111.234 89.5661 111.234C90.0101 111.234 90.3941 111.402 90.7181 111.738C91.0421 112.062 91.2041 112.632 91.2041 113.448C91.2041 114.06 91.0961 114.684 90.8801 115.32C90.6641 115.956 90.3701 116.568 89.9981 117.156C89.6261 117.732 89.2001 118.254 88.7201 118.722C88.2401 119.19 87.7361 119.562 87.2081 119.838C86.6801 120.102 86.1581 120.234 85.6421 120.234C85.2701 120.234 84.9281 120.144 84.6161 119.964C84.4601 120.732 84.3281 121.392 84.2201 121.944C84.1121 122.496 84.0221 123 83.9501 123.456L85.6061 123.726L85.4621 124.338H80.9081ZM88.7201 112.44C88.3481 112.44 87.9101 112.602 87.4061 112.926C86.9141 113.25 86.3861 113.712 85.8221 114.312L84.9221 118.506C85.1621 118.686 85.3961 118.818 85.6241 118.902C85.8641 118.974 86.0861 119.01 86.2901 119.01C86.7461 119.01 87.1721 118.884 87.5681 118.632C87.9761 118.38 88.3361 118.05 88.6481 117.642C89.0081 117.162 89.2901 116.622 89.4941 116.022C89.7101 115.41 89.8181 114.792 89.8181 114.168C89.8181 113.016 89.4521 112.44 88.7201 112.44ZM91.4331 122.88L91.1631 122.376C91.5831 122.16 91.9671 121.896 92.3151 121.584C92.6631 121.272 92.9871 120.894 93.2871 120.45L92.7831 119.856C92.5671 119.616 92.4591 119.31 92.4591 118.938C92.4591 118.662 92.5431 118.422 92.7111 118.218C92.8911 118.002 93.1791 117.894 93.5751 117.894C93.8391 117.894 94.1151 117.966 94.4031 118.11C94.5351 118.314 94.6011 118.554 94.6011 118.83C94.6011 119.406 94.4571 119.958 94.1691 120.486C93.8811 121.014 93.4971 121.482 93.0171 121.89C92.5491 122.31 92.0211 122.64 91.4331 122.88ZM97.1349 120.144L96.9549 120L98.7009 111.414C98.8089 110.886 98.9109 110.358 99.0069 109.83C99.1149 109.29 99.2109 108.75 99.2949 108.21L97.5849 108.102L97.6569 107.58L100.771 106.68L100.951 106.824L99.6549 113.232C100.231 112.668 100.855 112.194 101.527 111.81C102.211 111.426 102.823 111.234 103.363 111.234C104.143 111.234 104.533 111.648 104.533 112.476C104.533 112.764 104.497 113.058 104.425 113.358C104.365 113.646 104.299 113.94 104.227 114.24L103.417 117.57C103.357 117.822 103.303 118.038 103.255 118.218C103.207 118.386 103.183 118.518 103.183 118.614C103.183 118.866 103.303 118.992 103.543 118.992C103.759 118.992 104.023 118.878 104.335 118.65C104.659 118.422 104.983 118.104 105.307 117.696L105.739 118.038C105.511 118.386 105.229 118.734 104.893 119.082C104.569 119.418 104.215 119.694 103.831 119.91C103.447 120.126 103.051 120.234 102.643 120.234C102.355 120.234 102.127 120.162 101.959 120.018C101.803 119.874 101.725 119.688 101.725 119.46C101.725 119.256 101.749 119.058 101.797 118.866C101.857 118.662 101.929 118.374 102.013 118.002L102.787 114.834C102.859 114.522 102.925 114.228 102.985 113.952C103.045 113.676 103.075 113.448 103.075 113.268C103.075 112.956 103.021 112.74 102.913 112.62C102.805 112.5 102.649 112.44 102.445 112.44C102.121 112.44 101.713 112.572 101.221 112.836C100.729 113.088 100.153 113.478 99.4929 114.006L99.0249 116.22C98.9049 116.844 98.7849 117.474 98.6649 118.11C98.5449 118.734 98.4369 119.364 98.3409 120L97.1349 120.144Z" fill="black"/>
<path d="M74.2268 190.356C74.2268 191.844 73.6628 193.068 72.5348 194.028C71.4308 194.988 69.9668 195.468 68.1428 195.468C66.7508 195.468 65.6828 195.144 64.9388 194.496C64.2188 193.848 63.7988 192.984 63.6788 191.904C63.7748 191.592 63.9428 191.352 64.1828 191.184C64.4468 190.992 64.7228 190.896 65.0108 190.896C65.5388 190.896 65.9228 191.04 66.1628 191.328C66.4268 191.592 66.6188 191.976 66.7388 192.48L67.1348 194.028C67.2068 194.052 67.2788 194.064 67.3508 194.064C67.4468 194.064 67.5428 194.064 67.6388 194.064C68.8868 194.064 69.8588 193.788 70.5548 193.236C71.2508 192.684 71.5988 191.94 71.5988 191.004C71.5988 190.428 71.4668 189.876 71.2028 189.348C70.9388 188.82 70.2908 188.184 69.2588 187.44C68.3708 186.744 67.6148 186.036 66.9908 185.316C66.3908 184.572 66.0908 183.636 66.0908 182.508C66.0908 181.572 66.3308 180.72 66.8108 179.952C67.2908 179.184 67.9508 178.584 68.7908 178.152C69.6548 177.696 70.6628 177.468 71.8148 177.468C72.8708 177.468 73.7828 177.708 74.5508 178.188C75.3188 178.644 75.8348 179.46 76.0988 180.636C75.8828 181.308 75.4268 181.644 74.7308 181.644C73.8908 181.644 73.2788 181.08 72.8948 179.952L72.5708 178.908C72.4988 178.884 72.4148 178.872 72.3188 178.872C72.2468 178.872 72.1628 178.872 72.0668 178.872C70.8188 178.872 69.9308 179.16 69.4028 179.736C68.8988 180.312 68.6468 181.008 68.6468 181.824C68.6468 182.568 68.8268 183.192 69.1868 183.696C69.5708 184.176 70.2788 184.8 71.3108 185.568C72.3908 186.384 73.1468 187.128 73.5788 187.8C74.0108 188.448 74.2268 189.3 74.2268 190.356ZM76.6155 200.724C77.0235 198.876 77.4195 196.992 77.8035 195.072C78.1875 193.152 78.5715 191.232 78.9555 189.312L80.6115 180.672C80.9955 178.776 81.3675 176.88 81.7275 174.984C82.0875 173.064 82.4235 171.156 82.7355 169.26H89.5395L89.2515 170.7L85.0755 171.168C84.7635 172.704 84.4395 174.276 84.1035 175.884C83.7915 177.468 83.4795 179.064 83.1675 180.672L81.5115 189.312C81.1995 190.872 80.8875 192.456 80.5755 194.064C80.2635 195.648 79.9755 197.232 79.7115 198.816L83.7075 199.284L83.4195 200.724H76.6155ZM90.6625 191.004L93.0745 179.7H89.4025L89.6545 178.26L93.5425 177.9L95.2345 173.076H97.0705L96.0265 177.936H100.599L100.311 179.88L95.6665 179.736L93.4705 190.068C93.2545 191.028 93.1465 191.724 93.1465 192.156C93.1465 192.42 93.2305 192.624 93.3985 192.768C93.5905 192.912 93.7945 192.984 94.0105 192.984C94.9225 192.984 96.0985 192.12 97.5385 190.392L98.4385 191.076C97.9345 191.796 97.3585 192.492 96.7105 193.164C96.0625 193.836 95.3665 194.388 94.6225 194.82C93.8785 195.252 93.0985 195.468 92.2825 195.468C91.7545 195.468 91.2865 195.312 90.8785 195C90.4945 194.688 90.3025 194.232 90.3025 193.632C90.3025 193.368 90.3265 193.056 90.3745 192.696C90.4225 192.312 90.5185 191.748 90.6625 191.004ZM110.934 169.26C110.526 171.108 110.13 172.992 109.746 174.912C109.362 176.832 108.978 178.752 108.594 180.672L106.938 189.312C106.554 191.208 106.182 193.104 105.822 195C105.486 196.92 105.15 198.828 104.814 200.724H98.0102L98.2982 199.284L102.474 198.816C102.81 197.256 103.134 195.684 103.446 194.1C103.758 192.516 104.07 190.92 104.382 189.312L106.038 180.672C106.35 179.112 106.662 177.54 106.974 175.956C107.286 174.348 107.574 172.752 107.838 171.168L103.842 170.7L104.13 169.26H110.934Z" fill="#FDA646"/>
</svg>
