<svg width="349" height="224" viewBox="0 0 349 224" fill="none" xmlns="http://www.w3.org/2000/svg">
<circle cx="262" cy="137" r="85" stroke="black" stroke-width="4"/>
<circle cx="261.5" cy="184.5" r="37.5" stroke="#FDA646" stroke-width="4"/>
<path d="M232.307 33L229.895 33.288L229.535 33L232.595 18.564L229.031 18.348L229.175 17.304L235.295 15.468L235.763 15.828L235.007 19.536C236.207 18.408 237.479 17.448 238.823 16.656C240.191 15.864 241.427 15.468 242.531 15.468C244.067 15.468 244.835 16.296 244.835 17.952C244.835 18.528 244.775 19.116 244.655 19.716C244.535 20.292 244.403 20.88 244.259 21.48L242.639 28.14C242.519 28.644 242.411 29.076 242.315 29.436C242.219 29.772 242.171 30.036 242.171 30.228C242.171 30.732 242.399 30.984 242.855 30.984C243.311 30.984 243.851 30.756 244.475 30.3C245.123 29.844 245.771 29.208 246.419 28.392L247.283 29.076C246.827 29.772 246.263 30.468 245.591 31.164C244.943 31.836 244.235 32.388 243.467 32.82C242.699 33.252 241.895 33.468 241.055 33.468C240.503 33.468 240.059 33.324 239.723 33.036C239.411 32.748 239.255 32.376 239.255 31.92C239.255 31.512 239.303 31.116 239.399 30.732C239.519 30.324 239.663 29.748 239.831 29.004L241.379 22.668C241.523 22.044 241.655 21.456 241.775 20.904C241.895 20.352 241.955 19.896 241.955 19.536C241.955 18.912 241.847 18.48 241.631 18.24C241.415 18 241.103 17.88 240.695 17.88C240.047 17.88 239.219 18.144 238.211 18.672C237.203 19.2 236.039 20.004 234.719 21.084L233.747 25.44C233.483 26.688 233.231 27.948 232.991 29.22C232.775 30.468 232.547 31.728 232.307 33ZM255.04 33.468C253.936 33.468 252.928 33.228 252.016 32.748C251.104 32.268 250.372 31.56 249.82 30.624C249.292 29.664 249.028 28.5 249.028 27.132C249.028 25.5 249.268 23.988 249.748 22.596C250.252 21.18 250.936 19.944 251.8 18.888C252.664 17.808 253.66 16.968 254.788 16.368C255.94 15.768 257.152 15.468 258.424 15.468C260.128 15.468 261.52 16.008 262.6 17.088C263.704 18.168 264.256 19.728 264.256 21.768C264.256 23.328 264.016 24.816 263.536 26.232C263.056 27.624 262.384 28.872 261.52 29.976C260.68 31.056 259.708 31.908 258.604 32.532C257.5 33.156 256.312 33.468 255.04 33.468ZM255.436 32.028C256.324 32.028 257.128 31.752 257.848 31.2C258.568 30.648 259.18 29.904 259.684 28.968C260.212 28.032 260.62 26.988 260.908 25.836C261.196 24.684 261.34 23.508 261.34 22.308C261.34 20.364 261.028 18.984 260.404 18.168C259.804 17.328 259.012 16.908 258.028 16.908C256.9 16.908 255.868 17.352 254.932 18.24C254.02 19.128 253.3 20.316 252.772 21.804C252.244 23.268 251.98 24.9 251.98 26.7C251.98 28.596 252.304 29.964 252.952 30.804C253.6 31.62 254.428 32.028 255.436 32.028ZM269.126 27.564C269.126 28.74 269.342 29.604 269.774 30.156C270.206 30.708 270.746 30.984 271.394 30.984C272.042 30.984 272.774 30.72 273.59 30.192C274.43 29.64 275.45 28.68 276.65 27.312L278.378 18.708C278.018 18.396 277.646 18.18 277.262 18.06C276.902 17.916 276.542 17.844 276.182 17.844C275.414 17.844 274.658 18.048 273.914 18.456C273.17 18.84 272.486 19.38 271.862 20.076C271.046 20.964 270.386 22.068 269.882 23.388C269.378 24.708 269.126 26.1 269.126 27.564ZM279.134 28.14C278.942 29.1 278.846 29.784 278.846 30.192C278.846 30.432 278.93 30.624 279.098 30.768C279.266 30.912 279.458 30.984 279.674 30.984C280.154 30.984 280.706 30.744 281.33 30.264C281.978 29.784 282.602 29.16 283.202 28.392L284.066 29.076C283.61 29.772 283.058 30.456 282.41 31.128C281.786 31.8 281.102 32.364 280.358 32.82C279.614 33.252 278.834 33.468 278.018 33.468C277.466 33.468 276.986 33.312 276.578 33C276.194 32.688 276.002 32.22 276.002 31.596C275.978 31.332 275.978 31.032 276.002 30.696C276.05 30.336 276.134 29.844 276.254 29.22C275.174 30.468 274.034 31.488 272.834 32.28C271.658 33.072 270.578 33.468 269.594 33.468C268.73 33.468 267.974 33.12 267.326 32.424C266.678 31.728 266.354 30.564 266.354 28.932C266.354 27.732 266.57 26.508 267.002 25.26C267.458 23.988 268.058 22.776 268.802 21.624C269.546 20.448 270.386 19.404 271.322 18.492C272.258 17.556 273.242 16.824 274.274 16.296C275.306 15.744 276.302 15.468 277.262 15.468C277.91 15.468 278.498 15.648 279.026 16.008L280.394 9.456L276.758 9.204L276.902 8.16L283.058 6.36L283.49 6.648L279.134 28.14ZM294.089 17.016C293.537 17.016 292.925 17.232 292.253 17.664C291.605 18.096 290.969 18.696 290.345 19.464C289.721 20.232 289.193 21.12 288.761 22.128C288.353 23.112 288.101 24.168 288.005 25.296C289.997 24.72 291.581 24.084 292.757 23.388C293.957 22.668 294.809 21.948 295.313 21.228C295.841 20.484 296.105 19.788 296.105 19.14C296.105 18.468 295.913 17.952 295.529 17.592C295.169 17.208 294.689 17.016 294.089 17.016ZM290.921 33.468C289.337 33.468 288.029 32.928 286.997 31.848C285.989 30.768 285.485 29.076 285.485 26.772C285.485 25.332 285.737 23.94 286.241 22.596C286.745 21.228 287.429 20.016 288.293 18.96C289.157 17.88 290.153 17.028 291.281 16.404C292.433 15.78 293.633 15.468 294.881 15.468C296.057 15.468 296.945 15.756 297.545 16.332C298.169 16.908 298.481 17.724 298.481 18.78C298.481 19.548 298.181 20.4 297.581 21.336C296.981 22.248 295.913 23.172 294.377 24.108C292.865 25.044 290.741 25.908 288.005 26.7C288.077 28.236 288.437 29.34 289.085 30.012C289.733 30.66 290.609 30.984 291.713 30.984C292.841 30.984 293.813 30.696 294.629 30.12C295.445 29.544 296.093 28.956 296.573 28.356L297.401 29.004C296.657 30.228 295.721 31.284 294.593 32.172C293.465 33.036 292.241 33.468 290.921 33.468Z" fill="black"/>
<path d="M177 131.5L162 122.84V140.16L177 131.5ZM94.5 133H163.5V130H94.5V133Z" fill="black"/>
<path d="M29.8552 136.912C29.9512 136.48 30.1552 136.156 30.4672 135.94C30.8032 135.724 31.1152 135.616 31.4032 135.616C31.7872 135.616 32.1112 135.7 32.3752 135.868C32.6392 136.012 32.9272 136.36 33.2392 136.912L33.6352 137.632C33.8512 137.464 34.0792 137.248 34.3192 136.984C35.1832 136.048 35.9872 135.088 36.7312 134.104C37.4752 133.12 38.2192 132.076 38.9632 130.972L37.4512 125.824C37.2352 125.08 37.0312 124.576 36.8392 124.312C36.6712 124.024 36.3952 123.88 36.0112 123.88C35.7712 123.88 35.4112 124.024 34.9312 124.312C34.4752 124.6 33.9352 125.272 33.3112 126.328L32.4832 125.716C33.1552 124.228 33.8872 123.148 34.6792 122.476C35.4712 121.804 36.2392 121.468 36.9832 121.468C37.6792 121.468 38.2312 121.696 38.6392 122.152C39.0712 122.608 39.4432 123.412 39.7552 124.564L40.8712 128.56C41.6392 127.336 42.3592 126.256 43.0312 125.32C43.7272 124.384 44.3032 123.64 44.7592 123.088C45.2872 122.464 45.7672 122.044 46.1992 121.828C46.6312 121.588 47.1352 121.468 47.7112 121.468C48.1912 121.468 48.6712 121.624 49.1512 121.936C49.6552 122.248 49.9792 122.728 50.1232 123.376C50.1232 123.88 49.9792 124.3 49.6912 124.636C49.4032 124.948 49.0552 125.104 48.6472 125.104C48.2872 125.104 47.9512 125.032 47.6392 124.888C47.3272 124.72 47.0032 124.384 46.6672 123.88L46.4512 123.592C46.3552 123.664 46.2712 123.748 46.1992 123.844C46.1272 123.94 46.0432 124.036 45.9472 124.132C45.1072 125.068 44.3032 126.028 43.5352 127.012C42.7672 127.996 42.0232 129.004 41.3032 130.036L42.5632 134.608C42.8272 135.592 43.1032 136.24 43.3912 136.552C43.7032 136.84 44.1112 136.984 44.6152 136.984C45.0952 136.984 45.6232 136.756 46.1992 136.3C46.7992 135.844 47.4232 135.208 48.0712 134.392L48.9712 135.076C48.1072 136.348 47.1712 137.404 46.1632 138.244C45.1552 139.06 44.1712 139.468 43.2112 139.468C42.6832 139.468 42.2152 139.3 41.8072 138.964C41.3992 138.604 41.0392 137.908 40.7272 136.876L39.3952 132.412C38.6512 133.612 37.9432 134.704 37.2712 135.688C36.5992 136.648 35.9512 137.5 35.3272 138.244C34.9432 138.7 34.5472 139.012 34.1392 139.18C33.7312 139.372 33.2872 139.468 32.8072 139.468C32.0872 139.468 31.4272 139.264 30.8272 138.856C30.2512 138.424 29.9272 137.776 29.8552 136.912ZM49.9631 144.724C50.3711 142.876 50.7671 140.992 51.1511 139.072C51.5351 137.152 51.9191 135.232 52.3031 133.312L53.9591 124.672C54.3431 122.776 54.7151 120.88 55.0751 118.984C55.4351 117.064 55.7711 115.156 56.0831 113.26H62.8871L62.5991 114.7L58.4231 115.168C58.1111 116.704 57.7871 118.276 57.4511 119.884C57.1391 121.468 56.8271 123.064 56.5151 124.672L54.8591 133.312C54.5471 134.872 54.2351 136.456 53.9231 138.064C53.6111 139.648 53.3231 141.232 53.0591 142.816L57.0551 143.284L56.7671 144.724H49.9631ZM64.0102 135.004L66.4222 123.7H62.7502L63.0022 122.26L66.8902 121.9L68.5822 117.076H70.4182L69.3742 121.936H73.9462L73.6582 123.88L69.0142 123.736L66.8182 134.068C66.6022 135.028 66.4942 135.724 66.4942 136.156C66.4942 136.42 66.5782 136.624 66.7462 136.768C66.9382 136.912 67.1422 136.984 67.3582 136.984C68.2702 136.984 69.4462 136.12 70.8862 134.392L71.7862 135.076C71.2822 135.796 70.7062 136.492 70.0582 137.164C69.4102 137.836 68.7142 138.388 67.9702 138.82C67.2262 139.252 66.4462 139.468 65.6302 139.468C65.1022 139.468 64.6342 139.312 64.2262 139C63.8422 138.688 63.6502 138.232 63.6502 137.632C63.6502 137.368 63.6742 137.056 63.7222 136.696C63.7702 136.312 63.8662 135.748 64.0102 135.004ZM84.2818 113.26C83.8738 115.108 83.4778 116.992 83.0938 118.912C82.7098 120.832 82.3258 122.752 81.9418 124.672L80.2858 133.312C79.9018 135.208 79.5298 137.104 79.1698 139C78.8338 140.92 78.4978 142.828 78.1618 144.724H71.3578L71.6458 143.284L75.8218 142.816C76.1578 141.256 76.4818 139.684 76.7938 138.1C77.1058 136.516 77.4178 134.92 77.7298 133.312L79.3858 124.672C79.6978 123.112 80.0098 121.54 80.3218 119.956C80.6338 118.348 80.9218 116.752 81.1858 115.168L77.1898 114.7L77.4778 113.26H84.2818Z" fill="black"/>
<path d="M270.529 93C271.585 93 272.485 93.276 273.229 93.828C273.997 94.356 274.453 94.956 274.597 95.628C274.357 96.444 273.889 96.852 273.193 96.852C272.665 96.852 272.197 96.696 271.789 96.384C271.405 96.072 270.925 95.568 270.349 94.872L269.773 94.188C269.173 94.452 268.597 94.896 268.045 95.52C267.493 96.12 266.989 96.984 266.533 98.112C266.101 99.216 265.729 100.692 265.417 102.54C265.393 102.612 265.381 102.684 265.381 102.756C265.381 102.804 265.369 102.864 265.345 102.936H269.989L269.701 104.844L265.057 104.7C264.673 106.98 264.289 109.32 263.905 111.72C263.521 114.12 263.101 116.46 262.645 118.74C262.261 120.66 261.793 122.328 261.241 123.744C260.713 125.16 259.945 126.324 258.937 127.236C258.193 127.908 257.521 128.364 256.921 128.604C256.297 128.868 255.697 129 255.121 129C254.305 129 253.585 128.796 252.961 128.388C252.337 127.98 251.941 127.44 251.773 126.768C251.845 126.384 252.049 126.072 252.385 125.832C252.697 125.592 253.045 125.472 253.429 125.472C253.957 125.472 254.437 125.616 254.869 125.904C255.277 126.192 255.673 126.54 256.057 126.948L256.489 127.38C256.729 127.188 256.969 126.96 257.209 126.696C257.473 126.456 257.725 126.168 257.965 125.832C258.421 125.16 258.817 124.272 259.153 123.168C259.489 122.088 259.825 120.612 260.161 118.74C260.593 116.316 260.989 113.964 261.349 111.684C261.733 109.404 262.117 107.052 262.501 104.628H258.757L259.045 103.26L262.789 102.936L262.825 102.612C263.137 100.62 263.593 99 264.193 97.752C264.817 96.48 265.501 95.508 266.245 94.836C267.013 94.14 267.769 93.66 268.513 93.396C269.281 93.132 269.953 93 270.529 93Z" fill="black"/>
<path d="M249.227 190.356C249.227 191.844 248.663 193.068 247.535 194.028C246.431 194.988 244.967 195.468 243.143 195.468C241.751 195.468 240.683 195.144 239.939 194.496C239.219 193.848 238.799 192.984 238.679 191.904C238.775 191.592 238.943 191.352 239.183 191.184C239.447 190.992 239.723 190.896 240.011 190.896C240.539 190.896 240.923 191.04 241.163 191.328C241.427 191.592 241.619 191.976 241.739 192.48L242.135 194.028C242.207 194.052 242.279 194.064 242.351 194.064C242.447 194.064 242.543 194.064 242.639 194.064C243.887 194.064 244.859 193.788 245.555 193.236C246.251 192.684 246.599 191.94 246.599 191.004C246.599 190.428 246.467 189.876 246.203 189.348C245.939 188.82 245.291 188.184 244.259 187.44C243.371 186.744 242.615 186.036 241.991 185.316C241.391 184.572 241.091 183.636 241.091 182.508C241.091 181.572 241.331 180.72 241.811 179.952C242.291 179.184 242.951 178.584 243.791 178.152C244.655 177.696 245.663 177.468 246.815 177.468C247.871 177.468 248.783 177.708 249.551 178.188C250.319 178.644 250.835 179.46 251.099 180.636C250.883 181.308 250.427 181.644 249.731 181.644C248.891 181.644 248.279 181.08 247.895 179.952L247.571 178.908C247.499 178.884 247.415 178.872 247.319 178.872C247.247 178.872 247.163 178.872 247.067 178.872C245.819 178.872 244.931 179.16 244.403 179.736C243.899 180.312 243.647 181.008 243.647 181.824C243.647 182.568 243.827 183.192 244.187 183.696C244.571 184.176 245.279 184.8 246.311 185.568C247.391 186.384 248.147 187.128 248.579 187.8C249.011 188.448 249.227 189.3 249.227 190.356ZM251.615 200.724C252.023 198.876 252.419 196.992 252.803 195.072C253.187 193.152 253.571 191.232 253.955 189.312L255.611 180.672C255.995 178.776 256.367 176.88 256.727 174.984C257.087 173.064 257.423 171.156 257.735 169.26H264.539L264.251 170.7L260.075 171.168C259.763 172.704 259.439 174.276 259.103 175.884C258.791 177.468 258.479 179.064 258.167 180.672L256.511 189.312C256.199 190.872 255.887 192.456 255.575 194.064C255.263 195.648 254.975 197.232 254.711 198.816L258.707 199.284L258.419 200.724H251.615ZM265.663 191.004L268.075 179.7H264.403L264.655 178.26L268.543 177.9L270.235 173.076H272.071L271.027 177.936H275.599L275.311 179.88L270.667 179.736L268.471 190.068C268.255 191.028 268.147 191.724 268.147 192.156C268.147 192.42 268.231 192.624 268.399 192.768C268.591 192.912 268.795 192.984 269.011 192.984C269.923 192.984 271.099 192.12 272.539 190.392L273.439 191.076C272.935 191.796 272.359 192.492 271.711 193.164C271.063 193.836 270.367 194.388 269.623 194.82C268.879 195.252 268.099 195.468 267.283 195.468C266.755 195.468 266.287 195.312 265.879 195C265.495 194.688 265.303 194.232 265.303 193.632C265.303 193.368 265.327 193.056 265.375 192.696C265.423 192.312 265.519 191.748 265.663 191.004ZM285.934 169.26C285.526 171.108 285.13 172.992 284.746 174.912C284.362 176.832 283.978 178.752 283.594 180.672L281.938 189.312C281.554 191.208 281.182 193.104 280.822 195C280.486 196.92 280.15 198.828 279.814 200.724H273.01L273.298 199.284L277.474 198.816C277.81 197.256 278.134 195.684 278.446 194.1C278.758 192.516 279.07 190.92 279.382 189.312L281.038 180.672C281.35 179.112 281.662 177.54 281.974 175.956C282.286 174.348 282.574 172.752 282.838 171.168L278.842 170.7L279.13 169.26H285.934Z" fill="#FDA646"/>
</svg>
