<svg width="549" height="273" viewBox="0 0 549 273" fill="none" xmlns="http://www.w3.org/2000/svg">
<circle cx="262" cy="137" r="85" stroke="black" stroke-width="4"/>
<circle cx="262" cy="184" r="38" stroke="#3490FD" stroke-width="4"/>
<path d="M232.307 33L229.895 33.288L229.535 33L232.595 18.564L229.031 18.348L229.175 17.304L235.295 15.468L235.763 15.828L235.007 19.536C236.207 18.408 237.479 17.448 238.823 16.656C240.191 15.864 241.427 15.468 242.531 15.468C244.067 15.468 244.835 16.296 244.835 17.952C244.835 18.528 244.775 19.116 244.655 19.716C244.535 20.292 244.403 20.88 244.259 21.48L242.639 28.14C242.519 28.644 242.411 29.076 242.315 29.436C242.219 29.772 242.171 30.036 242.171 30.228C242.171 30.732 242.399 30.984 242.855 30.984C243.311 30.984 243.851 30.756 244.475 30.3C245.123 29.844 245.771 29.208 246.419 28.392L247.283 29.076C246.827 29.772 246.263 30.468 245.591 31.164C244.943 31.836 244.235 32.388 243.467 32.82C242.699 33.252 241.895 33.468 241.055 33.468C240.503 33.468 240.059 33.324 239.723 33.036C239.411 32.748 239.255 32.376 239.255 31.92C239.255 31.512 239.303 31.116 239.399 30.732C239.519 30.324 239.663 29.748 239.831 29.004L241.379 22.668C241.523 22.044 241.655 21.456 241.775 20.904C241.895 20.352 241.955 19.896 241.955 19.536C241.955 18.912 241.847 18.48 241.631 18.24C241.415 18 241.103 17.88 240.695 17.88C240.047 17.88 239.219 18.144 238.211 18.672C237.203 19.2 236.039 20.004 234.719 21.084L233.747 25.44C233.483 26.688 233.231 27.948 232.991 29.22C232.775 30.468 232.547 31.728 232.307 33ZM255.04 33.468C253.936 33.468 252.928 33.228 252.016 32.748C251.104 32.268 250.372 31.56 249.82 30.624C249.292 29.664 249.028 28.5 249.028 27.132C249.028 25.5 249.268 23.988 249.748 22.596C250.252 21.18 250.936 19.944 251.8 18.888C252.664 17.808 253.66 16.968 254.788 16.368C255.94 15.768 257.152 15.468 258.424 15.468C260.128 15.468 261.52 16.008 262.6 17.088C263.704 18.168 264.256 19.728 264.256 21.768C264.256 23.328 264.016 24.816 263.536 26.232C263.056 27.624 262.384 28.872 261.52 29.976C260.68 31.056 259.708 31.908 258.604 32.532C257.5 33.156 256.312 33.468 255.04 33.468ZM255.436 32.028C256.324 32.028 257.128 31.752 257.848 31.2C258.568 30.648 259.18 29.904 259.684 28.968C260.212 28.032 260.62 26.988 260.908 25.836C261.196 24.684 261.34 23.508 261.34 22.308C261.34 20.364 261.028 18.984 260.404 18.168C259.804 17.328 259.012 16.908 258.028 16.908C256.9 16.908 255.868 17.352 254.932 18.24C254.02 19.128 253.3 20.316 252.772 21.804C252.244 23.268 251.98 24.9 251.98 26.7C251.98 28.596 252.304 29.964 252.952 30.804C253.6 31.62 254.428 32.028 255.436 32.028ZM269.126 27.564C269.126 28.74 269.342 29.604 269.774 30.156C270.206 30.708 270.746 30.984 271.394 30.984C272.042 30.984 272.774 30.72 273.59 30.192C274.43 29.64 275.45 28.68 276.65 27.312L278.378 18.708C278.018 18.396 277.646 18.18 277.262 18.06C276.902 17.916 276.542 17.844 276.182 17.844C275.414 17.844 274.658 18.048 273.914 18.456C273.17 18.84 272.486 19.38 271.862 20.076C271.046 20.964 270.386 22.068 269.882 23.388C269.378 24.708 269.126 26.1 269.126 27.564ZM279.134 28.14C278.942 29.1 278.846 29.784 278.846 30.192C278.846 30.432 278.93 30.624 279.098 30.768C279.266 30.912 279.458 30.984 279.674 30.984C280.154 30.984 280.706 30.744 281.33 30.264C281.978 29.784 282.602 29.16 283.202 28.392L284.066 29.076C283.61 29.772 283.058 30.456 282.41 31.128C281.786 31.8 281.102 32.364 280.358 32.82C279.614 33.252 278.834 33.468 278.018 33.468C277.466 33.468 276.986 33.312 276.578 33C276.194 32.688 276.002 32.22 276.002 31.596C275.978 31.332 275.978 31.032 276.002 30.696C276.05 30.336 276.134 29.844 276.254 29.22C275.174 30.468 274.034 31.488 272.834 32.28C271.658 33.072 270.578 33.468 269.594 33.468C268.73 33.468 267.974 33.12 267.326 32.424C266.678 31.728 266.354 30.564 266.354 28.932C266.354 27.732 266.57 26.508 267.002 25.26C267.458 23.988 268.058 22.776 268.802 21.624C269.546 20.448 270.386 19.404 271.322 18.492C272.258 17.556 273.242 16.824 274.274 16.296C275.306 15.744 276.302 15.468 277.262 15.468C277.91 15.468 278.498 15.648 279.026 16.008L280.394 9.456L276.758 9.204L276.902 8.16L283.058 6.36L283.49 6.648L279.134 28.14ZM294.089 17.016C293.537 17.016 292.925 17.232 292.253 17.664C291.605 18.096 290.969 18.696 290.345 19.464C289.721 20.232 289.193 21.12 288.761 22.128C288.353 23.112 288.101 24.168 288.005 25.296C289.997 24.72 291.581 24.084 292.757 23.388C293.957 22.668 294.809 21.948 295.313 21.228C295.841 20.484 296.105 19.788 296.105 19.14C296.105 18.468 295.913 17.952 295.529 17.592C295.169 17.208 294.689 17.016 294.089 17.016ZM290.921 33.468C289.337 33.468 288.029 32.928 286.997 31.848C285.989 30.768 285.485 29.076 285.485 26.772C285.485 25.332 285.737 23.94 286.241 22.596C286.745 21.228 287.429 20.016 288.293 18.96C289.157 17.88 290.153 17.028 291.281 16.404C292.433 15.78 293.633 15.468 294.881 15.468C296.057 15.468 296.945 15.756 297.545 16.332C298.169 16.908 298.481 17.724 298.481 18.78C298.481 19.548 298.181 20.4 297.581 21.336C296.981 22.248 295.913 23.172 294.377 24.108C292.865 25.044 290.741 25.908 288.005 26.7C288.077 28.236 288.437 29.34 289.085 30.012C289.733 30.66 290.609 30.984 291.713 30.984C292.841 30.984 293.813 30.696 294.629 30.12C295.445 29.544 296.093 28.956 296.573 28.356L297.401 29.004C296.657 30.228 295.721 31.284 294.593 32.172C293.465 33.036 292.241 33.468 290.921 33.468Z" fill="black"/>
<path d="M430 131.5L415 122.84V140.16L430 131.5ZM177 131.5L162 122.84V140.16L177 131.5ZM347.5 133H416.5V130H347.5V133ZM94.5 133H163.5V130H94.5V133Z" fill="black"/>
<path d="M29.8552 136.912C29.9512 136.48 30.1552 136.156 30.4672 135.94C30.8032 135.724 31.1152 135.616 31.4032 135.616C31.7872 135.616 32.1112 135.7 32.3752 135.868C32.6392 136.012 32.9272 136.36 33.2392 136.912L33.6352 137.632C33.8512 137.464 34.0792 137.248 34.3192 136.984C35.1832 136.048 35.9872 135.088 36.7312 134.104C37.4752 133.12 38.2192 132.076 38.9632 130.972L37.4512 125.824C37.2352 125.08 37.0312 124.576 36.8392 124.312C36.6712 124.024 36.3952 123.88 36.0112 123.88C35.7712 123.88 35.4112 124.024 34.9312 124.312C34.4752 124.6 33.9352 125.272 33.3112 126.328L32.4832 125.716C33.1552 124.228 33.8872 123.148 34.6792 122.476C35.4712 121.804 36.2392 121.468 36.9832 121.468C37.6792 121.468 38.2312 121.696 38.6392 122.152C39.0712 122.608 39.4432 123.412 39.7552 124.564L40.8712 128.56C41.6392 127.336 42.3592 126.256 43.0312 125.32C43.7272 124.384 44.3032 123.64 44.7592 123.088C45.2872 122.464 45.7672 122.044 46.1992 121.828C46.6312 121.588 47.1352 121.468 47.7112 121.468C48.1912 121.468 48.6712 121.624 49.1512 121.936C49.6552 122.248 49.9792 122.728 50.1232 123.376C50.1232 123.88 49.9792 124.3 49.6912 124.636C49.4032 124.948 49.0552 125.104 48.6472 125.104C48.2872 125.104 47.9512 125.032 47.6392 124.888C47.3272 124.72 47.0032 124.384 46.6672 123.88L46.4512 123.592C46.3552 123.664 46.2712 123.748 46.1992 123.844C46.1272 123.94 46.0432 124.036 45.9472 124.132C45.1072 125.068 44.3032 126.028 43.5352 127.012C42.7672 127.996 42.0232 129.004 41.3032 130.036L42.5632 134.608C42.8272 135.592 43.1032 136.24 43.3912 136.552C43.7032 136.84 44.1112 136.984 44.6152 136.984C45.0952 136.984 45.6232 136.756 46.1992 136.3C46.7992 135.844 47.4232 135.208 48.0712 134.392L48.9712 135.076C48.1072 136.348 47.1712 137.404 46.1632 138.244C45.1552 139.06 44.1712 139.468 43.2112 139.468C42.6832 139.468 42.2152 139.3 41.8072 138.964C41.3992 138.604 41.0392 137.908 40.7272 136.876L39.3952 132.412C38.6512 133.612 37.9432 134.704 37.2712 135.688C36.5992 136.648 35.9512 137.5 35.3272 138.244C34.9432 138.7 34.5472 139.012 34.1392 139.18C33.7312 139.372 33.2872 139.468 32.8072 139.468C32.0872 139.468 31.4272 139.264 30.8272 138.856C30.2512 138.424 29.9272 137.776 29.8552 136.912ZM49.9631 144.724C50.3711 142.876 50.7671 140.992 51.1511 139.072C51.5351 137.152 51.9191 135.232 52.3031 133.312L53.9591 124.672C54.3431 122.776 54.7151 120.88 55.0751 118.984C55.4351 117.064 55.7711 115.156 56.0831 113.26H62.8871L62.5991 114.7L58.4231 115.168C58.1111 116.704 57.7871 118.276 57.4511 119.884C57.1391 121.468 56.8271 123.064 56.5151 124.672L54.8591 133.312C54.5471 134.872 54.2351 136.456 53.9231 138.064C53.6111 139.648 53.3231 141.232 53.0591 142.816L57.0551 143.284L56.7671 144.724H49.9631ZM64.0102 135.004L66.4222 123.7H62.7502L63.0022 122.26L66.8902 121.9L68.5822 117.076H70.4182L69.3742 121.936H73.9462L73.6582 123.88L69.0142 123.736L66.8182 134.068C66.6022 135.028 66.4942 135.724 66.4942 136.156C66.4942 136.42 66.5782 136.624 66.7462 136.768C66.9382 136.912 67.1422 136.984 67.3582 136.984C68.2702 136.984 69.4462 136.12 70.8862 134.392L71.7862 135.076C71.2822 135.796 70.7062 136.492 70.0582 137.164C69.4102 137.836 68.7142 138.388 67.9702 138.82C67.2262 139.252 66.4462 139.468 65.6302 139.468C65.1022 139.468 64.6342 139.312 64.2262 139C63.8422 138.688 63.6502 138.232 63.6502 137.632C63.6502 137.368 63.6742 137.056 63.7222 136.696C63.7702 136.312 63.8662 135.748 64.0102 135.004ZM84.2818 113.26C83.8738 115.108 83.4778 116.992 83.0938 118.912C82.7098 120.832 82.3258 122.752 81.9418 124.672L80.2858 133.312C79.9018 135.208 79.5298 137.104 79.1698 139C78.8338 140.92 78.4978 142.828 78.1618 144.724H71.3578L71.6458 143.284L75.8218 142.816C76.1578 141.256 76.4818 139.684 76.7938 138.1C77.1058 136.516 77.4178 134.92 77.7298 133.312L79.3858 124.672C79.6978 123.112 80.0098 121.54 80.3218 119.956C80.6338 118.348 80.9218 116.752 81.1858 115.168L77.1898 114.7L77.4778 113.26H84.2818Z" fill="black"/>
<path d="M270.529 93C271.585 93 272.485 93.276 273.229 93.828C273.997 94.356 274.453 94.956 274.597 95.628C274.357 96.444 273.889 96.852 273.193 96.852C272.665 96.852 272.197 96.696 271.789 96.384C271.405 96.072 270.925 95.568 270.349 94.872L269.773 94.188C269.173 94.452 268.597 94.896 268.045 95.52C267.493 96.12 266.989 96.984 266.533 98.112C266.101 99.216 265.729 100.692 265.417 102.54C265.393 102.612 265.381 102.684 265.381 102.756C265.381 102.804 265.369 102.864 265.345 102.936H269.989L269.701 104.844L265.057 104.7C264.673 106.98 264.289 109.32 263.905 111.72C263.521 114.12 263.101 116.46 262.645 118.74C262.261 120.66 261.793 122.328 261.241 123.744C260.713 125.16 259.945 126.324 258.937 127.236C258.193 127.908 257.521 128.364 256.921 128.604C256.297 128.868 255.697 129 255.121 129C254.305 129 253.585 128.796 252.961 128.388C252.337 127.98 251.941 127.44 251.773 126.768C251.845 126.384 252.049 126.072 252.385 125.832C252.697 125.592 253.045 125.472 253.429 125.472C253.957 125.472 254.437 125.616 254.869 125.904C255.277 126.192 255.673 126.54 256.057 126.948L256.489 127.38C256.729 127.188 256.969 126.96 257.209 126.696C257.473 126.456 257.725 126.168 257.965 125.832C258.421 125.16 258.817 124.272 259.153 123.168C259.489 122.088 259.825 120.612 260.161 118.74C260.593 116.316 260.989 113.964 261.349 111.684C261.733 109.404 262.117 107.052 262.501 104.628H258.757L259.045 103.26L262.789 102.936L262.825 102.612C263.137 100.62 263.593 99 264.193 97.752C264.817 96.48 265.501 95.508 266.245 94.836C267.013 94.14 267.769 93.66 268.513 93.396C269.281 93.132 269.953 93 270.529 93Z" fill="black"/>
<path d="M256 222.5L249.569 238.582L266.712 236.111L256 222.5ZM347.5 133C370.876 133 388.059 150.462 394.875 173.304C401.686 196.131 397.984 223.941 379.886 243.995L382.114 246.005C401.016 225.059 404.814 196.119 397.75 172.446C390.691 148.788 372.624 130 347.5 130V133ZM379.886 243.995C363.381 262.285 336.372 270.59 311.802 268.994C287.186 267.395 265.636 255.939 259.36 235.422L256.492 236.299C263.291 258.53 286.396 270.35 311.607 271.988C336.864 273.628 364.855 265.129 382.114 246.005L379.886 243.995Z" fill="#3490FD"/>
<path d="M451.989 134.356C451.989 135.844 451.425 137.068 450.297 138.028C449.193 138.988 447.729 139.468 445.905 139.468C444.513 139.468 443.445 139.144 442.701 138.496C441.981 137.848 441.561 136.984 441.441 135.904C441.537 135.592 441.705 135.352 441.945 135.184C442.209 134.992 442.485 134.896 442.773 134.896C443.301 134.896 443.685 135.04 443.925 135.328C444.189 135.592 444.381 135.976 444.501 136.48L444.897 138.028C444.969 138.052 445.041 138.064 445.113 138.064C445.209 138.064 445.305 138.064 445.401 138.064C446.649 138.064 447.621 137.788 448.317 137.236C449.013 136.684 449.361 135.94 449.361 135.004C449.361 134.428 449.229 133.876 448.965 133.348C448.701 132.82 448.053 132.184 447.021 131.44C446.133 130.744 445.377 130.036 444.753 129.316C444.153 128.572 443.853 127.636 443.853 126.508C443.853 125.572 444.093 124.72 444.573 123.952C445.053 123.184 445.713 122.584 446.553 122.152C447.417 121.696 448.425 121.468 449.577 121.468C450.633 121.468 451.545 121.708 452.313 122.188C453.081 122.644 453.597 123.46 453.861 124.636C453.645 125.308 453.189 125.644 452.493 125.644C451.653 125.644 451.041 125.08 450.657 123.952L450.333 122.908C450.261 122.884 450.177 122.872 450.081 122.872C450.009 122.872 449.925 122.872 449.829 122.872C448.581 122.872 447.693 123.16 447.165 123.736C446.661 124.312 446.409 125.008 446.409 125.824C446.409 126.568 446.589 127.192 446.949 127.696C447.333 128.176 448.041 128.8 449.073 129.568C450.153 130.384 450.909 131.128 451.341 131.8C451.773 132.448 451.989 133.3 451.989 134.356ZM454.377 144.724C454.785 142.876 455.181 140.992 455.565 139.072C455.949 137.152 456.333 135.232 456.717 133.312L458.373 124.672C458.757 122.776 459.129 120.88 459.489 118.984C459.849 117.064 460.185 115.156 460.497 113.26H467.301L467.013 114.7L462.837 115.168C462.525 116.704 462.201 118.276 461.865 119.884C461.553 121.468 461.241 123.064 460.929 124.672L459.273 133.312C458.961 134.872 458.649 136.456 458.337 138.064C458.025 139.648 457.737 141.232 457.473 142.816L461.469 143.284L461.181 144.724H454.377ZM468.424 135.004L470.836 123.7H467.164L467.416 122.26L471.304 121.9L472.996 117.076H474.832L473.788 121.936H478.36L478.072 123.88L473.428 123.736L471.232 134.068C471.016 135.028 470.908 135.724 470.908 136.156C470.908 136.42 470.992 136.624 471.16 136.768C471.352 136.912 471.556 136.984 471.772 136.984C472.684 136.984 473.86 136.12 475.3 134.392L476.2 135.076C475.696 135.796 475.12 136.492 474.472 137.164C473.824 137.836 473.128 138.388 472.384 138.82C471.64 139.252 470.86 139.468 470.044 139.468C469.516 139.468 469.048 139.312 468.64 139C468.256 138.688 468.064 138.232 468.064 137.632C468.064 137.368 468.088 137.056 468.136 136.696C468.184 136.312 468.28 135.748 468.424 135.004ZM485.78 135.688V128.092H478.796V126.184H485.78V118.732H487.832V126.184H494.78V128.092H487.832V135.688H485.78ZM502.098 117.292L509.694 115.384L510.09 115.744L508.902 120.892L506.778 131.404C506.586 132.364 506.394 133.336 506.202 134.32C506.01 135.28 505.818 136.24 505.626 137.2L510.99 137.74L510.702 139H497.67L497.922 137.74L502.962 137.236L506.778 118.336L501.81 118.732L502.098 117.292ZM526.172 113.26C525.764 115.108 525.368 116.992 524.984 118.912C524.6 120.832 524.216 122.752 523.832 124.672L522.176 133.312C521.792 135.208 521.42 137.104 521.06 139C520.724 140.92 520.388 142.828 520.052 144.724H513.248L513.536 143.284L517.712 142.816C518.048 141.256 518.372 139.684 518.684 138.1C518.996 136.516 519.308 134.92 519.62 133.312L521.276 124.672C521.588 123.112 521.9 121.54 522.212 119.956C522.524 118.348 522.812 116.752 523.076 115.168L519.08 114.7L519.368 113.26H526.172Z" fill="#3490FD"/>
<path d="M241.326 187.904C241.326 188.896 240.95 189.712 240.198 190.352C239.462 190.992 238.486 191.312 237.27 191.312C236.342 191.312 235.63 191.096 235.134 190.664C234.654 190.232 234.374 189.656 234.294 188.936C234.358 188.728 234.47 188.568 234.63 188.456C234.806 188.328 234.99 188.264 235.182 188.264C235.534 188.264 235.79 188.36 235.95 188.552C236.126 188.728 236.254 188.984 236.334 189.32L236.598 190.352C236.646 190.368 236.694 190.376 236.742 190.376C236.806 190.376 236.87 190.376 236.934 190.376C237.766 190.376 238.414 190.192 238.878 189.824C239.342 189.456 239.574 188.96 239.574 188.336C239.574 187.952 239.486 187.584 239.31 187.232C239.134 186.88 238.702 186.456 238.014 185.96C237.422 185.496 236.918 185.024 236.502 184.544C236.102 184.048 235.902 183.424 235.902 182.672C235.902 182.048 236.062 181.48 236.382 180.968C236.702 180.456 237.142 180.056 237.702 179.768C238.278 179.464 238.95 179.312 239.718 179.312C240.422 179.312 241.03 179.472 241.542 179.792C242.054 180.096 242.398 180.64 242.574 181.424C242.43 181.872 242.126 182.096 241.662 182.096C241.102 182.096 240.694 181.72 240.438 180.968L240.222 180.272C240.174 180.256 240.118 180.248 240.054 180.248C240.006 180.248 239.95 180.248 239.886 180.248C239.054 180.248 238.462 180.44 238.11 180.824C237.774 181.208 237.606 181.672 237.606 182.216C237.606 182.712 237.726 183.128 237.966 183.464C238.222 183.784 238.694 184.2 239.382 184.712C240.102 185.256 240.606 185.752 240.894 186.2C241.182 186.632 241.326 187.2 241.326 187.904ZM242.918 194.816C243.19 193.584 243.454 192.328 243.71 191.048C243.966 189.768 244.222 188.488 244.478 187.208L245.582 181.448C245.838 180.184 246.086 178.92 246.326 177.656C246.566 176.376 246.79 175.104 246.998 173.84H251.534L251.342 174.8L248.558 175.112C248.35 176.136 248.134 177.184 247.91 178.256C247.702 179.312 247.494 180.376 247.286 181.448L246.182 187.208C245.974 188.248 245.766 189.304 245.558 190.376C245.35 191.432 245.158 192.488 244.982 193.544L247.646 193.856L247.454 194.816H242.918ZM252.283 188.336L253.891 180.8H251.443L251.611 179.84L254.203 179.6L255.331 176.384H256.555L255.859 179.624H258.907L258.715 180.92L255.619 180.824L254.155 187.712C254.011 188.352 253.939 188.816 253.939 189.104C253.939 189.28 253.995 189.416 254.107 189.512C254.235 189.608 254.371 189.656 254.515 189.656C255.123 189.656 255.907 189.08 256.867 187.928L257.467 188.384C257.131 188.864 256.747 189.328 256.315 189.776C255.883 190.224 255.419 190.592 254.923 190.88C254.427 191.168 253.907 191.312 253.363 191.312C253.011 191.312 252.699 191.208 252.427 191C252.171 190.792 252.043 190.488 252.043 190.088C252.043 189.912 252.059 189.704 252.091 189.464C252.123 189.208 252.187 188.832 252.283 188.336ZM263.853 188.792V183.728H259.197V182.456H263.853V177.488H265.221V182.456H269.853V183.728H265.221V188.792H263.853ZM274.732 176.528L279.796 175.256L280.06 175.496L279.268 178.928L277.852 185.936C277.724 186.576 277.596 187.224 277.468 187.88C277.34 188.52 277.212 189.16 277.084 189.8L280.66 190.16L280.468 191H271.78L271.948 190.16L275.308 189.824L277.852 177.224L274.54 177.488L274.732 176.528ZM290.782 173.84C290.51 175.072 290.246 176.328 289.99 177.608C289.734 178.888 289.478 180.168 289.222 181.448L288.118 187.208C287.862 188.472 287.614 189.736 287.374 191C287.15 192.28 286.926 193.552 286.702 194.816H282.166L282.358 193.856L285.142 193.544C285.366 192.504 285.582 191.456 285.79 190.4C285.998 189.344 286.206 188.28 286.414 187.208L287.518 181.448C287.726 180.408 287.934 179.36 288.142 178.304C288.35 177.232 288.542 176.168 288.718 175.112L286.054 174.8L286.246 173.84H290.782Z" fill="#3490FD"/>
</svg>
