<svg width="174" height="224" viewBox="0 0 174 224" fill="none" xmlns="http://www.w3.org/2000/svg">
<circle cx="87" cy="137" r="85" stroke="black" stroke-width="4"/>
<circle cx="86.5" cy="184.5" r="37.5" stroke="#FDA646" stroke-width="4"/>
<path d="M57.3068 33L54.8948 33.288L54.5348 33L57.5948 18.564L54.0308 18.348L54.1748 17.304L60.2948 15.468L60.7628 15.828L60.0068 19.536C61.2068 18.408 62.4788 17.448 63.8228 16.656C65.1908 15.864 66.4268 15.468 67.5308 15.468C69.0668 15.468 69.8348 16.296 69.8348 17.952C69.8348 18.528 69.7748 19.116 69.6548 19.716C69.5348 20.292 69.4028 20.88 69.2588 21.48L67.6388 28.14C67.5188 28.644 67.4108 29.076 67.3148 29.436C67.2188 29.772 67.1708 30.036 67.1708 30.228C67.1708 30.732 67.3988 30.984 67.8548 30.984C68.3108 30.984 68.8508 30.756 69.4748 30.3C70.1228 29.844 70.7708 29.208 71.4188 28.392L72.2828 29.076C71.8268 29.772 71.2628 30.468 70.5908 31.164C69.9428 31.836 69.2348 32.388 68.4668 32.82C67.6988 33.252 66.8948 33.468 66.0548 33.468C65.5028 33.468 65.0588 33.324 64.7228 33.036C64.4108 32.748 64.2548 32.376 64.2548 31.92C64.2548 31.512 64.3028 31.116 64.3988 30.732C64.5188 30.324 64.6628 29.748 64.8308 29.004L66.3788 22.668C66.5228 22.044 66.6548 21.456 66.7748 20.904C66.8948 20.352 66.9548 19.896 66.9548 19.536C66.9548 18.912 66.8468 18.48 66.6308 18.24C66.4148 18 66.1028 17.88 65.6948 17.88C65.0468 17.88 64.2188 18.144 63.2108 18.672C62.2028 19.2 61.0388 20.004 59.7188 21.084L58.7468 25.44C58.4828 26.688 58.2308 27.948 57.9908 29.22C57.7748 30.468 57.5468 31.728 57.3068 33ZM80.04 33.468C78.936 33.468 77.928 33.228 77.016 32.748C76.104 32.268 75.372 31.56 74.82 30.624C74.292 29.664 74.028 28.5 74.028 27.132C74.028 25.5 74.268 23.988 74.748 22.596C75.252 21.18 75.936 19.944 76.8 18.888C77.664 17.808 78.66 16.968 79.788 16.368C80.94 15.768 82.152 15.468 83.424 15.468C85.128 15.468 86.52 16.008 87.6 17.088C88.704 18.168 89.256 19.728 89.256 21.768C89.256 23.328 89.016 24.816 88.536 26.232C88.056 27.624 87.384 28.872 86.52 29.976C85.68 31.056 84.708 31.908 83.604 32.532C82.5 33.156 81.312 33.468 80.04 33.468ZM80.436 32.028C81.324 32.028 82.128 31.752 82.848 31.2C83.568 30.648 84.18 29.904 84.684 28.968C85.212 28.032 85.62 26.988 85.908 25.836C86.196 24.684 86.34 23.508 86.34 22.308C86.34 20.364 86.028 18.984 85.404 18.168C84.804 17.328 84.012 16.908 83.028 16.908C81.9 16.908 80.868 17.352 79.932 18.24C79.02 19.128 78.3 20.316 77.772 21.804C77.244 23.268 76.98 24.9 76.98 26.7C76.98 28.596 77.304 29.964 77.952 30.804C78.6 31.62 79.428 32.028 80.436 32.028ZM94.1261 27.564C94.1261 28.74 94.3421 29.604 94.7741 30.156C95.2061 30.708 95.7461 30.984 96.3941 30.984C97.0421 30.984 97.7741 30.72 98.5901 30.192C99.4301 29.64 100.45 28.68 101.65 27.312L103.378 18.708C103.018 18.396 102.646 18.18 102.262 18.06C101.902 17.916 101.542 17.844 101.182 17.844C100.414 17.844 99.6581 18.048 98.9141 18.456C98.1701 18.84 97.4861 19.38 96.8621 20.076C96.0461 20.964 95.3861 22.068 94.8821 23.388C94.3781 24.708 94.1261 26.1 94.1261 27.564ZM104.134 28.14C103.942 29.1 103.846 29.784 103.846 30.192C103.846 30.432 103.93 30.624 104.098 30.768C104.266 30.912 104.458 30.984 104.674 30.984C105.154 30.984 105.706 30.744 106.33 30.264C106.978 29.784 107.602 29.16 108.202 28.392L109.066 29.076C108.61 29.772 108.058 30.456 107.41 31.128C106.786 31.8 106.102 32.364 105.358 32.82C104.614 33.252 103.834 33.468 103.018 33.468C102.466 33.468 101.986 33.312 101.578 33C101.194 32.688 101.002 32.22 101.002 31.596C100.978 31.332 100.978 31.032 101.002 30.696C101.05 30.336 101.134 29.844 101.254 29.22C100.174 30.468 99.0341 31.488 97.8341 32.28C96.6581 33.072 95.5781 33.468 94.5941 33.468C93.7301 33.468 92.9741 33.12 92.3261 32.424C91.6781 31.728 91.3541 30.564 91.3541 28.932C91.3541 27.732 91.5701 26.508 92.0021 25.26C92.4581 23.988 93.0581 22.776 93.8021 21.624C94.5461 20.448 95.3861 19.404 96.3221 18.492C97.2581 17.556 98.2421 16.824 99.2741 16.296C100.306 15.744 101.302 15.468 102.262 15.468C102.91 15.468 103.498 15.648 104.026 16.008L105.394 9.456L101.758 9.204L101.902 8.16L108.058 6.36L108.49 6.648L104.134 28.14ZM119.089 17.016C118.537 17.016 117.925 17.232 117.253 17.664C116.605 18.096 115.969 18.696 115.345 19.464C114.721 20.232 114.193 21.12 113.761 22.128C113.353 23.112 113.101 24.168 113.005 25.296C114.997 24.72 116.581 24.084 117.757 23.388C118.957 22.668 119.809 21.948 120.313 21.228C120.841 20.484 121.105 19.788 121.105 19.14C121.105 18.468 120.913 17.952 120.529 17.592C120.169 17.208 119.689 17.016 119.089 17.016ZM115.921 33.468C114.337 33.468 113.029 32.928 111.997 31.848C110.989 30.768 110.485 29.076 110.485 26.772C110.485 25.332 110.737 23.94 111.241 22.596C111.745 21.228 112.429 20.016 113.293 18.96C114.157 17.88 115.153 17.028 116.281 16.404C117.433 15.78 118.633 15.468 119.881 15.468C121.057 15.468 121.945 15.756 122.545 16.332C123.169 16.908 123.481 17.724 123.481 18.78C123.481 19.548 123.181 20.4 122.581 21.336C121.981 22.248 120.913 23.172 119.377 24.108C117.865 25.044 115.741 25.908 113.005 26.7C113.077 28.236 113.437 29.34 114.085 30.012C114.733 30.66 115.609 30.984 116.713 30.984C117.841 30.984 118.813 30.696 119.629 30.12C120.445 29.544 121.093 28.956 121.573 28.356L122.401 29.004C121.657 30.228 120.721 31.284 119.593 32.172C118.465 33.036 117.241 33.468 115.921 33.468Z" fill="black"/>
<path d="M95.529 93C96.585 93 97.485 93.276 98.229 93.828C98.997 94.356 99.453 94.956 99.597 95.628C99.357 96.444 98.889 96.852 98.193 96.852C97.665 96.852 97.197 96.696 96.789 96.384C96.405 96.072 95.925 95.568 95.349 94.872L94.773 94.188C94.173 94.452 93.597 94.896 93.045 95.52C92.493 96.12 91.989 96.984 91.533 98.112C91.101 99.216 90.729 100.692 90.417 102.54C90.393 102.612 90.381 102.684 90.381 102.756C90.381 102.804 90.369 102.864 90.345 102.936H94.989L94.701 104.844L90.057 104.7C89.673 106.98 89.289 109.32 88.905 111.72C88.521 114.12 88.101 116.46 87.645 118.74C87.261 120.66 86.793 122.328 86.241 123.744C85.713 125.16 84.945 126.324 83.937 127.236C83.193 127.908 82.521 128.364 81.921 128.604C81.297 128.868 80.697 129 80.121 129C79.305 129 78.585 128.796 77.961 128.388C77.337 127.98 76.941 127.44 76.773 126.768C76.845 126.384 77.049 126.072 77.385 125.832C77.697 125.592 78.045 125.472 78.429 125.472C78.957 125.472 79.437 125.616 79.869 125.904C80.277 126.192 80.673 126.54 81.057 126.948L81.489 127.38C81.729 127.188 81.969 126.96 82.209 126.696C82.473 126.456 82.725 126.168 82.965 125.832C83.421 125.16 83.817 124.272 84.153 123.168C84.489 122.088 84.825 120.612 85.161 118.74C85.593 116.316 85.989 113.964 86.349 111.684C86.733 109.404 87.117 107.052 87.501 104.628H83.757L84.045 103.26L87.789 102.936L87.825 102.612C88.137 100.62 88.593 99 89.193 97.752C89.817 96.48 90.501 95.508 91.245 94.836C92.013 94.14 92.769 93.66 93.513 93.396C94.281 93.132 94.953 93 95.529 93Z" fill="black"/>
<path d="M74.2268 190.356C74.2268 191.844 73.6628 193.068 72.5348 194.028C71.4308 194.988 69.9668 195.468 68.1428 195.468C66.7508 195.468 65.6828 195.144 64.9388 194.496C64.2188 193.848 63.7988 192.984 63.6788 191.904C63.7748 191.592 63.9428 191.352 64.1828 191.184C64.4468 190.992 64.7228 190.896 65.0108 190.896C65.5388 190.896 65.9228 191.04 66.1628 191.328C66.4268 191.592 66.6188 191.976 66.7388 192.48L67.1348 194.028C67.2068 194.052 67.2788 194.064 67.3508 194.064C67.4468 194.064 67.5428 194.064 67.6388 194.064C68.8868 194.064 69.8588 193.788 70.5548 193.236C71.2508 192.684 71.5988 191.94 71.5988 191.004C71.5988 190.428 71.4668 189.876 71.2028 189.348C70.9388 188.82 70.2908 188.184 69.2588 187.44C68.3708 186.744 67.6148 186.036 66.9908 185.316C66.3908 184.572 66.0908 183.636 66.0908 182.508C66.0908 181.572 66.3308 180.72 66.8108 179.952C67.2908 179.184 67.9508 178.584 68.7908 178.152C69.6548 177.696 70.6628 177.468 71.8148 177.468C72.8708 177.468 73.7828 177.708 74.5508 178.188C75.3188 178.644 75.8348 179.46 76.0988 180.636C75.8828 181.308 75.4268 181.644 74.7308 181.644C73.8908 181.644 73.2788 181.08 72.8948 179.952L72.5708 178.908C72.4988 178.884 72.4148 178.872 72.3188 178.872C72.2468 178.872 72.1628 178.872 72.0668 178.872C70.8188 178.872 69.9308 179.16 69.4028 179.736C68.8988 180.312 68.6468 181.008 68.6468 181.824C68.6468 182.568 68.8268 183.192 69.1868 183.696C69.5708 184.176 70.2788 184.8 71.3108 185.568C72.3908 186.384 73.1468 187.128 73.5788 187.8C74.0108 188.448 74.2268 189.3 74.2268 190.356ZM76.6155 200.724C77.0235 198.876 77.4195 196.992 77.8035 195.072C78.1875 193.152 78.5715 191.232 78.9555 189.312L80.6115 180.672C80.9955 178.776 81.3675 176.88 81.7275 174.984C82.0875 173.064 82.4235 171.156 82.7355 169.26H89.5395L89.2515 170.7L85.0755 171.168C84.7635 172.704 84.4395 174.276 84.1035 175.884C83.7915 177.468 83.4795 179.064 83.1675 180.672L81.5115 189.312C81.1995 190.872 80.8875 192.456 80.5755 194.064C80.2635 195.648 79.9755 197.232 79.7115 198.816L83.7075 199.284L83.4195 200.724H76.6155ZM90.6625 191.004L93.0745 179.7H89.4025L89.6545 178.26L93.5425 177.9L95.2345 173.076H97.0705L96.0265 177.936H100.599L100.311 179.88L95.6665 179.736L93.4705 190.068C93.2545 191.028 93.1465 191.724 93.1465 192.156C93.1465 192.42 93.2305 192.624 93.3985 192.768C93.5905 192.912 93.7945 192.984 94.0105 192.984C94.9225 192.984 96.0985 192.12 97.5385 190.392L98.4385 191.076C97.9345 191.796 97.3585 192.492 96.7105 193.164C96.0625 193.836 95.3665 194.388 94.6225 194.82C93.8785 195.252 93.0985 195.468 92.2825 195.468C91.7545 195.468 91.2865 195.312 90.8785 195C90.4945 194.688 90.3025 194.232 90.3025 193.632C90.3025 193.368 90.3265 193.056 90.3745 192.696C90.4225 192.312 90.5185 191.748 90.6625 191.004ZM110.934 169.26C110.526 171.108 110.13 172.992 109.746 174.912C109.362 176.832 108.978 178.752 108.594 180.672L106.938 189.312C106.554 191.208 106.182 193.104 105.822 195C105.486 196.92 105.15 198.828 104.814 200.724H98.0102L98.2982 199.284L102.474 198.816C102.81 197.256 103.134 195.684 103.446 194.1C103.758 192.516 104.07 190.92 104.382 189.312L106.038 180.672C106.35 179.112 106.662 177.54 106.974 175.956C107.286 174.348 107.574 172.752 107.838 171.168L103.842 170.7L104.13 169.26H110.934Z" fill="#FDA646"/>
</svg>
