<svg width="457" height="227" viewBox="0 0 457 227" fill="none" xmlns="http://www.w3.org/2000/svg">
<circle cx="333.986" cy="52.5385" r="14.8029" stroke="black"/>
<circle cx="368.765" cy="91.4914" r="14.8029" stroke="black"/>
<circle cx="349.288" cy="149.921" r="14.8029" stroke="black"/>
<circle cx="423.021" cy="98.4474" r="14.8029" stroke="black"/>
<circle cx="403.544" cy="184.7" r="14.8029" stroke="black"/>
<circle cx="353.462" cy="208.35" r="14.8029" stroke="black"/>
<circle cx="322.856" cy="99.8386" r="14.8029" stroke="black"/>
<circle cx="411.891" cy="59.4946" r="14.8029" stroke="black"/>
<circle cx="399.37" cy="141.574" r="14.8029" stroke="black"/>
<circle cx="441.106" cy="154.094" r="14.8029" stroke="black"/>
<circle cx="313.117" cy="186.091" r="14.8029" stroke="black"/>
<circle cx="288.076" cy="126.271" r="14.8029" stroke="black"/>
<circle cx="205.303" cy="125.206" r="14.8029" stroke="black"/>
<path d="M299.115 182.349C299.388 182.306 299.574 182.05 299.53 181.777L298.826 177.332C298.783 177.06 298.527 176.874 298.254 176.917C297.981 176.96 297.795 177.216 297.839 177.489L298.465 181.44L294.514 182.066C294.241 182.109 294.055 182.365 294.098 182.638C294.141 182.91 294.398 183.097 294.67 183.053L299.115 182.349ZM220.311 125.284L298.743 182.26L299.33 181.451L220.899 124.475L220.311 125.284Z" fill="#FFD600"/>
<path d="M319.173 57.4968C319.222 57.2251 319.042 56.9649 318.77 56.9158L314.342 56.1142C314.071 56.065 313.81 56.2454 313.761 56.5171C313.712 56.7889 313.892 57.049 314.164 57.0982L318.1 57.8107L317.388 61.7467C317.338 62.0185 317.519 62.2786 317.791 62.3278C318.062 62.377 318.322 62.1966 318.372 61.9249L319.173 57.4968ZM221.584 125.348L318.966 57.8186L318.396 56.9969L221.014 124.527L221.584 125.348Z" fill="#FFD600"/>
<path d="M397.737 61.0972C397.854 60.8469 397.746 60.5494 397.496 60.4326L393.418 58.5297C393.168 58.4129 392.87 58.5211 392.753 58.7713C392.637 59.0215 392.745 59.3191 392.995 59.4358L396.62 61.1274L394.928 64.7521C394.811 65.0023 394.92 65.2999 395.17 65.4166C395.42 65.5334 395.718 65.4252 395.834 65.175L397.737 61.0972ZM221.472 125.35L397.455 61.3556L397.113 60.4158L221.13 124.41L221.472 125.35Z" fill="#FFD600"/>
<path d="M391.962 174.008C392.203 173.874 392.29 173.569 392.156 173.328L389.969 169.395C389.835 169.154 389.53 169.067 389.289 169.201C389.048 169.335 388.961 169.639 389.095 169.881L391.039 173.377L387.543 175.32C387.301 175.455 387.215 175.759 387.349 176C387.483 176.242 387.787 176.329 388.029 176.194L391.962 174.008ZM221.163 125.418L391.582 174.052L391.856 173.09L221.437 124.457L221.163 125.418Z" fill="#FFD600"/>
<path d="M310.802 109.757C310.901 109.499 310.772 109.21 310.515 109.11L306.314 107.495C306.057 107.396 305.767 107.525 305.668 107.782C305.569 108.04 305.698 108.329 305.955 108.428L309.689 109.864L308.253 113.598C308.154 113.855 308.282 114.145 308.54 114.244C308.798 114.343 309.087 114.214 309.186 113.957L310.802 109.757ZM298.018 115.599L310.538 110.034L310.132 109.12L297.611 114.685L298.018 115.599Z" fill="#4DAE57"/>
<path d="M307.404 171.266C307.667 171.348 307.948 171.202 308.03 170.938L309.372 166.643C309.455 166.379 309.308 166.099 309.044 166.016C308.781 165.934 308.5 166.081 308.418 166.345L307.225 170.163L303.407 168.969C303.143 168.887 302.863 169.034 302.781 169.298C302.698 169.561 302.845 169.842 303.109 169.924L307.404 171.266ZM291.807 141.806L307.11 171.021L307.996 170.557L292.693 141.342L291.807 141.806Z" fill="#4DAE57"/>
<path d="M431.17 165.262C431.191 164.987 430.985 164.747 430.71 164.726L426.223 164.38C425.948 164.359 425.708 164.565 425.687 164.841C425.665 165.116 425.871 165.356 426.147 165.377L430.135 165.684L429.828 169.672C429.807 169.948 430.013 170.188 430.288 170.209C430.564 170.231 430.804 170.024 430.825 169.749L431.17 165.262ZM416.39 178.124L430.997 165.604L430.346 164.844L415.739 177.365L416.39 178.124Z" fill="#4DAE57"/>
<path d="M390.103 190.435C390.196 190.175 390.062 189.888 389.802 189.795L385.568 188.271C385.308 188.177 385.021 188.312 384.928 188.572C384.834 188.832 384.969 189.118 385.229 189.212L388.993 190.566L387.638 194.33C387.544 194.59 387.679 194.876 387.939 194.97C388.199 195.063 388.485 194.929 388.579 194.669L390.103 190.435ZM366.195 201.847L389.845 190.718L389.419 189.813L365.77 200.942L366.195 201.847Z" fill="#4DAE57"/>
<path d="M388.618 182.247C388.799 182.039 388.778 181.723 388.57 181.541L385.179 178.583C384.971 178.402 384.655 178.423 384.473 178.631C384.292 178.84 384.313 179.155 384.521 179.337L387.536 181.966L384.906 184.981C384.725 185.189 384.746 185.505 384.954 185.686C385.162 185.868 385.478 185.846 385.66 185.638L388.618 182.247ZM327.063 186.591L388.275 182.417L388.207 181.419L326.995 185.593L327.063 186.591Z" fill="#4DAE57"/>
<path d="M328.849 67.5848C328.707 67.348 328.4 67.2712 328.163 67.4133L324.305 69.7285C324.068 69.8706 323.991 70.1777 324.133 70.4145C324.275 70.6513 324.582 70.7281 324.819 70.586L328.249 68.528L330.307 71.958C330.449 72.1948 330.756 72.2716 330.993 72.1295C331.23 71.9874 331.307 71.6803 331.165 71.4435L328.849 67.5848ZM324.732 84.6574L328.906 67.9633L327.936 67.7208L323.762 84.4149L324.732 84.6574Z" fill="#4DAE57"/>
<path d="M399.859 69.3393C399.917 69.0695 399.746 68.8032 399.476 68.7445L395.079 67.7886C394.809 67.7299 394.543 67.9011 394.484 68.1709C394.425 68.4408 394.597 68.7071 394.866 68.7657L398.775 69.6155L397.925 73.5242C397.867 73.794 398.038 74.0603 398.308 74.119C398.578 74.1776 398.844 74.0064 398.903 73.7366L399.859 69.3393ZM380.164 82.1743L399.64 69.6537L399.1 68.8125L379.623 81.3331L380.164 82.1743Z" fill="#4DAE57"/>
<path d="M391.023 37.9317L390.637 37.614L390.637 37.614L391.023 37.9317ZM410.195 43.8936C410.415 44.0613 410.729 44.0195 410.896 43.8002L413.63 40.2256C413.798 40.0062 413.756 39.6924 413.536 39.5247C413.317 39.3569 413.003 39.3988 412.836 39.6181L410.406 42.7955L407.228 40.3657C407.009 40.198 406.695 40.2398 406.527 40.4591C406.36 40.6785 406.402 40.9923 406.621 41.1601L410.195 43.8936ZM397.333 54.8239C390.747 54.1653 385.618 45.2861 391.409 38.2494L390.637 37.614C384.304 45.3094 389.907 55.0863 397.233 55.8189L397.333 54.8239ZM391.409 38.2494C394.313 34.7204 398.634 33.5625 402.389 34.5235C406.131 35.4812 409.335 38.5501 410.004 43.5625L410.995 43.4303C410.272 38.0089 406.769 34.6124 402.636 33.5547C398.516 32.5002 393.794 33.7769 390.637 37.614L391.409 38.2494Z" fill="#4DAE57"/>
<path d="M377.275 155.989L377.771 156.046L377.771 156.046L377.275 155.989ZM357.94 161.401C357.664 161.38 357.424 161.585 357.402 161.861L357.049 166.347C357.028 166.622 357.233 166.863 357.509 166.885C357.784 166.906 358.025 166.701 358.046 166.425L358.36 162.438L362.347 162.751C362.623 162.773 362.863 162.567 362.885 162.292C362.907 162.016 362.701 161.776 362.426 161.754L357.94 161.401ZM362.799 145.236C368.685 142.211 377.816 146.878 376.778 155.932L377.771 156.046C378.907 146.145 368.891 140.981 362.342 144.347L362.799 145.236ZM376.778 155.932C376.257 160.473 373.259 163.792 369.585 165.026C365.923 166.255 361.565 165.42 358.281 161.575L357.52 162.225C361.073 166.383 365.859 167.332 369.903 165.974C373.935 164.621 377.205 160.983 377.771 156.046L376.778 155.932Z" fill="#4DAE57"/>
<path d="M273.303 100.625L273.013 100.217L273.013 100.217L273.303 100.625ZM290.254 111.386C290.422 111.605 290.735 111.647 290.955 111.479L294.527 108.742C294.746 108.574 294.787 108.26 294.619 108.041C294.452 107.822 294.138 107.78 293.918 107.948L290.743 110.381L288.311 107.206C288.143 106.986 287.829 106.945 287.61 107.113C287.39 107.281 287.349 107.595 287.517 107.814L290.254 111.386ZM274.983 118.579C268.798 116.223 266.165 106.313 273.592 101.032L273.013 100.217C264.89 105.992 267.746 116.893 274.627 119.513L274.983 118.579ZM273.592 101.032C277.317 98.384 281.79 98.3944 285.164 100.302C288.526 102.204 290.818 106.003 290.155 111.016L291.146 111.147C291.864 105.725 289.37 101.532 285.656 99.432C281.954 97.3383 277.063 97.3378 273.013 100.217L273.592 101.032Z" fill="#4DAE57"/>
<path d="M354.539 93.206C354.717 92.9952 354.691 92.6797 354.48 92.5013L351.045 89.5946C350.834 89.4162 350.518 89.4425 350.34 89.6533C350.162 89.8641 350.188 90.1796 350.399 90.3579L353.452 92.9417L350.869 95.9953C350.69 96.2061 350.716 96.5216 350.927 96.6999C351.138 96.8783 351.454 96.852 351.632 96.6412L354.539 93.206ZM337.504 94.7724L354.199 93.3813L354.115 92.3847L337.421 93.7759L337.504 94.7724Z" fill="#4DAE57"/>
<path d="M315.505 171.096C315.674 171.314 315.989 171.353 316.207 171.184L319.759 168.421C319.977 168.251 320.016 167.937 319.846 167.719C319.677 167.501 319.363 167.462 319.145 167.631L315.987 170.087L313.532 166.93C313.362 166.712 313.048 166.673 312.83 166.842C312.612 167.012 312.573 167.326 312.742 167.544L315.505 171.096ZM322.359 115.08L315.403 170.727L316.396 170.851L323.352 115.204L322.359 115.08Z" fill="#4DAE57"/>
<path d="M399.667 155.084C399.445 154.92 399.132 154.967 398.968 155.189L396.293 158.808C396.129 159.03 396.176 159.343 396.398 159.507C396.62 159.671 396.933 159.624 397.098 159.402L399.475 156.185L402.692 158.563C402.914 158.727 403.227 158.68 403.391 158.458C403.555 158.236 403.508 157.923 403.286 157.759L399.667 155.084ZM401.951 169.324L399.865 155.412L398.876 155.56L400.963 169.472L401.951 169.324Z" fill="#4DAE57"/>
<path d="M349.605 164.837C349.391 164.662 349.076 164.694 348.901 164.907L346.051 168.39C345.877 168.604 345.908 168.919 346.122 169.094C346.336 169.269 346.651 169.237 346.825 169.023L349.358 165.928L352.454 168.461C352.668 168.635 352.983 168.604 353.158 168.39C353.333 168.176 353.301 167.861 353.087 167.687L349.605 164.837ZM352.568 192.998L349.786 165.174L348.79 165.274L351.573 193.097L352.568 192.998Z" fill="#4DAE57"/>
<path d="M425.98 110.501C425.722 110.403 425.433 110.533 425.335 110.791L423.739 114.998C423.641 115.257 423.771 115.545 424.029 115.643C424.288 115.741 424.576 115.611 424.674 115.353L426.093 111.613L429.833 113.032C430.091 113.13 430.38 113 430.478 112.742C430.576 112.483 430.446 112.195 430.187 112.097L425.98 110.501ZM438.779 138.587L426.259 110.763L425.347 111.173L437.867 138.997L438.779 138.587Z" fill="#4DAE57"/>
<path d="M383.78 92.4735C383.554 92.6319 383.499 92.9436 383.657 93.1698L386.238 96.8564C386.396 97.0826 386.708 97.1376 386.934 96.9793C387.16 96.8209 387.215 96.5092 387.057 96.2829L384.763 93.006L388.04 90.7122C388.266 90.5538 388.321 90.242 388.163 90.0158C388.005 89.7896 387.693 89.7346 387.467 89.8929L383.78 92.4735ZM407.804 96.5642L384.154 92.3907L383.98 93.3755L407.63 97.549L407.804 96.5642Z" fill="#4DAE57"/>
<path d="M400.368 126.58C400.539 126.797 400.853 126.835 401.07 126.665L404.609 123.884C404.826 123.714 404.863 123.399 404.693 123.182C404.522 122.965 404.208 122.927 403.991 123.098L400.845 125.569L398.374 122.424C398.204 122.207 397.889 122.169 397.672 122.34C397.455 122.51 397.417 122.825 397.588 123.042L400.368 126.58ZM406.525 74.0427L400.265 126.212L401.258 126.331L407.518 74.1619L406.525 74.0427Z" fill="#4DAE57"/>
<circle cx="288.5" cy="132.5" r="6.5" fill="#FDA646"/>
<circle cx="323.5" cy="105.5" r="6.5" fill="#FDA646"/>
<circle cx="334.5" cy="58.5" r="6.5" fill="#FDA646"/>
<circle cx="368.5" cy="97.5" r="6.5" fill="#FDA646"/>
<circle cx="412.5" cy="65.5" r="6.5" fill="#FDA646"/>
<circle cx="423.5" cy="104.5" r="6.5" fill="#FDA646"/>
<circle cx="441.5" cy="160.5" r="6.5" fill="#FDA646"/>
<circle cx="398.5" cy="147.5" r="6.5" fill="#FDA646"/>
<circle cx="348.5" cy="156.5" r="6.5" fill="#FDA646"/>
<circle cx="312.5" cy="191.5" r="6.5" fill="#FDA646"/>
<circle cx="353.5" cy="214.5" r="6.5" fill="#FDA646"/>
<circle cx="403.5" cy="190.5" r="6.5" fill="#FDA646"/>
<path d="M177 124.5L162 115.84V133.16L177 124.5ZM94.5 126H163.5V123H94.5V126Z" fill="black"/>
<path d="M29.8552 129.912C29.9512 129.48 30.1552 129.156 30.4672 128.94C30.8032 128.724 31.1152 128.616 31.4032 128.616C31.7872 128.616 32.1112 128.7 32.3752 128.868C32.6392 129.012 32.9272 129.36 33.2392 129.912L33.6352 130.632C33.8512 130.464 34.0792 130.248 34.3192 129.984C35.1832 129.048 35.9872 128.088 36.7312 127.104C37.4752 126.12 38.2192 125.076 38.9632 123.972L37.4512 118.824C37.2352 118.08 37.0312 117.576 36.8392 117.312C36.6712 117.024 36.3952 116.88 36.0112 116.88C35.7712 116.88 35.4112 117.024 34.9312 117.312C34.4752 117.6 33.9352 118.272 33.3112 119.328L32.4832 118.716C33.1552 117.228 33.8872 116.148 34.6792 115.476C35.4712 114.804 36.2392 114.468 36.9832 114.468C37.6792 114.468 38.2312 114.696 38.6392 115.152C39.0712 115.608 39.4432 116.412 39.7552 117.564L40.8712 121.56C41.6392 120.336 42.3592 119.256 43.0312 118.32C43.7272 117.384 44.3032 116.64 44.7592 116.088C45.2872 115.464 45.7672 115.044 46.1992 114.828C46.6312 114.588 47.1352 114.468 47.7112 114.468C48.1912 114.468 48.6712 114.624 49.1512 114.936C49.6552 115.248 49.9792 115.728 50.1232 116.376C50.1232 116.88 49.9792 117.3 49.6912 117.636C49.4032 117.948 49.0552 118.104 48.6472 118.104C48.2872 118.104 47.9512 118.032 47.6392 117.888C47.3272 117.72 47.0032 117.384 46.6672 116.88L46.4512 116.592C46.3552 116.664 46.2712 116.748 46.1992 116.844C46.1272 116.94 46.0432 117.036 45.9472 117.132C45.1072 118.068 44.3032 119.028 43.5352 120.012C42.7672 120.996 42.0232 122.004 41.3032 123.036L42.5632 127.608C42.8272 128.592 43.1032 129.24 43.3912 129.552C43.7032 129.84 44.1112 129.984 44.6152 129.984C45.0952 129.984 45.6232 129.756 46.1992 129.3C46.7992 128.844 47.4232 128.208 48.0712 127.392L48.9712 128.076C48.1072 129.348 47.1712 130.404 46.1632 131.244C45.1552 132.06 44.1712 132.468 43.2112 132.468C42.6832 132.468 42.2152 132.3 41.8072 131.964C41.3992 131.604 41.0392 130.908 40.7272 129.876L39.3952 125.412C38.6512 126.612 37.9432 127.704 37.2712 128.688C36.5992 129.648 35.9512 130.5 35.3272 131.244C34.9432 131.7 34.5472 132.012 34.1392 132.18C33.7312 132.372 33.2872 132.468 32.8072 132.468C32.0872 132.468 31.4272 132.264 30.8272 131.856C30.2512 131.424 29.9272 130.776 29.8552 129.912ZM49.9631 137.724C50.3711 135.876 50.7671 133.992 51.1511 132.072C51.5351 130.152 51.9191 128.232 52.3031 126.312L53.9591 117.672C54.3431 115.776 54.7151 113.88 55.0751 111.984C55.4351 110.064 55.7711 108.156 56.0831 106.26H62.8871L62.5991 107.7L58.4231 108.168C58.1111 109.704 57.7871 111.276 57.4511 112.884C57.1391 114.468 56.8271 116.064 56.5151 117.672L54.8591 126.312C54.5471 127.872 54.2351 129.456 53.9231 131.064C53.6111 132.648 53.3231 134.232 53.0591 135.816L57.0551 136.284L56.7671 137.724H49.9631ZM64.0102 128.004L66.4222 116.7H62.7502L63.0022 115.26L66.8902 114.9L68.5822 110.076H70.4182L69.3742 114.936H73.9462L73.6582 116.88L69.0142 116.736L66.8182 127.068C66.6022 128.028 66.4942 128.724 66.4942 129.156C66.4942 129.42 66.5782 129.624 66.7462 129.768C66.9382 129.912 67.1422 129.984 67.3582 129.984C68.2702 129.984 69.4462 129.12 70.8862 127.392L71.7862 128.076C71.2822 128.796 70.7062 129.492 70.0582 130.164C69.4102 130.836 68.7142 131.388 67.9702 131.82C67.2262 132.252 66.4462 132.468 65.6302 132.468C65.1022 132.468 64.6342 132.312 64.2262 132C63.8422 131.688 63.6502 131.232 63.6502 130.632C63.6502 130.368 63.6742 130.056 63.7222 129.696C63.7702 129.312 63.8662 128.748 64.0102 128.004ZM84.2818 106.26C83.8738 108.108 83.4778 109.992 83.0938 111.912C82.7098 113.832 82.3258 115.752 81.9418 117.672L80.2858 126.312C79.9018 128.208 79.5298 130.104 79.1698 132C78.8338 133.92 78.4978 135.828 78.1618 137.724H71.3578L71.6458 136.284L75.8218 135.816C76.1578 134.256 76.4818 132.684 76.7938 131.1C77.1058 129.516 77.4178 127.92 77.7298 126.312L79.3858 117.672C79.6978 116.112 80.0098 114.54 80.3218 112.956C80.6338 111.348 80.9218 109.752 81.1858 108.168L77.1898 107.7L77.4778 106.26H84.2818Z" fill="black"/>
</svg>
