<svg width="584" height="227" viewBox="0 0 584 227" fill="none" xmlns="http://www.w3.org/2000/svg">
<circle cx="333.986" cy="52.5385" r="14.8029" stroke="black"/>
<circle cx="368.765" cy="91.4914" r="14.8029" stroke="black"/>
<circle cx="349.288" cy="149.921" r="14.8029" stroke="black"/>
<circle cx="423.021" cy="98.4474" r="14.8029" stroke="black"/>
<circle cx="403.544" cy="184.7" r="14.8029" stroke="black"/>
<circle cx="353.462" cy="208.35" r="14.8029" stroke="black"/>
<circle cx="322.856" cy="99.8386" r="14.8029" stroke="black"/>
<circle cx="411.891" cy="59.4946" r="14.8029" stroke="black"/>
<circle cx="399.37" cy="141.574" r="14.8029" stroke="black"/>
<circle cx="441.106" cy="154.094" r="14.8029" stroke="black"/>
<circle cx="313.117" cy="186.091" r="14.8029" stroke="black"/>
<circle cx="288.076" cy="126.271" r="14.8029" stroke="black"/>
<circle cx="205.303" cy="125.206" r="14.8029" stroke="black"/>
<path d="M299.115 182.349C299.388 182.306 299.574 182.05 299.53 181.777L298.826 177.332C298.783 177.06 298.527 176.874 298.254 176.917C297.981 176.96 297.795 177.216 297.839 177.489L298.465 181.44L294.514 182.066C294.241 182.109 294.055 182.365 294.098 182.638C294.141 182.91 294.398 183.097 294.67 183.053L299.115 182.349ZM220.311 125.284L298.743 182.26L299.33 181.451L220.899 124.475L220.311 125.284Z" fill="#FFD600"/>
<path d="M319.173 57.4968C319.222 57.2251 319.042 56.9649 318.77 56.9158L314.342 56.1142C314.071 56.065 313.81 56.2454 313.761 56.5171C313.712 56.7889 313.892 57.049 314.164 57.0982L318.1 57.8107L317.388 61.7467C317.338 62.0185 317.519 62.2786 317.791 62.3278C318.062 62.377 318.322 62.1966 318.372 61.9249L319.173 57.4968ZM221.584 125.348L318.966 57.8186L318.396 56.9969L221.014 124.527L221.584 125.348Z" fill="#FFD600"/>
<path d="M397.737 61.0972C397.854 60.8469 397.746 60.5494 397.496 60.4326L393.418 58.5297C393.168 58.4129 392.87 58.5211 392.753 58.7713C392.637 59.0215 392.745 59.3191 392.995 59.4358L396.62 61.1274L394.928 64.7521C394.811 65.0023 394.92 65.2999 395.17 65.4166C395.42 65.5334 395.718 65.4252 395.834 65.175L397.737 61.0972ZM221.472 125.35L397.455 61.3556L397.113 60.4158L221.13 124.41L221.472 125.35Z" fill="#FFD600"/>
<path d="M391.962 174.008C392.203 173.874 392.29 173.569 392.156 173.328L389.969 169.395C389.835 169.154 389.53 169.067 389.289 169.201C389.048 169.335 388.961 169.639 389.095 169.881L391.039 173.377L387.543 175.32C387.301 175.455 387.215 175.759 387.349 176C387.483 176.242 387.787 176.329 388.029 176.194L391.962 174.008ZM221.163 125.418L391.582 174.052L391.856 173.09L221.437 124.457L221.163 125.418Z" fill="#FFD600"/>
<path d="M310.802 109.757C310.901 109.499 310.772 109.21 310.515 109.11L306.314 107.495C306.057 107.396 305.767 107.525 305.668 107.782C305.569 108.04 305.698 108.329 305.955 108.428L309.689 109.864L308.253 113.598C308.154 113.855 308.282 114.145 308.54 114.244C308.798 114.343 309.087 114.214 309.186 113.957L310.802 109.757ZM298.018 115.599L310.538 110.034L310.132 109.12L297.611 114.685L298.018 115.599Z" fill="#4DAE57"/>
<path d="M307.404 171.266C307.667 171.348 307.948 171.202 308.03 170.938L309.372 166.643C309.455 166.379 309.308 166.099 309.044 166.016C308.781 165.934 308.5 166.081 308.418 166.345L307.225 170.163L303.407 168.969C303.143 168.887 302.863 169.034 302.781 169.298C302.698 169.561 302.845 169.842 303.109 169.924L307.404 171.266ZM291.807 141.806L307.11 171.021L307.996 170.557L292.693 141.342L291.807 141.806Z" fill="#4DAE57"/>
<path d="M431.17 165.262C431.191 164.987 430.985 164.747 430.71 164.726L426.223 164.38C425.948 164.359 425.708 164.565 425.687 164.841C425.665 165.116 425.871 165.356 426.147 165.377L430.135 165.684L429.828 169.672C429.807 169.948 430.013 170.188 430.288 170.209C430.564 170.231 430.804 170.024 430.825 169.749L431.17 165.262ZM416.39 178.124L430.997 165.604L430.346 164.844L415.739 177.365L416.39 178.124Z" fill="#4DAE57"/>
<path d="M390.103 190.435C390.196 190.175 390.062 189.888 389.802 189.795L385.568 188.271C385.308 188.177 385.021 188.312 384.928 188.572C384.834 188.832 384.969 189.118 385.229 189.212L388.993 190.566L387.638 194.33C387.544 194.59 387.679 194.876 387.939 194.97C388.199 195.063 388.485 194.929 388.579 194.669L390.103 190.435ZM366.195 201.847L389.845 190.718L389.419 189.813L365.77 200.942L366.195 201.847Z" fill="#4DAE57"/>
<path d="M388.618 182.247C388.799 182.039 388.778 181.723 388.57 181.541L385.179 178.583C384.971 178.402 384.655 178.423 384.473 178.631C384.292 178.84 384.313 179.155 384.521 179.337L387.536 181.966L384.906 184.981C384.725 185.189 384.746 185.505 384.954 185.686C385.162 185.868 385.478 185.846 385.66 185.638L388.618 182.247ZM327.063 186.591L388.275 182.417L388.207 181.419L326.995 185.593L327.063 186.591Z" fill="#4DAE57"/>
<path d="M328.849 67.5848C328.707 67.348 328.4 67.2712 328.163 67.4133L324.305 69.7285C324.068 69.8706 323.991 70.1777 324.133 70.4145C324.275 70.6513 324.582 70.7281 324.819 70.586L328.249 68.528L330.307 71.958C330.449 72.1948 330.756 72.2716 330.993 72.1295C331.23 71.9874 331.307 71.6803 331.165 71.4435L328.849 67.5848ZM324.732 84.6574L328.906 67.9633L327.936 67.7208L323.762 84.4149L324.732 84.6574Z" fill="#4DAE57"/>
<path d="M399.859 69.3393C399.917 69.0695 399.746 68.8032 399.476 68.7445L395.079 67.7886C394.809 67.7299 394.543 67.9011 394.484 68.1709C394.425 68.4408 394.597 68.7071 394.866 68.7657L398.775 69.6155L397.925 73.5242C397.867 73.794 398.038 74.0603 398.308 74.119C398.578 74.1776 398.844 74.0064 398.903 73.7366L399.859 69.3393ZM380.164 82.1743L399.64 69.6537L399.1 68.8125L379.623 81.3331L380.164 82.1743Z" fill="#4DAE57"/>
<path d="M391.023 37.9317L390.637 37.614L390.637 37.614L391.023 37.9317ZM410.195 43.8936C410.415 44.0613 410.729 44.0195 410.896 43.8002L413.63 40.2256C413.798 40.0062 413.756 39.6924 413.536 39.5247C413.317 39.3569 413.003 39.3988 412.836 39.6181L410.406 42.7955L407.228 40.3657C407.009 40.198 406.695 40.2398 406.527 40.4591C406.36 40.6785 406.402 40.9923 406.621 41.1601L410.195 43.8936ZM397.333 54.8239C390.747 54.1653 385.618 45.2861 391.409 38.2494L390.637 37.614C384.304 45.3094 389.907 55.0863 397.233 55.8189L397.333 54.8239ZM391.409 38.2494C394.313 34.7204 398.634 33.5625 402.389 34.5235C406.131 35.4812 409.335 38.5501 410.004 43.5625L410.995 43.4303C410.272 38.0089 406.769 34.6124 402.636 33.5547C398.516 32.5002 393.794 33.7769 390.637 37.614L391.409 38.2494Z" fill="#4DAE57"/>
<path d="M377.275 155.989L377.771 156.046L377.771 156.046L377.275 155.989ZM357.94 161.401C357.664 161.38 357.424 161.585 357.402 161.861L357.049 166.347C357.028 166.622 357.233 166.863 357.509 166.885C357.784 166.906 358.025 166.701 358.046 166.425L358.36 162.438L362.347 162.751C362.623 162.773 362.863 162.567 362.885 162.292C362.907 162.016 362.701 161.776 362.426 161.754L357.94 161.401ZM362.799 145.236C368.685 142.211 377.816 146.878 376.778 155.932L377.771 156.046C378.907 146.145 368.891 140.981 362.342 144.347L362.799 145.236ZM376.778 155.932C376.257 160.473 373.259 163.792 369.585 165.026C365.923 166.255 361.565 165.42 358.281 161.575L357.52 162.225C361.073 166.383 365.859 167.332 369.903 165.974C373.935 164.621 377.205 160.983 377.771 156.046L376.778 155.932Z" fill="#4DAE57"/>
<path d="M273.303 100.625L273.013 100.217L273.013 100.217L273.303 100.625ZM290.254 111.386C290.422 111.605 290.735 111.647 290.955 111.479L294.527 108.742C294.746 108.574 294.787 108.26 294.619 108.041C294.452 107.822 294.138 107.78 293.918 107.948L290.743 110.381L288.311 107.206C288.143 106.986 287.829 106.945 287.61 107.113C287.39 107.281 287.349 107.595 287.517 107.814L290.254 111.386ZM274.983 118.579C268.798 116.223 266.165 106.313 273.592 101.032L273.013 100.217C264.89 105.992 267.746 116.893 274.627 119.513L274.983 118.579ZM273.592 101.032C277.317 98.384 281.79 98.3944 285.164 100.302C288.526 102.204 290.818 106.003 290.155 111.016L291.146 111.147C291.864 105.725 289.37 101.532 285.656 99.432C281.954 97.3383 277.063 97.3378 273.013 100.217L273.592 101.032Z" fill="#4DAE57"/>
<path d="M354.539 93.206C354.717 92.9952 354.691 92.6797 354.48 92.5013L351.045 89.5946C350.834 89.4162 350.518 89.4425 350.34 89.6533C350.162 89.8641 350.188 90.1796 350.399 90.3579L353.452 92.9417L350.869 95.9953C350.69 96.2061 350.716 96.5216 350.927 96.6999C351.138 96.8783 351.454 96.852 351.632 96.6412L354.539 93.206ZM337.504 94.7724L354.199 93.3813L354.115 92.3847L337.421 93.7759L337.504 94.7724Z" fill="#4DAE57"/>
<path d="M315.505 171.096C315.674 171.314 315.989 171.353 316.207 171.184L319.759 168.421C319.977 168.251 320.016 167.937 319.846 167.719C319.677 167.501 319.363 167.462 319.145 167.631L315.987 170.087L313.532 166.93C313.362 166.712 313.048 166.673 312.83 166.842C312.612 167.012 312.573 167.326 312.742 167.544L315.505 171.096ZM322.359 115.08L315.403 170.727L316.396 170.851L323.352 115.204L322.359 115.08Z" fill="#4DAE57"/>
<path d="M399.667 155.084C399.445 154.92 399.132 154.967 398.968 155.189L396.293 158.808C396.129 159.03 396.176 159.343 396.398 159.507C396.62 159.671 396.933 159.624 397.098 159.402L399.475 156.185L402.692 158.563C402.914 158.727 403.227 158.68 403.391 158.458C403.555 158.236 403.508 157.923 403.286 157.759L399.667 155.084ZM401.951 169.324L399.865 155.412L398.876 155.56L400.963 169.472L401.951 169.324Z" fill="#4DAE57"/>
<path d="M349.605 164.837C349.391 164.662 349.076 164.694 348.901 164.907L346.051 168.39C345.877 168.604 345.908 168.919 346.122 169.094C346.336 169.269 346.651 169.237 346.825 169.023L349.358 165.928L352.454 168.461C352.668 168.635 352.983 168.604 353.158 168.39C353.333 168.176 353.301 167.861 353.087 167.687L349.605 164.837ZM352.568 192.998L349.786 165.174L348.79 165.274L351.573 193.097L352.568 192.998Z" fill="#4DAE57"/>
<path d="M425.98 110.501C425.722 110.403 425.433 110.533 425.335 110.791L423.739 114.998C423.641 115.257 423.771 115.545 424.029 115.643C424.288 115.741 424.576 115.611 424.674 115.353L426.093 111.613L429.833 113.032C430.091 113.13 430.38 113 430.478 112.742C430.576 112.483 430.446 112.195 430.187 112.097L425.98 110.501ZM438.779 138.587L426.259 110.763L425.347 111.173L437.867 138.997L438.779 138.587Z" fill="#4DAE57"/>
<path d="M383.78 92.4735C383.554 92.6319 383.499 92.9436 383.657 93.1698L386.238 96.8564C386.396 97.0826 386.708 97.1376 386.934 96.9793C387.16 96.8209 387.215 96.5092 387.057 96.2829L384.763 93.006L388.04 90.7122C388.266 90.5538 388.321 90.242 388.163 90.0158C388.005 89.7896 387.693 89.7346 387.467 89.8929L383.78 92.4735ZM407.804 96.5642L384.154 92.3907L383.98 93.3755L407.63 97.549L407.804 96.5642Z" fill="#4DAE57"/>
<path d="M400.368 126.58C400.539 126.797 400.853 126.835 401.07 126.665L404.609 123.884C404.826 123.714 404.863 123.399 404.693 123.182C404.522 122.965 404.208 122.927 403.991 123.098L400.845 125.569L398.374 122.424C398.204 122.207 397.889 122.169 397.672 122.34C397.455 122.51 397.417 122.825 397.588 123.042L400.368 126.58ZM406.525 74.0427L400.265 126.212L401.258 126.331L407.518 74.1619L406.525 74.0427Z" fill="#4DAE57"/>
<circle cx="288.5" cy="132.5" r="6.5" fill="#FDA646"/>
<circle cx="323.5" cy="105.5" r="6.5" fill="#FDA646"/>
<circle cx="334.5" cy="58.5" r="6.5" fill="#FDA646"/>
<circle cx="368.5" cy="97.5" r="6.5" fill="#FDA646"/>
<circle cx="412.5" cy="65.5" r="6.5" fill="#FDA646"/>
<circle cx="423.5" cy="104.5" r="6.5" fill="#FDA646"/>
<circle cx="441.5" cy="160.5" r="6.5" fill="#FDA646"/>
<circle cx="398.5" cy="147.5" r="6.5" fill="#FDA646"/>
<circle cx="348.5" cy="156.5" r="6.5" fill="#FDA646"/>
<circle cx="312.5" cy="191.5" r="6.5" fill="#FDA646"/>
<circle cx="353.5" cy="214.5" r="6.5" fill="#FDA646"/>
<circle cx="403.5" cy="190.5" r="6.5" fill="#FDA646"/>
<path d="M177 124.5L162 115.84V133.16L177 124.5ZM94.5 126H163.5V123H94.5V126Z" fill="black"/>
<path d="M29.8552 129.912C29.9512 129.48 30.1552 129.156 30.4672 128.94C30.8032 128.724 31.1152 128.616 31.4032 128.616C31.7872 128.616 32.1112 128.7 32.3752 128.868C32.6392 129.012 32.9272 129.36 33.2392 129.912L33.6352 130.632C33.8512 130.464 34.0792 130.248 34.3192 129.984C35.1832 129.048 35.9872 128.088 36.7312 127.104C37.4752 126.12 38.2192 125.076 38.9632 123.972L37.4512 118.824C37.2352 118.08 37.0312 117.576 36.8392 117.312C36.6712 117.024 36.3952 116.88 36.0112 116.88C35.7712 116.88 35.4112 117.024 34.9312 117.312C34.4752 117.6 33.9352 118.272 33.3112 119.328L32.4832 118.716C33.1552 117.228 33.8872 116.148 34.6792 115.476C35.4712 114.804 36.2392 114.468 36.9832 114.468C37.6792 114.468 38.2312 114.696 38.6392 115.152C39.0712 115.608 39.4432 116.412 39.7552 117.564L40.8712 121.56C41.6392 120.336 42.3592 119.256 43.0312 118.32C43.7272 117.384 44.3032 116.64 44.7592 116.088C45.2872 115.464 45.7672 115.044 46.1992 114.828C46.6312 114.588 47.1352 114.468 47.7112 114.468C48.1912 114.468 48.6712 114.624 49.1512 114.936C49.6552 115.248 49.9792 115.728 50.1232 116.376C50.1232 116.88 49.9792 117.3 49.6912 117.636C49.4032 117.948 49.0552 118.104 48.6472 118.104C48.2872 118.104 47.9512 118.032 47.6392 117.888C47.3272 117.72 47.0032 117.384 46.6672 116.88L46.4512 116.592C46.3552 116.664 46.2712 116.748 46.1992 116.844C46.1272 116.94 46.0432 117.036 45.9472 117.132C45.1072 118.068 44.3032 119.028 43.5352 120.012C42.7672 120.996 42.0232 122.004 41.3032 123.036L42.5632 127.608C42.8272 128.592 43.1032 129.24 43.3912 129.552C43.7032 129.84 44.1112 129.984 44.6152 129.984C45.0952 129.984 45.6232 129.756 46.1992 129.3C46.7992 128.844 47.4232 128.208 48.0712 127.392L48.9712 128.076C48.1072 129.348 47.1712 130.404 46.1632 131.244C45.1552 132.06 44.1712 132.468 43.2112 132.468C42.6832 132.468 42.2152 132.3 41.8072 131.964C41.3992 131.604 41.0392 130.908 40.7272 129.876L39.3952 125.412C38.6512 126.612 37.9432 127.704 37.2712 128.688C36.5992 129.648 35.9512 130.5 35.3272 131.244C34.9432 131.7 34.5472 132.012 34.1392 132.18C33.7312 132.372 33.2872 132.468 32.8072 132.468C32.0872 132.468 31.4272 132.264 30.8272 131.856C30.2512 131.424 29.9272 130.776 29.8552 129.912ZM49.9631 137.724C50.3711 135.876 50.7671 133.992 51.1511 132.072C51.5351 130.152 51.9191 128.232 52.3031 126.312L53.9591 117.672C54.3431 115.776 54.7151 113.88 55.0751 111.984C55.4351 110.064 55.7711 108.156 56.0831 106.26H62.8871L62.5991 107.7L58.4231 108.168C58.1111 109.704 57.7871 111.276 57.4511 112.884C57.1391 114.468 56.8271 116.064 56.5151 117.672L54.8591 126.312C54.5471 127.872 54.2351 129.456 53.9231 131.064C53.6111 132.648 53.3231 134.232 53.0591 135.816L57.0551 136.284L56.7671 137.724H49.9631ZM64.0102 128.004L66.4222 116.7H62.7502L63.0022 115.26L66.8902 114.9L68.5822 110.076H70.4182L69.3742 114.936H73.9462L73.6582 116.88L69.0142 116.736L66.8182 127.068C66.6022 128.028 66.4942 128.724 66.4942 129.156C66.4942 129.42 66.5782 129.624 66.7462 129.768C66.9382 129.912 67.1422 129.984 67.3582 129.984C68.2702 129.984 69.4462 129.12 70.8862 127.392L71.7862 128.076C71.2822 128.796 70.7062 129.492 70.0582 130.164C69.4102 130.836 68.7142 131.388 67.9702 131.82C67.2262 132.252 66.4462 132.468 65.6302 132.468C65.1022 132.468 64.6342 132.312 64.2262 132C63.8422 131.688 63.6502 131.232 63.6502 130.632C63.6502 130.368 63.6742 130.056 63.7222 129.696C63.7702 129.312 63.8662 128.748 64.0102 128.004ZM84.2818 106.26C83.8738 108.108 83.4778 109.992 83.0938 111.912C82.7098 113.832 82.3258 115.752 81.9418 117.672L80.2858 126.312C79.9018 128.208 79.5298 130.104 79.1698 132C78.8338 133.92 78.4978 135.828 78.1618 137.724H71.3578L71.6458 136.284L75.8218 135.816C76.1578 134.256 76.4818 132.684 76.7938 131.1C77.1058 129.516 77.4178 127.92 77.7298 126.312L79.3858 117.672C79.6978 116.112 80.0098 114.54 80.3218 112.956C80.6338 111.348 80.9218 109.752 81.1858 108.168L77.1898 107.7L77.4778 106.26H84.2818Z" fill="black"/>
<path d="M458.545 60.4326C458.647 60.3394 458.654 60.1813 458.561 60.0794L457.043 58.4188C456.949 58.3169 456.791 58.3098 456.689 58.403C456.588 58.4961 456.58 58.6543 456.674 58.7562L458.023 60.2322L456.547 61.5817C456.445 61.6749 456.438 61.833 456.531 61.9349C456.624 62.0368 456.783 62.0439 456.884 61.9508L458.545 60.4326ZM331.72 54.826L334.156 54.9351L334.178 54.4356L331.743 54.3265L331.72 54.826ZM339.027 55.1532L343.898 55.3714L343.92 54.8719L339.049 54.6537L339.027 55.1532ZM348.769 55.5895L353.64 55.8077L353.662 55.3082L348.791 55.09L348.769 55.5895ZM358.51 56.0258L363.381 56.244L363.404 55.7445L358.533 55.5263L358.51 56.0258ZM368.252 56.4621L373.123 56.6802L373.146 56.1807L368.275 55.9626L368.252 56.4621ZM377.994 56.8984L382.865 57.1165L382.888 56.617L378.017 56.3989L377.994 56.8984ZM387.736 57.3347L392.607 57.5528L392.63 57.0533L387.759 56.8352L387.736 57.3347ZM397.478 57.771L402.349 57.9891L402.372 57.4896L397.501 57.2715L397.478 57.771ZM407.22 58.2073L412.091 58.4254L412.113 57.9259L407.242 57.7078L407.22 58.2073ZM416.962 58.6436L421.833 58.8617L421.855 58.3622L416.984 58.1441L416.962 58.6436ZM426.704 59.0798L431.575 59.298L431.597 58.7985L426.726 58.5803L426.704 59.0798ZM436.446 59.5161L441.317 59.7343L441.339 59.2348L436.468 59.0166L436.446 59.5161ZM446.188 59.9524L451.059 60.1706L451.081 59.6711L446.21 59.4529L446.188 59.9524ZM455.93 60.3887L458.365 60.4978L458.388 59.9983L455.952 59.8892L455.93 60.3887ZM458.714 60.6171C458.918 60.4307 458.932 60.1145 458.745 59.9107L455.709 56.5895C455.523 56.3857 455.206 56.3715 455.003 56.5579C454.799 56.7442 454.785 57.0605 454.971 57.2643L457.67 60.2164L454.718 62.9155C454.514 63.1018 454.5 63.4181 454.686 63.6219C454.873 63.8257 455.189 63.8398 455.393 63.6535L458.714 60.6171ZM331.709 55.0758L334.145 55.1848L334.189 54.1858L331.754 54.0768L331.709 55.0758ZM339.015 55.403L343.886 55.6211L343.931 54.6221L339.06 54.404L339.015 55.403ZM348.757 55.8393L353.628 56.0574L353.673 55.0584L348.802 54.8403L348.757 55.8393ZM358.499 56.2756L363.37 56.4937L363.415 55.4947L358.544 55.2766L358.499 56.2756ZM368.241 56.7118L373.112 56.93L373.157 55.931L368.286 55.7129L368.241 56.7118ZM377.983 57.1481L382.854 57.3663L382.899 56.3673L378.028 56.1491L377.983 57.1481ZM387.725 57.5844L392.596 57.8026L392.641 56.8036L387.77 56.5854L387.725 57.5844ZM397.467 58.0207L402.338 58.2389L402.383 57.2399L397.512 57.0217L397.467 58.0207ZM407.209 58.457L412.08 58.6752L412.125 57.6762L407.254 57.458L407.209 58.457ZM416.951 58.8933L421.822 59.1114L421.867 58.1125L416.996 57.8943L416.951 58.8933ZM426.693 59.3296L431.564 59.5477L431.608 58.5487L426.737 58.3306L426.693 59.3296ZM436.435 59.7659L441.306 59.984L441.35 58.985L436.479 58.7669L436.435 59.7659ZM446.177 60.2022L451.048 60.4203L451.092 59.4213L446.221 59.2032L446.177 60.2022ZM455.918 60.6385L458.354 60.7475L458.399 59.7485L455.963 59.6395L455.918 60.6385Z" fill="#3490FD"/>
<path d="M459.205 113.773C459.297 113.671 459.289 113.513 459.186 113.42L457.513 111.916C457.41 111.823 457.252 111.832 457.16 111.935C457.068 112.037 457.076 112.195 457.179 112.288L458.666 113.625L457.328 115.112C457.236 115.215 457.244 115.373 457.347 115.465C457.45 115.557 457.608 115.549 457.7 115.446L459.205 113.773ZM459.22 123.397C459.302 123.286 459.278 123.129 459.167 123.048L457.352 121.717C457.241 121.635 457.084 121.659 457.003 121.771C456.921 121.882 456.945 122.039 457.057 122.12L458.669 123.303L457.487 124.916C457.405 125.027 457.429 125.184 457.54 125.265C457.652 125.347 457.808 125.323 457.89 125.211L459.22 123.397ZM459.21 133.696C459.299 133.591 459.286 133.433 459.18 133.344L457.46 131.894C457.354 131.805 457.196 131.818 457.107 131.924C457.018 132.029 457.032 132.187 457.137 132.276L458.667 133.565L457.378 135.094C457.289 135.2 457.302 135.358 457.408 135.447C457.513 135.536 457.671 135.522 457.76 135.417L459.21 133.696ZM459.196 144.641C459.293 144.543 459.293 144.385 459.196 144.287L457.605 142.696C457.507 142.598 457.349 142.598 457.251 142.696C457.153 142.794 457.153 142.952 457.251 143.05L458.665 144.464L457.251 145.878C457.153 145.976 457.153 146.134 457.251 146.232C457.349 146.329 457.507 146.329 457.605 146.232L459.196 144.641ZM459.219 154.257C459.302 154.146 459.279 153.989 459.169 153.907L457.367 152.559C457.256 152.476 457.1 152.499 457.017 152.609C456.934 152.72 456.957 152.877 457.067 152.959L458.669 154.157L457.471 155.759C457.388 155.869 457.411 156.026 457.521 156.109C457.632 156.191 457.788 156.169 457.871 156.058L459.219 154.257ZM459.219 164.543C459.302 164.432 459.279 164.276 459.169 164.193L457.369 162.843C457.258 162.76 457.102 162.782 457.019 162.893C456.936 163.003 456.958 163.16 457.069 163.243L458.669 164.443L457.469 166.043C457.386 166.153 457.408 166.31 457.519 166.393C457.629 166.476 457.786 166.453 457.869 166.343L459.219 164.543ZM459.23 175.455C459.304 175.339 459.269 175.184 459.152 175.11L457.251 173.907C457.135 173.833 456.98 173.868 456.906 173.985C456.832 174.101 456.867 174.256 456.984 174.33L458.674 175.399L457.604 177.089C457.531 177.206 457.565 177.36 457.682 177.434C457.799 177.508 457.953 177.473 458.027 177.356L459.23 175.455ZM289.315 122.856L291.811 122.724L291.784 122.224L289.288 122.357L289.315 122.856ZM296.802 122.459L301.794 122.194L301.768 121.695L296.776 121.96L296.802 122.459ZM306.786 121.93L311.777 121.665L311.751 121.165L306.759 121.43L306.786 121.93ZM316.769 121.4L321.761 121.135L321.734 120.636L316.743 120.901L316.769 121.4ZM326.753 120.871L331.744 120.606L331.718 120.107L326.726 120.371L326.753 120.871ZM336.736 120.341L341.728 120.077L341.701 119.577L336.709 119.842L336.736 120.341ZM346.719 119.812L351.711 119.547L351.684 119.048L346.693 119.313L346.719 119.812ZM356.703 119.282L361.694 119.018L361.668 118.518L356.676 118.783L356.703 119.282ZM366.686 118.753L371.678 118.488L371.651 117.989L366.659 118.254L366.686 118.753ZM376.669 118.224L381.661 117.959L381.635 117.46L376.643 117.724L376.669 118.224ZM386.653 117.694L391.644 117.429L391.618 116.93L386.626 117.195L386.653 117.694ZM396.636 117.165L401.628 116.9L401.601 116.401L396.61 116.665L396.636 117.165ZM406.619 116.635L411.611 116.371L411.585 115.871L406.593 116.136L406.619 116.635ZM416.603 116.106L421.594 115.841L421.568 115.342L416.576 115.607L416.603 116.106ZM426.586 115.576L431.578 115.312L431.551 114.812L426.56 115.077L426.586 115.576ZM436.569 115.047L441.561 114.782L441.535 114.283L436.543 114.548L436.569 115.047ZM446.553 114.518L451.545 114.253L451.518 113.754L446.526 114.018L446.553 114.518ZM456.536 113.988L459.032 113.856L459.006 113.357L456.51 113.489L456.536 113.988ZM392.199 133.782L394.586 133.415L394.51 132.921L392.123 133.288L392.199 133.782ZM399.362 132.68L404.138 131.945L404.061 131.451L399.286 132.186L399.362 132.68ZM408.913 131.211L413.689 130.476L413.613 129.982L408.837 130.717L408.913 131.211ZM418.464 129.741L423.24 129.007L423.164 128.512L418.388 129.247L418.464 129.741ZM428.015 128.272L432.791 127.537L432.715 127.043L427.939 127.778L428.015 128.272ZM437.567 126.803L442.342 126.068L442.266 125.574L437.491 126.308L437.567 126.803ZM447.118 125.333L451.893 124.598L451.817 124.104L447.042 124.839L447.118 125.333ZM456.669 123.864L459.057 123.496L458.981 123.002L456.593 123.369L456.669 123.864ZM345.895 143.427L348.467 143.208L348.424 142.71L345.853 142.929L345.895 143.427ZM353.61 142.77L358.753 142.331L358.71 141.833L353.567 142.272L353.61 142.77ZM363.896 141.893L369.039 141.455L368.996 140.957L363.853 141.395L363.896 141.893ZM374.181 141.016L379.324 140.578L379.282 140.08L374.139 140.518L374.181 141.016ZM384.467 140.14L389.61 139.702L389.568 139.203L384.425 139.642L384.467 140.14ZM394.753 139.263L399.896 138.825L399.854 138.327L394.711 138.765L394.753 139.263ZM405.039 138.387L410.182 137.948L410.14 137.45L404.997 137.888L405.039 138.387ZM415.325 137.51L420.468 137.072L420.425 136.573L415.283 137.012L415.325 137.51ZM425.611 136.633L430.754 136.195L430.711 135.697L425.568 136.135L425.611 136.633ZM435.897 135.757L441.04 135.318L440.997 134.82L435.854 135.258L435.897 135.757ZM446.183 134.88L451.326 134.442L451.283 133.943L446.14 134.382L446.183 134.88ZM456.469 134.003L459.04 133.784L458.998 133.286L456.426 133.505L456.469 134.003ZM430.09 144.714L432.5 144.714L432.5 144.214L430.09 144.214L430.09 144.714ZM437.322 144.714L442.144 144.714L442.144 144.214L437.322 144.214L437.322 144.714ZM446.965 144.714L451.787 144.714L451.787 144.214L446.965 144.214L446.965 144.714ZM456.608 144.714L459.019 144.714L459.019 144.214L456.608 144.214L456.608 144.714ZM311.838 175.569L314.291 175.215L314.22 174.721L311.766 175.074L311.838 175.569ZM319.199 174.508L324.106 173.801L324.034 173.306L319.127 174.013L319.199 174.508ZM329.013 173.094L333.92 172.387L333.849 171.892L328.942 172.599L329.013 173.094ZM338.827 171.68L343.735 170.972L343.663 170.478L338.756 171.185L338.827 171.68ZM348.642 170.265L353.549 169.558L353.478 169.063L348.571 169.77L348.642 170.265ZM358.456 168.851L363.364 168.144L363.292 167.649L358.385 168.356L358.456 168.851ZM368.271 167.437L373.178 166.73L373.107 166.235L368.199 166.942L368.271 167.437ZM378.085 166.022L382.992 165.315L382.921 164.82L378.014 165.528L378.085 166.022ZM387.9 164.608L392.807 163.901L392.736 163.406L387.828 164.113L387.9 164.608ZM397.714 163.194L402.621 162.487L402.55 161.992L397.643 162.699L397.714 163.194ZM407.529 161.779L412.436 161.072L412.364 160.577L407.457 161.285L407.529 161.779ZM417.343 160.365L422.25 159.658L422.179 159.163L417.272 159.87L417.343 160.365ZM427.157 158.951L432.065 158.244L431.993 157.749L427.086 158.456L427.157 158.951ZM436.972 157.537L441.879 156.829L441.808 156.334L436.901 157.042L436.972 157.537ZM446.786 156.122L451.694 155.415L451.622 154.92L446.715 155.627L446.786 156.122ZM456.601 154.708L459.054 154.354L458.983 153.859L456.53 154.213L456.601 154.708ZM396.053 173.64L398.678 173.265L398.607 172.77L395.982 173.145L396.053 173.64ZM403.928 172.515L409.178 171.765L409.108 171.27L403.858 172.02L403.928 172.515ZM414.428 171.015L419.679 170.265L419.608 169.77L414.358 170.52L414.428 171.015ZM424.929 169.515L430.179 168.765L430.108 168.27L424.858 169.02L424.929 169.515ZM435.429 168.015L440.679 167.265L440.608 166.77L435.358 167.52L435.429 168.015ZM445.929 166.515L451.179 165.765L451.108 165.27L445.858 166.02L445.929 166.515ZM456.429 165.015L459.054 164.64L458.983 164.145L456.358 164.52L456.429 165.015ZM350.429 199.994L352.898 199.439L352.788 198.951L350.319 199.507L350.429 199.994ZM357.837 198.329L362.775 197.218L362.665 196.731L357.727 197.841L357.837 198.329ZM367.713 196.108L372.652 194.998L372.542 194.51L367.604 195.62L367.713 196.108ZM377.59 193.887L382.529 192.777L382.419 192.289L377.48 193.399L377.59 193.887ZM387.467 191.666L392.405 190.556L392.296 190.068L387.357 191.179L387.467 191.666ZM397.344 189.446L402.282 188.335L402.172 187.847L397.234 188.958L397.344 189.446ZM407.221 187.225L412.159 186.114L412.049 185.626L407.111 186.737L407.221 187.225ZM417.097 185.004L422.036 183.893L421.926 183.406L416.988 184.516L417.097 185.004ZM426.974 182.783L431.912 181.673L431.803 181.185L426.864 182.295L426.974 182.783ZM436.851 180.562L441.789 179.452L441.68 178.964L436.741 180.074L436.851 180.562ZM446.728 178.341L451.666 177.231L451.556 176.743L446.618 177.854L446.728 178.341ZM456.604 176.121L459.074 175.565L458.964 175.078L456.495 175.633L456.604 176.121ZM459.391 113.941C459.575 113.735 459.558 113.419 459.353 113.234L456.007 110.225C455.802 110.041 455.486 110.058 455.301 110.263C455.116 110.468 455.133 110.784 455.338 110.969L458.313 113.644L455.638 116.618C455.453 116.823 455.47 117.139 455.675 117.324C455.881 117.509 456.197 117.492 456.382 117.287L459.391 113.941ZM459.422 123.545C459.585 123.322 459.537 123.009 459.314 122.846L455.686 120.185C455.463 120.022 455.15 120.07 454.987 120.292C454.823 120.515 454.872 120.828 455.094 120.991L458.32 123.357L455.954 126.582C455.791 126.805 455.839 127.118 456.062 127.281C456.285 127.445 456.598 127.396 456.761 127.174L459.422 123.545ZM459.401 133.857C459.579 133.646 459.552 133.331 459.341 133.153L455.9 130.253C455.689 130.075 455.374 130.101 455.196 130.313C455.018 130.524 455.045 130.839 455.256 131.017L458.314 133.595L455.736 136.654C455.558 136.865 455.585 137.18 455.796 137.358C456.007 137.536 456.323 137.509 456.501 137.298L459.401 133.857ZM459.372 144.817C459.568 144.622 459.568 144.306 459.372 144.11L456.19 140.928C455.995 140.733 455.679 140.733 455.483 140.928C455.288 141.124 455.288 141.44 455.483 141.635L458.312 144.464L455.483 147.292C455.288 147.488 455.288 147.804 455.483 147.999C455.679 148.195 455.995 148.195 456.19 147.999L459.372 144.817ZM459.419 154.406C459.585 154.185 459.539 153.872 459.318 153.707L455.715 151.011C455.494 150.846 455.181 150.891 455.015 151.112C454.85 151.333 454.895 151.646 455.116 151.812L458.319 154.208L455.923 157.411C455.757 157.632 455.803 157.945 456.024 158.111C456.245 158.276 456.558 158.231 456.724 158.01L459.419 154.406ZM459.419 164.693C459.584 164.472 459.54 164.158 459.319 163.993L455.719 161.293C455.498 161.127 455.184 161.172 455.019 161.393C454.853 161.614 454.898 161.927 455.119 162.093L458.319 164.493L455.919 167.693C455.753 167.914 455.798 168.227 456.019 168.393C456.24 168.558 456.553 168.514 456.719 168.293L459.419 164.693ZM459.441 175.589C459.589 175.356 459.52 175.047 459.286 174.899L455.484 172.493C455.25 172.345 454.941 172.414 454.794 172.648C454.646 172.881 454.716 173.19 454.949 173.338L458.329 175.477L456.19 178.857C456.042 179.09 456.112 179.399 456.345 179.547C456.578 179.694 456.887 179.625 457.035 179.391L459.441 175.589ZM289.328 123.106L291.824 122.973L291.771 121.975L289.275 122.107L289.328 123.106ZM296.816 122.709L301.807 122.444L301.754 121.445L296.763 121.71L296.816 122.709ZM306.799 122.179L311.791 121.914L311.738 120.916L306.746 121.181L306.799 122.179ZM316.782 121.65L321.774 121.385L321.721 120.386L316.729 120.651L316.782 121.65ZM326.766 121.12L331.757 120.856L331.704 119.857L326.713 120.122L326.766 121.12ZM336.749 120.591L341.741 120.326L341.688 119.328L336.696 119.592L336.749 120.591ZM346.732 120.061L351.724 119.797L351.671 118.798L346.68 119.063L346.732 120.061ZM356.716 119.532L361.708 119.267L361.655 118.269L356.663 118.533L356.716 119.532ZM366.699 119.003L371.691 118.738L371.638 117.739L366.646 118.004L366.699 119.003ZM376.683 118.473L381.674 118.208L381.621 117.21L376.63 117.475L376.683 118.473ZM386.666 117.944L391.658 117.679L391.605 116.68L386.613 116.945L386.666 117.944ZM396.649 117.414L401.641 117.15L401.588 116.151L396.596 116.416L396.649 117.414ZM406.633 116.885L411.624 116.62L411.571 115.622L406.58 115.886L406.633 116.885ZM416.616 116.356L421.608 116.091L421.555 115.092L416.563 115.357L416.616 116.356ZM426.599 115.826L431.591 115.561L431.538 114.563L426.546 114.827L426.599 115.826ZM436.583 115.297L441.574 115.032L441.521 114.033L436.53 114.298L436.583 115.297ZM446.566 114.767L451.558 114.503L451.505 113.504L446.513 113.769L446.566 114.767ZM456.549 114.238L459.045 114.105L458.992 113.107L456.496 113.239L456.549 114.238ZM392.237 134.029L394.624 133.662L394.472 132.674L392.085 133.041L392.237 134.029ZM399.4 132.927L404.176 132.193L404.023 131.204L399.248 131.939L399.4 132.927ZM408.951 131.458L413.727 130.723L413.575 129.735L408.799 130.469L408.951 131.458ZM418.502 129.988L423.278 129.254L423.126 128.265L418.35 129L418.502 129.988ZM428.053 128.519L432.829 127.784L432.677 126.796L427.901 127.531L428.053 128.519ZM437.605 127.05L442.38 126.315L442.228 125.327L437.453 126.061L437.605 127.05ZM447.156 125.58L451.931 124.845L451.779 123.857L447.004 124.592L447.156 125.58ZM456.707 124.111L459.095 123.743L458.943 122.755L456.555 123.122L456.707 124.111ZM345.916 143.676L348.488 143.457L348.403 142.461L345.832 142.68L345.916 143.676ZM353.631 143.019L358.774 142.581L358.689 141.584L353.546 142.022L353.631 143.019ZM363.917 142.142L369.06 141.704L368.975 140.708L363.832 141.146L363.917 142.142ZM374.203 141.266L379.346 140.827L379.261 139.831L374.118 140.269L374.203 141.266ZM384.489 140.389L389.632 139.951L389.547 138.954L384.404 139.393L384.489 140.389ZM394.774 139.512L399.917 139.074L399.832 138.078L394.69 138.516L394.774 139.512ZM405.06 138.636L410.203 138.197L410.118 137.201L404.975 137.639L405.06 138.636ZM415.346 137.759L420.489 137.321L420.404 136.324L415.261 136.763L415.346 137.759ZM425.632 136.882L430.775 136.444L430.69 135.448L425.547 135.886L425.632 136.882ZM435.918 136.006L441.061 135.567L440.976 134.571L435.833 135.009L435.918 136.006ZM446.204 135.129L451.347 134.691L451.262 133.694L446.119 134.133L446.204 135.129ZM456.49 134.252L459.061 134.033L458.976 133.037L456.405 133.256L456.49 134.252ZM430.09 144.964L432.5 144.964L432.5 143.964L430.09 143.964L430.09 144.964ZM437.322 144.964L442.144 144.964L442.144 143.964L437.322 143.964L437.322 144.964ZM446.965 144.964L451.787 144.964L451.787 143.964L446.965 143.964L446.965 144.964ZM456.608 144.964L459.019 144.964L459.019 143.964L456.608 143.964L456.608 144.964ZM311.873 175.816L314.327 175.463L314.184 174.473L311.731 174.827L311.873 175.816ZM319.234 174.756L324.141 174.049L323.999 173.059L319.092 173.766L319.234 174.756ZM329.049 173.341L333.956 172.634L333.813 171.644L328.906 172.352L329.049 173.341ZM338.863 171.927L343.77 171.22L343.628 170.23L338.72 170.937L338.863 171.927ZM348.678 170.513L353.585 169.806L353.442 168.816L348.535 169.523L348.678 170.513ZM358.492 169.098L363.399 168.391L363.257 167.402L358.349 168.109L358.492 169.098ZM368.306 167.684L373.214 166.977L373.071 165.987L368.164 166.694L368.306 167.684ZM378.121 166.27L383.028 165.563L382.885 164.573L377.978 165.28L378.121 166.27ZM387.935 164.856L392.843 164.148L392.7 163.159L387.793 163.866L387.935 164.856ZM397.75 163.441L402.657 162.734L402.514 161.744L397.607 162.451L397.75 163.441ZM407.564 162.027L412.471 161.32L412.329 160.33L407.422 161.037L407.564 162.027ZM417.379 160.613L422.286 159.905L422.143 158.916L417.236 159.623L417.379 160.613ZM427.193 159.198L432.1 158.491L431.958 157.501L427.051 158.209L427.193 159.198ZM437.008 157.784L441.915 157.077L441.772 156.087L436.865 156.794L437.008 157.784ZM446.822 156.37L451.729 155.663L451.587 154.673L446.679 155.38L446.822 156.37ZM456.637 154.955L459.09 154.602L458.947 153.612L456.494 153.966L456.637 154.955ZM396.088 173.888L398.714 173.513L398.572 172.523L395.947 172.898L396.088 173.888ZM403.964 172.763L409.214 172.013L409.072 171.023L403.822 171.773L403.964 172.763ZM414.464 171.263L419.714 170.513L419.572 169.523L414.322 170.273L414.464 171.263ZM424.964 169.763L430.214 169.013L430.073 168.023L424.823 168.773L424.964 169.763ZM435.464 168.263L440.714 167.513L440.573 166.523L435.323 167.273L435.464 168.263ZM445.964 166.763L451.214 166.013L451.073 165.023L445.823 165.773L445.964 166.763ZM456.464 165.263L459.09 164.888L458.948 163.898L456.323 164.273L456.464 165.263ZM350.484 200.238L352.953 199.683L352.734 198.707L350.264 199.263L350.484 200.238ZM357.891 198.573L362.83 197.462L362.61 196.487L357.672 197.597L357.891 198.573ZM367.768 196.352L372.707 195.241L372.487 194.266L367.549 195.376L367.768 196.352ZM377.645 194.131L382.583 193.021L382.364 192.045L377.426 193.155L377.645 194.131ZM387.522 191.91L392.46 190.8L392.241 189.824L387.302 190.935L387.522 191.91ZM397.399 189.689L402.337 188.579L402.118 187.603L397.179 188.714L397.399 189.689ZM407.275 187.469L412.214 186.358L411.994 185.383L407.056 186.493L407.275 187.469ZM417.152 185.248L422.091 184.137L421.871 183.162L416.933 184.272L417.152 185.248ZM427.029 183.027L431.967 181.917L431.748 180.941L426.81 182.051L427.029 183.027ZM436.906 180.806L441.844 179.696L441.625 178.72L436.686 179.831L436.906 180.806ZM446.782 178.585L451.721 177.475L451.502 176.499L446.563 177.61L446.782 178.585ZM456.659 176.365L459.128 175.809L458.909 174.834L456.44 175.389L456.659 176.365Z" fill="#3490FD"/>
<path d="M459.16 72.026C459.274 71.9478 459.303 71.7922 459.225 71.6784L457.952 69.8232C457.874 69.7094 457.718 69.6804 457.604 69.7585C457.491 69.8367 457.462 69.9923 457.54 70.1061L458.671 71.7552L457.022 72.8868C456.909 72.965 456.88 73.1206 456.958 73.2344C457.036 73.3483 457.191 73.3772 457.305 73.2991L459.16 72.026ZM403.687 61.7797L405.99 62.2083L406.082 61.7167L403.778 61.2882L403.687 61.7797ZM410.598 63.0655L415.205 63.9226L415.296 63.431L410.689 62.5739L410.598 63.0655ZM419.812 64.7798L424.419 65.6369L424.511 65.1454L419.903 64.2882L419.812 64.7798ZM429.026 66.4941L433.634 67.3512L433.725 66.8597L429.118 66.0025L429.026 66.4941ZM438.241 68.2084L442.848 69.0656L442.94 68.574L438.332 67.7168L438.241 68.2084ZM447.455 69.9227L452.062 70.7799L452.154 70.2883L447.547 69.4311L447.455 69.9227ZM456.67 71.637L458.973 72.0656L459.065 71.574L456.761 71.1455L456.67 71.637ZM459.302 72.2321C459.53 72.0758 459.588 71.7646 459.431 71.5369L456.885 67.8266C456.729 67.5989 456.417 67.541 456.19 67.6973C455.962 67.8535 455.904 68.1648 456.06 68.3924L458.324 71.6905L455.026 73.9539C454.798 74.1101 454.74 74.4214 454.896 74.649C455.053 74.8767 455.364 74.9346 455.592 74.7784L459.302 72.2321ZM403.641 62.0255L405.945 62.4541L406.127 61.4709L403.824 61.0424L403.641 62.0255ZM410.552 63.3112L415.159 64.1684L415.342 63.1853L410.735 62.3281L410.552 63.3112ZM419.766 65.0256L424.373 65.8827L424.556 64.8996L419.949 64.0424L419.766 65.0256ZM428.981 66.7399L433.588 67.597L433.771 66.6139L429.164 65.7567L428.981 66.7399ZM438.195 68.4542L442.802 69.3113L442.985 68.3282L438.378 67.4711L438.195 68.4542ZM447.41 70.1685L452.017 71.0257L452.2 70.0425L447.592 69.1854L447.41 70.1685ZM456.624 71.8828L458.928 72.3114L459.11 71.3283L456.807 70.8997L456.624 71.8828Z" fill="#3490FD"/>
<path d="M459.21 81.6246C459.299 81.5194 459.287 81.3616 459.182 81.2721L457.468 79.8142C457.363 79.7247 457.205 79.7375 457.115 79.8426C457.026 79.9478 457.039 80.1056 457.144 80.195L458.667 81.491L457.371 83.0143C457.282 83.1195 457.294 83.2772 457.4 83.3667C457.505 83.4562 457.663 83.4434 457.752 83.3383L459.21 81.6246ZM459.202 91.9194C459.296 91.8186 459.291 91.6604 459.19 91.566L457.548 90.0279C457.448 89.9335 457.289 89.9387 457.195 90.0394C457.101 90.1402 457.106 90.2984 457.206 90.3928L458.666 91.76L457.299 93.2197C457.205 93.3205 457.21 93.4787 457.311 93.5731C457.411 93.6675 457.57 93.6623 457.664 93.5615L459.202 91.9194ZM459.819 102.872C459.927 102.786 459.944 102.628 459.857 102.521L458.449 100.766C458.363 100.658 458.205 100.641 458.098 100.727C457.99 100.814 457.973 100.971 458.059 101.079L459.311 102.639L457.751 103.89C457.643 103.977 457.626 104.134 457.713 104.242C457.799 104.35 457.956 104.367 458.064 104.28L459.819 102.872ZM363.895 89.3849L366.274 89.1931L366.234 88.6947L363.855 88.8865L363.895 89.3849ZM371.031 88.8094L375.788 88.4258L375.748 87.9274L370.991 88.3111L371.031 88.8094ZM380.545 88.0421L385.303 87.6585L385.262 87.1601L380.505 87.5437L380.545 88.0421ZM390.06 87.2748L394.817 86.8911L394.777 86.3928L390.02 86.7764L390.06 87.2748ZM399.574 86.5075L404.332 86.1238L404.291 85.6254L399.534 86.0091L399.574 86.5075ZM409.089 85.7402L413.846 85.3565L413.806 84.8581L409.049 85.2418L409.089 85.7402ZM418.603 84.9728L423.36 84.5892L423.32 84.0908L418.563 84.4745L418.603 84.9728ZM428.118 84.2055L432.875 83.8219L432.835 83.3235L428.077 83.7071L428.118 84.2055ZM437.632 83.4382L442.389 83.0546L442.349 82.5562L437.592 82.9398L437.632 83.4382ZM447.147 82.6709L451.904 82.2872L451.864 81.7889L447.106 82.1725L447.147 82.6709ZM456.661 81.9036L459.04 81.7117L458.999 81.2134L456.621 81.4052L456.661 81.9036ZM321.454 96.4984L323.911 96.4181L323.894 95.9183L321.438 95.9987L321.454 96.4984ZM328.824 96.2573L333.737 96.0966L333.721 95.5969L328.808 95.7576L328.824 96.2573ZM338.651 95.9359L343.564 95.7752L343.548 95.2755L338.634 95.4362L338.651 95.9359ZM348.477 95.6145L353.391 95.4538L353.374 94.954L348.461 95.1147L348.477 95.6145ZM358.304 95.293L363.217 95.1323L363.201 94.6326L358.288 94.7933L358.304 95.293ZM368.131 94.9716L373.044 94.8109L373.028 94.3112L368.114 94.4719L368.131 94.9716ZM377.957 94.6502L382.871 94.4895L382.854 93.9897L377.941 94.1504L377.957 94.6502ZM387.784 94.3287L392.698 94.168L392.681 93.6683L387.768 93.829L387.784 94.3287ZM397.611 94.0073L402.524 93.8466L402.508 93.3468L397.595 93.5076L397.611 94.0073ZM407.438 93.6859L412.351 93.5251L412.335 93.0254L407.421 93.1861L407.438 93.6859ZM417.264 93.3644L422.178 93.2037L422.161 92.704L417.248 92.8647L417.264 93.3644ZM427.091 93.043L432.004 92.8823L431.988 92.3825L427.075 92.5433L427.091 93.043ZM436.918 92.7216L441.831 92.5608L441.815 92.0611L436.901 92.2218L436.918 92.7216ZM446.744 92.4001L451.658 92.2394L451.641 91.7397L446.728 91.9004L446.744 92.4001ZM456.571 92.0787L459.028 91.9983L459.011 91.4986L456.555 91.579L456.571 92.0787ZM412.706 97.7828L415.052 98.0399L415.107 97.5429L412.76 97.2858L412.706 97.7828ZM419.745 98.5542L424.438 99.0685L424.493 98.5715L419.8 98.0572L419.745 98.5542ZM429.131 99.5828L433.824 100.097L433.879 99.6001L429.186 99.0858L429.131 99.5828ZM438.517 100.611L443.21 101.126L443.264 100.629L438.571 100.114L438.517 100.611ZM447.903 101.64L452.596 102.154L452.65 101.657L447.957 101.143L447.903 101.64ZM457.289 102.669L459.635 102.926L459.69 102.429L457.343 102.172L457.289 102.669ZM459.4 81.7865C459.579 81.5762 459.554 81.2607 459.344 81.0817L455.916 78.1658C455.706 77.9869 455.39 78.0123 455.211 78.2227C455.032 78.433 455.058 78.7486 455.268 78.9275L458.315 81.5194L455.723 84.566C455.544 84.7764 455.569 85.0919 455.78 85.2709C455.99 85.4498 456.306 85.4243 456.484 85.214L459.4 81.7865ZM459.384 92.0903C459.573 91.8887 459.563 91.5723 459.361 91.3835L456.077 88.3073C455.876 88.1185 455.559 88.1289 455.37 88.3304C455.182 88.532 455.192 88.8484 455.393 89.0371L458.313 91.7716L455.578 94.691C455.39 94.8925 455.4 95.2089 455.601 95.3977C455.803 95.5865 456.119 95.5761 456.308 95.3746L459.384 92.0903ZM459.975 103.067C460.191 102.894 460.225 102.58 460.052 102.364L457.236 98.8546C457.063 98.6392 456.748 98.6048 456.533 98.7776C456.318 98.9504 456.283 99.2651 456.456 99.4805L458.96 102.6L455.84 105.104C455.624 105.276 455.59 105.591 455.763 105.807C455.936 106.022 456.25 106.056 456.466 105.884L459.975 103.067ZM363.915 89.6341L366.294 89.4423L366.213 88.4455L363.835 88.6374L363.915 89.6341ZM371.051 89.0586L375.808 88.675L375.728 87.6782L370.971 88.0619L371.051 89.0586ZM380.566 88.2913L385.323 87.9077L385.242 86.9109L380.485 87.2945L380.566 88.2913ZM390.08 87.524L394.837 87.1403L394.757 86.1436L390 86.5272L390.08 87.524ZM399.594 86.7567L404.352 86.373L404.271 85.3763L399.514 85.7599L399.594 86.7567ZM409.109 85.9894L413.866 85.6057L413.786 84.6089L409.028 84.9926L409.109 85.9894ZM418.623 85.222L423.381 84.8384L423.3 83.8416L418.543 84.2253L418.623 85.222ZM428.138 84.4547L432.895 84.0711L432.815 83.0743L428.057 83.458L428.138 84.4547ZM437.652 83.6874L442.409 83.3037L442.329 82.307L437.572 82.6906L437.652 83.6874ZM447.167 82.9201L451.924 82.5364L451.844 81.5397L447.086 81.9233L447.167 82.9201ZM456.681 82.1528L459.06 81.9609L458.979 80.9642L456.601 81.156L456.681 82.1528ZM321.462 96.7483L323.919 96.6679L323.886 95.6685L321.429 95.7488L321.462 96.7483ZM328.832 96.5072L333.745 96.3465L333.713 95.347L328.799 95.5077L328.832 96.5072ZM338.659 96.1858L343.572 96.0251L343.54 95.0256L338.626 95.1863L338.659 96.1858ZM348.486 95.8643L353.399 95.7036L353.366 94.7042L348.453 94.8649L348.486 95.8643ZM358.312 95.5429L363.226 95.3822L363.193 94.3827L358.28 94.5434L358.312 95.5429ZM368.139 95.2215L373.052 95.0608L373.02 94.0613L368.106 94.222L368.139 95.2215ZM377.966 94.9L382.879 94.7393L382.846 93.7399L377.933 93.9006L377.966 94.9ZM387.792 94.5786L392.706 94.4179L392.673 93.4184L387.76 93.5791L387.792 94.5786ZM397.619 94.2572L402.532 94.0964L402.5 93.097L397.586 93.2577L397.619 94.2572ZM407.446 93.9357L412.359 93.775L412.326 92.7755L407.413 92.9363L407.446 93.9357ZM417.272 93.6143L422.186 93.4536L422.153 92.4541L417.24 92.6148L417.272 93.6143ZM427.099 93.2929L432.012 93.1321L431.98 92.1327L427.066 92.2934L427.099 93.2929ZM436.926 92.9714L441.839 92.8107L441.806 91.8112L436.893 91.972L436.926 92.9714ZM446.753 92.65L451.666 92.4893L451.633 91.4898L446.72 91.6505L446.753 92.65ZM456.579 92.3286L459.036 92.2482L459.003 91.2487L456.547 91.3291L456.579 92.3286ZM412.679 98.0313L415.025 98.2884L415.134 97.2944L412.788 97.0372L412.679 98.0313ZM419.718 98.8027L424.411 99.317L424.52 98.323L419.827 97.8087L419.718 98.8027ZM429.104 99.8313L433.797 100.346L433.906 99.3516L429.213 98.8373L429.104 99.8313ZM438.49 100.86L443.183 101.374L443.292 100.38L438.599 99.8659L438.49 100.86ZM447.876 101.889L452.569 102.403L452.677 101.409L447.985 100.894L447.876 101.889ZM457.261 102.917L459.608 103.174L459.717 102.18L457.37 101.923L457.261 102.917Z" fill="#3490FD"/>
<path d="M486.989 127.356C486.989 128.844 486.425 130.068 485.297 131.028C484.193 131.988 482.729 132.468 480.905 132.468C479.513 132.468 478.445 132.144 477.701 131.496C476.981 130.848 476.561 129.984 476.441 128.904C476.537 128.592 476.705 128.352 476.945 128.184C477.209 127.992 477.485 127.896 477.773 127.896C478.301 127.896 478.685 128.04 478.925 128.328C479.189 128.592 479.381 128.976 479.501 129.48L479.897 131.028C479.969 131.052 480.041 131.064 480.113 131.064C480.209 131.064 480.305 131.064 480.401 131.064C481.649 131.064 482.621 130.788 483.317 130.236C484.013 129.684 484.361 128.94 484.361 128.004C484.361 127.428 484.229 126.876 483.965 126.348C483.701 125.82 483.053 125.184 482.021 124.44C481.133 123.744 480.377 123.036 479.753 122.316C479.153 121.572 478.853 120.636 478.853 119.508C478.853 118.572 479.093 117.72 479.573 116.952C480.053 116.184 480.713 115.584 481.553 115.152C482.417 114.696 483.425 114.468 484.577 114.468C485.633 114.468 486.545 114.708 487.313 115.188C488.081 115.644 488.597 116.46 488.861 117.636C488.645 118.308 488.189 118.644 487.493 118.644C486.653 118.644 486.041 118.08 485.657 116.952L485.333 115.908C485.261 115.884 485.177 115.872 485.081 115.872C485.009 115.872 484.925 115.872 484.829 115.872C483.581 115.872 482.693 116.16 482.165 116.736C481.661 117.312 481.409 118.008 481.409 118.824C481.409 119.568 481.589 120.192 481.949 120.696C482.333 121.176 483.041 121.8 484.073 122.568C485.153 123.384 485.909 124.128 486.341 124.8C486.773 125.448 486.989 126.3 486.989 127.356ZM489.377 137.724C489.785 135.876 490.181 133.992 490.565 132.072C490.949 130.152 491.333 128.232 491.717 126.312L493.373 117.672C493.757 115.776 494.129 113.88 494.489 111.984C494.849 110.064 495.185 108.156 495.497 106.26H502.301L502.013 107.7L497.837 108.168C497.525 109.704 497.201 111.276 496.865 112.884C496.553 114.468 496.241 116.064 495.929 117.672L494.273 126.312C493.961 127.872 493.649 129.456 493.337 131.064C493.025 132.648 492.737 134.232 492.473 135.816L496.469 136.284L496.181 137.724H489.377ZM503.424 128.004L505.836 116.7H502.164L502.416 115.26L506.304 114.9L507.996 110.076H509.832L508.788 114.936H513.36L513.072 116.88L508.428 116.736L506.232 127.068C506.016 128.028 505.908 128.724 505.908 129.156C505.908 129.42 505.992 129.624 506.16 129.768C506.352 129.912 506.556 129.984 506.772 129.984C507.684 129.984 508.86 129.12 510.3 127.392L511.2 128.076C510.696 128.796 510.12 129.492 509.472 130.164C508.824 130.836 508.128 131.388 507.384 131.82C506.64 132.252 505.86 132.468 505.044 132.468C504.516 132.468 504.048 132.312 503.64 132C503.256 131.688 503.064 131.232 503.064 130.632C503.064 130.368 503.088 130.056 503.136 129.696C503.184 129.312 503.28 128.748 503.424 128.004ZM520.78 128.688V121.092H513.796V119.184H520.78V111.732H522.832V119.184H529.78V121.092H522.832V128.688H520.78ZM537.098 110.292L544.694 108.384L545.09 108.744L543.902 113.892L541.778 124.404C541.586 125.364 541.394 126.336 541.202 127.32C541.01 128.28 540.818 129.24 540.626 130.2L545.99 130.74L545.702 132H532.67L532.922 130.74L537.962 130.236L541.778 111.336L536.81 111.732L537.098 110.292ZM561.172 106.26C560.764 108.108 560.368 109.992 559.984 111.912C559.6 113.832 559.216 115.752 558.832 117.672L557.176 126.312C556.792 128.208 556.42 130.104 556.06 132C555.724 133.92 555.388 135.828 555.052 137.724H548.248L548.536 136.284L552.712 135.816C553.048 134.256 553.372 132.684 553.684 131.1C553.996 129.516 554.308 127.92 554.62 126.312L556.276 117.672C556.588 116.112 556.9 114.54 557.212 112.956C557.524 111.348 557.812 109.752 558.076 108.168L554.08 107.7L554.368 106.26H561.172Z" fill="#3490FD"/>
</svg>
