<svg width="386" height="306" viewBox="0 0 386 306" fill="none" xmlns="http://www.w3.org/2000/svg">
<circle cx="185.986" cy="52.5385" r="14.8029" stroke="black"/>
<circle cx="220.765" cy="91.4914" r="14.8029" stroke="black"/>
<circle cx="201.288" cy="149.921" r="14.8029" stroke="black"/>
<circle cx="275.021" cy="98.4474" r="14.8029" stroke="black"/>
<circle cx="255.544" cy="184.7" r="14.8029" stroke="black"/>
<circle cx="205.462" cy="208.35" r="14.8029" stroke="black"/>
<circle cx="174.856" cy="99.8386" r="14.8029" stroke="black"/>
<circle cx="263.891" cy="59.4946" r="14.8029" stroke="black"/>
<circle cx="251.37" cy="141.574" r="14.8029" stroke="black"/>
<circle cx="293.106" cy="154.094" r="14.8029" stroke="black"/>
<circle cx="165.117" cy="186.091" r="14.8029" stroke="black"/>
<circle cx="140.076" cy="126.271" r="14.8029" stroke="black"/>
<circle cx="57.3029" cy="125.206" r="14.8029" stroke="black"/>
<path d="M151.115 182.349C151.388 182.306 151.574 182.05 151.53 181.777L150.826 177.332C150.783 177.06 150.527 176.874 150.254 176.917C149.981 176.96 149.795 177.216 149.839 177.489L150.465 181.44L146.514 182.066C146.241 182.109 146.055 182.365 146.098 182.638C146.141 182.91 146.398 183.097 146.67 183.053L151.115 182.349ZM72.3111 125.284L150.743 182.26L151.33 181.451L72.8989 124.475L72.3111 125.284Z" fill="#FFD600"/>
<path d="M171.173 57.4968C171.222 57.2251 171.042 56.9649 170.77 56.9158L166.342 56.1142C166.071 56.065 165.81 56.2454 165.761 56.5171C165.712 56.7889 165.892 57.049 166.164 57.0982L170.1 57.8107L169.388 61.7467C169.338 62.0185 169.519 62.2786 169.791 62.3278C170.062 62.377 170.322 62.1966 170.372 61.9249L171.173 57.4968ZM73.5839 125.348L170.966 57.8186L170.396 56.9969L73.014 124.527L73.5839 125.348Z" fill="#FFD600"/>
<path d="M249.737 61.0972C249.854 60.8469 249.746 60.5494 249.496 60.4326L245.418 58.5297C245.168 58.4129 244.87 58.5211 244.753 58.7713C244.637 59.0215 244.745 59.3191 244.995 59.4358L248.62 61.1274L246.928 64.7521C246.811 65.0023 246.92 65.2999 247.17 65.4166C247.42 65.5334 247.718 65.4252 247.834 65.175L249.737 61.0972ZM73.4715 125.35L249.455 61.3556L249.113 60.4158L73.1298 124.41L73.4715 125.35Z" fill="#FFD600"/>
<path d="M243.962 174.008C244.203 173.874 244.29 173.569 244.156 173.328L241.969 169.395C241.835 169.154 241.53 169.067 241.289 169.201C241.048 169.335 240.961 169.639 241.095 169.881L243.039 173.377L239.543 175.32C239.301 175.455 239.215 175.759 239.349 176C239.483 176.242 239.787 176.329 240.029 176.194L243.962 174.008ZM73.1626 125.418L243.582 174.052L243.856 173.09L73.437 124.457L73.1626 125.418Z" fill="#FFD600"/>
<path d="M162.802 109.757C162.901 109.499 162.772 109.21 162.515 109.11L158.314 107.495C158.057 107.396 157.767 107.525 157.668 107.782C157.569 108.04 157.698 108.329 157.955 108.428L161.689 109.864L160.253 113.598C160.154 113.855 160.282 114.145 160.54 114.244C160.798 114.343 161.087 114.214 161.186 113.957L162.802 109.757ZM150.018 115.599L162.538 110.034L162.132 109.12L149.611 114.685L150.018 115.599Z" fill="#4DAE57"/>
<path d="M159.404 171.266C159.667 171.348 159.948 171.202 160.03 170.938L161.372 166.643C161.455 166.379 161.308 166.099 161.044 166.016C160.781 165.934 160.5 166.081 160.418 166.345L159.225 170.163L155.407 168.969C155.143 168.887 154.863 169.034 154.781 169.298C154.698 169.561 154.845 169.842 155.109 169.924L159.404 171.266ZM143.807 141.806L159.11 171.021L159.996 170.557L144.693 141.342L143.807 141.806Z" fill="#4DAE57"/>
<path d="M283.17 165.262C283.191 164.987 282.985 164.747 282.71 164.726L278.223 164.38C277.948 164.359 277.708 164.565 277.687 164.841C277.665 165.116 277.871 165.356 278.147 165.377L282.135 165.684L281.828 169.672C281.807 169.948 282.013 170.188 282.288 170.209C282.564 170.231 282.804 170.024 282.825 169.749L283.17 165.262ZM268.39 178.124L282.997 165.604L282.346 164.844L267.739 177.365L268.39 178.124Z" fill="#4DAE57"/>
<path d="M242.103 190.435C242.196 190.175 242.062 189.888 241.802 189.795L237.568 188.271C237.308 188.177 237.021 188.312 236.928 188.572C236.834 188.832 236.969 189.118 237.229 189.212L240.993 190.566L239.638 194.33C239.544 194.59 239.679 194.876 239.939 194.97C240.199 195.063 240.485 194.929 240.579 194.669L242.103 190.435ZM218.195 201.847L241.845 190.718L241.419 189.813L217.77 200.942L218.195 201.847Z" fill="#4DAE57"/>
<path d="M240.618 182.247C240.799 182.039 240.778 181.723 240.57 181.541L237.179 178.583C236.971 178.402 236.655 178.423 236.473 178.631C236.292 178.84 236.313 179.155 236.521 179.337L239.536 181.966L236.906 184.981C236.725 185.189 236.746 185.505 236.954 185.686C237.162 185.868 237.478 185.846 237.66 185.638L240.618 182.247ZM179.063 186.591L240.275 182.417L240.207 181.419L178.995 185.593L179.063 186.591Z" fill="#4DAE57"/>
<path d="M180.849 67.5848C180.707 67.348 180.4 67.2712 180.163 67.4133L176.305 69.7285C176.068 69.8706 175.991 70.1777 176.133 70.4145C176.275 70.6513 176.582 70.7281 176.819 70.586L180.249 68.528L182.307 71.958C182.449 72.1948 182.756 72.2716 182.993 72.1295C183.23 71.9874 183.307 71.6803 183.165 71.4435L180.849 67.5848ZM176.732 84.6574L180.906 67.9633L179.936 67.7208L175.762 84.4149L176.732 84.6574Z" fill="#4DAE57"/>
<path d="M251.859 69.3393C251.917 69.0695 251.746 68.8032 251.476 68.7445L247.079 67.7886C246.809 67.7299 246.543 67.9011 246.484 68.1709C246.425 68.4408 246.597 68.7071 246.866 68.7657L250.775 69.6155L249.925 73.5242C249.867 73.794 250.038 74.0603 250.308 74.119C250.578 74.1776 250.844 74.0064 250.903 73.7366L251.859 69.3393ZM232.164 82.1743L251.64 69.6537L251.1 68.8125L231.623 81.3331L232.164 82.1743Z" fill="#4DAE57"/>
<path d="M243.023 37.9317L242.637 37.614L242.637 37.614L243.023 37.9317ZM262.195 43.8936C262.415 44.0613 262.729 44.0195 262.896 43.8002L265.63 40.2256C265.798 40.0062 265.756 39.6924 265.536 39.5247C265.317 39.3569 265.003 39.3988 264.836 39.6181L262.406 42.7955L259.228 40.3657C259.009 40.198 258.695 40.2398 258.527 40.4591C258.36 40.6785 258.402 40.9923 258.621 41.1601L262.195 43.8936ZM249.333 54.8239C242.747 54.1653 237.618 45.2861 243.409 38.2494L242.637 37.614C236.304 45.3094 241.907 55.0863 249.233 55.8189L249.333 54.8239ZM243.409 38.2494C246.313 34.7204 250.634 33.5625 254.389 34.5235C258.131 35.4812 261.335 38.5501 262.004 43.5625L262.995 43.4303C262.272 38.0089 258.769 34.6124 254.636 33.5547C250.516 32.5002 245.794 33.7769 242.637 37.614L243.409 38.2494Z" fill="#4DAE57"/>
<path d="M229.275 155.989L229.771 156.046L229.771 156.046L229.275 155.989ZM209.94 161.401C209.664 161.38 209.424 161.585 209.402 161.861L209.049 166.347C209.028 166.622 209.233 166.863 209.509 166.885C209.784 166.906 210.025 166.701 210.046 166.425L210.36 162.438L214.347 162.751C214.623 162.773 214.863 162.567 214.885 162.292C214.907 162.016 214.701 161.776 214.426 161.754L209.94 161.401ZM214.799 145.236C220.685 142.211 229.816 146.878 228.778 155.932L229.771 156.046C230.907 146.145 220.891 140.981 214.342 144.347L214.799 145.236ZM228.778 155.932C228.257 160.473 225.259 163.792 221.585 165.026C217.923 166.255 213.565 165.42 210.281 161.575L209.52 162.225C213.073 166.383 217.859 167.332 221.903 165.974C225.935 164.621 229.205 160.983 229.771 156.046L228.778 155.932Z" fill="#4DAE57"/>
<path d="M125.303 100.625L125.013 100.217L125.013 100.217L125.303 100.625ZM142.254 111.386C142.422 111.605 142.735 111.647 142.955 111.479L146.527 108.742C146.746 108.574 146.787 108.26 146.619 108.041C146.452 107.822 146.138 107.78 145.918 107.948L142.743 110.381L140.311 107.206C140.143 106.986 139.829 106.945 139.61 107.113C139.39 107.281 139.349 107.595 139.517 107.814L142.254 111.386ZM126.983 118.579C120.798 116.223 118.165 106.313 125.592 101.032L125.013 100.217C116.89 105.992 119.746 116.893 126.627 119.513L126.983 118.579ZM125.592 101.032C129.317 98.384 133.79 98.3944 137.164 100.302C140.526 102.204 142.818 106.003 142.155 111.016L143.146 111.147C143.864 105.725 141.37 101.532 137.656 99.432C133.954 97.3383 129.063 97.3378 125.013 100.217L125.592 101.032Z" fill="#4DAE57"/>
<path d="M206.539 93.206C206.717 92.9952 206.691 92.6797 206.48 92.5013L203.045 89.5946C202.834 89.4162 202.518 89.4425 202.34 89.6533C202.162 89.8641 202.188 90.1796 202.399 90.3579L205.452 92.9417L202.869 95.9953C202.69 96.2061 202.716 96.5216 202.927 96.6999C203.138 96.8783 203.454 96.852 203.632 96.6412L206.539 93.206ZM189.504 94.7724L206.199 93.3813L206.115 92.3847L189.421 93.7759L189.504 94.7724Z" fill="#4DAE57"/>
<path d="M167.505 171.096C167.674 171.314 167.989 171.353 168.207 171.184L171.759 168.421C171.977 168.251 172.016 167.937 171.846 167.719C171.677 167.501 171.363 167.462 171.145 167.631L167.987 170.087L165.532 166.93C165.362 166.712 165.048 166.673 164.83 166.842C164.612 167.012 164.573 167.326 164.742 167.544L167.505 171.096ZM174.359 115.08L167.403 170.727L168.396 170.851L175.352 115.204L174.359 115.08Z" fill="#4DAE57"/>
<path d="M251.667 155.084C251.445 154.92 251.132 154.967 250.968 155.189L248.293 158.808C248.129 159.03 248.176 159.343 248.398 159.507C248.62 159.671 248.933 159.624 249.098 159.402L251.475 156.185L254.692 158.563C254.914 158.727 255.227 158.68 255.391 158.458C255.555 158.236 255.508 157.923 255.286 157.759L251.667 155.084ZM253.951 169.324L251.865 155.412L250.876 155.56L252.963 169.472L253.951 169.324Z" fill="#4DAE57"/>
<path d="M201.605 164.837C201.391 164.662 201.076 164.694 200.901 164.907L198.051 168.39C197.877 168.604 197.908 168.919 198.122 169.094C198.336 169.269 198.651 169.237 198.825 169.023L201.358 165.928L204.454 168.461C204.668 168.635 204.983 168.604 205.158 168.39C205.333 168.176 205.301 167.861 205.087 167.687L201.605 164.837ZM204.568 192.998L201.786 165.174L200.79 165.274L203.573 193.097L204.568 192.998Z" fill="#4DAE57"/>
<path d="M277.98 110.501C277.722 110.403 277.433 110.533 277.335 110.791L275.739 114.998C275.641 115.257 275.771 115.545 276.029 115.643C276.288 115.741 276.576 115.611 276.674 115.353L278.093 111.613L281.833 113.032C282.091 113.13 282.38 113 282.478 112.742C282.576 112.483 282.446 112.195 282.187 112.097L277.98 110.501ZM290.779 138.587L278.259 110.763L277.347 111.173L289.867 138.997L290.779 138.587Z" fill="#4DAE57"/>
<path d="M235.78 92.4735C235.554 92.6319 235.499 92.9436 235.657 93.1698L238.238 96.8564C238.396 97.0826 238.708 97.1376 238.934 96.9793C239.16 96.8209 239.215 96.5092 239.057 96.2829L236.763 93.006L240.04 90.7122C240.266 90.5538 240.321 90.242 240.163 90.0158C240.005 89.7896 239.693 89.7346 239.467 89.8929L235.78 92.4735ZM259.804 96.5642L236.154 92.3907L235.98 93.3755L259.63 97.549L259.804 96.5642Z" fill="#4DAE57"/>
<path d="M252.368 126.58C252.539 126.797 252.853 126.835 253.07 126.665L256.609 123.884C256.826 123.714 256.863 123.399 256.693 123.182C256.522 122.965 256.208 122.927 255.991 123.098L252.845 125.569L250.374 122.424C250.204 122.207 249.889 122.169 249.672 122.34C249.455 122.51 249.417 122.825 249.588 123.042L252.368 126.58ZM258.525 74.0427L252.265 126.212L253.258 126.331L259.518 74.1619L258.525 74.0427Z" fill="#4DAE57"/>
<circle cx="140.5" cy="132.5" r="6.5" fill="#FDA646"/>
<circle cx="175.5" cy="105.5" r="6.5" fill="#FDA646"/>
<circle cx="186.5" cy="58.5" r="6.5" fill="#FDA646"/>
<circle cx="220.5" cy="97.5" r="6.5" fill="#FDA646"/>
<circle cx="264.5" cy="65.5" r="6.5" fill="#FDA646"/>
<circle cx="275.5" cy="104.5" r="6.5" fill="#FDA646"/>
<circle cx="293.5" cy="160.5" r="6.5" fill="#FDA646"/>
<circle cx="250.5" cy="147.5" r="6.5" fill="#FDA646"/>
<circle cx="200.5" cy="156.5" r="6.5" fill="#FDA646"/>
<circle cx="164.5" cy="191.5" r="6.5" fill="#FDA646"/>
<circle cx="205.5" cy="214.5" r="6.5" fill="#FDA646"/>
<circle cx="147.5" cy="271.5" r="15.5" fill="#FDA646"/>
<circle cx="191.5" cy="272.5" r="15.5" fill="#FDA646"/>
<circle cx="237.5" cy="271.5" r="15.5" fill="#FDA646"/>
<circle cx="333.5" cy="271.5" r="15.5" fill="#FDA646"/>
<circle cx="255.5" cy="190.5" r="6.5" fill="#FDA646"/>
<circle cx="39.5" cy="266.5" r="37.5" stroke="#FDA646" stroke-width="4"/>
<path d="M27.2268 272.356C27.2268 273.844 26.6628 275.068 25.5348 276.028C24.4308 276.988 22.9668 277.468 21.1428 277.468C19.7508 277.468 18.6828 277.144 17.9388 276.496C17.2188 275.848 16.7988 274.984 16.6788 273.904C16.7748 273.592 16.9428 273.352 17.1828 273.184C17.4468 272.992 17.7228 272.896 18.0108 272.896C18.5388 272.896 18.9228 273.04 19.1628 273.328C19.4268 273.592 19.6188 273.976 19.7388 274.48L20.1348 276.028C20.2068 276.052 20.2788 276.064 20.3508 276.064C20.4468 276.064 20.5428 276.064 20.6388 276.064C21.8868 276.064 22.8588 275.788 23.5548 275.236C24.2508 274.684 24.5988 273.94 24.5988 273.004C24.5988 272.428 24.4668 271.876 24.2028 271.348C23.9388 270.82 23.2908 270.184 22.2588 269.44C21.3708 268.744 20.6148 268.036 19.9908 267.316C19.3908 266.572 19.0908 265.636 19.0908 264.508C19.0908 263.572 19.3308 262.72 19.8108 261.952C20.2908 261.184 20.9508 260.584 21.7908 260.152C22.6548 259.696 23.6628 259.468 24.8148 259.468C25.8708 259.468 26.7828 259.708 27.5508 260.188C28.3188 260.644 28.8348 261.46 29.0988 262.636C28.8828 263.308 28.4268 263.644 27.7308 263.644C26.8908 263.644 26.2788 263.08 25.8948 261.952L25.5708 260.908C25.4988 260.884 25.4148 260.872 25.3188 260.872C25.2468 260.872 25.1628 260.872 25.0668 260.872C23.8188 260.872 22.9308 261.16 22.4028 261.736C21.8988 262.312 21.6468 263.008 21.6468 263.824C21.6468 264.568 21.8268 265.192 22.1868 265.696C22.5708 266.176 23.2788 266.8 24.3108 267.568C25.3908 268.384 26.1468 269.128 26.5788 269.8C27.0108 270.448 27.2268 271.3 27.2268 272.356ZM29.6155 282.724C30.0235 280.876 30.4195 278.992 30.8035 277.072C31.1875 275.152 31.5715 273.232 31.9555 271.312L33.6115 262.672C33.9955 260.776 34.3675 258.88 34.7275 256.984C35.0875 255.064 35.4235 253.156 35.7355 251.26H42.5395L42.2515 252.7L38.0755 253.168C37.7635 254.704 37.4395 256.276 37.1035 257.884C36.7915 259.468 36.4795 261.064 36.1675 262.672L34.5115 271.312C34.1995 272.872 33.8875 274.456 33.5755 276.064C33.2635 277.648 32.9755 279.232 32.7115 280.816L36.7075 281.284L36.4195 282.724H29.6155ZM43.6625 273.004L46.0745 261.7H42.4025L42.6545 260.26L46.5425 259.9L48.2345 255.076H50.0705L49.0265 259.936H53.5985L53.3105 261.88L48.6665 261.736L46.4705 272.068C46.2545 273.028 46.1465 273.724 46.1465 274.156C46.1465 274.42 46.2305 274.624 46.3985 274.768C46.5905 274.912 46.7945 274.984 47.0105 274.984C47.9225 274.984 49.0985 274.12 50.5385 272.392L51.4385 273.076C50.9345 273.796 50.3585 274.492 49.7105 275.164C49.0625 275.836 48.3665 276.388 47.6225 276.82C46.8785 277.252 46.0985 277.468 45.2825 277.468C44.7545 277.468 44.2865 277.312 43.8785 277C43.4945 276.688 43.3025 276.232 43.3025 275.632C43.3025 275.368 43.3265 275.056 43.3745 274.696C43.4225 274.312 43.5185 273.748 43.6625 273.004ZM63.9342 251.26C63.5262 253.108 63.1302 254.992 62.7462 256.912C62.3622 258.832 61.9782 260.752 61.5942 262.672L59.9382 271.312C59.5542 273.208 59.1822 275.104 58.8222 277C58.4862 278.92 58.1502 280.828 57.8142 282.724H51.0102L51.2982 281.284L55.4742 280.816C55.8102 279.256 56.1342 277.684 56.4462 276.1C56.7582 274.516 57.0702 272.92 57.3822 271.312L59.0382 262.672C59.3502 261.112 59.6622 259.54 59.9742 257.956C60.2862 256.348 60.5742 254.752 60.8382 253.168L56.8422 252.7L57.1302 251.26H63.9342Z" fill="#FDA646"/>
<path d="M365.67 256.26C365.262 258.108 364.866 259.992 364.482 261.912C364.098 263.832 363.714 265.752 363.33 267.672L361.674 276.312C361.29 278.208 360.918 280.104 360.558 282C360.222 283.92 359.886 285.828 359.55 287.724H352.746L353.034 286.284L357.21 285.816C357.546 284.256 357.87 282.684 358.182 281.1C358.494 279.516 358.806 277.92 359.118 276.312L360.774 267.672C361.086 266.112 361.398 264.54 361.71 262.956C362.022 261.348 362.31 259.752 362.574 258.168L358.578 257.7L358.866 256.26H365.67Z" fill="black"/>
<path d="M276.96 284.36C276.36 284.36 275.856 284.168 275.448 283.784C275.04 283.4 274.836 282.908 274.836 282.308C274.836 281.588 275.088 281 275.592 280.544C276.12 280.064 276.72 279.824 277.392 279.824C278.016 279.824 278.52 280.028 278.904 280.436C279.288 280.844 279.48 281.324 279.48 281.876C279.48 282.596 279.228 283.196 278.724 283.676C278.244 284.132 277.656 284.36 276.96 284.36ZM285.996 284.36C285.396 284.36 284.892 284.168 284.484 283.784C284.076 283.4 283.872 282.908 283.872 282.308C283.872 281.588 284.124 281 284.628 280.544C285.156 280.064 285.756 279.824 286.428 279.824C287.052 279.824 287.556 280.028 287.94 280.436C288.324 280.844 288.516 281.324 288.516 281.876C288.516 282.596 288.264 283.196 287.76 283.676C287.28 284.132 286.692 284.36 285.996 284.36ZM295.031 284.36C294.431 284.36 293.927 284.168 293.519 283.784C293.111 283.4 292.907 282.908 292.907 282.308C292.907 281.588 293.159 281 293.663 280.544C294.191 280.064 294.791 279.824 295.463 279.824C296.087 279.824 296.591 280.028 296.975 280.436C297.359 280.844 297.551 281.324 297.551 281.876C297.551 282.596 297.299 283.196 296.795 283.676C296.315 284.132 295.727 284.36 295.031 284.36Z" fill="black"/>
<path d="M105.991 273.692H90.0068V271.784H105.991V273.692ZM105.991 266.492H90.0068V264.584H105.991V266.492ZM116.67 286.724C117.078 284.876 117.474 282.992 117.858 281.072C118.242 279.152 118.626 277.232 119.01 275.312L120.666 266.672C121.05 264.776 121.422 262.88 121.782 260.984C122.142 259.064 122.478 257.156 122.79 255.26H129.594L129.306 256.7L125.13 257.168C124.818 258.704 124.494 260.276 124.158 261.884C123.846 263.468 123.534 265.064 123.222 266.672L121.566 275.312C121.254 276.872 120.942 278.456 120.63 280.064C120.318 281.648 120.03 283.232 119.766 284.816L123.762 285.284L123.474 286.724H116.67Z" fill="black"/>
</svg>
