<svg width="891" height="438" viewBox="0 0 891 438" fill="none" xmlns="http://www.w3.org/2000/svg">
<circle cx="623" cy="217" r="85" stroke="black" stroke-width="4"/>
<circle cx="804" cy="218" r="85" stroke="black" stroke-width="4"/>
<circle cx="268" cy="218" r="85" stroke="black" stroke-width="4"/>
<circle cx="87" cy="213" r="85" stroke="black" stroke-width="4"/>
<circle cx="622.5" cy="264.5" r="37.5" stroke="#4DAE57" stroke-width="4"/>
<circle cx="803.5" cy="265.5" r="37.5" stroke="#FD7234" stroke-width="4"/>
<circle cx="267.5" cy="265.5" r="37.5" stroke="#3490FD" stroke-width="4"/>
<path d="M87 380.5L95.6602 365.5L78.3397 365.5L87 380.5ZM87 127.5L95.6603 112.5L78.3397 112.5L87 127.5ZM85.5 298L85.5 367L88.5 367L88.5 298L85.5 298ZM85.5 45L85.5 114L88.5 114L88.5 45L85.5 45Z" fill="black"/>
<path d="M268 385.5L276.66 370.5L259.34 370.5L268 385.5ZM268 132.5L276.66 117.5L259.34 117.5L268 132.5ZM266.5 303L266.5 372L269.5 372L269.5 303L266.5 303ZM266.5 50L266.5 119L269.5 119L269.5 50L266.5 50Z" fill="black"/>
<path d="M449 387.5L457.66 372.5L440.34 372.5L449 387.5ZM449 134.5L457.66 119.5L440.34 119.5L449 134.5ZM447.5 305L447.5 374L450.5 374L450.5 305L447.5 305ZM447.5 52L447.5 121L450.5 121L450.5 52L447.5 52Z" fill="black"/>
<path d="M623 384.5L631.66 369.5L614.34 369.5L623 384.5ZM623 131.5L631.66 116.5L614.34 116.5L623 131.5ZM621.5 302L621.5 371L624.5 371L624.5 302L621.5 302ZM621.5 49L621.5 118L624.5 118L624.5 49L621.5 49Z" fill="black"/>
<path d="M55.8552 30.912C55.9512 30.48 56.1552 30.156 56.4672 29.94C56.8032 29.724 57.1152 29.616 57.4032 29.616C57.7872 29.616 58.1112 29.7 58.3752 29.868C58.6392 30.012 58.9272 30.36 59.2392 30.912L59.6352 31.632C59.8512 31.464 60.0792 31.248 60.3192 30.984C61.1832 30.048 61.9872 29.088 62.7312 28.104C63.4752 27.12 64.2192 26.076 64.9632 24.972L63.4512 19.824C63.2352 19.08 63.0312 18.576 62.8392 18.312C62.6712 18.024 62.3952 17.88 62.0112 17.88C61.7712 17.88 61.4112 18.024 60.9312 18.312C60.4752 18.6 59.9352 19.272 59.3112 20.328L58.4832 19.716C59.1552 18.228 59.8872 17.148 60.6792 16.476C61.4712 15.804 62.2392 15.468 62.9832 15.468C63.6792 15.468 64.2312 15.696 64.6392 16.152C65.0712 16.608 65.4432 17.412 65.7552 18.564L66.8712 22.56C67.6392 21.336 68.3592 20.256 69.0312 19.32C69.7272 18.384 70.3032 17.64 70.7592 17.088C71.2872 16.464 71.7672 16.044 72.1992 15.828C72.6312 15.588 73.1352 15.468 73.7112 15.468C74.1912 15.468 74.6712 15.624 75.1512 15.936C75.6552 16.248 75.9792 16.728 76.1232 17.376C76.1232 17.88 75.9792 18.3 75.6912 18.636C75.4032 18.948 75.0552 19.104 74.6472 19.104C74.2872 19.104 73.9512 19.032 73.6392 18.888C73.3272 18.72 73.0032 18.384 72.6672 17.88L72.4512 17.592C72.3552 17.664 72.2712 17.748 72.1992 17.844C72.1272 17.94 72.0432 18.036 71.9472 18.132C71.1072 19.068 70.3032 20.028 69.5352 21.012C68.7672 21.996 68.0232 23.004 67.3032 24.036L68.5632 28.608C68.8272 29.592 69.1032 30.24 69.3912 30.552C69.7032 30.84 70.1112 30.984 70.6152 30.984C71.0952 30.984 71.6232 30.756 72.1992 30.3C72.7992 29.844 73.4232 29.208 74.0712 28.392L74.9712 29.076C74.1072 30.348 73.1712 31.404 72.1632 32.244C71.1552 33.06 70.1712 33.468 69.2112 33.468C68.6832 33.468 68.2152 33.3 67.8072 32.964C67.3992 32.604 67.0392 31.908 66.7272 30.876L65.3952 26.412C64.6512 27.612 63.9432 28.704 63.2712 29.688C62.5992 30.648 61.9512 31.5 61.3272 32.244C60.9432 32.7 60.5472 33.012 60.1392 33.18C59.7312 33.372 59.2872 33.468 58.8072 33.468C58.0872 33.468 57.4272 33.264 56.8272 32.856C56.2512 32.424 55.9272 31.776 55.8552 30.912ZM75.9631 38.724C76.3711 36.876 76.7671 34.992 77.1511 33.072C77.5351 31.152 77.9191 29.232 78.3031 27.312L79.9591 18.672C80.3431 16.776 80.7151 14.88 81.0751 12.984C81.4351 11.064 81.7711 9.156 82.0831 7.26H88.8871L88.5991 8.7L84.4231 9.168C84.1111 10.704 83.7871 12.276 83.4511 13.884C83.1391 15.468 82.8271 17.064 82.5151 18.672L80.8591 27.312C80.5471 28.872 80.2351 30.456 79.9231 32.064C79.6111 33.648 79.3231 35.232 79.0591 36.816L83.0551 37.284L82.7671 38.724H75.9631ZM90.0102 29.004L92.4222 17.7H88.7502L89.0022 16.26L92.8902 15.9L94.5822 11.076H96.4182L95.3742 15.936H99.9462L99.6582 17.88L95.0142 17.736L92.8182 28.068C92.6022 29.028 92.4942 29.724 92.4942 30.156C92.4942 30.42 92.5782 30.624 92.7462 30.768C92.9382 30.912 93.1422 30.984 93.3582 30.984C94.2702 30.984 95.4462 30.12 96.8862 28.392L97.7862 29.076C97.2822 29.796 96.7062 30.492 96.0582 31.164C95.4102 31.836 94.7142 32.388 93.9702 32.82C93.2262 33.252 92.4462 33.468 91.6302 33.468C91.1022 33.468 90.6342 33.312 90.2262 33C89.8422 32.688 89.6502 32.232 89.6502 31.632C89.6502 31.368 89.6742 31.056 89.7222 30.696C89.7702 30.312 89.8662 29.748 90.0102 29.004ZM110.282 7.26C109.874 9.108 109.478 10.992 109.094 12.912C108.71 14.832 108.326 16.752 107.942 18.672L106.286 27.312C105.902 29.208 105.53 31.104 105.17 33C104.834 34.92 104.498 36.828 104.162 38.724H97.3578L97.6458 37.284L101.822 36.816C102.158 35.256 102.482 33.684 102.794 32.1C103.106 30.516 103.418 28.92 103.73 27.312L105.386 18.672C105.698 17.112 106.01 15.54 106.322 13.956C106.634 12.348 106.922 10.752 107.186 9.168L103.19 8.7L103.478 7.26H110.282Z" fill="#989898"/>
<path d="M222.117 35.912C222.213 35.48 222.417 35.156 222.729 34.94C223.065 34.724 223.377 34.616 223.665 34.616C224.049 34.616 224.373 34.7 224.637 34.868C224.901 35.012 225.189 35.36 225.501 35.912L225.897 36.632C226.113 36.464 226.341 36.248 226.581 35.984C227.445 35.048 228.249 34.088 228.993 33.104C229.737 32.12 230.481 31.076 231.225 29.972L229.713 24.824C229.497 24.08 229.293 23.576 229.101 23.312C228.933 23.024 228.657 22.88 228.273 22.88C228.033 22.88 227.673 23.024 227.193 23.312C226.737 23.6 226.197 24.272 225.573 25.328L224.745 24.716C225.417 23.228 226.149 22.148 226.941 21.476C227.733 20.804 228.501 20.468 229.245 20.468C229.941 20.468 230.493 20.696 230.901 21.152C231.333 21.608 231.705 22.412 232.017 23.564L233.133 27.56C233.901 26.336 234.621 25.256 235.293 24.32C235.989 23.384 236.565 22.64 237.021 22.088C237.549 21.464 238.029 21.044 238.461 20.828C238.893 20.588 239.397 20.468 239.973 20.468C240.453 20.468 240.933 20.624 241.413 20.936C241.917 21.248 242.241 21.728 242.385 22.376C242.385 22.88 242.241 23.3 241.953 23.636C241.665 23.948 241.317 24.104 240.909 24.104C240.549 24.104 240.213 24.032 239.901 23.888C239.589 23.72 239.265 23.384 238.929 22.88L238.713 22.592C238.617 22.664 238.533 22.748 238.461 22.844C238.389 22.94 238.305 23.036 238.209 23.132C237.369 24.068 236.565 25.028 235.797 26.012C235.029 26.996 234.285 28.004 233.565 29.036L234.825 33.608C235.089 34.592 235.365 35.24 235.653 35.552C235.965 35.84 236.373 35.984 236.877 35.984C237.357 35.984 237.885 35.756 238.461 35.3C239.061 34.844 239.685 34.208 240.333 33.392L241.233 34.076C240.369 35.348 239.433 36.404 238.425 37.244C237.417 38.06 236.433 38.468 235.473 38.468C234.945 38.468 234.477 38.3 234.069 37.964C233.661 37.604 233.301 36.908 232.989 35.876L231.657 31.412C230.913 32.612 230.205 33.704 229.533 34.688C228.861 35.648 228.213 36.5 227.589 37.244C227.205 37.7 226.809 38.012 226.401 38.18C225.993 38.372 225.549 38.468 225.069 38.468C224.349 38.468 223.689 38.264 223.089 37.856C222.513 37.424 222.189 36.776 222.117 35.912ZM242.225 43.724C242.633 41.876 243.029 39.992 243.413 38.072C243.797 36.152 244.181 34.232 244.565 32.312L246.221 23.672C246.605 21.776 246.977 19.88 247.337 17.984C247.697 16.064 248.033 14.156 248.345 12.26H255.149L254.861 13.7L250.685 14.168C250.373 15.704 250.049 17.276 249.713 18.884C249.401 20.468 249.089 22.064 248.777 23.672L247.121 32.312C246.809 33.872 246.497 35.456 246.185 37.064C245.873 38.648 245.585 40.232 245.321 41.816L249.317 42.284L249.029 43.724H242.225ZM256.272 34.004L258.684 22.7H255.012L255.264 21.26L259.152 20.9L260.844 16.076H262.68L261.636 20.936H266.208L265.92 22.88L261.276 22.736L259.08 33.068C258.864 34.028 258.756 34.724 258.756 35.156C258.756 35.42 258.84 35.624 259.008 35.768C259.2 35.912 259.404 35.984 259.62 35.984C260.532 35.984 261.708 35.12 263.148 33.392L264.048 34.076C263.544 34.796 262.968 35.492 262.32 36.164C261.672 36.836 260.976 37.388 260.232 37.82C259.488 38.252 258.708 38.468 257.892 38.468C257.364 38.468 256.896 38.312 256.488 38C256.104 37.688 255.912 37.232 255.912 36.632C255.912 36.368 255.936 36.056 255.984 35.696C256.032 35.312 256.128 34.748 256.272 34.004ZM273.628 34.688V27.092H266.644V25.184H273.628V17.732H275.68V25.184H282.628V27.092H275.68V34.688H273.628ZM289.945 16.292L297.541 14.384L297.937 14.744L296.749 19.892L294.625 30.404C294.433 31.364 294.241 32.336 294.049 33.32C293.857 34.28 293.665 35.24 293.473 36.2L298.837 36.74L298.549 38H285.517L285.769 36.74L290.809 36.236L294.625 17.336L289.657 17.732L289.945 16.292ZM314.02 12.26C313.612 14.108 313.216 15.992 312.832 17.912C312.448 19.832 312.064 21.752 311.68 23.672L310.024 32.312C309.64 34.208 309.268 36.104 308.908 38C308.572 39.92 308.236 41.828 307.9 43.724H301.096L301.384 42.284L305.56 41.816C305.896 40.256 306.22 38.684 306.532 37.1C306.844 35.516 307.156 33.92 307.468 32.312L309.124 23.672C309.436 22.112 309.748 20.54 310.06 18.956C310.372 17.348 310.66 15.752 310.924 14.168L306.928 13.7L307.216 12.26H314.02Z" fill="#6D6D6D"/>
<path d="M438.96 40.36C438.36 40.36 437.856 40.168 437.448 39.784C437.04 39.4 436.836 38.908 436.836 38.308C436.836 37.588 437.088 37 437.592 36.544C438.12 36.064 438.72 35.824 439.392 35.824C440.016 35.824 440.52 36.028 440.904 36.436C441.288 36.844 441.48 37.324 441.48 37.876C441.48 38.596 441.228 39.196 440.724 39.676C440.244 40.132 439.656 40.36 438.96 40.36ZM447.996 40.36C447.396 40.36 446.892 40.168 446.484 39.784C446.076 39.4 445.872 38.908 445.872 38.308C445.872 37.588 446.124 37 446.628 36.544C447.156 36.064 447.756 35.824 448.428 35.824C449.052 35.824 449.556 36.028 449.94 36.436C450.324 36.844 450.516 37.324 450.516 37.876C450.516 38.596 450.264 39.196 449.76 39.676C449.28 40.132 448.692 40.36 447.996 40.36ZM457.031 40.36C456.431 40.36 455.927 40.168 455.519 39.784C455.111 39.4 454.907 38.908 454.907 38.308C454.907 37.588 455.159 37 455.663 36.544C456.191 36.064 456.791 35.824 457.463 35.824C458.087 35.824 458.591 36.028 458.975 36.436C459.359 36.844 459.551 37.324 459.551 37.876C459.551 38.596 459.299 39.196 458.795 39.676C458.315 40.132 457.727 40.36 457.031 40.36Z" fill="black"/>
<path d="M576.168 34.912C576.264 34.48 576.468 34.156 576.78 33.94C577.116 33.724 577.428 33.616 577.716 33.616C578.1 33.616 578.424 33.7 578.688 33.868C578.952 34.012 579.24 34.36 579.552 34.912L579.948 35.632C580.164 35.464 580.392 35.248 580.632 34.984C581.496 34.048 582.3 33.088 583.044 32.104C583.788 31.12 584.532 30.076 585.276 28.972L583.764 23.824C583.548 23.08 583.344 22.576 583.152 22.312C582.984 22.024 582.708 21.88 582.324 21.88C582.084 21.88 581.724 22.024 581.244 22.312C580.788 22.6 580.248 23.272 579.624 24.328L578.796 23.716C579.468 22.228 580.2 21.148 580.992 20.476C581.784 19.804 582.552 19.468 583.296 19.468C583.992 19.468 584.544 19.696 584.952 20.152C585.384 20.608 585.756 21.412 586.068 22.564L587.184 26.56C587.952 25.336 588.672 24.256 589.344 23.32C590.04 22.384 590.616 21.64 591.072 21.088C591.6 20.464 592.08 20.044 592.512 19.828C592.944 19.588 593.448 19.468 594.024 19.468C594.504 19.468 594.984 19.624 595.464 19.936C595.968 20.248 596.292 20.728 596.436 21.376C596.436 21.88 596.292 22.3 596.004 22.636C595.716 22.948 595.368 23.104 594.96 23.104C594.6 23.104 594.264 23.032 593.952 22.888C593.64 22.72 593.316 22.384 592.98 21.88L592.764 21.592C592.668 21.664 592.584 21.748 592.512 21.844C592.44 21.94 592.356 22.036 592.26 22.132C591.42 23.068 590.616 24.028 589.848 25.012C589.08 25.996 588.336 27.004 587.616 28.036L588.876 32.608C589.14 33.592 589.416 34.24 589.704 34.552C590.016 34.84 590.424 34.984 590.928 34.984C591.408 34.984 591.936 34.756 592.512 34.3C593.112 33.844 593.736 33.208 594.384 32.392L595.284 33.076C594.42 34.348 593.484 35.404 592.476 36.244C591.468 37.06 590.484 37.468 589.524 37.468C588.996 37.468 588.528 37.3 588.12 36.964C587.712 36.604 587.352 35.908 587.04 34.876L585.708 30.412C584.964 31.612 584.256 32.704 583.584 33.688C582.912 34.648 582.264 35.5 581.64 36.244C581.256 36.7 580.86 37.012 580.452 37.18C580.044 37.372 579.6 37.468 579.12 37.468C578.4 37.468 577.74 37.264 577.14 36.856C576.564 36.424 576.24 35.776 576.168 34.912ZM596.276 42.724C596.684 40.876 597.08 38.992 597.464 37.072C597.848 35.152 598.232 33.232 598.616 31.312L600.272 22.672C600.656 20.776 601.028 18.88 601.388 16.984C601.748 15.064 602.084 13.156 602.396 11.26H609.2L608.912 12.7L604.736 13.168C604.424 14.704 604.1 16.276 603.764 17.884C603.452 19.468 603.14 21.064 602.828 22.672L601.172 31.312C600.86 32.872 600.548 34.456 600.236 36.064C599.924 37.648 599.636 39.232 599.372 40.816L603.368 41.284L603.08 42.724H596.276ZM610.323 33.004L612.735 21.7H609.063L609.315 20.26L613.203 19.9L614.895 15.076H616.731L615.687 19.936H620.259L619.971 21.88L615.327 21.736L613.131 32.068C612.915 33.028 612.807 33.724 612.807 34.156C612.807 34.42 612.891 34.624 613.059 34.768C613.251 34.912 613.455 34.984 613.671 34.984C614.583 34.984 615.759 34.12 617.199 32.392L618.099 33.076C617.595 33.796 617.019 34.492 616.371 35.164C615.723 35.836 615.027 36.388 614.283 36.82C613.539 37.252 612.759 37.468 611.943 37.468C611.415 37.468 610.947 37.312 610.539 37C610.155 36.688 609.963 36.232 609.963 35.632C609.963 35.368 609.987 35.056 610.035 34.696C610.083 34.312 610.179 33.748 610.323 33.004ZM627.678 33.688V26.092H620.694V24.184H627.678V16.732H629.73V24.184H636.678V26.092H629.73V33.688H627.678ZM643.168 37L640.756 37.288L640.396 37L643.456 22.564L639.892 22.348L640.036 21.304L646.156 19.468L646.624 19.828L645.868 23.536C647.068 22.408 648.34 21.448 649.684 20.656C651.052 19.864 652.288 19.468 653.392 19.468C654.928 19.468 655.696 20.296 655.696 21.952C655.696 22.528 655.636 23.116 655.516 23.716C655.396 24.292 655.264 24.88 655.12 25.48L653.5 32.14C653.38 32.644 653.272 33.076 653.176 33.436C653.08 33.772 653.032 34.036 653.032 34.228C653.032 34.732 653.26 34.984 653.716 34.984C654.172 34.984 654.712 34.756 655.336 34.3C655.984 33.844 656.632 33.208 657.28 32.392L658.144 33.076C657.688 33.772 657.124 34.468 656.452 35.164C655.804 35.836 655.096 36.388 654.328 36.82C653.56 37.252 652.756 37.468 651.916 37.468C651.364 37.468 650.92 37.324 650.584 37.036C650.272 36.748 650.116 36.376 650.116 35.92C650.116 35.512 650.164 35.116 650.26 34.732C650.38 34.324 650.524 33.748 650.692 33.004L652.24 26.668C652.384 26.044 652.516 25.456 652.636 24.904C652.756 24.352 652.816 23.896 652.816 23.536C652.816 22.912 652.708 22.48 652.492 22.24C652.276 22 651.964 21.88 651.556 21.88C650.908 21.88 650.08 22.144 649.072 22.672C648.064 23.2 646.9 24.004 645.58 25.084L644.608 29.44C644.344 30.688 644.092 31.948 643.852 33.22C643.636 34.468 643.408 35.728 643.168 37ZM669.969 11.26C669.561 13.108 669.165 14.992 668.781 16.912C668.397 18.832 668.013 20.752 667.629 22.672L665.973 31.312C665.589 33.208 665.217 35.104 664.857 37C664.521 38.92 664.185 40.828 663.849 42.724H657.045L657.333 41.284L661.509 40.816C661.845 39.256 662.169 37.684 662.481 36.1C662.793 34.516 663.105 32.92 663.417 31.312L665.073 22.672C665.385 21.112 665.697 19.54 666.009 17.956C666.321 16.348 666.609 14.752 666.873 13.168L662.877 12.7L663.165 11.26H669.969Z" fill="black"/>
<path d="M631.529 173C632.585 173 633.485 173.276 634.229 173.828C634.997 174.356 635.453 174.956 635.597 175.628C635.357 176.444 634.889 176.852 634.193 176.852C633.665 176.852 633.197 176.696 632.789 176.384C632.405 176.072 631.925 175.568 631.349 174.872L630.773 174.188C630.173 174.452 629.597 174.896 629.045 175.52C628.493 176.12 627.989 176.984 627.533 178.112C627.101 179.216 626.729 180.692 626.417 182.54C626.393 182.612 626.381 182.684 626.381 182.756C626.381 182.804 626.369 182.864 626.345 182.936H630.989L630.701 184.844L626.057 184.7C625.673 186.98 625.289 189.32 624.905 191.72C624.521 194.12 624.101 196.46 623.645 198.74C623.261 200.66 622.793 202.328 622.241 203.744C621.713 205.16 620.945 206.324 619.937 207.236C619.193 207.908 618.521 208.364 617.921 208.604C617.297 208.868 616.697 209 616.121 209C615.305 209 614.585 208.796 613.961 208.388C613.337 207.98 612.941 207.44 612.773 206.768C612.845 206.384 613.049 206.072 613.385 205.832C613.697 205.592 614.045 205.472 614.429 205.472C614.957 205.472 615.437 205.616 615.869 205.904C616.277 206.192 616.673 206.54 617.057 206.948L617.489 207.38C617.729 207.188 617.969 206.96 618.209 206.696C618.473 206.456 618.725 206.168 618.965 205.832C619.421 205.16 619.817 204.272 620.153 203.168C620.489 202.088 620.825 200.612 621.161 198.74C621.593 196.316 621.989 193.964 622.349 191.684C622.733 189.404 623.117 187.052 623.501 184.628H619.757L620.045 183.26L623.789 182.936L623.825 182.612C624.137 180.62 624.593 179 625.193 177.752C625.817 176.48 626.501 175.508 627.245 174.836C628.013 174.14 628.769 173.66 629.513 173.396C630.281 173.132 630.953 173 631.529 173Z" fill="black"/>
<path d="M812.529 174C813.585 174 814.485 174.276 815.229 174.828C815.997 175.356 816.453 175.956 816.597 176.628C816.357 177.444 815.889 177.852 815.193 177.852C814.665 177.852 814.197 177.696 813.789 177.384C813.405 177.072 812.925 176.568 812.349 175.872L811.773 175.188C811.173 175.452 810.597 175.896 810.045 176.52C809.493 177.12 808.989 177.984 808.533 179.112C808.101 180.216 807.729 181.692 807.417 183.54C807.393 183.612 807.381 183.684 807.381 183.756C807.381 183.804 807.369 183.864 807.345 183.936H811.989L811.701 185.844L807.057 185.7C806.673 187.98 806.289 190.32 805.905 192.72C805.521 195.12 805.101 197.46 804.645 199.74C804.261 201.66 803.793 203.328 803.241 204.744C802.713 206.16 801.945 207.324 800.937 208.236C800.193 208.908 799.521 209.364 798.921 209.604C798.297 209.868 797.697 210 797.121 210C796.305 210 795.585 209.796 794.961 209.388C794.337 208.98 793.941 208.44 793.773 207.768C793.845 207.384 794.049 207.072 794.385 206.832C794.697 206.592 795.045 206.472 795.429 206.472C795.957 206.472 796.437 206.616 796.869 206.904C797.277 207.192 797.673 207.54 798.057 207.948L798.489 208.38C798.729 208.188 798.969 207.96 799.209 207.696C799.473 207.456 799.725 207.168 799.965 206.832C800.421 206.16 800.817 205.272 801.153 204.168C801.489 203.088 801.825 201.612 802.161 199.74C802.593 197.316 802.989 194.964 803.349 192.684C803.733 190.404 804.117 188.052 804.501 185.628H800.757L801.045 184.26L804.789 183.936L804.825 183.612C805.137 181.62 805.593 180 806.193 178.752C806.817 177.48 807.501 176.508 808.245 175.836C809.013 175.14 809.769 174.66 810.513 174.396C811.281 174.132 811.953 174 812.529 174Z" fill="black"/>
<path d="M276.529 174C277.585 174 278.485 174.276 279.229 174.828C279.997 175.356 280.453 175.956 280.597 176.628C280.357 177.444 279.889 177.852 279.193 177.852C278.665 177.852 278.197 177.696 277.789 177.384C277.405 177.072 276.925 176.568 276.349 175.872L275.773 175.188C275.173 175.452 274.597 175.896 274.045 176.52C273.493 177.12 272.989 177.984 272.533 179.112C272.101 180.216 271.729 181.692 271.417 183.54C271.393 183.612 271.381 183.684 271.381 183.756C271.381 183.804 271.369 183.864 271.345 183.936H275.989L275.701 185.844L271.057 185.7C270.673 187.98 270.289 190.32 269.905 192.72C269.521 195.12 269.101 197.46 268.645 199.74C268.261 201.66 267.793 203.328 267.241 204.744C266.713 206.16 265.945 207.324 264.937 208.236C264.193 208.908 263.521 209.364 262.921 209.604C262.297 209.868 261.697 210 261.121 210C260.305 210 259.585 209.796 258.961 209.388C258.337 208.98 257.941 208.44 257.773 207.768C257.845 207.384 258.049 207.072 258.385 206.832C258.697 206.592 259.045 206.472 259.429 206.472C259.957 206.472 260.437 206.616 260.869 206.904C261.277 207.192 261.673 207.54 262.057 207.948L262.489 208.38C262.729 208.188 262.969 207.96 263.209 207.696C263.473 207.456 263.725 207.168 263.965 206.832C264.421 206.16 264.817 205.272 265.153 204.168C265.489 203.088 265.825 201.612 266.161 199.74C266.593 197.316 266.989 194.964 267.349 192.684C267.733 190.404 268.117 188.052 268.501 185.628H264.757L265.045 184.26L268.789 183.936L268.825 183.612C269.137 181.62 269.593 180 270.193 178.752C270.817 177.48 271.501 176.508 272.245 175.836C273.013 175.14 273.769 174.66 274.513 174.396C275.281 174.132 275.953 174 276.529 174Z" fill="black"/>
<path d="M95.529 169C96.585 169 97.485 169.276 98.229 169.828C98.997 170.356 99.453 170.956 99.597 171.628C99.357 172.444 98.889 172.852 98.193 172.852C97.665 172.852 97.197 172.696 96.789 172.384C96.405 172.072 95.925 171.568 95.349 170.872L94.773 170.188C94.173 170.452 93.597 170.896 93.045 171.52C92.493 172.12 91.989 172.984 91.533 174.112C91.101 175.216 90.729 176.692 90.417 178.54C90.393 178.612 90.381 178.684 90.381 178.756C90.381 178.804 90.369 178.864 90.345 178.936H94.989L94.701 180.844L90.057 180.7C89.673 182.98 89.289 185.32 88.905 187.72C88.521 190.12 88.101 192.46 87.645 194.74C87.261 196.66 86.793 198.328 86.241 199.744C85.713 201.16 84.945 202.324 83.937 203.236C83.193 203.908 82.521 204.364 81.921 204.604C81.297 204.868 80.697 205 80.121 205C79.305 205 78.585 204.796 77.961 204.388C77.337 203.98 76.941 203.44 76.773 202.768C76.845 202.384 77.049 202.072 77.385 201.832C77.697 201.592 78.045 201.472 78.429 201.472C78.957 201.472 79.437 201.616 79.869 201.904C80.277 202.192 80.673 202.54 81.057 202.948L81.489 203.38C81.729 203.188 81.969 202.96 82.209 202.696C82.473 202.456 82.725 202.168 82.965 201.832C83.421 201.16 83.817 200.272 84.153 199.168C84.489 198.088 84.825 196.612 85.161 194.74C85.593 192.316 85.989 189.964 86.349 187.684C86.733 185.404 87.117 183.052 87.501 180.628H83.757L84.045 179.26L87.789 178.936L87.825 178.612C88.137 176.62 88.593 175 89.193 173.752C89.817 172.48 90.501 171.508 91.245 170.836C92.013 170.14 92.769 169.66 93.513 169.396C94.281 169.132 94.953 169 95.529 169Z" fill="black"/>
<path d="M55.9885 409.356C55.9885 410.844 55.4245 412.068 54.2965 413.028C53.1925 413.988 51.7285 414.468 49.9045 414.468C48.5125 414.468 47.4445 414.144 46.7005 413.496C45.9805 412.848 45.5605 411.984 45.4405 410.904C45.5365 410.592 45.7045 410.352 45.9445 410.184C46.2085 409.992 46.4845 409.896 46.7725 409.896C47.3005 409.896 47.6845 410.04 47.9245 410.328C48.1885 410.592 48.3805 410.976 48.5005 411.48L48.8965 413.028C48.9685 413.052 49.0405 413.064 49.1125 413.064C49.2085 413.064 49.3045 413.064 49.4005 413.064C50.6485 413.064 51.6205 412.788 52.3165 412.236C53.0125 411.684 53.3605 410.94 53.3605 410.004C53.3605 409.428 53.2285 408.876 52.9645 408.348C52.7005 407.82 52.0525 407.184 51.0205 406.44C50.1325 405.744 49.3765 405.036 48.7525 404.316C48.1525 403.572 47.8525 402.636 47.8525 401.508C47.8525 400.572 48.0925 399.72 48.5725 398.952C49.0525 398.184 49.7125 397.584 50.5525 397.152C51.4165 396.696 52.4245 396.468 53.5765 396.468C54.6325 396.468 55.5445 396.708 56.3125 397.188C57.0805 397.644 57.5965 398.46 57.8605 399.636C57.6445 400.308 57.1885 400.644 56.4925 400.644C55.6525 400.644 55.0405 400.08 54.6565 398.952L54.3325 397.908C54.2605 397.884 54.1765 397.872 54.0805 397.872C54.0085 397.872 53.9245 397.872 53.8285 397.872C52.5805 397.872 51.6925 398.16 51.1645 398.736C50.6605 399.312 50.4085 400.008 50.4085 400.824C50.4085 401.568 50.5885 402.192 50.9485 402.696C51.3325 403.176 52.0405 403.8 53.0725 404.568C54.1525 405.384 54.9085 406.128 55.3405 406.8C55.7725 407.448 55.9885 408.3 55.9885 409.356ZM58.3772 419.724C58.7852 417.876 59.1812 415.992 59.5652 414.072C59.9492 412.152 60.3332 410.232 60.7172 408.312L62.3732 399.672C62.7572 397.776 63.1292 395.88 63.4892 393.984C63.8492 392.064 64.1852 390.156 64.4972 388.26H71.3012L71.0132 389.7L66.8372 390.168C66.5252 391.704 66.2012 393.276 65.8652 394.884C65.5532 396.468 65.2412 398.064 64.9292 399.672L63.2732 408.312C62.9612 409.872 62.6492 411.456 62.3372 413.064C62.0252 414.648 61.7372 416.232 61.4732 417.816L65.4692 418.284L65.1812 419.724H58.3772ZM72.4242 410.004L74.8362 398.7H71.1642L71.4162 397.26L75.3042 396.9L76.9962 392.076H78.8322L77.7882 396.936H82.3602L82.0722 398.88L77.4282 398.736L75.2322 409.068C75.0162 410.028 74.9082 410.724 74.9082 411.156C74.9082 411.42 74.9922 411.624 75.1602 411.768C75.3522 411.912 75.5562 411.984 75.7722 411.984C76.6842 411.984 77.8602 411.12 79.3002 409.392L80.2002 410.076C79.6962 410.796 79.1202 411.492 78.4722 412.164C77.8242 412.836 77.1282 413.388 76.3842 413.82C75.6402 414.252 74.8602 414.468 74.0442 414.468C73.5162 414.468 73.0482 414.312 72.6402 414C72.2562 413.688 72.0642 413.232 72.0642 412.632C72.0642 412.368 72.0882 412.056 72.1362 411.696C72.1842 411.312 72.2802 410.748 72.4242 410.004ZM89.7799 410.688V403.092H82.7959V401.184H89.7799V393.732H91.8319V401.184H98.7799V403.092H91.8319V410.688H89.7799ZM106.098 392.292L113.694 390.384L114.09 390.744L112.902 395.892L110.778 406.404C110.586 407.364 110.394 408.336 110.202 409.32C110.01 410.28 109.818 411.24 109.626 412.2L114.99 412.74L114.702 414H101.67L101.922 412.74L106.962 412.236L110.778 393.336L105.81 393.732L106.098 392.292ZM130.172 388.26C129.764 390.108 129.368 391.992 128.984 393.912C128.6 395.832 128.216 397.752 127.832 399.672L126.176 408.312C125.792 410.208 125.42 412.104 125.06 414C124.724 415.92 124.388 417.828 124.052 419.724H117.248L117.536 418.284L121.712 417.816C122.048 416.256 122.372 414.684 122.684 413.1C122.996 411.516 123.308 409.92 123.62 408.312L125.276 399.672C125.588 398.112 125.9 396.54 126.212 394.956C126.524 393.348 126.812 391.752 127.076 390.168L123.08 389.7L123.368 388.26H130.172Z" fill="#3490FD"/>
<path d="M242.989 414.356C242.989 415.844 242.425 417.068 241.297 418.028C240.193 418.988 238.729 419.468 236.905 419.468C235.513 419.468 234.445 419.144 233.701 418.496C232.981 417.848 232.561 416.984 232.441 415.904C232.537 415.592 232.705 415.352 232.945 415.184C233.209 414.992 233.485 414.896 233.773 414.896C234.301 414.896 234.685 415.04 234.925 415.328C235.189 415.592 235.381 415.976 235.501 416.48L235.897 418.028C235.969 418.052 236.041 418.064 236.113 418.064C236.209 418.064 236.305 418.064 236.401 418.064C237.649 418.064 238.621 417.788 239.317 417.236C240.013 416.684 240.361 415.94 240.361 415.004C240.361 414.428 240.229 413.876 239.965 413.348C239.701 412.82 239.053 412.184 238.021 411.44C237.133 410.744 236.377 410.036 235.753 409.316C235.153 408.572 234.853 407.636 234.853 406.508C234.853 405.572 235.093 404.72 235.573 403.952C236.053 403.184 236.713 402.584 237.553 402.152C238.417 401.696 239.425 401.468 240.577 401.468C241.633 401.468 242.545 401.708 243.313 402.188C244.081 402.644 244.597 403.46 244.861 404.636C244.645 405.308 244.189 405.644 243.493 405.644C242.653 405.644 242.041 405.08 241.657 403.952L241.333 402.908C241.261 402.884 241.177 402.872 241.081 402.872C241.009 402.872 240.925 402.872 240.829 402.872C239.581 402.872 238.693 403.16 238.165 403.736C237.661 404.312 237.409 405.008 237.409 405.824C237.409 406.568 237.589 407.192 237.949 407.696C238.333 408.176 239.041 408.8 240.073 409.568C241.153 410.384 241.909 411.128 242.341 411.8C242.773 412.448 242.989 413.3 242.989 414.356ZM245.377 424.724C245.785 422.876 246.181 420.992 246.565 419.072C246.949 417.152 247.333 415.232 247.717 413.312L249.373 404.672C249.757 402.776 250.129 400.88 250.489 398.984C250.849 397.064 251.185 395.156 251.497 393.26H258.301L258.013 394.7L253.837 395.168C253.525 396.704 253.201 398.276 252.865 399.884C252.553 401.468 252.241 403.064 251.929 404.672L250.273 413.312C249.961 414.872 249.649 416.456 249.337 418.064C249.025 419.648 248.737 421.232 248.473 422.816L252.469 423.284L252.181 424.724H245.377ZM259.424 415.004L261.836 403.7H258.164L258.416 402.26L262.304 401.9L263.996 397.076H265.832L264.788 401.936H269.36L269.072 403.88L264.428 403.736L262.232 414.068C262.016 415.028 261.908 415.724 261.908 416.156C261.908 416.42 261.992 416.624 262.16 416.768C262.352 416.912 262.556 416.984 262.772 416.984C263.684 416.984 264.86 416.12 266.3 414.392L267.2 415.076C266.696 415.796 266.12 416.492 265.472 417.164C264.824 417.836 264.128 418.388 263.384 418.82C262.64 419.252 261.86 419.468 261.044 419.468C260.516 419.468 260.048 419.312 259.64 419C259.256 418.688 259.064 418.232 259.064 417.632C259.064 417.368 259.088 417.056 259.136 416.696C259.184 416.312 259.28 415.748 259.424 415.004ZM276.78 415.688V408.092H269.796V406.184H276.78V398.732H278.832V406.184H285.78V408.092H278.832V415.688H276.78ZM288.238 419L288.706 416.696L293.998 411.692C295.582 410.204 296.89 408.932 297.922 407.876C298.954 406.82 299.758 405.896 300.334 405.104C300.934 404.312 301.354 403.592 301.594 402.944C301.858 402.272 301.99 401.6 301.99 400.928C301.99 399.536 301.63 398.492 300.91 397.796C300.19 397.076 299.158 396.716 297.814 396.716C296.734 396.716 295.798 396.956 295.006 397.436L294.754 399.632C294.658 400.712 294.442 401.432 294.106 401.792C293.794 402.128 293.398 402.296 292.918 402.296C292.534 402.296 292.21 402.164 291.946 401.9C291.682 401.636 291.526 401.324 291.478 400.964C291.91 398.948 292.714 397.496 293.89 396.608C295.066 395.696 296.614 395.24 298.534 395.24C300.718 395.24 302.314 395.78 303.322 396.86C304.33 397.916 304.834 399.224 304.834 400.784C304.834 401.792 304.618 402.728 304.186 403.592C303.754 404.456 303.13 405.32 302.314 406.184C301.522 407.024 300.538 407.948 299.362 408.956C298.21 409.964 296.902 411.128 295.438 412.448L291.262 416.228H302.458L301.882 419H288.238ZM317.172 393.26C316.764 395.108 316.368 396.992 315.984 398.912C315.6 400.832 315.216 402.752 314.832 404.672L313.176 413.312C312.792 415.208 312.42 417.104 312.06 419C311.724 420.92 311.388 422.828 311.052 424.724H304.248L304.536 423.284L308.712 422.816C309.048 421.256 309.372 419.684 309.684 418.1C309.996 416.516 310.308 414.92 310.62 413.312L312.276 404.672C312.588 403.112 312.9 401.54 313.212 399.956C313.524 398.348 313.812 396.752 314.076 395.168L310.08 394.7L310.368 393.26H317.172Z" fill="#4DAE57"/>
<path d="M438.96 421.36C438.36 421.36 437.856 421.168 437.448 420.784C437.04 420.4 436.836 419.908 436.836 419.308C436.836 418.588 437.088 418 437.592 417.544C438.12 417.064 438.72 416.824 439.392 416.824C440.016 416.824 440.52 417.028 440.904 417.436C441.288 417.844 441.48 418.324 441.48 418.876C441.48 419.596 441.228 420.196 440.724 420.676C440.244 421.132 439.656 421.36 438.96 421.36ZM447.996 421.36C447.396 421.36 446.892 421.168 446.484 420.784C446.076 420.4 445.872 419.908 445.872 419.308C445.872 418.588 446.124 418 446.628 417.544C447.156 417.064 447.756 416.824 448.428 416.824C449.052 416.824 449.556 417.028 449.94 417.436C450.324 417.844 450.516 418.324 450.516 418.876C450.516 419.596 450.264 420.196 449.76 420.676C449.28 421.132 448.692 421.36 447.996 421.36ZM457.031 421.36C456.431 421.36 455.927 421.168 455.519 420.784C455.111 420.4 454.907 419.908 454.907 419.308C454.907 418.588 455.159 418 455.663 417.544C456.191 417.064 456.791 416.824 457.463 416.824C458.087 416.824 458.591 417.028 458.975 417.436C459.359 417.844 459.551 418.324 459.551 418.876C459.551 419.596 459.299 420.196 458.795 420.676C458.315 421.132 457.727 421.36 457.031 421.36Z" fill="black"/>
<path d="M438.96 218.36C438.36 218.36 437.856 218.168 437.448 217.784C437.04 217.4 436.836 216.908 436.836 216.308C436.836 215.588 437.088 215 437.592 214.544C438.12 214.064 438.72 213.824 439.392 213.824C440.016 213.824 440.52 214.028 440.904 214.436C441.288 214.844 441.48 215.324 441.48 215.876C441.48 216.596 441.228 217.196 440.724 217.676C440.244 218.132 439.656 218.36 438.96 218.36ZM447.996 218.36C447.396 218.36 446.892 218.168 446.484 217.784C446.076 217.4 445.872 216.908 445.872 216.308C445.872 215.588 446.124 215 446.628 214.544C447.156 214.064 447.756 213.824 448.428 213.824C449.052 213.824 449.556 214.028 449.94 214.436C450.324 214.844 450.516 215.324 450.516 215.876C450.516 216.596 450.264 217.196 449.76 217.676C449.28 218.132 448.692 218.36 447.996 218.36ZM457.031 218.36C456.431 218.36 455.927 218.168 455.519 217.784C455.111 217.4 454.907 216.908 454.907 216.308C454.907 215.588 455.159 215 455.663 214.544C456.191 214.064 456.791 213.824 457.463 213.824C458.087 213.824 458.591 214.028 458.975 214.436C459.359 214.844 459.551 215.324 459.551 215.876C459.551 216.596 459.299 217.196 458.795 217.676C458.315 218.132 457.727 218.36 457.031 218.36Z" fill="black"/>
<path d="M568.301 413.356C568.301 414.844 567.737 416.068 566.609 417.028C565.505 417.988 564.041 418.468 562.217 418.468C560.825 418.468 559.757 418.144 559.013 417.496C558.293 416.848 557.873 415.984 557.753 414.904C557.849 414.592 558.017 414.352 558.257 414.184C558.521 413.992 558.797 413.896 559.085 413.896C559.613 413.896 559.997 414.04 560.237 414.328C560.501 414.592 560.693 414.976 560.813 415.48L561.209 417.028C561.281 417.052 561.353 417.064 561.425 417.064C561.521 417.064 561.617 417.064 561.713 417.064C562.961 417.064 563.933 416.788 564.629 416.236C565.325 415.684 565.673 414.94 565.673 414.004C565.673 413.428 565.541 412.876 565.277 412.348C565.013 411.82 564.365 411.184 563.333 410.44C562.445 409.744 561.689 409.036 561.065 408.316C560.465 407.572 560.165 406.636 560.165 405.508C560.165 404.572 560.405 403.72 560.885 402.952C561.365 402.184 562.025 401.584 562.865 401.152C563.729 400.696 564.737 400.468 565.889 400.468C566.945 400.468 567.857 400.708 568.625 401.188C569.393 401.644 569.909 402.46 570.173 403.636C569.957 404.308 569.501 404.644 568.805 404.644C567.965 404.644 567.353 404.08 566.969 402.952L566.645 401.908C566.573 401.884 566.489 401.872 566.393 401.872C566.321 401.872 566.237 401.872 566.141 401.872C564.893 401.872 564.005 402.16 563.477 402.736C562.973 403.312 562.721 404.008 562.721 404.824C562.721 405.568 562.901 406.192 563.261 406.696C563.645 407.176 564.353 407.8 565.385 408.568C566.465 409.384 567.221 410.128 567.653 410.8C568.085 411.448 568.301 412.3 568.301 413.356ZM570.69 423.724C571.098 421.876 571.494 419.992 571.878 418.072C572.262 416.152 572.646 414.232 573.03 412.312L574.686 403.672C575.07 401.776 575.442 399.88 575.802 397.984C576.162 396.064 576.498 394.156 576.81 392.26H583.614L583.326 393.7L579.15 394.168C578.838 395.704 578.514 397.276 578.178 398.884C577.866 400.468 577.554 402.064 577.242 403.672L575.586 412.312C575.274 413.872 574.962 415.456 574.65 417.064C574.338 418.648 574.05 420.232 573.786 421.816L577.782 422.284L577.494 423.724H570.69ZM584.737 414.004L587.149 402.7H583.477L583.729 401.26L587.617 400.9L589.309 396.076H591.145L590.101 400.936H594.673L594.385 402.88L589.741 402.736L587.545 413.068C587.329 414.028 587.221 414.724 587.221 415.156C587.221 415.42 587.305 415.624 587.473 415.768C587.665 415.912 587.869 415.984 588.085 415.984C588.997 415.984 590.173 415.12 591.613 413.392L592.513 414.076C592.009 414.796 591.433 415.492 590.785 416.164C590.137 416.836 589.441 417.388 588.697 417.82C587.953 418.252 587.173 418.468 586.357 418.468C585.829 418.468 585.361 418.312 584.953 418C584.569 417.688 584.377 417.232 584.377 416.632C584.377 416.368 584.401 416.056 584.449 415.696C584.497 415.312 584.593 414.748 584.737 414.004ZM602.092 414.688V407.092H595.108V405.184H602.092V397.732H604.144V405.184H611.092V407.092H604.144V414.688H602.092ZM617.582 418L615.17 418.288L614.81 418L617.87 403.564L614.306 403.348L614.45 402.304L620.57 400.468L621.038 400.828L620.282 404.536C621.482 403.408 622.754 402.448 624.098 401.656C625.466 400.864 626.702 400.468 627.806 400.468C629.342 400.468 630.11 401.296 630.11 402.952C630.11 403.528 630.05 404.116 629.93 404.716C629.81 405.292 629.678 405.88 629.534 406.48L627.914 413.14C627.794 413.644 627.686 414.076 627.59 414.436C627.494 414.772 627.446 415.036 627.446 415.228C627.446 415.732 627.674 415.984 628.13 415.984C628.586 415.984 629.126 415.756 629.75 415.3C630.398 414.844 631.046 414.208 631.694 413.392L632.558 414.076C632.102 414.772 631.538 415.468 630.866 416.164C630.218 416.836 629.51 417.388 628.742 417.82C627.974 418.252 627.17 418.468 626.33 418.468C625.778 418.468 625.334 418.324 624.998 418.036C624.686 417.748 624.53 417.376 624.53 416.92C624.53 416.512 624.578 416.116 624.674 415.732C624.794 415.324 624.938 414.748 625.106 414.004L626.654 407.668C626.798 407.044 626.93 406.456 627.05 405.904C627.17 405.352 627.23 404.896 627.23 404.536C627.23 403.912 627.122 403.48 626.906 403.24C626.69 403 626.378 402.88 625.97 402.88C625.322 402.88 624.494 403.144 623.486 403.672C622.478 404.2 621.314 405.004 619.994 406.084L619.022 410.44C618.758 411.688 618.506 412.948 618.266 414.22C618.05 415.468 617.822 416.728 617.582 418ZM641.467 414.688V407.092H634.483V405.184H641.467V397.732H643.519V405.184H650.467V407.092H643.519V414.688H641.467ZM657.785 396.292L665.381 394.384L665.777 394.744L664.589 399.892L662.465 410.404C662.273 411.364 662.081 412.336 661.889 413.32C661.697 414.28 661.505 415.24 661.313 416.2L666.677 416.74L666.389 418H653.357L653.609 416.74L658.649 416.236L662.465 397.336L657.497 397.732L657.785 396.292ZM681.86 392.26C681.452 394.108 681.056 395.992 680.672 397.912C680.288 399.832 679.904 401.752 679.52 403.672L677.864 412.312C677.48 414.208 677.108 416.104 676.748 418C676.412 419.92 676.076 421.828 675.74 423.724H668.936L669.224 422.284L673.4 421.816C673.736 420.256 674.06 418.684 674.372 417.1C674.684 415.516 674.996 413.92 675.308 412.312L676.964 403.672C677.276 402.112 677.588 400.54 677.9 398.956C678.212 397.348 678.5 395.752 678.764 394.168L674.768 393.7L675.056 392.26H681.86Z" fill="#FD7234"/>
<circle cx="87.5" cy="257.5" r="37.5" stroke="#FDA646" stroke-width="4"/>
<path d="M228.5 274L212.06 268.547L215.558 285.511L228.5 274ZM88.9792 357.249C90.7269 346.872 93.7729 338.021 98.7379 330.262C103.7 322.508 110.626 315.772 120.232 309.69C139.504 297.488 169.441 287.984 215.593 278.193L214.97 275.258C168.804 285.052 138.395 294.64 118.628 307.156C108.714 313.432 101.447 320.463 96.211 328.645C90.977 336.824 87.8177 346.082 86.0208 356.751L88.9792 357.249Z" fill="#3490FD"/>
<path d="M408 274L391.56 268.547L395.058 285.511L408 274ZM268.479 357.249C270.227 346.872 273.273 338.021 278.238 330.262C283.2 322.508 290.126 315.772 299.732 309.69C319.004 297.488 348.941 287.984 395.093 278.193L394.47 275.258C348.304 285.052 317.895 294.64 298.128 307.156C288.214 313.432 280.947 320.463 275.711 328.645C270.477 336.824 267.318 346.082 265.521 356.751L268.479 357.249Z" fill="#4DAE57"/>
<path d="M764 274L747.56 268.547L751.058 285.511L764 274ZM624.479 357.249C626.227 346.872 629.273 338.021 634.238 330.262C639.2 322.508 646.126 315.772 655.732 309.69C675.004 297.488 704.941 287.984 751.093 278.193L750.47 275.258C704.304 285.052 673.895 294.64 654.128 307.156C644.214 313.432 636.947 320.463 631.711 328.645C626.477 336.824 623.318 346.082 621.521 356.751L624.479 357.249Z" fill="#FD7234"/>
</svg>
