<svg width="542" height="482" viewBox="0 0 542 482" fill="none" xmlns="http://www.w3.org/2000/svg">
<circle cx="106" cy="137" r="85" stroke="black" stroke-width="4"/>
<circle cx="105.5" cy="184.5" r="37.5" stroke="#FDA646" stroke-width="4"/>
<path d="M55.2307 33L52.8187 33.288L52.4587 33L55.5187 18.564L51.9547 18.348L52.0987 17.304L58.2187 15.468L58.6867 15.828L57.9307 19.536C59.1307 18.408 60.4027 17.448 61.7467 16.656C63.1147 15.864 64.3507 15.468 65.4547 15.468C66.9907 15.468 67.7587 16.296 67.7587 17.952C67.7587 18.528 67.6987 19.116 67.5787 19.716C67.4587 20.292 67.3267 20.88 67.1827 21.48L65.5627 28.14C65.4427 28.644 65.3347 29.076 65.2387 29.436C65.1427 29.772 65.0947 30.036 65.0947 30.228C65.0947 30.732 65.3227 30.984 65.7787 30.984C66.2347 30.984 66.7747 30.756 67.3987 30.3C68.0467 29.844 68.6947 29.208 69.3427 28.392L70.2067 29.076C69.7507 29.772 69.1867 30.468 68.5147 31.164C67.8667 31.836 67.1587 32.388 66.3907 32.82C65.6227 33.252 64.8187 33.468 63.9787 33.468C63.4267 33.468 62.9827 33.324 62.6467 33.036C62.3347 32.748 62.1787 32.376 62.1787 31.92C62.1787 31.512 62.2267 31.116 62.3227 30.732C62.4427 30.324 62.5867 29.748 62.7547 29.004L64.3027 22.668C64.4467 22.044 64.5787 21.456 64.6987 20.904C64.8187 20.352 64.8787 19.896 64.8787 19.536C64.8787 18.912 64.7707 18.48 64.5547 18.24C64.3387 18 64.0267 17.88 63.6187 17.88C62.9707 17.88 62.1427 18.144 61.1347 18.672C60.1267 19.2 58.9627 20.004 57.6427 21.084L56.6707 25.44C56.4067 26.688 56.1547 27.948 55.9147 29.22C55.6987 30.468 55.4707 31.728 55.2307 33ZM77.9638 33.468C76.8598 33.468 75.8518 33.228 74.9398 32.748C74.0278 32.268 73.2958 31.56 72.7438 30.624C72.2158 29.664 71.9518 28.5 71.9518 27.132C71.9518 25.5 72.1918 23.988 72.6718 22.596C73.1758 21.18 73.8598 19.944 74.7238 18.888C75.5878 17.808 76.5838 16.968 77.7118 16.368C78.8638 15.768 80.0758 15.468 81.3478 15.468C83.0518 15.468 84.4438 16.008 85.5238 17.088C86.6278 18.168 87.1798 19.728 87.1798 21.768C87.1798 23.328 86.9398 24.816 86.4598 26.232C85.9798 27.624 85.3078 28.872 84.4438 29.976C83.6038 31.056 82.6318 31.908 81.5278 32.532C80.4238 33.156 79.2358 33.468 77.9638 33.468ZM78.3598 32.028C79.2478 32.028 80.0518 31.752 80.7718 31.2C81.4918 30.648 82.1038 29.904 82.6078 28.968C83.1358 28.032 83.5438 26.988 83.8318 25.836C84.1198 24.684 84.2638 23.508 84.2638 22.308C84.2638 20.364 83.9518 18.984 83.3278 18.168C82.7278 17.328 81.9358 16.908 80.9518 16.908C79.8238 16.908 78.7918 17.352 77.8558 18.24C76.9438 19.128 76.2238 20.316 75.6958 21.804C75.1678 23.268 74.9038 24.9 74.9038 26.7C74.9038 28.596 75.2278 29.964 75.8758 30.804C76.5238 31.62 77.3518 32.028 78.3598 32.028ZM92.0499 27.564C92.0499 28.74 92.2659 29.604 92.6979 30.156C93.1299 30.708 93.6699 30.984 94.3179 30.984C94.9659 30.984 95.6979 30.72 96.5139 30.192C97.3539 29.64 98.3739 28.68 99.5739 27.312L101.302 18.708C100.942 18.396 100.57 18.18 100.186 18.06C99.8259 17.916 99.4659 17.844 99.1059 17.844C98.3379 17.844 97.5819 18.048 96.8379 18.456C96.0939 18.84 95.4099 19.38 94.7859 20.076C93.9699 20.964 93.3099 22.068 92.8059 23.388C92.3019 24.708 92.0499 26.1 92.0499 27.564ZM102.058 28.14C101.866 29.1 101.77 29.784 101.77 30.192C101.77 30.432 101.854 30.624 102.022 30.768C102.19 30.912 102.382 30.984 102.598 30.984C103.078 30.984 103.63 30.744 104.254 30.264C104.902 29.784 105.526 29.16 106.126 28.392L106.99 29.076C106.534 29.772 105.982 30.456 105.334 31.128C104.71 31.8 104.026 32.364 103.282 32.82C102.538 33.252 101.758 33.468 100.942 33.468C100.39 33.468 99.9099 33.312 99.5019 33C99.1179 32.688 98.9259 32.22 98.9259 31.596C98.9019 31.332 98.9019 31.032 98.9259 30.696C98.9739 30.336 99.0579 29.844 99.1779 29.22C98.0979 30.468 96.9579 31.488 95.7579 32.28C94.5819 33.072 93.5019 33.468 92.5179 33.468C91.6539 33.468 90.8979 33.12 90.2499 32.424C89.6019 31.728 89.2779 30.564 89.2779 28.932C89.2779 27.732 89.4939 26.508 89.9259 25.26C90.3819 23.988 90.9819 22.776 91.7259 21.624C92.4699 20.448 93.3099 19.404 94.2459 18.492C95.1819 17.556 96.1659 16.824 97.1979 16.296C98.2299 15.744 99.2259 15.468 100.186 15.468C100.834 15.468 101.422 15.648 101.95 16.008L103.318 9.456L99.6819 9.204L99.8259 8.16L105.982 6.36L106.414 6.648L102.058 28.14ZM117.013 17.016C116.461 17.016 115.849 17.232 115.177 17.664C114.529 18.096 113.893 18.696 113.269 19.464C112.645 20.232 112.117 21.12 111.685 22.128C111.277 23.112 111.025 24.168 110.929 25.296C112.921 24.72 114.505 24.084 115.681 23.388C116.881 22.668 117.733 21.948 118.237 21.228C118.765 20.484 119.029 19.788 119.029 19.14C119.029 18.468 118.837 17.952 118.453 17.592C118.093 17.208 117.613 17.016 117.013 17.016ZM113.845 33.468C112.261 33.468 110.953 32.928 109.921 31.848C108.913 30.768 108.409 29.076 108.409 26.772C108.409 25.332 108.661 23.94 109.165 22.596C109.669 21.228 110.353 20.016 111.217 18.96C112.081 17.88 113.077 17.028 114.205 16.404C115.357 15.78 116.557 15.468 117.805 15.468C118.981 15.468 119.869 15.756 120.469 16.332C121.093 16.908 121.405 17.724 121.405 18.78C121.405 19.548 121.105 20.4 120.505 21.336C119.905 22.248 118.837 23.172 117.301 24.108C115.789 25.044 113.665 25.908 110.929 26.7C111.001 28.236 111.361 29.34 112.009 30.012C112.657 30.66 113.533 30.984 114.637 30.984C115.765 30.984 116.737 30.696 117.553 30.12C118.369 29.544 119.017 28.956 119.497 28.356L120.325 29.004C119.581 30.228 118.645 31.284 117.517 32.172C116.389 33.036 115.165 33.468 113.845 33.468ZM128.518 33L128.806 31.56L131.795 31.128L144.143 8.88H146.231L149.398 31.164L152.567 31.56L152.279 33H142.739L143.027 31.56L146.159 31.2L145.223 24.252H137.375L133.739 31.092L136.871 31.56L136.583 33H128.518ZM138.239 22.596H145.007L143.639 12.408L138.239 22.596ZM160.227 11.292L167.823 9.384L168.219 9.744L167.031 14.892L164.907 25.404C164.715 26.364 164.523 27.336 164.331 28.32C164.139 29.28 163.947 30.24 163.755 31.2L169.119 31.74L168.831 33H155.799L156.051 31.74L161.091 31.236L164.907 12.336L159.939 12.732L160.227 11.292Z" fill="black"/>
<circle cx="455" cy="250" r="85" stroke="black" stroke-width="4"/>
<circle cx="454.5" cy="297.5" r="37.5" stroke="#3490FD" stroke-width="4"/>
<path d="M409.856 146L407.444 146.288L407.084 146L410.144 131.564L406.58 131.348L406.724 130.304L412.844 128.468L413.312 128.828L412.556 132.536C413.756 131.408 415.028 130.448 416.372 129.656C417.74 128.864 418.976 128.468 420.08 128.468C421.616 128.468 422.384 129.296 422.384 130.952C422.384 131.528 422.324 132.116 422.204 132.716C422.084 133.292 421.952 133.88 421.808 134.48L420.188 141.14C420.068 141.644 419.96 142.076 419.864 142.436C419.768 142.772 419.72 143.036 419.72 143.228C419.72 143.732 419.948 143.984 420.404 143.984C420.86 143.984 421.4 143.756 422.024 143.3C422.672 142.844 423.32 142.208 423.968 141.392L424.832 142.076C424.376 142.772 423.812 143.468 423.14 144.164C422.492 144.836 421.784 145.388 421.016 145.82C420.248 146.252 419.444 146.468 418.604 146.468C418.052 146.468 417.608 146.324 417.272 146.036C416.96 145.748 416.804 145.376 416.804 144.92C416.804 144.512 416.852 144.116 416.948 143.732C417.068 143.324 417.212 142.748 417.38 142.004L418.928 135.668C419.072 135.044 419.204 134.456 419.324 133.904C419.444 133.352 419.504 132.896 419.504 132.536C419.504 131.912 419.396 131.48 419.18 131.24C418.964 131 418.652 130.88 418.244 130.88C417.596 130.88 416.768 131.144 415.76 131.672C414.752 132.2 413.588 133.004 412.268 134.084L411.296 138.44C411.032 139.688 410.78 140.948 410.54 142.22C410.324 143.468 410.096 144.728 409.856 146ZM432.589 146.468C431.485 146.468 430.477 146.228 429.565 145.748C428.653 145.268 427.921 144.56 427.369 143.624C426.841 142.664 426.577 141.5 426.577 140.132C426.577 138.5 426.817 136.988 427.297 135.596C427.801 134.18 428.485 132.944 429.349 131.888C430.213 130.808 431.209 129.968 432.337 129.368C433.489 128.768 434.701 128.468 435.973 128.468C437.677 128.468 439.069 129.008 440.149 130.088C441.253 131.168 441.805 132.728 441.805 134.768C441.805 136.328 441.565 137.816 441.085 139.232C440.605 140.624 439.933 141.872 439.069 142.976C438.229 144.056 437.257 144.908 436.153 145.532C435.049 146.156 433.861 146.468 432.589 146.468ZM432.985 145.028C433.873 145.028 434.677 144.752 435.397 144.2C436.117 143.648 436.729 142.904 437.233 141.968C437.761 141.032 438.169 139.988 438.457 138.836C438.745 137.684 438.889 136.508 438.889 135.308C438.889 133.364 438.577 131.984 437.953 131.168C437.353 130.328 436.561 129.908 435.577 129.908C434.449 129.908 433.417 130.352 432.481 131.24C431.569 132.128 430.849 133.316 430.321 134.804C429.793 136.268 429.529 137.9 429.529 139.7C429.529 141.596 429.853 142.964 430.501 143.804C431.149 144.62 431.977 145.028 432.985 145.028ZM446.675 140.564C446.675 141.74 446.891 142.604 447.323 143.156C447.755 143.708 448.295 143.984 448.943 143.984C449.591 143.984 450.323 143.72 451.139 143.192C451.979 142.64 452.999 141.68 454.199 140.312L455.927 131.708C455.567 131.396 455.195 131.18 454.811 131.06C454.451 130.916 454.091 130.844 453.731 130.844C452.963 130.844 452.207 131.048 451.463 131.456C450.719 131.84 450.035 132.38 449.411 133.076C448.595 133.964 447.935 135.068 447.431 136.388C446.927 137.708 446.675 139.1 446.675 140.564ZM456.683 141.14C456.491 142.1 456.395 142.784 456.395 143.192C456.395 143.432 456.479 143.624 456.647 143.768C456.815 143.912 457.007 143.984 457.223 143.984C457.703 143.984 458.255 143.744 458.879 143.264C459.527 142.784 460.151 142.16 460.751 141.392L461.615 142.076C461.159 142.772 460.607 143.456 459.959 144.128C459.335 144.8 458.651 145.364 457.907 145.82C457.163 146.252 456.383 146.468 455.567 146.468C455.015 146.468 454.535 146.312 454.127 146C453.743 145.688 453.551 145.22 453.551 144.596C453.527 144.332 453.527 144.032 453.551 143.696C453.599 143.336 453.683 142.844 453.803 142.22C452.723 143.468 451.583 144.488 450.383 145.28C449.207 146.072 448.127 146.468 447.143 146.468C446.279 146.468 445.523 146.12 444.875 145.424C444.227 144.728 443.903 143.564 443.903 141.932C443.903 140.732 444.119 139.508 444.551 138.26C445.007 136.988 445.607 135.776 446.351 134.624C447.095 133.448 447.935 132.404 448.871 131.492C449.807 130.556 450.791 129.824 451.823 129.296C452.855 128.744 453.851 128.468 454.811 128.468C455.459 128.468 456.047 128.648 456.575 129.008L457.943 122.456L454.307 122.204L454.451 121.16L460.607 119.36L461.039 119.648L456.683 141.14ZM471.638 130.016C471.086 130.016 470.474 130.232 469.802 130.664C469.154 131.096 468.518 131.696 467.894 132.464C467.27 133.232 466.742 134.12 466.31 135.128C465.902 136.112 465.65 137.168 465.554 138.296C467.546 137.72 469.13 137.084 470.306 136.388C471.506 135.668 472.358 134.948 472.862 134.228C473.39 133.484 473.654 132.788 473.654 132.14C473.654 131.468 473.462 130.952 473.078 130.592C472.718 130.208 472.238 130.016 471.638 130.016ZM468.47 146.468C466.886 146.468 465.578 145.928 464.546 144.848C463.538 143.768 463.034 142.076 463.034 139.772C463.034 138.332 463.286 136.94 463.79 135.596C464.294 134.228 464.978 133.016 465.842 131.96C466.706 130.88 467.702 130.028 468.83 129.404C469.982 128.78 471.182 128.468 472.43 128.468C473.606 128.468 474.494 128.756 475.094 129.332C475.718 129.908 476.03 130.724 476.03 131.78C476.03 132.548 475.73 133.4 475.13 134.336C474.53 135.248 473.462 136.172 471.926 137.108C470.414 138.044 468.29 138.908 465.554 139.7C465.626 141.236 465.986 142.34 466.634 143.012C467.282 143.66 468.158 143.984 469.262 143.984C470.39 143.984 471.362 143.696 472.178 143.12C472.994 142.544 473.642 141.956 474.122 141.356L474.95 142.004C474.206 143.228 473.27 144.284 472.142 145.172C471.014 146.036 469.79 146.468 468.47 146.468ZM488.58 123.356L488.868 121.88H498.048C500.448 121.88 502.212 122.396 503.34 123.428C504.468 124.436 505.032 125.672 505.032 127.136C505.032 128.648 504.492 129.944 503.412 131.024C502.332 132.104 500.964 132.86 499.308 133.292C501.06 133.676 502.392 134.432 503.304 135.56C504.24 136.664 504.708 137.912 504.708 139.304C504.708 140.672 504.276 141.86 503.412 142.868C502.572 143.852 501.408 144.62 499.92 145.172C498.432 145.724 496.704 146 494.736 146H484.764L485.052 144.56L488.148 144.164L490.236 133.04C490.812 129.944 491.352 126.848 491.856 123.752L488.58 123.356ZM492.936 134.84C492.648 136.424 492.36 138.008 492.072 139.592C491.808 141.176 491.544 142.76 491.28 144.344H494.376C496.08 144.344 497.436 144.104 498.444 143.624C499.476 143.12 500.22 142.448 500.676 141.608C501.132 140.768 501.36 139.844 501.36 138.836C501.36 137.348 500.82 136.208 499.74 135.416C498.684 134.624 497.34 134.228 495.708 134.228H493.044L492.936 134.84ZM497.58 123.572H495.06L493.368 132.572H495.348C497.628 132.572 499.284 132.104 500.316 131.168C501.372 130.208 501.9 129.032 501.9 127.64C501.9 126.44 501.54 125.468 500.82 124.724C500.124 123.956 499.044 123.572 497.58 123.572Z" fill="black"/>
<circle cx="87" cy="395" r="85" stroke="black" stroke-width="4"/>
<circle cx="86.5" cy="442.5" r="37.5" stroke="#FDA646" stroke-width="4"/>
<path d="M36.2307 291L33.8187 291.288L33.4587 291L36.5187 276.564L32.9547 276.348L33.0987 275.304L39.2187 273.468L39.6867 273.828L38.9307 277.536C40.1307 276.408 41.4027 275.448 42.7467 274.656C44.1147 273.864 45.3507 273.468 46.4547 273.468C47.9907 273.468 48.7587 274.296 48.7587 275.952C48.7587 276.528 48.6987 277.116 48.5787 277.716C48.4587 278.292 48.3267 278.88 48.1827 279.48L46.5627 286.14C46.4427 286.644 46.3347 287.076 46.2387 287.436C46.1427 287.772 46.0947 288.036 46.0947 288.228C46.0947 288.732 46.3227 288.984 46.7787 288.984C47.2347 288.984 47.7747 288.756 48.3987 288.3C49.0467 287.844 49.6947 287.208 50.3427 286.392L51.2067 287.076C50.7507 287.772 50.1867 288.468 49.5147 289.164C48.8667 289.836 48.1587 290.388 47.3907 290.82C46.6227 291.252 45.8187 291.468 44.9787 291.468C44.4267 291.468 43.9827 291.324 43.6467 291.036C43.3347 290.748 43.1787 290.376 43.1787 289.92C43.1787 289.512 43.2267 289.116 43.3227 288.732C43.4427 288.324 43.5867 287.748 43.7547 287.004L45.3027 280.668C45.4467 280.044 45.5787 279.456 45.6987 278.904C45.8187 278.352 45.8787 277.896 45.8787 277.536C45.8787 276.912 45.7707 276.48 45.5547 276.24C45.3387 276 45.0267 275.88 44.6187 275.88C43.9707 275.88 43.1427 276.144 42.1347 276.672C41.1267 277.2 39.9627 278.004 38.6427 279.084L37.6707 283.44C37.4067 284.688 37.1547 285.948 36.9147 287.22C36.6987 288.468 36.4707 289.728 36.2307 291ZM58.9638 291.468C57.8598 291.468 56.8518 291.228 55.9398 290.748C55.0278 290.268 54.2958 289.56 53.7438 288.624C53.2158 287.664 52.9518 286.5 52.9518 285.132C52.9518 283.5 53.1918 281.988 53.6718 280.596C54.1758 279.18 54.8598 277.944 55.7238 276.888C56.5878 275.808 57.5838 274.968 58.7118 274.368C59.8638 273.768 61.0758 273.468 62.3478 273.468C64.0518 273.468 65.4438 274.008 66.5238 275.088C67.6278 276.168 68.1798 277.728 68.1798 279.768C68.1798 281.328 67.9398 282.816 67.4598 284.232C66.9798 285.624 66.3078 286.872 65.4438 287.976C64.6038 289.056 63.6318 289.908 62.5278 290.532C61.4238 291.156 60.2358 291.468 58.9638 291.468ZM59.3598 290.028C60.2478 290.028 61.0518 289.752 61.7718 289.2C62.4918 288.648 63.1038 287.904 63.6078 286.968C64.1358 286.032 64.5438 284.988 64.8318 283.836C65.1198 282.684 65.2638 281.508 65.2638 280.308C65.2638 278.364 64.9518 276.984 64.3278 276.168C63.7278 275.328 62.9358 274.908 61.9518 274.908C60.8238 274.908 59.7918 275.352 58.8558 276.24C57.9438 277.128 57.2238 278.316 56.6958 279.804C56.1678 281.268 55.9038 282.9 55.9038 284.7C55.9038 286.596 56.2278 287.964 56.8758 288.804C57.5238 289.62 58.3518 290.028 59.3598 290.028ZM73.0499 285.564C73.0499 286.74 73.2659 287.604 73.6979 288.156C74.1299 288.708 74.6699 288.984 75.3179 288.984C75.9659 288.984 76.6979 288.72 77.5139 288.192C78.3539 287.64 79.3739 286.68 80.5739 285.312L82.3019 276.708C81.9419 276.396 81.5699 276.18 81.1859 276.06C80.8259 275.916 80.4659 275.844 80.1059 275.844C79.3379 275.844 78.5819 276.048 77.8379 276.456C77.0939 276.84 76.4099 277.38 75.7859 278.076C74.9699 278.964 74.3099 280.068 73.8059 281.388C73.3019 282.708 73.0499 284.1 73.0499 285.564ZM83.0579 286.14C82.8659 287.1 82.7699 287.784 82.7699 288.192C82.7699 288.432 82.8539 288.624 83.0219 288.768C83.1899 288.912 83.3819 288.984 83.5979 288.984C84.0779 288.984 84.6299 288.744 85.2539 288.264C85.9019 287.784 86.5259 287.16 87.1259 286.392L87.9899 287.076C87.5339 287.772 86.9819 288.456 86.3339 289.128C85.7099 289.8 85.0259 290.364 84.2819 290.82C83.5379 291.252 82.7579 291.468 81.9419 291.468C81.3899 291.468 80.9099 291.312 80.5019 291C80.1179 290.688 79.9259 290.22 79.9259 289.596C79.9019 289.332 79.9019 289.032 79.9259 288.696C79.9739 288.336 80.0579 287.844 80.1779 287.22C79.0979 288.468 77.9579 289.488 76.7579 290.28C75.5819 291.072 74.5019 291.468 73.5179 291.468C72.6539 291.468 71.8979 291.12 71.2499 290.424C70.6019 289.728 70.2779 288.564 70.2779 286.932C70.2779 285.732 70.4939 284.508 70.9259 283.26C71.3819 281.988 71.9819 280.776 72.7259 279.624C73.4699 278.448 74.3099 277.404 75.2459 276.492C76.1819 275.556 77.1659 274.824 78.1979 274.296C79.2299 273.744 80.2259 273.468 81.1859 273.468C81.8339 273.468 82.4219 273.648 82.9499 274.008L84.3179 267.456L80.6819 267.204L80.8259 266.16L86.9819 264.36L87.4139 264.648L83.0579 286.14ZM98.0128 275.016C97.4608 275.016 96.8488 275.232 96.1768 275.664C95.5288 276.096 94.8928 276.696 94.2688 277.464C93.6448 278.232 93.1168 279.12 92.6848 280.128C92.2768 281.112 92.0248 282.168 91.9288 283.296C93.9208 282.72 95.5048 282.084 96.6808 281.388C97.8808 280.668 98.7328 279.948 99.2368 279.228C99.7648 278.484 100.029 277.788 100.029 277.14C100.029 276.468 99.8368 275.952 99.4528 275.592C99.0928 275.208 98.6128 275.016 98.0128 275.016ZM94.8448 291.468C93.2608 291.468 91.9528 290.928 90.9208 289.848C89.9128 288.768 89.4088 287.076 89.4088 284.772C89.4088 283.332 89.6608 281.94 90.1648 280.596C90.6688 279.228 91.3528 278.016 92.2168 276.96C93.0808 275.88 94.0768 275.028 95.2048 274.404C96.3568 273.78 97.5568 273.468 98.8048 273.468C99.9808 273.468 100.869 273.756 101.469 274.332C102.093 274.908 102.405 275.724 102.405 276.78C102.405 277.548 102.105 278.4 101.505 279.336C100.905 280.248 99.8368 281.172 98.3008 282.108C96.7888 283.044 94.6648 283.908 91.9288 284.7C92.0008 286.236 92.3608 287.34 93.0088 288.012C93.6568 288.66 94.5328 288.984 95.6368 288.984C96.7648 288.984 97.7368 288.696 98.5528 288.12C99.3688 287.544 100.017 286.956 100.497 286.356L101.325 287.004C100.581 288.228 99.6448 289.284 98.5168 290.172C97.3888 291.036 96.1648 291.468 94.8448 291.468ZM109.518 291L109.806 289.56L112.795 289.128L125.143 266.88H127.231L130.398 289.164L133.567 289.56L133.279 291H123.739L124.027 289.56L127.159 289.2L126.223 282.252H118.375L114.739 289.092L117.871 289.56L117.583 291H109.518ZM119.239 280.596H126.007L124.639 270.408L119.239 280.596ZM136.367 291L136.835 288.696L142.127 283.692C143.711 282.204 145.019 280.932 146.051 279.876C147.083 278.82 147.887 277.896 148.463 277.104C149.063 276.312 149.483 275.592 149.723 274.944C149.987 274.272 150.119 273.6 150.119 272.928C150.119 271.536 149.759 270.492 149.039 269.796C148.319 269.076 147.287 268.716 145.943 268.716C144.863 268.716 143.927 268.956 143.135 269.436L142.883 271.632C142.787 272.712 142.571 273.432 142.235 273.792C141.923 274.128 141.527 274.296 141.047 274.296C140.663 274.296 140.339 274.164 140.075 273.9C139.811 273.636 139.655 273.324 139.607 272.964C140.039 270.948 140.843 269.496 142.019 268.608C143.195 267.696 144.743 267.24 146.663 267.24C148.847 267.24 150.443 267.78 151.451 268.86C152.459 269.916 152.963 271.224 152.963 272.784C152.963 273.792 152.747 274.728 152.315 275.592C151.883 276.456 151.259 277.32 150.443 278.184C149.651 279.024 148.667 279.948 147.491 280.956C146.339 281.964 145.031 283.128 143.567 284.448L139.391 288.228H150.587L150.011 291H136.367Z" fill="black"/>
<path d="M81.2907 351C82.3467 351 83.2467 351.276 83.9907 351.828C84.7587 352.356 85.2147 352.956 85.3587 353.628C85.1187 354.444 84.6507 354.852 83.9547 354.852C83.4267 354.852 82.9587 354.696 82.5507 354.384C82.1667 354.072 81.6867 353.568 81.1107 352.872L80.5347 352.188C79.9347 352.452 79.3587 352.896 78.8067 353.52C78.2547 354.12 77.7507 354.984 77.2947 356.112C76.8627 357.216 76.4907 358.692 76.1787 360.54C76.1547 360.612 76.1427 360.684 76.1427 360.756C76.1427 360.804 76.1307 360.864 76.1067 360.936H80.7507L80.4627 362.844L75.8187 362.7C75.4347 364.98 75.0507 367.32 74.6667 369.72C74.2827 372.12 73.8627 374.46 73.4067 376.74C73.0227 378.66 72.5547 380.328 72.0027 381.744C71.4747 383.16 70.7067 384.324 69.6987 385.236C68.9547 385.908 68.2827 386.364 67.6827 386.604C67.0587 386.868 66.4587 387 65.8827 387C65.0667 387 64.3467 386.796 63.7227 386.388C63.0987 385.98 62.7027 385.44 62.5347 384.768C62.6067 384.384 62.8107 384.072 63.1467 383.832C63.4587 383.592 63.8067 383.472 64.1907 383.472C64.7187 383.472 65.1987 383.616 65.6307 383.904C66.0387 384.192 66.4347 384.54 66.8187 384.948L67.2507 385.38C67.4907 385.188 67.7307 384.96 67.9707 384.696C68.2347 384.456 68.4867 384.168 68.7267 383.832C69.1827 383.16 69.5787 382.272 69.9147 381.168C70.2507 380.088 70.5867 378.612 70.9227 376.74C71.3547 374.316 71.7507 371.964 72.1107 369.684C72.4947 367.404 72.8787 365.052 73.2627 362.628H69.5187L69.8067 361.26L73.5507 360.936L73.5867 360.612C73.8987 358.62 74.3547 357 74.9547 355.752C75.5787 354.48 76.2627 353.508 77.0067 352.836C77.7747 352.14 78.5307 351.66 79.2747 351.396C80.0427 351.132 80.7147 351 81.2907 351ZM77.8567 378L78.0487 377.04L80.0407 376.752L88.2727 361.92H89.6647L91.7767 376.776L93.8887 377.04L93.6967 378H87.3367L87.5287 377.04L89.6167 376.8L88.9927 372.168H83.7607L81.3367 376.728L83.4247 377.04L83.2327 378H77.8567ZM84.3367 371.064H88.8487L87.9367 364.272L84.3367 371.064ZM95.7555 378L96.0675 376.464L99.5955 373.128C100.651 372.136 101.523 371.288 102.211 370.584C102.899 369.88 103.435 369.264 103.819 368.736C104.219 368.208 104.499 367.728 104.659 367.296C104.835 366.848 104.923 366.4 104.923 365.952C104.923 365.024 104.683 364.328 104.203 363.864C103.723 363.384 103.035 363.144 102.139 363.144C101.419 363.144 100.795 363.304 100.267 363.624L100.099 365.088C100.035 365.808 99.8915 366.288 99.6675 366.528C99.4595 366.752 99.1955 366.864 98.8755 366.864C98.6195 366.864 98.4035 366.776 98.2275 366.6C98.0515 366.424 97.9475 366.216 97.9155 365.976C98.2035 364.632 98.7395 363.664 99.5235 363.072C100.307 362.464 101.339 362.16 102.619 362.16C104.075 362.16 105.139 362.52 105.811 363.24C106.483 363.944 106.819 364.816 106.819 365.856C106.819 366.528 106.675 367.152 106.387 367.728C106.099 368.304 105.683 368.88 105.139 369.456C104.611 370.016 103.955 370.632 103.171 371.304C102.403 371.976 101.531 372.752 100.555 373.632L97.7715 376.152H105.235L104.851 378H95.7555Z" fill="black"/>
<path d="M368 250L350.8 252.043L361.17 265.917L368 250ZM174.898 396.201L358.085 259.284L356.289 256.881L173.102 393.799L174.898 396.201Z" fill="black"/>
<path d="M100.291 93C101.347 93 102.247 93.276 102.991 93.828C103.759 94.356 104.215 94.956 104.359 95.628C104.119 96.444 103.651 96.852 102.955 96.852C102.427 96.852 101.959 96.696 101.551 96.384C101.167 96.072 100.687 95.568 100.111 94.872L99.5347 94.188C98.9347 94.452 98.3587 94.896 97.8067 95.52C97.2547 96.12 96.7507 96.984 96.2947 98.112C95.8627 99.216 95.4907 100.692 95.1787 102.54C95.1547 102.612 95.1427 102.684 95.1427 102.756C95.1427 102.804 95.1307 102.864 95.1067 102.936H99.7507L99.4627 104.844L94.8187 104.7C94.4347 106.98 94.0507 109.32 93.6667 111.72C93.2827 114.12 92.8627 116.46 92.4067 118.74C92.0227 120.66 91.5547 122.328 91.0027 123.744C90.4747 125.16 89.7067 126.324 88.6987 127.236C87.9547 127.908 87.2827 128.364 86.6827 128.604C86.0587 128.868 85.4587 129 84.8827 129C84.0667 129 83.3467 128.796 82.7227 128.388C82.0987 127.98 81.7027 127.44 81.5347 126.768C81.6067 126.384 81.8107 126.072 82.1467 125.832C82.4587 125.592 82.8067 125.472 83.1907 125.472C83.7187 125.472 84.1987 125.616 84.6307 125.904C85.0387 126.192 85.4347 126.54 85.8187 126.948L86.2507 127.38C86.4907 127.188 86.7307 126.96 86.9707 126.696C87.2347 126.456 87.4867 126.168 87.7267 125.832C88.1827 125.16 88.5787 124.272 88.9147 123.168C89.2507 122.088 89.5867 120.612 89.9227 118.74C90.3547 116.316 90.7507 113.964 91.1107 111.684C91.4947 109.404 91.8787 107.052 92.2627 104.628H88.5187L88.8067 103.26L92.5507 102.936L92.5867 102.612C92.8987 100.62 93.3547 99 93.9547 97.752C94.5787 96.48 95.2627 95.508 96.0067 94.836C96.7747 94.14 97.5307 93.66 98.2747 93.396C99.0427 93.132 99.7147 93 100.291 93ZM96.8567 120L97.0487 119.04L99.0407 118.752L107.273 103.92H108.665L110.777 118.776L112.889 119.04L112.697 120H106.337L106.529 119.04L108.617 118.8L107.993 114.168H102.761L100.337 118.728L102.425 119.04L102.233 120H96.8567ZM103.337 113.064H107.849L106.937 106.272L103.337 113.064ZM117.995 105.528L123.059 104.256L123.323 104.496L122.531 107.928L121.115 114.936C120.987 115.576 120.859 116.224 120.731 116.88C120.603 117.52 120.475 118.16 120.347 118.8L123.923 119.16L123.731 120H115.043L115.211 119.16L118.571 118.824L121.115 106.224L117.803 106.488L117.995 105.528Z" fill="black"/>
<path d="M456.041 206C457.097 206 457.997 206.276 458.741 206.828C459.509 207.356 459.965 207.956 460.109 208.628C459.869 209.444 459.401 209.852 458.705 209.852C458.177 209.852 457.709 209.696 457.301 209.384C456.917 209.072 456.437 208.568 455.861 207.872L455.285 207.188C454.685 207.452 454.109 207.896 453.557 208.52C453.005 209.12 452.501 209.984 452.045 211.112C451.613 212.216 451.241 213.692 450.929 215.54C450.905 215.612 450.893 215.684 450.893 215.756C450.893 215.804 450.881 215.864 450.857 215.936H455.501L455.213 217.844L450.569 217.7C450.185 219.98 449.801 222.32 449.417 224.72C449.033 227.12 448.613 229.46 448.157 231.74C447.773 233.66 447.305 235.328 446.753 236.744C446.225 238.16 445.457 239.324 444.449 240.236C443.705 240.908 443.033 241.364 442.433 241.604C441.809 241.868 441.209 242 440.633 242C439.817 242 439.097 241.796 438.473 241.388C437.849 240.98 437.453 240.44 437.285 239.768C437.357 239.384 437.561 239.072 437.897 238.832C438.209 238.592 438.557 238.472 438.941 238.472C439.469 238.472 439.949 238.616 440.381 238.904C440.789 239.192 441.185 239.54 441.569 239.948L442.001 240.38C442.241 240.188 442.481 239.96 442.721 239.696C442.985 239.456 443.237 239.168 443.477 238.832C443.933 238.16 444.329 237.272 444.665 236.168C445.001 235.088 445.337 233.612 445.673 231.74C446.105 229.316 446.501 226.964 446.861 224.684C447.245 222.404 447.629 220.052 448.013 217.628H444.269L444.557 216.26L448.301 215.936L448.337 215.612C448.649 213.62 449.105 212 449.705 210.752C450.329 209.48 451.013 208.508 451.757 207.836C452.525 207.14 453.281 206.66 454.025 206.396C454.793 206.132 455.465 206 456.041 206ZM456.231 217.904L456.423 216.92H462.543C464.143 216.92 465.319 217.264 466.071 217.952C466.823 218.624 467.199 219.448 467.199 220.424C467.199 221.432 466.839 222.296 466.119 223.016C465.399 223.736 464.487 224.24 463.383 224.528C464.551 224.784 465.439 225.288 466.047 226.04C466.671 226.776 466.983 227.608 466.983 228.536C466.983 229.448 466.695 230.24 466.119 230.912C465.559 231.568 464.783 232.08 463.791 232.448C462.799 232.816 461.647 233 460.335 233H453.687L453.879 232.04L455.943 231.776L457.335 224.36C457.719 222.296 458.079 220.232 458.415 218.168L456.231 217.904ZM459.135 225.56C458.943 226.616 458.751 227.672 458.559 228.728C458.383 229.784 458.207 230.84 458.031 231.896H460.095C461.231 231.896 462.135 231.736 462.807 231.416C463.495 231.08 463.991 230.632 464.295 230.072C464.599 229.512 464.751 228.896 464.751 228.224C464.751 227.232 464.391 226.472 463.671 225.944C462.967 225.416 462.071 225.152 460.983 225.152H459.207L459.135 225.56ZM462.231 218.048H460.551L459.423 224.048H460.743C462.263 224.048 463.367 223.736 464.055 223.112C464.759 222.472 465.111 221.688 465.111 220.76C465.111 219.96 464.871 219.312 464.391 218.816C463.927 218.304 463.207 218.048 462.231 218.048Z" fill="black"/>
<path d="M367.5 249L359.554 233.61L350.199 248.186L367.5 249ZM192.19 138.262L355.329 242.97L356.949 240.446L193.81 135.738L192.19 138.262Z" fill="black"/>
</svg>
