<svg width="542" height="482" viewBox="0 0 542 482" fill="none" xmlns="http://www.w3.org/2000/svg">
<circle cx="455" cy="137" r="85" stroke="black" stroke-width="4"/>
<circle cx="454.5" cy="184.5" r="37.5" stroke="#3490FD" stroke-width="4"/>
<path d="M405.162 33L402.75 33.288L402.39 33L405.45 18.564L401.886 18.348L402.03 17.304L408.15 15.468L408.618 15.828L407.862 19.536C409.062 18.408 410.334 17.448 411.678 16.656C413.046 15.864 414.282 15.468 415.386 15.468C416.922 15.468 417.69 16.296 417.69 17.952C417.69 18.528 417.63 19.116 417.51 19.716C417.39 20.292 417.258 20.88 417.114 21.48L415.494 28.14C415.374 28.644 415.266 29.076 415.17 29.436C415.074 29.772 415.026 30.036 415.026 30.228C415.026 30.732 415.254 30.984 415.71 30.984C416.166 30.984 416.706 30.756 417.33 30.3C417.978 29.844 418.626 29.208 419.274 28.392L420.138 29.076C419.682 29.772 419.118 30.468 418.446 31.164C417.798 31.836 417.09 32.388 416.322 32.82C415.554 33.252 414.75 33.468 413.91 33.468C413.358 33.468 412.914 33.324 412.578 33.036C412.266 32.748 412.11 32.376 412.11 31.92C412.11 31.512 412.158 31.116 412.254 30.732C412.374 30.324 412.518 29.748 412.686 29.004L414.234 22.668C414.378 22.044 414.51 21.456 414.63 20.904C414.75 20.352 414.81 19.896 414.81 19.536C414.81 18.912 414.702 18.48 414.486 18.24C414.27 18 413.958 17.88 413.55 17.88C412.902 17.88 412.074 18.144 411.066 18.672C410.058 19.2 408.894 20.004 407.574 21.084L406.602 25.44C406.338 26.688 406.086 27.948 405.846 29.22C405.63 30.468 405.402 31.728 405.162 33ZM427.895 33.468C426.791 33.468 425.783 33.228 424.871 32.748C423.959 32.268 423.227 31.56 422.675 30.624C422.147 29.664 421.883 28.5 421.883 27.132C421.883 25.5 422.123 23.988 422.603 22.596C423.107 21.18 423.791 19.944 424.655 18.888C425.519 17.808 426.515 16.968 427.643 16.368C428.795 15.768 430.007 15.468 431.279 15.468C432.983 15.468 434.375 16.008 435.455 17.088C436.559 18.168 437.111 19.728 437.111 21.768C437.111 23.328 436.871 24.816 436.391 26.232C435.911 27.624 435.239 28.872 434.375 29.976C433.535 31.056 432.563 31.908 431.459 32.532C430.355 33.156 429.167 33.468 427.895 33.468ZM428.291 32.028C429.179 32.028 429.983 31.752 430.703 31.2C431.423 30.648 432.035 29.904 432.539 28.968C433.067 28.032 433.475 26.988 433.763 25.836C434.051 24.684 434.195 23.508 434.195 22.308C434.195 20.364 433.883 18.984 433.259 18.168C432.659 17.328 431.867 16.908 430.883 16.908C429.755 16.908 428.723 17.352 427.787 18.24C426.875 19.128 426.155 20.316 425.627 21.804C425.099 23.268 424.835 24.9 424.835 26.7C424.835 28.596 425.159 29.964 425.807 30.804C426.455 31.62 427.283 32.028 428.291 32.028ZM441.982 27.564C441.982 28.74 442.198 29.604 442.63 30.156C443.062 30.708 443.602 30.984 444.25 30.984C444.898 30.984 445.63 30.72 446.446 30.192C447.286 29.64 448.306 28.68 449.506 27.312L451.234 18.708C450.874 18.396 450.502 18.18 450.118 18.06C449.758 17.916 449.398 17.844 449.038 17.844C448.27 17.844 447.514 18.048 446.77 18.456C446.026 18.84 445.342 19.38 444.718 20.076C443.902 20.964 443.242 22.068 442.738 23.388C442.234 24.708 441.982 26.1 441.982 27.564ZM451.99 28.14C451.798 29.1 451.702 29.784 451.702 30.192C451.702 30.432 451.786 30.624 451.954 30.768C452.122 30.912 452.314 30.984 452.53 30.984C453.01 30.984 453.562 30.744 454.186 30.264C454.834 29.784 455.458 29.16 456.058 28.392L456.922 29.076C456.466 29.772 455.914 30.456 455.266 31.128C454.642 31.8 453.958 32.364 453.214 32.82C452.47 33.252 451.69 33.468 450.874 33.468C450.322 33.468 449.842 33.312 449.434 33C449.05 32.688 448.858 32.22 448.858 31.596C448.834 31.332 448.834 31.032 448.858 30.696C448.906 30.336 448.99 29.844 449.11 29.22C448.03 30.468 446.89 31.488 445.69 32.28C444.514 33.072 443.434 33.468 442.45 33.468C441.586 33.468 440.83 33.12 440.182 32.424C439.534 31.728 439.21 30.564 439.21 28.932C439.21 27.732 439.426 26.508 439.858 25.26C440.314 23.988 440.914 22.776 441.658 21.624C442.402 20.448 443.242 19.404 444.178 18.492C445.114 17.556 446.098 16.824 447.13 16.296C448.162 15.744 449.158 15.468 450.118 15.468C450.766 15.468 451.354 15.648 451.882 16.008L453.25 9.456L449.614 9.204L449.758 8.16L455.914 6.36L456.346 6.648L451.99 28.14ZM466.944 17.016C466.392 17.016 465.78 17.232 465.108 17.664C464.46 18.096 463.824 18.696 463.2 19.464C462.576 20.232 462.048 21.12 461.616 22.128C461.208 23.112 460.956 24.168 460.86 25.296C462.852 24.72 464.436 24.084 465.612 23.388C466.812 22.668 467.664 21.948 468.168 21.228C468.696 20.484 468.96 19.788 468.96 19.14C468.96 18.468 468.768 17.952 468.384 17.592C468.024 17.208 467.544 17.016 466.944 17.016ZM463.776 33.468C462.192 33.468 460.884 32.928 459.852 31.848C458.844 30.768 458.34 29.076 458.34 26.772C458.34 25.332 458.592 23.94 459.096 22.596C459.6 21.228 460.284 20.016 461.148 18.96C462.012 17.88 463.008 17.028 464.136 16.404C465.288 15.78 466.488 15.468 467.736 15.468C468.912 15.468 469.8 15.756 470.4 16.332C471.024 16.908 471.336 17.724 471.336 18.78C471.336 19.548 471.036 20.4 470.436 21.336C469.836 22.248 468.768 23.172 467.232 24.108C465.72 25.044 463.596 25.908 460.86 26.7C460.932 28.236 461.292 29.34 461.94 30.012C462.588 30.66 463.464 30.984 464.568 30.984C465.696 30.984 466.668 30.696 467.484 30.12C468.3 29.544 468.948 28.956 469.428 28.356L470.256 29.004C469.512 30.228 468.576 31.284 467.448 32.172C466.32 33.036 465.096 33.468 463.776 33.468ZM483.886 10.356L484.174 8.88H493.354C495.754 8.88 497.518 9.396 498.646 10.428C499.774 11.436 500.338 12.672 500.338 14.136C500.338 15.648 499.798 16.944 498.718 18.024C497.638 19.104 496.27 19.86 494.614 20.292C496.366 20.676 497.698 21.432 498.61 22.56C499.546 23.664 500.014 24.912 500.014 26.304C500.014 27.672 499.582 28.86 498.718 29.868C497.878 30.852 496.714 31.62 495.226 32.172C493.738 32.724 492.01 33 490.042 33H480.07L480.358 31.56L483.454 31.164L485.542 20.04C486.118 16.944 486.658 13.848 487.162 10.752L483.886 10.356ZM488.242 21.84C487.954 23.424 487.666 25.008 487.378 26.592C487.114 28.176 486.85 29.76 486.586 31.344H489.682C491.386 31.344 492.742 31.104 493.75 30.624C494.782 30.12 495.526 29.448 495.982 28.608C496.438 27.768 496.666 26.844 496.666 25.836C496.666 24.348 496.126 23.208 495.046 22.416C493.99 21.624 492.646 21.228 491.014 21.228H488.35L488.242 21.84ZM492.886 10.572H490.366L488.674 19.572H490.654C492.934 19.572 494.59 19.104 495.622 18.168C496.678 17.208 497.206 16.032 497.206 14.64C497.206 13.44 496.846 12.468 496.126 11.724C495.43 10.956 494.35 10.572 492.886 10.572ZM508.295 11.292L515.891 9.384L516.287 9.744L515.099 14.892L512.975 25.404C512.783 26.364 512.591 27.336 512.399 28.32C512.207 29.28 512.015 30.24 511.823 31.2L517.187 31.74L516.899 33H503.867L504.119 31.74L509.159 31.236L512.975 12.336L508.007 12.732L508.295 11.292Z" fill="black"/>
<circle cx="87" cy="282" r="85" stroke="black" stroke-width="4"/>
<circle cx="86.5" cy="329.5" r="37.5" stroke="#FDA646" stroke-width="4"/>
<path d="M40.924 178L38.512 178.288L38.152 178L41.212 163.564L37.648 163.348L37.792 162.304L43.912 160.468L44.38 160.828L43.624 164.536C44.824 163.408 46.096 162.448 47.44 161.656C48.808 160.864 50.044 160.468 51.148 160.468C52.684 160.468 53.452 161.296 53.452 162.952C53.452 163.528 53.392 164.116 53.272 164.716C53.152 165.292 53.02 165.88 52.876 166.48L51.256 173.14C51.136 173.644 51.028 174.076 50.932 174.436C50.836 174.772 50.788 175.036 50.788 175.228C50.788 175.732 51.016 175.984 51.472 175.984C51.928 175.984 52.468 175.756 53.092 175.3C53.74 174.844 54.388 174.208 55.036 173.392L55.9 174.076C55.444 174.772 54.88 175.468 54.208 176.164C53.56 176.836 52.852 177.388 52.084 177.82C51.316 178.252 50.512 178.468 49.672 178.468C49.12 178.468 48.676 178.324 48.34 178.036C48.028 177.748 47.872 177.376 47.872 176.92C47.872 176.512 47.92 176.116 48.016 175.732C48.136 175.324 48.28 174.748 48.448 174.004L49.996 167.668C50.14 167.044 50.272 166.456 50.392 165.904C50.512 165.352 50.572 164.896 50.572 164.536C50.572 163.912 50.464 163.48 50.248 163.24C50.032 163 49.72 162.88 49.312 162.88C48.664 162.88 47.836 163.144 46.828 163.672C45.82 164.2 44.656 165.004 43.336 166.084L42.364 170.44C42.1 171.688 41.848 172.948 41.608 174.22C41.392 175.468 41.164 176.728 40.924 178ZM63.6572 178.468C62.5532 178.468 61.5452 178.228 60.6332 177.748C59.7212 177.268 58.9892 176.56 58.4372 175.624C57.9092 174.664 57.6452 173.5 57.6452 172.132C57.6452 170.5 57.8852 168.988 58.3652 167.596C58.8692 166.18 59.5532 164.944 60.4172 163.888C61.2812 162.808 62.2772 161.968 63.4052 161.368C64.5572 160.768 65.7692 160.468 67.0412 160.468C68.7452 160.468 70.1372 161.008 71.2172 162.088C72.3212 163.168 72.8732 164.728 72.8732 166.768C72.8732 168.328 72.6332 169.816 72.1532 171.232C71.6732 172.624 71.0012 173.872 70.1372 174.976C69.2972 176.056 68.3252 176.908 67.2212 177.532C66.1172 178.156 64.9292 178.468 63.6572 178.468ZM64.0532 177.028C64.9412 177.028 65.7452 176.752 66.4652 176.2C67.1852 175.648 67.7972 174.904 68.3012 173.968C68.8292 173.032 69.2372 171.988 69.5252 170.836C69.8132 169.684 69.9572 168.508 69.9572 167.308C69.9572 165.364 69.6452 163.984 69.0212 163.168C68.4212 162.328 67.6292 161.908 66.6452 161.908C65.5172 161.908 64.4852 162.352 63.5492 163.24C62.6372 164.128 61.9172 165.316 61.3892 166.804C60.8612 168.268 60.5972 169.9 60.5972 171.7C60.5972 173.596 60.9212 174.964 61.5692 175.804C62.2172 176.62 63.0452 177.028 64.0532 177.028ZM77.7433 172.564C77.7433 173.74 77.9593 174.604 78.3913 175.156C78.8233 175.708 79.3633 175.984 80.0113 175.984C80.6593 175.984 81.3913 175.72 82.2073 175.192C83.0473 174.64 84.0673 173.68 85.2673 172.312L86.9953 163.708C86.6353 163.396 86.2633 163.18 85.8793 163.06C85.5193 162.916 85.1593 162.844 84.7993 162.844C84.0313 162.844 83.2753 163.048 82.5313 163.456C81.7873 163.84 81.1033 164.38 80.4793 165.076C79.6633 165.964 79.0033 167.068 78.4993 168.388C77.9953 169.708 77.7433 171.1 77.7433 172.564ZM87.7513 173.14C87.5593 174.1 87.4633 174.784 87.4633 175.192C87.4633 175.432 87.5473 175.624 87.7153 175.768C87.8833 175.912 88.0753 175.984 88.2913 175.984C88.7713 175.984 89.3233 175.744 89.9473 175.264C90.5953 174.784 91.2193 174.16 91.8193 173.392L92.6833 174.076C92.2273 174.772 91.6753 175.456 91.0273 176.128C90.4033 176.8 89.7193 177.364 88.9753 177.82C88.2313 178.252 87.4513 178.468 86.6353 178.468C86.0833 178.468 85.6033 178.312 85.1953 178C84.8113 177.688 84.6193 177.22 84.6193 176.596C84.5953 176.332 84.5953 176.032 84.6193 175.696C84.6673 175.336 84.7513 174.844 84.8713 174.22C83.7913 175.468 82.6513 176.488 81.4513 177.28C80.2753 178.072 79.1953 178.468 78.2113 178.468C77.3473 178.468 76.5913 178.12 75.9433 177.424C75.2953 176.728 74.9713 175.564 74.9713 173.932C74.9713 172.732 75.1873 171.508 75.6193 170.26C76.0753 168.988 76.6753 167.776 77.4193 166.624C78.1633 165.448 79.0033 164.404 79.9393 163.492C80.8753 162.556 81.8593 161.824 82.8913 161.296C83.9233 160.744 84.9193 160.468 85.8793 160.468C86.5273 160.468 87.1153 160.648 87.6433 161.008L89.0113 154.456L85.3753 154.204L85.5193 153.16L91.6753 151.36L92.1073 151.648L87.7513 173.14ZM102.706 162.016C102.154 162.016 101.542 162.232 100.87 162.664C100.222 163.096 99.5862 163.696 98.9622 164.464C98.3382 165.232 97.8102 166.12 97.3782 167.128C96.9702 168.112 96.7182 169.168 96.6222 170.296C98.6142 169.72 100.198 169.084 101.374 168.388C102.574 167.668 103.426 166.948 103.93 166.228C104.458 165.484 104.722 164.788 104.722 164.14C104.722 163.468 104.53 162.952 104.146 162.592C103.786 162.208 103.306 162.016 102.706 162.016ZM99.5382 178.468C97.9542 178.468 96.6462 177.928 95.6142 176.848C94.6062 175.768 94.1022 174.076 94.1022 171.772C94.1022 170.332 94.3542 168.94 94.8582 167.596C95.3622 166.228 96.0462 165.016 96.9102 163.96C97.7742 162.88 98.7702 162.028 99.8982 161.404C101.05 160.78 102.25 160.468 103.498 160.468C104.674 160.468 105.562 160.756 106.162 161.332C106.786 161.908 107.098 162.724 107.098 163.78C107.098 164.548 106.798 165.4 106.198 166.336C105.598 167.248 104.53 168.172 102.994 169.108C101.482 170.044 99.3582 170.908 96.6222 171.7C96.6942 173.236 97.0542 174.34 97.7022 175.012C98.3502 175.66 99.2262 175.984 100.33 175.984C101.458 175.984 102.43 175.696 103.246 175.12C104.062 174.544 104.71 173.956 105.19 173.356L106.018 174.004C105.274 175.228 104.338 176.284 103.21 177.172C102.082 178.036 100.858 178.468 99.5382 178.468ZM114.212 178L114.5 176.56L117.488 176.128L129.836 153.88H131.924L135.092 176.164L138.26 176.56L137.972 178H128.432L128.72 176.56L131.852 176.2L130.916 169.252H123.068L119.432 176.092L122.564 176.56L122.276 178H114.212ZM123.932 167.596H130.7L129.332 157.408L123.932 167.596Z" fill="black"/>
<circle cx="436" cy="395" r="85" stroke="black" stroke-width="4"/>
<circle cx="435.5" cy="442.5" r="37.5" stroke="#3490FD" stroke-width="4"/>
<path d="M386.162 291L383.75 291.288L383.39 291L386.45 276.564L382.886 276.348L383.03 275.304L389.15 273.468L389.618 273.828L388.862 277.536C390.062 276.408 391.334 275.448 392.678 274.656C394.046 273.864 395.282 273.468 396.386 273.468C397.922 273.468 398.69 274.296 398.69 275.952C398.69 276.528 398.63 277.116 398.51 277.716C398.39 278.292 398.258 278.88 398.114 279.48L396.494 286.14C396.374 286.644 396.266 287.076 396.17 287.436C396.074 287.772 396.026 288.036 396.026 288.228C396.026 288.732 396.254 288.984 396.71 288.984C397.166 288.984 397.706 288.756 398.33 288.3C398.978 287.844 399.626 287.208 400.274 286.392L401.138 287.076C400.682 287.772 400.118 288.468 399.446 289.164C398.798 289.836 398.09 290.388 397.322 290.82C396.554 291.252 395.75 291.468 394.91 291.468C394.358 291.468 393.914 291.324 393.578 291.036C393.266 290.748 393.11 290.376 393.11 289.92C393.11 289.512 393.158 289.116 393.254 288.732C393.374 288.324 393.518 287.748 393.686 287.004L395.234 280.668C395.378 280.044 395.51 279.456 395.63 278.904C395.75 278.352 395.81 277.896 395.81 277.536C395.81 276.912 395.702 276.48 395.486 276.24C395.27 276 394.958 275.88 394.55 275.88C393.902 275.88 393.074 276.144 392.066 276.672C391.058 277.2 389.894 278.004 388.574 279.084L387.602 283.44C387.338 284.688 387.086 285.948 386.846 287.22C386.63 288.468 386.402 289.728 386.162 291ZM408.895 291.468C407.791 291.468 406.783 291.228 405.871 290.748C404.959 290.268 404.227 289.56 403.675 288.624C403.147 287.664 402.883 286.5 402.883 285.132C402.883 283.5 403.123 281.988 403.603 280.596C404.107 279.18 404.791 277.944 405.655 276.888C406.519 275.808 407.515 274.968 408.643 274.368C409.795 273.768 411.007 273.468 412.279 273.468C413.983 273.468 415.375 274.008 416.455 275.088C417.559 276.168 418.111 277.728 418.111 279.768C418.111 281.328 417.871 282.816 417.391 284.232C416.911 285.624 416.239 286.872 415.375 287.976C414.535 289.056 413.563 289.908 412.459 290.532C411.355 291.156 410.167 291.468 408.895 291.468ZM409.291 290.028C410.179 290.028 410.983 289.752 411.703 289.2C412.423 288.648 413.035 287.904 413.539 286.968C414.067 286.032 414.475 284.988 414.763 283.836C415.051 282.684 415.195 281.508 415.195 280.308C415.195 278.364 414.883 276.984 414.259 276.168C413.659 275.328 412.867 274.908 411.883 274.908C410.755 274.908 409.723 275.352 408.787 276.24C407.875 277.128 407.155 278.316 406.627 279.804C406.099 281.268 405.835 282.9 405.835 284.7C405.835 286.596 406.159 287.964 406.807 288.804C407.455 289.62 408.283 290.028 409.291 290.028ZM422.982 285.564C422.982 286.74 423.198 287.604 423.63 288.156C424.062 288.708 424.602 288.984 425.25 288.984C425.898 288.984 426.63 288.72 427.446 288.192C428.286 287.64 429.306 286.68 430.506 285.312L432.234 276.708C431.874 276.396 431.502 276.18 431.118 276.06C430.758 275.916 430.398 275.844 430.038 275.844C429.27 275.844 428.514 276.048 427.77 276.456C427.026 276.84 426.342 277.38 425.718 278.076C424.902 278.964 424.242 280.068 423.738 281.388C423.234 282.708 422.982 284.1 422.982 285.564ZM432.99 286.14C432.798 287.1 432.702 287.784 432.702 288.192C432.702 288.432 432.786 288.624 432.954 288.768C433.122 288.912 433.314 288.984 433.53 288.984C434.01 288.984 434.562 288.744 435.186 288.264C435.834 287.784 436.458 287.16 437.058 286.392L437.922 287.076C437.466 287.772 436.914 288.456 436.266 289.128C435.642 289.8 434.958 290.364 434.214 290.82C433.47 291.252 432.69 291.468 431.874 291.468C431.322 291.468 430.842 291.312 430.434 291C430.05 290.688 429.858 290.22 429.858 289.596C429.834 289.332 429.834 289.032 429.858 288.696C429.906 288.336 429.99 287.844 430.11 287.22C429.03 288.468 427.89 289.488 426.69 290.28C425.514 291.072 424.434 291.468 423.45 291.468C422.586 291.468 421.83 291.12 421.182 290.424C420.534 289.728 420.21 288.564 420.21 286.932C420.21 285.732 420.426 284.508 420.858 283.26C421.314 281.988 421.914 280.776 422.658 279.624C423.402 278.448 424.242 277.404 425.178 276.492C426.114 275.556 427.098 274.824 428.13 274.296C429.162 273.744 430.158 273.468 431.118 273.468C431.766 273.468 432.354 273.648 432.882 274.008L434.25 267.456L430.614 267.204L430.758 266.16L436.914 264.36L437.346 264.648L432.99 286.14ZM447.944 275.016C447.392 275.016 446.78 275.232 446.108 275.664C445.46 276.096 444.824 276.696 444.2 277.464C443.576 278.232 443.048 279.12 442.616 280.128C442.208 281.112 441.956 282.168 441.86 283.296C443.852 282.72 445.436 282.084 446.612 281.388C447.812 280.668 448.664 279.948 449.168 279.228C449.696 278.484 449.96 277.788 449.96 277.14C449.96 276.468 449.768 275.952 449.384 275.592C449.024 275.208 448.544 275.016 447.944 275.016ZM444.776 291.468C443.192 291.468 441.884 290.928 440.852 289.848C439.844 288.768 439.34 287.076 439.34 284.772C439.34 283.332 439.592 281.94 440.096 280.596C440.6 279.228 441.284 278.016 442.148 276.96C443.012 275.88 444.008 275.028 445.136 274.404C446.288 273.78 447.488 273.468 448.736 273.468C449.912 273.468 450.8 273.756 451.4 274.332C452.024 274.908 452.336 275.724 452.336 276.78C452.336 277.548 452.036 278.4 451.436 279.336C450.836 280.248 449.768 281.172 448.232 282.108C446.72 283.044 444.596 283.908 441.86 284.7C441.932 286.236 442.292 287.34 442.94 288.012C443.588 288.66 444.464 288.984 445.568 288.984C446.696 288.984 447.668 288.696 448.484 288.12C449.3 287.544 449.948 286.956 450.428 286.356L451.256 287.004C450.512 288.228 449.576 289.284 448.448 290.172C447.32 291.036 446.096 291.468 444.776 291.468ZM464.886 268.356L465.174 266.88H474.354C476.754 266.88 478.518 267.396 479.646 268.428C480.774 269.436 481.338 270.672 481.338 272.136C481.338 273.648 480.798 274.944 479.718 276.024C478.638 277.104 477.27 277.86 475.614 278.292C477.366 278.676 478.698 279.432 479.61 280.56C480.546 281.664 481.014 282.912 481.014 284.304C481.014 285.672 480.582 286.86 479.718 287.868C478.878 288.852 477.714 289.62 476.226 290.172C474.738 290.724 473.01 291 471.042 291H461.07L461.358 289.56L464.454 289.164L466.542 278.04C467.118 274.944 467.658 271.848 468.162 268.752L464.886 268.356ZM469.242 279.84C468.954 281.424 468.666 283.008 468.378 284.592C468.114 286.176 467.85 287.76 467.586 289.344H470.682C472.386 289.344 473.742 289.104 474.75 288.624C475.782 288.12 476.526 287.448 476.982 286.608C477.438 285.768 477.666 284.844 477.666 283.836C477.666 282.348 477.126 281.208 476.046 280.416C474.99 279.624 473.646 279.228 472.014 279.228H469.35L469.242 279.84ZM473.886 268.572H471.366L469.674 277.572H471.654C473.934 277.572 475.59 277.104 476.622 276.168C477.678 275.208 478.206 274.032 478.206 272.64C478.206 271.44 477.846 270.468 477.126 269.724C476.43 268.956 475.35 268.572 473.886 268.572ZM484.435 291L484.903 288.696L490.195 283.692C491.779 282.204 493.087 280.932 494.119 279.876C495.151 278.82 495.955 277.896 496.531 277.104C497.131 276.312 497.551 275.592 497.791 274.944C498.055 274.272 498.187 273.6 498.187 272.928C498.187 271.536 497.827 270.492 497.107 269.796C496.387 269.076 495.355 268.716 494.011 268.716C492.931 268.716 491.995 268.956 491.203 269.436L490.951 271.632C490.855 272.712 490.639 273.432 490.303 273.792C489.991 274.128 489.595 274.296 489.115 274.296C488.731 274.296 488.407 274.164 488.143 273.9C487.879 273.636 487.723 273.324 487.675 272.964C488.107 270.948 488.911 269.496 490.087 268.608C491.263 267.696 492.811 267.24 494.731 267.24C496.915 267.24 498.511 267.78 499.519 268.86C500.527 269.916 501.031 271.224 501.031 272.784C501.031 273.792 500.815 274.728 500.383 275.592C499.951 276.456 499.327 277.32 498.511 278.184C497.719 279.024 496.735 279.948 495.559 280.956C494.407 281.964 493.099 283.128 491.635 284.448L487.459 288.228H498.655L498.079 291H484.435Z" fill="black"/>
<path d="M430.912 351C431.968 351 432.868 351.276 433.612 351.828C434.38 352.356 434.836 352.956 434.98 353.628C434.74 354.444 434.272 354.852 433.576 354.852C433.048 354.852 432.58 354.696 432.172 354.384C431.788 354.072 431.308 353.568 430.732 352.872L430.156 352.188C429.556 352.452 428.98 352.896 428.428 353.52C427.876 354.12 427.372 354.984 426.916 356.112C426.484 357.216 426.112 358.692 425.8 360.54C425.776 360.612 425.764 360.684 425.764 360.756C425.764 360.804 425.752 360.864 425.728 360.936H430.372L430.084 362.844L425.44 362.7C425.056 364.98 424.672 367.32 424.288 369.72C423.904 372.12 423.484 374.46 423.028 376.74C422.644 378.66 422.176 380.328 421.624 381.744C421.096 383.16 420.328 384.324 419.32 385.236C418.576 385.908 417.904 386.364 417.304 386.604C416.68 386.868 416.08 387 415.504 387C414.688 387 413.968 386.796 413.344 386.388C412.72 385.98 412.324 385.44 412.156 384.768C412.228 384.384 412.432 384.072 412.768 383.832C413.08 383.592 413.428 383.472 413.812 383.472C414.34 383.472 414.82 383.616 415.252 383.904C415.66 384.192 416.056 384.54 416.44 384.948L416.872 385.38C417.112 385.188 417.352 384.96 417.592 384.696C417.856 384.456 418.108 384.168 418.348 383.832C418.804 383.16 419.2 382.272 419.536 381.168C419.872 380.088 420.208 378.612 420.544 376.74C420.976 374.316 421.372 371.964 421.732 369.684C422.116 367.404 422.5 365.052 422.884 362.628H419.14L419.428 361.26L423.172 360.936L423.208 360.612C423.52 358.62 423.976 357 424.576 355.752C425.2 354.48 425.884 353.508 426.628 352.836C427.396 352.14 428.152 351.66 428.896 351.396C429.664 351.132 430.336 351 430.912 351ZM431.102 362.904L431.294 361.92H437.414C439.014 361.92 440.19 362.264 440.942 362.952C441.694 363.624 442.07 364.448 442.07 365.424C442.07 366.432 441.71 367.296 440.99 368.016C440.27 368.736 439.358 369.24 438.254 369.528C439.422 369.784 440.31 370.288 440.918 371.04C441.542 371.776 441.854 372.608 441.854 373.536C441.854 374.448 441.566 375.24 440.99 375.912C440.43 376.568 439.654 377.08 438.662 377.448C437.67 377.816 436.518 378 435.206 378H428.558L428.75 377.04L430.814 376.776L432.206 369.36C432.59 367.296 432.95 365.232 433.286 363.168L431.102 362.904ZM434.006 370.56C433.814 371.616 433.622 372.672 433.43 373.728C433.254 374.784 433.078 375.84 432.902 376.896H434.966C436.102 376.896 437.006 376.736 437.678 376.416C438.366 376.08 438.862 375.632 439.166 375.072C439.47 374.512 439.622 373.896 439.622 373.224C439.622 372.232 439.262 371.472 438.542 370.944C437.838 370.416 436.942 370.152 435.854 370.152H434.078L434.006 370.56ZM437.102 363.048H435.422L434.294 369.048H435.614C437.134 369.048 438.238 368.736 438.926 368.112C439.63 367.472 439.982 366.688 439.982 365.76C439.982 364.96 439.742 364.312 439.262 363.816C438.798 363.304 438.078 363.048 437.102 363.048ZM444.134 378L444.446 376.464L447.974 373.128C449.03 372.136 449.902 371.288 450.59 370.584C451.278 369.88 451.814 369.264 452.198 368.736C452.598 368.208 452.878 367.728 453.038 367.296C453.214 366.848 453.302 366.4 453.302 365.952C453.302 365.024 453.062 364.328 452.582 363.864C452.102 363.384 451.414 363.144 450.518 363.144C449.798 363.144 449.174 363.304 448.646 363.624L448.478 365.088C448.414 365.808 448.27 366.288 448.046 366.528C447.838 366.752 447.574 366.864 447.254 366.864C446.998 366.864 446.782 366.776 446.606 366.6C446.43 366.424 446.326 366.216 446.294 365.976C446.582 364.632 447.118 363.664 447.902 363.072C448.686 362.464 449.718 362.16 450.998 362.16C452.454 362.16 453.518 362.52 454.19 363.24C454.862 363.944 455.198 364.816 455.198 365.856C455.198 366.528 455.054 367.152 454.766 367.728C454.478 368.304 454.062 368.88 453.518 369.456C452.99 370.016 452.334 370.632 451.55 371.304C450.782 371.976 449.91 372.752 448.934 373.632L446.15 376.152H453.614L453.23 378H444.134Z" fill="black"/>
<path d="M368 130L350.8 132.043L361.17 145.917L368 130ZM174.898 276.201L358.085 139.284L356.289 136.881L173.102 273.799L174.898 276.201Z" fill="black"/>
<path d="M449.912 93C450.968 93 451.868 93.276 452.612 93.828C453.38 94.356 453.836 94.956 453.98 95.628C453.74 96.444 453.272 96.852 452.576 96.852C452.048 96.852 451.58 96.696 451.172 96.384C450.788 96.072 450.308 95.568 449.732 94.872L449.156 94.188C448.556 94.452 447.98 94.896 447.428 95.52C446.876 96.12 446.372 96.984 445.916 98.112C445.484 99.216 445.112 100.692 444.8 102.54C444.776 102.612 444.764 102.684 444.764 102.756C444.764 102.804 444.752 102.864 444.728 102.936H449.372L449.084 104.844L444.44 104.7C444.056 106.98 443.672 109.32 443.288 111.72C442.904 114.12 442.484 116.46 442.028 118.74C441.644 120.66 441.176 122.328 440.624 123.744C440.096 125.16 439.328 126.324 438.32 127.236C437.576 127.908 436.904 128.364 436.304 128.604C435.68 128.868 435.08 129 434.504 129C433.688 129 432.968 128.796 432.344 128.388C431.72 127.98 431.324 127.44 431.156 126.768C431.228 126.384 431.432 126.072 431.768 125.832C432.08 125.592 432.428 125.472 432.812 125.472C433.34 125.472 433.82 125.616 434.252 125.904C434.66 126.192 435.056 126.54 435.44 126.948L435.872 127.38C436.112 127.188 436.352 126.96 436.592 126.696C436.856 126.456 437.108 126.168 437.348 125.832C437.804 125.16 438.2 124.272 438.536 123.168C438.872 122.088 439.208 120.612 439.544 118.74C439.976 116.316 440.372 113.964 440.732 111.684C441.116 109.404 441.5 107.052 441.884 104.628H438.14L438.428 103.26L442.172 102.936L442.208 102.612C442.52 100.62 442.976 99 443.576 97.752C444.2 96.48 444.884 95.508 445.628 94.836C446.396 94.14 447.152 93.66 447.896 93.396C448.664 93.132 449.336 93 449.912 93ZM450.102 104.904L450.294 103.92H456.414C458.014 103.92 459.19 104.264 459.942 104.952C460.694 105.624 461.07 106.448 461.07 107.424C461.07 108.432 460.71 109.296 459.99 110.016C459.27 110.736 458.358 111.24 457.254 111.528C458.422 111.784 459.31 112.288 459.918 113.04C460.542 113.776 460.854 114.608 460.854 115.536C460.854 116.448 460.566 117.24 459.99 117.912C459.43 118.568 458.654 119.08 457.662 119.448C456.67 119.816 455.518 120 454.206 120H447.558L447.75 119.04L449.814 118.776L451.206 111.36C451.59 109.296 451.95 107.232 452.286 105.168L450.102 104.904ZM453.006 112.56C452.814 113.616 452.622 114.672 452.43 115.728C452.254 116.784 452.078 117.84 451.902 118.896H453.966C455.102 118.896 456.006 118.736 456.678 118.416C457.366 118.08 457.862 117.632 458.166 117.072C458.47 116.512 458.622 115.896 458.622 115.224C458.622 114.232 458.262 113.472 457.542 112.944C456.838 112.416 455.942 112.152 454.854 112.152H453.078L453.006 112.56ZM456.102 105.048H454.422L453.294 111.048H454.614C456.134 111.048 457.238 110.736 457.926 110.112C458.63 109.472 458.982 108.688 458.982 107.76C458.982 106.96 458.742 106.312 458.262 105.816C457.798 105.304 457.078 105.048 456.102 105.048ZM466.374 105.528L471.438 104.256L471.702 104.496L470.91 107.928L469.494 114.936C469.366 115.576 469.238 116.224 469.11 116.88C468.982 117.52 468.854 118.16 468.726 118.8L472.302 119.16L472.11 120H463.422L463.59 119.16L466.95 118.824L469.494 106.224L466.182 106.488L466.374 105.528Z" fill="black"/>
<path d="M87.4196 238C88.4756 238 89.3756 238.276 90.1196 238.828C90.8876 239.356 91.3436 239.956 91.4876 240.628C91.2476 241.444 90.7796 241.852 90.0836 241.852C89.5556 241.852 89.0876 241.696 88.6796 241.384C88.2956 241.072 87.8156 240.568 87.2396 239.872L86.6636 239.188C86.0636 239.452 85.4876 239.896 84.9356 240.52C84.3836 241.12 83.8796 241.984 83.4236 243.112C82.9916 244.216 82.6196 245.692 82.3076 247.54C82.2836 247.612 82.2716 247.684 82.2716 247.756C82.2716 247.804 82.2596 247.864 82.2356 247.936H86.8796L86.5916 249.844L81.9476 249.7C81.5636 251.98 81.1796 254.32 80.7956 256.72C80.4116 259.12 79.9916 261.46 79.5356 263.74C79.1516 265.66 78.6836 267.328 78.1316 268.744C77.6036 270.16 76.8356 271.324 75.8276 272.236C75.0836 272.908 74.4116 273.364 73.8116 273.604C73.1876 273.868 72.5876 274 72.0116 274C71.1956 274 70.4756 273.796 69.8516 273.388C69.2276 272.98 68.8316 272.44 68.6636 271.768C68.7356 271.384 68.9396 271.072 69.2756 270.832C69.5876 270.592 69.9356 270.472 70.3196 270.472C70.8476 270.472 71.3276 270.616 71.7596 270.904C72.1676 271.192 72.5636 271.54 72.9476 271.948L73.3796 272.38C73.6196 272.188 73.8596 271.96 74.0996 271.696C74.3636 271.456 74.6156 271.168 74.8556 270.832C75.3116 270.16 75.7076 269.272 76.0436 268.168C76.3796 267.088 76.7156 265.612 77.0516 263.74C77.4836 261.316 77.8796 258.964 78.2396 256.684C78.6236 254.404 79.0076 252.052 79.3916 249.628H75.6476L75.9356 248.26L79.6796 247.936L79.7156 247.612C80.0276 245.62 80.4836 244 81.0836 242.752C81.7076 241.48 82.3916 240.508 83.1356 239.836C83.9036 239.14 84.6596 238.66 85.4036 238.396C86.1716 238.132 86.8436 238 87.4196 238ZM83.9856 265L84.1776 264.04L86.1696 263.752L94.4016 248.92H95.7936L97.9056 263.776L100.018 264.04L99.8256 265H93.4656L93.6576 264.04L95.7456 263.8L95.1216 259.168H89.8896L87.4656 263.728L89.5536 264.04L89.3616 265H83.9856ZM90.4656 258.064H94.9776L94.0656 251.272L90.4656 258.064Z" fill="black"/>
<path d="M347.5 392L339.554 376.61L330.199 391.186L347.5 392ZM172.19 281.262L335.329 385.97L336.949 383.446L173.81 278.738L172.19 281.262Z" fill="black"/>
</svg>
