<svg width="523" height="224" viewBox="0 0 523 224" fill="none" xmlns="http://www.w3.org/2000/svg">
<circle cx="87" cy="137" r="85" stroke="black" stroke-width="4"/>
<circle cx="86.5" cy="184.5" r="37.5" stroke="#FDA646" stroke-width="4"/>
<path d="M45.424 33L43.012 33.288L42.652 33L45.712 18.564L42.148 18.348L42.292 17.304L48.412 15.468L48.88 15.828L48.124 19.536C49.324 18.408 50.596 17.448 51.94 16.656C53.308 15.864 54.544 15.468 55.648 15.468C57.184 15.468 57.952 16.296 57.952 17.952C57.952 18.528 57.892 19.116 57.772 19.716C57.652 20.292 57.52 20.88 57.376 21.48L55.756 28.14C55.636 28.644 55.528 29.076 55.432 29.436C55.336 29.772 55.288 30.036 55.288 30.228C55.288 30.732 55.516 30.984 55.972 30.984C56.428 30.984 56.968 30.756 57.592 30.3C58.24 29.844 58.888 29.208 59.536 28.392L60.4 29.076C59.944 29.772 59.38 30.468 58.708 31.164C58.06 31.836 57.352 32.388 56.584 32.82C55.816 33.252 55.012 33.468 54.172 33.468C53.62 33.468 53.176 33.324 52.84 33.036C52.528 32.748 52.372 32.376 52.372 31.92C52.372 31.512 52.42 31.116 52.516 30.732C52.636 30.324 52.78 29.748 52.948 29.004L54.496 22.668C54.64 22.044 54.772 21.456 54.892 20.904C55.012 20.352 55.072 19.896 55.072 19.536C55.072 18.912 54.964 18.48 54.748 18.24C54.532 18 54.22 17.88 53.812 17.88C53.164 17.88 52.336 18.144 51.328 18.672C50.32 19.2 49.156 20.004 47.836 21.084L46.864 25.44C46.6 26.688 46.348 27.948 46.108 29.22C45.892 30.468 45.664 31.728 45.424 33ZM68.1572 33.468C67.0532 33.468 66.0452 33.228 65.1332 32.748C64.2212 32.268 63.4892 31.56 62.9372 30.624C62.4092 29.664 62.1452 28.5 62.1452 27.132C62.1452 25.5 62.3852 23.988 62.8652 22.596C63.3692 21.18 64.0532 19.944 64.9172 18.888C65.7812 17.808 66.7772 16.968 67.9052 16.368C69.0572 15.768 70.2692 15.468 71.5412 15.468C73.2452 15.468 74.6372 16.008 75.7172 17.088C76.8212 18.168 77.3732 19.728 77.3732 21.768C77.3732 23.328 77.1332 24.816 76.6532 26.232C76.1732 27.624 75.5012 28.872 74.6372 29.976C73.7972 31.056 72.8252 31.908 71.7212 32.532C70.6172 33.156 69.4292 33.468 68.1572 33.468ZM68.5532 32.028C69.4412 32.028 70.2452 31.752 70.9652 31.2C71.6852 30.648 72.2972 29.904 72.8012 28.968C73.3292 28.032 73.7372 26.988 74.0252 25.836C74.3132 24.684 74.4572 23.508 74.4572 22.308C74.4572 20.364 74.1452 18.984 73.5212 18.168C72.9212 17.328 72.1292 16.908 71.1452 16.908C70.0172 16.908 68.9852 17.352 68.0492 18.24C67.1372 19.128 66.4172 20.316 65.8892 21.804C65.3612 23.268 65.0972 24.9 65.0972 26.7C65.0972 28.596 65.4212 29.964 66.0692 30.804C66.7172 31.62 67.5452 32.028 68.5532 32.028ZM82.2433 27.564C82.2433 28.74 82.4593 29.604 82.8913 30.156C83.3233 30.708 83.8633 30.984 84.5113 30.984C85.1593 30.984 85.8913 30.72 86.7073 30.192C87.5473 29.64 88.5673 28.68 89.7673 27.312L91.4953 18.708C91.1353 18.396 90.7633 18.18 90.3793 18.06C90.0193 17.916 89.6593 17.844 89.2993 17.844C88.5313 17.844 87.7753 18.048 87.0313 18.456C86.2873 18.84 85.6033 19.38 84.9793 20.076C84.1633 20.964 83.5033 22.068 82.9993 23.388C82.4953 24.708 82.2433 26.1 82.2433 27.564ZM92.2513 28.14C92.0593 29.1 91.9633 29.784 91.9633 30.192C91.9633 30.432 92.0473 30.624 92.2153 30.768C92.3833 30.912 92.5753 30.984 92.7913 30.984C93.2713 30.984 93.8233 30.744 94.4473 30.264C95.0953 29.784 95.7193 29.16 96.3193 28.392L97.1833 29.076C96.7273 29.772 96.1753 30.456 95.5273 31.128C94.9033 31.8 94.2193 32.364 93.4753 32.82C92.7313 33.252 91.9513 33.468 91.1353 33.468C90.5833 33.468 90.1033 33.312 89.6953 33C89.3113 32.688 89.1193 32.22 89.1193 31.596C89.0953 31.332 89.0953 31.032 89.1193 30.696C89.1673 30.336 89.2513 29.844 89.3713 29.22C88.2913 30.468 87.1513 31.488 85.9513 32.28C84.7753 33.072 83.6953 33.468 82.7113 33.468C81.8473 33.468 81.0913 33.12 80.4433 32.424C79.7953 31.728 79.4713 30.564 79.4713 28.932C79.4713 27.732 79.6873 26.508 80.1193 25.26C80.5753 23.988 81.1753 22.776 81.9193 21.624C82.6633 20.448 83.5033 19.404 84.4393 18.492C85.3753 17.556 86.3593 16.824 87.3913 16.296C88.4233 15.744 89.4193 15.468 90.3793 15.468C91.0273 15.468 91.6153 15.648 92.1433 16.008L93.5113 9.456L89.8753 9.204L90.0193 8.16L96.1753 6.36L96.6073 6.648L92.2513 28.14ZM107.206 17.016C106.654 17.016 106.042 17.232 105.37 17.664C104.722 18.096 104.086 18.696 103.462 19.464C102.838 20.232 102.31 21.12 101.878 22.128C101.47 23.112 101.218 24.168 101.122 25.296C103.114 24.72 104.698 24.084 105.874 23.388C107.074 22.668 107.926 21.948 108.43 21.228C108.958 20.484 109.222 19.788 109.222 19.14C109.222 18.468 109.03 17.952 108.646 17.592C108.286 17.208 107.806 17.016 107.206 17.016ZM104.038 33.468C102.454 33.468 101.146 32.928 100.114 31.848C99.1062 30.768 98.6022 29.076 98.6022 26.772C98.6022 25.332 98.8542 23.94 99.3582 22.596C99.8622 21.228 100.546 20.016 101.41 18.96C102.274 17.88 103.27 17.028 104.398 16.404C105.55 15.78 106.75 15.468 107.998 15.468C109.174 15.468 110.062 15.756 110.662 16.332C111.286 16.908 111.598 17.724 111.598 18.78C111.598 19.548 111.298 20.4 110.698 21.336C110.098 22.248 109.03 23.172 107.494 24.108C105.982 25.044 103.858 25.908 101.122 26.7C101.194 28.236 101.554 29.34 102.202 30.012C102.85 30.66 103.726 30.984 104.83 30.984C105.958 30.984 106.93 30.696 107.746 30.12C108.562 29.544 109.21 28.956 109.69 28.356L110.518 29.004C109.774 30.228 108.838 31.284 107.71 32.172C106.582 33.036 105.358 33.468 104.038 33.468ZM118.712 33L119 31.56L121.988 31.128L134.336 8.88H136.424L139.592 31.164L142.76 31.56L142.472 33H132.932L133.22 31.56L136.352 31.2L135.416 24.252H127.568L123.932 31.092L127.064 31.56L126.776 33H118.712ZM128.432 22.596H135.2L133.832 12.408L128.432 22.596Z" fill="black"/>
<circle cx="436" cy="137" r="85" stroke="black" stroke-width="4"/>
<circle cx="435.5" cy="184.5" r="37.5" stroke="#3490FD" stroke-width="4"/>
<path d="M390.856 33L388.444 33.288L388.084 33L391.144 18.564L387.58 18.348L387.724 17.304L393.844 15.468L394.312 15.828L393.556 19.536C394.756 18.408 396.028 17.448 397.372 16.656C398.74 15.864 399.976 15.468 401.08 15.468C402.616 15.468 403.384 16.296 403.384 17.952C403.384 18.528 403.324 19.116 403.204 19.716C403.084 20.292 402.952 20.88 402.808 21.48L401.188 28.14C401.068 28.644 400.96 29.076 400.864 29.436C400.768 29.772 400.72 30.036 400.72 30.228C400.72 30.732 400.948 30.984 401.404 30.984C401.86 30.984 402.4 30.756 403.024 30.3C403.672 29.844 404.32 29.208 404.968 28.392L405.832 29.076C405.376 29.772 404.812 30.468 404.14 31.164C403.492 31.836 402.784 32.388 402.016 32.82C401.248 33.252 400.444 33.468 399.604 33.468C399.052 33.468 398.608 33.324 398.272 33.036C397.96 32.748 397.804 32.376 397.804 31.92C397.804 31.512 397.852 31.116 397.948 30.732C398.068 30.324 398.212 29.748 398.38 29.004L399.928 22.668C400.072 22.044 400.204 21.456 400.324 20.904C400.444 20.352 400.504 19.896 400.504 19.536C400.504 18.912 400.396 18.48 400.18 18.24C399.964 18 399.652 17.88 399.244 17.88C398.596 17.88 397.768 18.144 396.76 18.672C395.752 19.2 394.588 20.004 393.268 21.084L392.296 25.44C392.032 26.688 391.78 27.948 391.54 29.22C391.324 30.468 391.096 31.728 390.856 33ZM413.589 33.468C412.485 33.468 411.477 33.228 410.565 32.748C409.653 32.268 408.921 31.56 408.369 30.624C407.841 29.664 407.577 28.5 407.577 27.132C407.577 25.5 407.817 23.988 408.297 22.596C408.801 21.18 409.485 19.944 410.349 18.888C411.213 17.808 412.209 16.968 413.337 16.368C414.489 15.768 415.701 15.468 416.973 15.468C418.677 15.468 420.069 16.008 421.149 17.088C422.253 18.168 422.805 19.728 422.805 21.768C422.805 23.328 422.565 24.816 422.085 26.232C421.605 27.624 420.933 28.872 420.069 29.976C419.229 31.056 418.257 31.908 417.153 32.532C416.049 33.156 414.861 33.468 413.589 33.468ZM413.985 32.028C414.873 32.028 415.677 31.752 416.397 31.2C417.117 30.648 417.729 29.904 418.233 28.968C418.761 28.032 419.169 26.988 419.457 25.836C419.745 24.684 419.889 23.508 419.889 22.308C419.889 20.364 419.577 18.984 418.953 18.168C418.353 17.328 417.561 16.908 416.577 16.908C415.449 16.908 414.417 17.352 413.481 18.24C412.569 19.128 411.849 20.316 411.321 21.804C410.793 23.268 410.529 24.9 410.529 26.7C410.529 28.596 410.853 29.964 411.501 30.804C412.149 31.62 412.977 32.028 413.985 32.028ZM427.675 27.564C427.675 28.74 427.891 29.604 428.323 30.156C428.755 30.708 429.295 30.984 429.943 30.984C430.591 30.984 431.323 30.72 432.139 30.192C432.979 29.64 433.999 28.68 435.199 27.312L436.927 18.708C436.567 18.396 436.195 18.18 435.811 18.06C435.451 17.916 435.091 17.844 434.731 17.844C433.963 17.844 433.207 18.048 432.463 18.456C431.719 18.84 431.035 19.38 430.411 20.076C429.595 20.964 428.935 22.068 428.431 23.388C427.927 24.708 427.675 26.1 427.675 27.564ZM437.683 28.14C437.491 29.1 437.395 29.784 437.395 30.192C437.395 30.432 437.479 30.624 437.647 30.768C437.815 30.912 438.007 30.984 438.223 30.984C438.703 30.984 439.255 30.744 439.879 30.264C440.527 29.784 441.151 29.16 441.751 28.392L442.615 29.076C442.159 29.772 441.607 30.456 440.959 31.128C440.335 31.8 439.651 32.364 438.907 32.82C438.163 33.252 437.383 33.468 436.567 33.468C436.015 33.468 435.535 33.312 435.127 33C434.743 32.688 434.551 32.22 434.551 31.596C434.527 31.332 434.527 31.032 434.551 30.696C434.599 30.336 434.683 29.844 434.803 29.22C433.723 30.468 432.583 31.488 431.383 32.28C430.207 33.072 429.127 33.468 428.143 33.468C427.279 33.468 426.523 33.12 425.875 32.424C425.227 31.728 424.903 30.564 424.903 28.932C424.903 27.732 425.119 26.508 425.551 25.26C426.007 23.988 426.607 22.776 427.351 21.624C428.095 20.448 428.935 19.404 429.871 18.492C430.807 17.556 431.791 16.824 432.823 16.296C433.855 15.744 434.851 15.468 435.811 15.468C436.459 15.468 437.047 15.648 437.575 16.008L438.943 9.456L435.307 9.204L435.451 8.16L441.607 6.36L442.039 6.648L437.683 28.14ZM452.638 17.016C452.086 17.016 451.474 17.232 450.802 17.664C450.154 18.096 449.518 18.696 448.894 19.464C448.27 20.232 447.742 21.12 447.31 22.128C446.902 23.112 446.65 24.168 446.554 25.296C448.546 24.72 450.13 24.084 451.306 23.388C452.506 22.668 453.358 21.948 453.862 21.228C454.39 20.484 454.654 19.788 454.654 19.14C454.654 18.468 454.462 17.952 454.078 17.592C453.718 17.208 453.238 17.016 452.638 17.016ZM449.47 33.468C447.886 33.468 446.578 32.928 445.546 31.848C444.538 30.768 444.034 29.076 444.034 26.772C444.034 25.332 444.286 23.94 444.79 22.596C445.294 21.228 445.978 20.016 446.842 18.96C447.706 17.88 448.702 17.028 449.83 16.404C450.982 15.78 452.182 15.468 453.43 15.468C454.606 15.468 455.494 15.756 456.094 16.332C456.718 16.908 457.03 17.724 457.03 18.78C457.03 19.548 456.73 20.4 456.13 21.336C455.53 22.248 454.462 23.172 452.926 24.108C451.414 25.044 449.29 25.908 446.554 26.7C446.626 28.236 446.986 29.34 447.634 30.012C448.282 30.66 449.158 30.984 450.262 30.984C451.39 30.984 452.362 30.696 453.178 30.12C453.994 29.544 454.642 28.956 455.122 28.356L455.95 29.004C455.206 30.228 454.27 31.284 453.142 32.172C452.014 33.036 450.79 33.468 449.47 33.468ZM469.58 10.356L469.868 8.88H479.048C481.448 8.88 483.212 9.396 484.34 10.428C485.468 11.436 486.032 12.672 486.032 14.136C486.032 15.648 485.492 16.944 484.412 18.024C483.332 19.104 481.964 19.86 480.308 20.292C482.06 20.676 483.392 21.432 484.304 22.56C485.24 23.664 485.708 24.912 485.708 26.304C485.708 27.672 485.276 28.86 484.412 29.868C483.572 30.852 482.408 31.62 480.92 32.172C479.432 32.724 477.704 33 475.736 33H465.764L466.052 31.56L469.148 31.164L471.236 20.04C471.812 16.944 472.352 13.848 472.856 10.752L469.58 10.356ZM473.936 21.84C473.648 23.424 473.36 25.008 473.072 26.592C472.808 28.176 472.544 29.76 472.28 31.344H475.376C477.08 31.344 478.436 31.104 479.444 30.624C480.476 30.12 481.22 29.448 481.676 28.608C482.132 27.768 482.36 26.844 482.36 25.836C482.36 24.348 481.82 23.208 480.74 22.416C479.684 21.624 478.34 21.228 476.708 21.228H474.044L473.936 21.84ZM478.58 10.572H476.06L474.368 19.572H476.348C478.628 19.572 480.284 19.104 481.316 18.168C482.372 17.208 482.9 16.032 482.9 14.64C482.9 13.44 482.54 12.468 481.82 11.724C481.124 10.956 480.044 10.572 478.58 10.572Z" fill="black"/>
<path d="M87.4196 93C88.4756 93 89.3756 93.276 90.1196 93.828C90.8876 94.356 91.3436 94.956 91.4876 95.628C91.2476 96.444 90.7796 96.852 90.0836 96.852C89.5556 96.852 89.0876 96.696 88.6796 96.384C88.2956 96.072 87.8156 95.568 87.2396 94.872L86.6636 94.188C86.0636 94.452 85.4876 94.896 84.9356 95.52C84.3836 96.12 83.8796 96.984 83.4236 98.112C82.9916 99.216 82.6196 100.692 82.3076 102.54C82.2836 102.612 82.2716 102.684 82.2716 102.756C82.2716 102.804 82.2596 102.864 82.2356 102.936H86.8796L86.5916 104.844L81.9476 104.7C81.5636 106.98 81.1796 109.32 80.7956 111.72C80.4116 114.12 79.9916 116.46 79.5356 118.74C79.1516 120.66 78.6836 122.328 78.1316 123.744C77.6036 125.16 76.8356 126.324 75.8276 127.236C75.0836 127.908 74.4116 128.364 73.8116 128.604C73.1876 128.868 72.5876 129 72.0116 129C71.1956 129 70.4756 128.796 69.8516 128.388C69.2276 127.98 68.8316 127.44 68.6636 126.768C68.7356 126.384 68.9396 126.072 69.2756 125.832C69.5876 125.592 69.9356 125.472 70.3196 125.472C70.8476 125.472 71.3276 125.616 71.7596 125.904C72.1676 126.192 72.5636 126.54 72.9476 126.948L73.3796 127.38C73.6196 127.188 73.8596 126.96 74.0996 126.696C74.3636 126.456 74.6156 126.168 74.8556 125.832C75.3116 125.16 75.7076 124.272 76.0436 123.168C76.3796 122.088 76.7156 120.612 77.0516 118.74C77.4836 116.316 77.8796 113.964 78.2396 111.684C78.6236 109.404 79.0076 107.052 79.3916 104.628H75.6476L75.9356 103.26L79.6796 102.936L79.7156 102.612C80.0276 100.62 80.4836 99 81.0836 97.752C81.7076 96.48 82.3916 95.508 83.1356 94.836C83.9036 94.14 84.6596 93.66 85.4036 93.396C86.1716 93.132 86.8436 93 87.4196 93ZM83.9856 120L84.1776 119.04L86.1696 118.752L94.4016 103.92H95.7936L97.9056 118.776L100.018 119.04L99.8256 120H93.4656L93.6576 119.04L95.7456 118.8L95.1216 114.168H89.8896L87.4656 118.728L89.5536 119.04L89.3616 120H83.9856ZM90.4656 113.064H94.9776L94.0656 106.272L90.4656 113.064Z" fill="black"/>
<path d="M437.041 93C438.097 93 438.997 93.276 439.741 93.828C440.509 94.356 440.965 94.956 441.109 95.628C440.869 96.444 440.401 96.852 439.705 96.852C439.177 96.852 438.709 96.696 438.301 96.384C437.917 96.072 437.437 95.568 436.861 94.872L436.285 94.188C435.685 94.452 435.109 94.896 434.557 95.52C434.005 96.12 433.501 96.984 433.045 98.112C432.613 99.216 432.241 100.692 431.929 102.54C431.905 102.612 431.893 102.684 431.893 102.756C431.893 102.804 431.881 102.864 431.857 102.936H436.501L436.213 104.844L431.569 104.7C431.185 106.98 430.801 109.32 430.417 111.72C430.033 114.12 429.613 116.46 429.157 118.74C428.773 120.66 428.305 122.328 427.753 123.744C427.225 125.16 426.457 126.324 425.449 127.236C424.705 127.908 424.033 128.364 423.433 128.604C422.809 128.868 422.209 129 421.633 129C420.817 129 420.097 128.796 419.473 128.388C418.849 127.98 418.453 127.44 418.285 126.768C418.357 126.384 418.561 126.072 418.897 125.832C419.209 125.592 419.557 125.472 419.941 125.472C420.469 125.472 420.949 125.616 421.381 125.904C421.789 126.192 422.185 126.54 422.569 126.948L423.001 127.38C423.241 127.188 423.481 126.96 423.721 126.696C423.985 126.456 424.237 126.168 424.477 125.832C424.933 125.16 425.329 124.272 425.665 123.168C426.001 122.088 426.337 120.612 426.673 118.74C427.105 116.316 427.501 113.964 427.861 111.684C428.245 109.404 428.629 107.052 429.013 104.628H425.269L425.557 103.26L429.301 102.936L429.337 102.612C429.649 100.62 430.105 99 430.705 97.752C431.329 96.48 432.013 95.508 432.757 94.836C433.525 94.14 434.281 93.66 435.025 93.396C435.793 93.132 436.465 93 437.041 93ZM437.231 104.904L437.423 103.92H443.543C445.143 103.92 446.319 104.264 447.071 104.952C447.823 105.624 448.199 106.448 448.199 107.424C448.199 108.432 447.839 109.296 447.119 110.016C446.399 110.736 445.487 111.24 444.383 111.528C445.551 111.784 446.439 112.288 447.047 113.04C447.671 113.776 447.983 114.608 447.983 115.536C447.983 116.448 447.695 117.24 447.119 117.912C446.559 118.568 445.783 119.08 444.791 119.448C443.799 119.816 442.647 120 441.335 120H434.687L434.879 119.04L436.943 118.776L438.335 111.36C438.719 109.296 439.079 107.232 439.415 105.168L437.231 104.904ZM440.135 112.56C439.943 113.616 439.751 114.672 439.559 115.728C439.383 116.784 439.207 117.84 439.031 118.896H441.095C442.231 118.896 443.135 118.736 443.807 118.416C444.495 118.08 444.991 117.632 445.295 117.072C445.599 116.512 445.751 115.896 445.751 115.224C445.751 114.232 445.391 113.472 444.671 112.944C443.967 112.416 443.071 112.152 441.983 112.152H440.207L440.135 112.56ZM443.231 105.048H441.551L440.423 111.048H441.743C443.263 111.048 444.367 110.736 445.055 110.112C445.759 109.472 446.111 108.688 446.111 107.76C446.111 106.96 445.871 106.312 445.391 105.816C444.927 105.304 444.207 105.048 443.231 105.048Z" fill="black"/>
<path d="M349 137L334 128.34V145.66L349 137ZM174 138.5H335.5V135.5H174V138.5Z" fill="black"/>
</svg>
