<svg width="1004" height="690" viewBox="0 0 1004 690" fill="none" xmlns="http://www.w3.org/2000/svg">
<circle cx="463" cy="345" r="85" stroke="black" stroke-width="4"/>
<circle cx="462.5" cy="392.5" r="37.5" stroke="#FDA646" stroke-width="4"/>
<circle cx="463" cy="87" r="85" stroke="black" stroke-width="4"/>
<circle cx="462.5" cy="134.5" r="37.5" stroke="#FDA646" stroke-width="4"/>
<circle cx="463" cy="603" r="85" stroke="black" stroke-width="4"/>
<circle cx="462.5" cy="650.5" r="37.5" stroke="#FDA646" stroke-width="4"/>
<path d="M29.8552 345.912C29.9512 345.48 30.1552 345.156 30.4672 344.94C30.8032 344.724 31.1152 344.616 31.4032 344.616C31.7872 344.616 32.1112 344.7 32.3752 344.868C32.6392 345.012 32.9272 345.36 33.2392 345.912L33.6352 346.632C33.8512 346.464 34.0792 346.248 34.3192 345.984C35.1832 345.048 35.9872 344.088 36.7312 343.104C37.4752 342.12 38.2192 341.076 38.9632 339.972L37.4512 334.824C37.2352 334.08 37.0312 333.576 36.8392 333.312C36.6712 333.024 36.3952 332.88 36.0112 332.88C35.7712 332.88 35.4112 333.024 34.9312 333.312C34.4752 333.6 33.9352 334.272 33.3112 335.328L32.4832 334.716C33.1552 333.228 33.8872 332.148 34.6792 331.476C35.4712 330.804 36.2392 330.468 36.9832 330.468C37.6792 330.468 38.2312 330.696 38.6392 331.152C39.0712 331.608 39.4432 332.412 39.7552 333.564L40.8712 337.56C41.6392 336.336 42.3592 335.256 43.0312 334.32C43.7272 333.384 44.3032 332.64 44.7592 332.088C45.2872 331.464 45.7672 331.044 46.1992 330.828C46.6312 330.588 47.1352 330.468 47.7112 330.468C48.1912 330.468 48.6712 330.624 49.1512 330.936C49.6552 331.248 49.9792 331.728 50.1232 332.376C50.1232 332.88 49.9792 333.3 49.6912 333.636C49.4032 333.948 49.0552 334.104 48.6472 334.104C48.2872 334.104 47.9512 334.032 47.6392 333.888C47.3272 333.72 47.0032 333.384 46.6672 332.88L46.4512 332.592C46.3552 332.664 46.2712 332.748 46.1992 332.844C46.1272 332.94 46.0432 333.036 45.9472 333.132C45.1072 334.068 44.3032 335.028 43.5352 336.012C42.7672 336.996 42.0232 338.004 41.3032 339.036L42.5632 343.608C42.8272 344.592 43.1032 345.24 43.3912 345.552C43.7032 345.84 44.1112 345.984 44.6152 345.984C45.0952 345.984 45.6232 345.756 46.1992 345.3C46.7992 344.844 47.4232 344.208 48.0712 343.392L48.9712 344.076C48.1072 345.348 47.1712 346.404 46.1632 347.244C45.1552 348.06 44.1712 348.468 43.2112 348.468C42.6832 348.468 42.2152 348.3 41.8072 347.964C41.3992 347.604 41.0392 346.908 40.7272 345.876L39.3952 341.412C38.6512 342.612 37.9432 343.704 37.2712 344.688C36.5992 345.648 35.9512 346.5 35.3272 347.244C34.9432 347.7 34.5472 348.012 34.1392 348.18C33.7312 348.372 33.2872 348.468 32.8072 348.468C32.0872 348.468 31.4272 348.264 30.8272 347.856C30.2512 347.424 29.9272 346.776 29.8552 345.912ZM49.9631 353.724C50.3711 351.876 50.7671 349.992 51.1511 348.072C51.5351 346.152 51.9191 344.232 52.3031 342.312L53.9591 333.672C54.3431 331.776 54.7151 329.88 55.0751 327.984C55.4351 326.064 55.7711 324.156 56.0831 322.26H62.8871L62.5991 323.7L58.4231 324.168C58.1111 325.704 57.7871 327.276 57.4511 328.884C57.1391 330.468 56.8271 332.064 56.5151 333.672L54.8591 342.312C54.5471 343.872 54.2351 345.456 53.9231 347.064C53.6111 348.648 53.3231 350.232 53.0591 351.816L57.0551 352.284L56.7671 353.724H49.9631ZM64.0102 344.004L66.4222 332.7H62.7502L63.0022 331.26L66.8902 330.9L68.5822 326.076H70.4182L69.3742 330.936H73.9462L73.6582 332.88L69.0142 332.736L66.8182 343.068C66.6022 344.028 66.4942 344.724 66.4942 345.156C66.4942 345.42 66.5782 345.624 66.7462 345.768C66.9382 345.912 67.1422 345.984 67.3582 345.984C68.2702 345.984 69.4462 345.12 70.8862 343.392L71.7862 344.076C71.2822 344.796 70.7062 345.492 70.0582 346.164C69.4102 346.836 68.7142 347.388 67.9702 347.82C67.2262 348.252 66.4462 348.468 65.6302 348.468C65.1022 348.468 64.6342 348.312 64.2262 348C63.8422 347.688 63.6502 347.232 63.6502 346.632C63.6502 346.368 63.6742 346.056 63.7222 345.696C63.7702 345.312 63.8662 344.748 64.0102 344.004ZM84.2818 322.26C83.8738 324.108 83.4778 325.992 83.0938 327.912C82.7098 329.832 82.3258 331.752 81.9418 333.672L80.2858 342.312C79.9018 344.208 79.5298 346.104 79.1698 348C78.8338 349.92 78.4978 351.828 78.1618 353.724H71.3578L71.6458 352.284L75.8218 351.816C76.1578 350.256 76.4818 348.684 76.7938 347.1C77.1058 345.516 77.4178 343.92 77.7298 342.312L79.3858 333.672C79.6978 332.112 80.0098 330.54 80.3218 328.956C80.6338 327.348 80.9218 325.752 81.1858 324.168L77.1898 323.7L77.4778 322.26H84.2818Z" fill="black"/>
<circle cx="776" cy="345" r="85" stroke="black" stroke-width="4"/>
<circle cx="775.5" cy="392.5" r="37.5" stroke="#FDA646" stroke-width="4"/>
<circle cx="776" cy="87" r="85" stroke="black" stroke-width="4"/>
<circle cx="775.5" cy="134.5" r="37.5" stroke="#FDA646" stroke-width="4"/>
<circle cx="776" cy="603" r="85" stroke="black" stroke-width="4"/>
<circle cx="775.5" cy="650.5" r="37.5" stroke="#FDA646" stroke-width="4"/>
<path d="M463 432L454.519 447.102L471.838 446.896L463 432ZM465.5 515.982L464.661 445.481L461.661 445.517L462.5 516.018L465.5 515.982Z" fill="black"/>
<path d="M461 174L452.519 189.102L469.838 188.896L461 174ZM463.5 257.982L462.661 187.481L459.661 187.517L460.5 258.018L463.5 257.982Z" fill="black"/>
<path d="M689.5 342L674.5 333.34V350.66L689.5 342ZM548.5 343.5H676V340.5H548.5V343.5Z" fill="black"/>
<path d="M691 603L676 594.34V611.66L691 603ZM550 604.5H677.5V601.5H550V604.5Z" fill="black"/>
<path d="M1004 603L989 594.34V611.66L1004 603ZM863 604.5H990.5V601.5H863V604.5Z" fill="black"/>
<path d="M691 87L676 78.3397V95.6603L691 87ZM550 88.5H677.5V85.5H550V88.5Z" fill="black"/>
<path d="M775.5 258L784.16 243L766.84 243L775.5 258ZM775.5 518L784.16 503L766.84 503L775.5 518ZM774 173.5L774 244.5L777 244.5L777 173.5L774 173.5ZM774 433.5L774 504.5L777 504.5L777 433.5L774 433.5Z" fill="black"/>
<path d="M373 596.5L356.179 592.371L368.166 579.868L373 596.5ZM107.538 339.917L364.293 586.075L362.217 588.24L105.462 342.083L107.538 339.917Z" fill="black"/>
<path d="M372 95.5L366.866 112.042L355.107 99.3251L372 95.5ZM105.482 339.899L361.07 103.564L363.106 105.767L107.518 342.101L105.482 339.899Z" fill="black"/>
<path d="M375 341L360 349.66V332.34L375 341ZM106.5 339.5H361.5V342.5H106.5V339.5Z" fill="black"/>
</svg>
