<svg width="433" height="376" viewBox="0 0 433 376" fill="none" xmlns="http://www.w3.org/2000/svg">
<circle cx="216.445" cy="236.445" r="42.4451" stroke="black" stroke-width="4"/>
<circle cx="56.4451" cy="233.445" r="42.4451" stroke="black" stroke-width="4"/>
<circle cx="112.445" cy="87.4451" r="42.4451" stroke="black" stroke-width="4"/>
<circle cx="376.5" cy="233.5" r="42.5" stroke="black" stroke-width="4"/>
<path d="M43.9004 358.468C43.4204 358.468 42.9764 358.312 42.5684 358C42.1844 357.688 41.9924 357.22 41.9924 356.596C41.9924 356.356 42.0044 356.08 42.0284 355.768C42.0764 355.432 42.1604 354.964 42.2804 354.364C40.8884 355.636 39.6164 356.644 38.4644 357.388C37.3124 358.108 36.1844 358.468 35.0804 358.468C34.4084 358.468 33.8204 358.276 33.3164 357.892C32.8364 357.508 32.5964 356.824 32.5964 355.84C32.5964 355.168 32.6804 354.424 32.8484 353.608C33.0404 352.768 33.2084 352 33.3524 351.304L35.0084 343.528L31.4444 343.348L31.5884 342.268L37.8524 340.468L38.3204 340.828L36.0524 351.016C35.8844 351.76 35.7524 352.42 35.6564 352.996C35.5604 353.548 35.5124 354.028 35.5124 354.436C35.5124 355.468 35.9684 355.984 36.8804 355.984C37.6484 355.984 38.4524 355.744 39.2924 355.264C40.1324 354.76 41.2364 353.968 42.6044 352.888L43.5764 348.1C43.8164 346.948 44.0444 345.796 44.2604 344.644C44.5004 343.492 44.7044 342.34 44.8724 341.188L47.2124 340.468L47.6804 340.828L45.1244 353.14C45.0284 353.596 44.9444 354.004 44.8724 354.364C44.8244 354.724 44.8004 355 44.8004 355.192C44.8004 355.432 44.8844 355.624 45.0524 355.768C45.2204 355.912 45.4124 355.984 45.6284 355.984C46.1084 355.984 46.6364 355.768 47.2124 355.336C47.7884 354.904 48.4484 354.256 49.1924 353.392L50.0564 354.076C49.5044 354.796 48.9164 355.492 48.2924 356.164C47.6684 356.836 46.9964 357.388 46.2764 357.82C45.5564 358.252 44.7644 358.468 43.9004 358.468ZM50.9299 363.724C51.3379 361.876 51.7339 359.992 52.1179 358.072C52.5019 356.152 52.8859 354.232 53.2699 352.312L54.9259 343.672C55.3099 341.776 55.6819 339.88 56.0419 337.984C56.4019 336.064 56.7379 334.156 57.0499 332.26H63.8539L63.5659 333.7L59.3899 334.168C59.0779 335.704 58.7539 337.276 58.4179 338.884C58.1059 340.468 57.7939 342.064 57.4819 343.672L55.8259 352.312C55.5139 353.872 55.2019 355.456 54.8899 357.064C54.5779 358.648 54.2899 360.232 54.0259 361.816L58.0219 362.284L57.7339 363.724H50.9299ZM64.977 354.004L67.389 342.7H63.717L63.969 341.26L67.857 340.9L69.549 336.076H71.385L70.341 340.936H74.913L74.625 342.88L69.981 342.736L67.785 353.068C67.569 354.028 67.461 354.724 67.461 355.156C67.461 355.42 67.545 355.624 67.713 355.768C67.905 355.912 68.109 355.984 68.325 355.984C69.237 355.984 70.413 355.12 71.853 353.392L72.753 354.076C72.249 354.796 71.673 355.492 71.025 356.164C70.377 356.836 69.681 357.388 68.937 357.82C68.193 358.252 67.413 358.468 66.597 358.468C66.069 358.468 65.601 358.312 65.193 358C64.809 357.688 64.617 357.232 64.617 356.632C64.617 356.368 64.641 356.056 64.689 355.696C64.737 355.312 64.833 354.748 64.977 354.004ZM85.2486 332.26C84.8406 334.108 84.4446 335.992 84.0606 337.912C83.6766 339.832 83.2926 341.752 82.9086 343.672L81.2526 352.312C80.8686 354.208 80.4966 356.104 80.1366 358C79.8006 359.92 79.4646 361.828 79.1286 363.724H72.3246L72.6126 362.284L76.7886 361.816C77.1246 360.256 77.4486 358.684 77.7606 357.1C78.0726 355.516 78.3846 353.92 78.6966 352.312L80.3526 343.672C80.6646 342.112 80.9766 340.54 81.2886 338.956C81.6006 337.348 81.8886 335.752 82.1526 334.168L78.1566 333.7L78.4446 332.26H85.2486Z" fill="black"/>
<path d="M57 278L48.3397 293H65.6603L57 278ZM58.5 321V291.5H55.5V321H58.5Z" fill="black"/>
<path d="M196.181 358.072C196.109 355.24 196.001 352.768 195.857 350.656C195.713 348.544 195.509 346.54 195.245 344.644C195.173 343.924 195.053 343.468 194.885 343.276C194.717 343.06 194.501 342.952 194.237 342.952C193.925 342.952 193.589 343.12 193.229 343.456C192.893 343.768 192.413 344.392 191.789 345.328L190.961 344.752C192.233 341.896 193.745 340.468 195.497 340.468C196.241 340.468 196.781 340.696 197.117 341.152C197.477 341.608 197.741 342.328 197.909 343.312C198.173 344.92 198.353 346.768 198.449 348.856C198.545 350.944 198.605 353.032 198.629 355.12C199.901 353.632 201.017 352.168 201.977 350.728C202.937 349.264 203.861 347.704 204.749 346.048C204.773 346 204.785 345.964 204.785 345.94C204.809 345.892 204.833 345.856 204.857 345.832L204.605 344.428C204.581 344.188 204.545 343.936 204.497 343.672C204.473 343.408 204.461 343.192 204.461 343.024C204.461 342.112 204.629 341.464 204.965 341.08C205.325 340.672 205.805 340.468 206.405 340.468C206.741 340.468 207.029 340.516 207.269 340.612C207.509 340.708 207.677 340.816 207.773 340.936C207.893 341.104 207.953 341.44 207.953 341.944C207.953 342.184 207.917 342.484 207.845 342.844C207.797 343.204 207.641 343.696 207.377 344.32C207.137 344.92 206.729 345.76 206.153 346.84C205.601 347.896 204.869 349.072 203.957 350.368C203.069 351.64 202.073 352.948 200.969 354.292C199.865 355.612 198.701 356.896 197.477 358.144L196.433 358.252L196.181 358.072ZM208.225 363.724C208.633 361.876 209.029 359.992 209.413 358.072C209.797 356.152 210.181 354.232 210.565 352.312L212.221 343.672C212.605 341.776 212.977 339.88 213.337 337.984C213.697 336.064 214.033 334.156 214.345 332.26H221.149L220.861 333.7L216.685 334.168C216.373 335.704 216.049 337.276 215.713 338.884C215.401 340.468 215.089 342.064 214.777 343.672L213.121 352.312C212.809 353.872 212.497 355.456 212.185 357.064C211.873 358.648 211.585 360.232 211.321 361.816L215.317 362.284L215.029 363.724H208.225ZM222.272 354.004L224.684 342.7H221.012L221.264 341.26L225.152 340.9L226.844 336.076H228.68L227.636 340.936H232.208L231.92 342.88L227.276 342.736L225.08 353.068C224.864 354.028 224.756 354.724 224.756 355.156C224.756 355.42 224.84 355.624 225.008 355.768C225.2 355.912 225.404 355.984 225.62 355.984C226.532 355.984 227.708 355.12 229.148 353.392L230.048 354.076C229.544 354.796 228.968 355.492 228.32 356.164C227.672 356.836 226.976 357.388 226.232 357.82C225.488 358.252 224.708 358.468 223.892 358.468C223.364 358.468 222.896 358.312 222.488 358C222.104 357.688 221.912 357.232 221.912 356.632C221.912 356.368 221.936 356.056 221.984 355.696C222.032 355.312 222.128 354.748 222.272 354.004ZM242.544 332.26C242.136 334.108 241.74 335.992 241.356 337.912C240.972 339.832 240.588 341.752 240.204 343.672L238.548 352.312C238.164 354.208 237.792 356.104 237.432 358C237.096 359.92 236.76 361.828 236.424 363.724H229.62L229.908 362.284L234.084 361.816C234.42 360.256 234.744 358.684 235.056 357.1C235.368 355.516 235.68 353.92 235.992 352.312L237.648 343.672C237.96 342.112 238.272 340.54 238.584 338.956C238.896 337.348 239.184 335.752 239.448 334.168L235.452 333.7L235.74 332.26H242.544Z" fill="black"/>
<path d="M216 278L207.34 293H224.66L216 278ZM217.5 321V291.5H214.5V321H217.5Z" fill="black"/>
<path d="M351.556 358.072C351.532 355.168 351.448 352.648 351.304 350.512C351.184 348.352 350.992 346.36 350.728 344.536C350.656 343.84 350.536 343.408 350.368 343.24C350.2 343.048 349.984 342.952 349.72 342.952C349.384 342.952 349.036 343.132 348.676 343.492C348.316 343.852 347.848 344.464 347.272 345.328L346.444 344.752C347.716 341.896 349.192 340.468 350.872 340.468C351.64 340.468 352.192 340.66 352.528 341.044C352.888 341.404 353.14 342.016 353.284 342.88C353.452 343.864 353.584 345.016 353.68 346.336C353.776 347.632 353.848 348.988 353.896 350.404C353.944 351.796 353.968 353.164 353.968 354.508C355.288 352.588 356.56 350.5 357.784 348.244C359.032 345.964 360.208 343.516 361.312 340.9H362.788C362.788 341.044 362.8 341.524 362.824 342.34C362.872 343.132 362.92 344.116 362.968 345.292C363.016 346.468 363.052 347.692 363.076 348.964C363.124 350.212 363.16 351.364 363.184 352.42C363.232 353.476 363.268 354.292 363.292 354.868C364.516 353.356 365.584 351.928 366.496 350.584C367.408 349.24 368.308 347.74 369.196 346.084C369.244 346.036 369.28 345.988 369.304 345.94C369.328 345.868 369.352 345.808 369.376 345.76L369.088 344.5C369.04 344.284 368.992 344.032 368.944 343.744C368.92 343.432 368.908 343.192 368.908 343.024C368.908 342.112 369.124 341.464 369.556 341.08C370.012 340.672 370.516 340.468 371.068 340.468C371.62 340.492 372.016 340.648 372.256 340.936C372.4 341.152 372.472 341.512 372.472 342.016C372.472 342.256 372.436 342.556 372.364 342.916C372.292 343.276 372.124 343.768 371.86 344.392C371.596 344.992 371.188 345.808 370.636 346.84C369.796 348.472 368.644 350.284 367.18 352.276C365.716 354.268 364.06 356.224 362.212 358.144L361.168 358.252L360.916 358.072C360.892 357.736 360.856 357.1 360.808 356.164C360.76 355.228 360.7 354.172 360.628 352.996C360.58 351.82 360.532 350.668 360.484 349.54C360.436 348.388 360.388 347.44 360.34 346.696C359.716 347.848 359.008 349.108 358.216 350.476C357.424 351.82 356.572 353.164 355.66 354.508C354.772 355.828 353.848 357.04 352.888 358.144L351.808 358.252L351.556 358.072ZM372.742 363.724C373.15 361.876 373.546 359.992 373.93 358.072C374.314 356.152 374.698 354.232 375.082 352.312L376.738 343.672C377.122 341.776 377.494 339.88 377.854 337.984C378.214 336.064 378.55 334.156 378.862 332.26H385.666L385.378 333.7L381.202 334.168C380.89 335.704 380.566 337.276 380.23 338.884C379.918 340.468 379.606 342.064 379.294 343.672L377.638 352.312C377.326 353.872 377.014 355.456 376.702 357.064C376.39 358.648 376.102 360.232 375.838 361.816L379.834 362.284L379.546 363.724H372.742ZM386.789 354.004L389.201 342.7H385.529L385.781 341.26L389.669 340.9L391.361 336.076H393.197L392.153 340.936H396.725L396.437 342.88L391.793 342.736L389.597 353.068C389.381 354.028 389.273 354.724 389.273 355.156C389.273 355.42 389.357 355.624 389.525 355.768C389.717 355.912 389.921 355.984 390.137 355.984C391.049 355.984 392.225 355.12 393.665 353.392L394.565 354.076C394.061 354.796 393.485 355.492 392.837 356.164C392.189 356.836 391.493 357.388 390.749 357.82C390.005 358.252 389.225 358.468 388.409 358.468C387.881 358.468 387.413 358.312 387.005 358C386.621 357.688 386.429 357.232 386.429 356.632C386.429 356.368 386.453 356.056 386.501 355.696C386.549 355.312 386.645 354.748 386.789 354.004ZM407.061 332.26C406.653 334.108 406.257 335.992 405.873 337.912C405.489 339.832 405.105 341.752 404.721 343.672L403.065 352.312C402.681 354.208 402.309 356.104 401.949 358C401.613 359.92 401.277 361.828 400.941 363.724H394.137L394.425 362.284L398.601 361.816C398.937 360.256 399.261 358.684 399.573 357.1C399.885 355.516 400.197 353.92 400.509 352.312L402.165 343.672C402.477 342.112 402.789 340.54 403.101 338.956C403.413 337.348 403.701 335.752 403.965 334.168L399.969 333.7L400.257 332.26H407.061Z" fill="black"/>
<path d="M376 278L367.34 293H384.66L376 278ZM377.5 321V291.5H374.5V321H377.5Z" fill="black"/>
<path d="M335 128L335.924 145.296L350.441 135.848L335 128ZM377.259 190.182L343.621 138.496L341.107 140.133L374.744 191.818L377.259 190.182Z" fill="black"/>
<path d="M97 128L81.8765 136.443L96.7498 145.319L97 128ZM61.2881 190.769L91.3699 140.361L88.7938 138.824L58.7119 189.231L61.2881 190.769Z" fill="black"/>
<path d="M130 129L136.982 144.85L147.218 130.878L130 129ZM216.885 190.79L141.777 135.768L140.004 138.188L215.112 193.21L216.885 190.79Z" fill="black"/>
<path d="M303 129L285.772 130.783L295.93 144.812L303 129ZM216.878 193.214L292.945 138.133L291.186 135.703L215.118 190.785L216.878 193.214Z" fill="black"/>
<path d="M362.336 240L365.396 225.564L361.832 225.348L361.976 224.304L367.916 222.468L368.384 222.828L367.592 227.652C368.12 226.74 368.672 225.9 369.248 225.132C369.848 224.34 370.472 223.704 371.12 223.224C371.768 222.72 372.404 222.468 373.028 222.468C373.532 222.468 374 222.552 374.432 222.72C374.864 222.864 375.2 223.14 375.44 223.548C375.416 224.148 375.236 224.64 374.9 225.024C374.588 225.384 374.132 225.564 373.532 225.564C373.22 225.564 372.872 225.48 372.488 225.312C372.128 225.12 371.768 224.892 371.408 224.628C370.544 225.348 369.752 226.2 369.032 227.184C368.312 228.168 367.628 229.296 366.98 230.568L366.548 232.44C366.284 233.688 366.032 234.948 365.792 236.22C365.576 237.468 365.348 238.728 365.108 240L362.696 240.288L362.336 240ZM382.438 240.468C381.262 240.468 380.206 240.276 379.27 239.892C378.334 239.508 377.59 238.86 377.038 237.948C376.486 237.036 376.21 235.8 376.21 234.24C376.402 233.904 376.606 233.664 376.822 233.52C377.038 233.376 377.326 233.316 377.686 233.34C378.67 233.364 379.162 234.084 379.162 235.5V238.236C380.194 238.764 381.298 239.028 382.474 239.028C383.986 239.028 385.258 238.56 386.29 237.624C387.322 236.664 387.838 235.236 387.838 233.34C387.838 231.9 387.454 230.796 386.686 230.028C385.942 229.26 384.766 228.876 383.158 228.876H381.934L382.258 227.328H383.59C384.526 227.328 385.414 227.124 386.254 226.716C387.094 226.308 387.778 225.684 388.306 224.844C388.834 223.98 389.098 222.912 389.098 221.64C389.098 220.296 388.738 219.312 388.018 218.688C387.298 218.04 386.446 217.716 385.462 217.716C384.334 217.716 383.326 217.92 382.438 218.328L382.186 220.704C382.114 221.328 381.946 221.844 381.682 222.252C381.442 222.636 381.046 222.828 380.494 222.828C380.158 222.828 379.834 222.708 379.522 222.468C379.21 222.228 379.03 221.94 378.982 221.604C379.342 219.9 380.098 218.58 381.25 217.644C382.426 216.708 383.998 216.24 385.966 216.24C387.886 216.24 389.35 216.744 390.358 217.752C391.366 218.76 391.87 220.032 391.87 221.568C391.87 223.32 391.318 224.736 390.214 225.816C389.134 226.896 387.754 227.652 386.074 228.084C387.634 228.42 388.81 229.056 389.602 229.992C390.394 230.928 390.79 232.104 390.79 233.52C390.79 235.056 390.394 236.34 389.602 237.372C388.834 238.38 387.814 239.148 386.542 239.676C385.27 240.204 383.902 240.468 382.438 240.468Z" fill="black"/>
<path d="M77.3273 95V94.352L78.6233 94.118C78.6353 93.662 78.6413 93.17 78.6413 92.642C78.6533 92.102 78.6593 91.628 78.6593 91.22V90.356C78.6593 89.864 78.6533 89.456 78.6413 89.132C78.6413 88.808 78.6293 88.466 78.6053 88.106L77.1833 87.944V87.314L79.7033 86.216L79.9733 86.396L80.1713 88.52C80.4713 87.8 80.8553 87.236 81.3233 86.828C81.8033 86.42 82.2833 86.216 82.7633 86.216C83.0393 86.216 83.2973 86.276 83.5373 86.396C83.7773 86.516 83.9513 86.678 84.0593 86.882C84.0593 87.758 83.7053 88.196 82.9973 88.196C82.7933 88.196 82.6013 88.16 82.4213 88.088C82.2413 88.004 82.0673 87.89 81.8993 87.746L81.6833 87.548C81.3233 87.812 81.0233 88.136 80.7833 88.52C80.5433 88.904 80.3453 89.354 80.1893 89.87V91.22C80.1893 91.616 80.1893 92.078 80.1893 92.606C80.2013 93.134 80.2133 93.626 80.2253 94.082L81.7013 94.352V95H77.3273ZM88.8488 87.044C88.5128 87.044 88.1708 87.14 87.8228 87.332C87.4868 87.524 87.1928 87.83 86.9408 88.25C86.7008 88.67 86.5448 89.228 86.4728 89.924H89.7488C90.1808 89.924 90.4628 89.834 90.5948 89.654C90.7388 89.474 90.8108 89.252 90.8108 88.988C90.8108 88.64 90.7208 88.322 90.5408 88.034C90.3728 87.734 90.1388 87.494 89.8388 87.314C89.5508 87.134 89.2208 87.044 88.8488 87.044ZM88.8308 95.234C87.6188 95.234 86.6468 94.844 85.9148 94.064C85.1828 93.272 84.8168 92.186 84.8168 90.806C84.8168 89.882 85.0028 89.078 85.3748 88.394C85.7588 87.71 86.2628 87.176 86.8868 86.792C87.5228 86.408 88.2128 86.216 88.9568 86.216C89.5808 86.216 90.1448 86.354 90.6488 86.63C91.1528 86.906 91.5548 87.302 91.8548 87.818C92.1548 88.322 92.3048 88.94 92.3048 89.672C92.3048 89.876 92.2928 90.068 92.2688 90.248C92.2448 90.416 92.2148 90.56 92.1788 90.68H86.4368C86.4608 91.784 86.7368 92.624 87.2648 93.2C87.7928 93.776 88.4888 94.064 89.3528 94.064C89.9288 94.064 90.4088 93.95 90.7928 93.722C91.1768 93.482 91.5308 93.176 91.8548 92.804L92.2868 93.146C91.9508 93.782 91.4948 94.292 90.9188 94.676C90.3428 95.048 89.6468 95.234 88.8308 95.234ZM100.495 95.18C100.063 95.18 99.7028 95.054 99.4148 94.802C99.1268 94.55 98.9468 94.214 98.8748 93.794C98.3828 94.274 97.9508 94.634 97.5788 94.874C97.2068 95.114 96.7568 95.234 96.2288 95.234C95.5688 95.234 94.9988 95.048 94.5188 94.676C94.0508 94.292 93.8168 93.728 93.8168 92.984C93.8168 92.636 93.8948 92.312 94.0508 92.012C94.2188 91.712 94.5188 91.418 94.9508 91.13C95.3828 90.842 96.0008 90.554 96.8048 90.266C97.0808 90.17 97.3988 90.068 97.7588 89.96C98.1188 89.852 98.4788 89.756 98.8388 89.672V89.222C98.8388 88.346 98.7068 87.764 98.4428 87.476C98.1788 87.188 97.7468 87.044 97.1468 87.044C97.0148 87.044 96.8648 87.05 96.6968 87.062C96.5408 87.074 96.3668 87.104 96.1748 87.152L95.8328 88.322C95.6648 88.898 95.3528 89.186 94.8968 89.186C94.3928 89.186 94.1108 88.94 94.0508 88.448C94.2188 87.764 94.6148 87.224 95.2388 86.828C95.8748 86.42 96.6488 86.216 97.5608 86.216C98.5088 86.216 99.2108 86.456 99.6668 86.936C100.123 87.404 100.351 88.208 100.351 89.348V93.182C100.351 93.566 100.411 93.842 100.531 94.01C100.651 94.166 100.807 94.244 100.999 94.244C101.155 94.244 101.287 94.208 101.395 94.136C101.503 94.064 101.605 93.968 101.701 93.848L102.061 94.244C101.845 94.592 101.605 94.838 101.341 94.982C101.089 95.114 100.807 95.18 100.495 95.18ZM95.4188 92.714C95.4188 93.194 95.5568 93.536 95.8328 93.74C96.1088 93.944 96.4508 94.046 96.8588 94.046C97.0388 94.046 97.2068 94.022 97.3628 93.974C97.5308 93.926 97.7288 93.836 97.9568 93.704C98.1848 93.56 98.4788 93.356 98.8388 93.092V90.338C98.5268 90.422 98.2208 90.518 97.9208 90.626C97.6208 90.722 97.3748 90.806 97.1828 90.878C96.6668 91.082 96.2828 91.292 96.0308 91.508C95.7788 91.724 95.6108 91.934 95.5268 92.138C95.4548 92.342 95.4188 92.534 95.4188 92.714ZM104.595 90.77C104.595 91.946 104.829 92.816 105.297 93.38C105.777 93.932 106.377 94.208 107.097 94.208C107.493 94.208 107.841 94.13 108.141 93.974C108.453 93.806 108.777 93.536 109.113 93.164V88.178C108.705 87.818 108.339 87.572 108.015 87.44C107.691 87.308 107.379 87.242 107.079 87.242C106.635 87.242 106.221 87.368 105.837 87.62C105.465 87.86 105.165 88.244 104.937 88.772C104.709 89.288 104.595 89.954 104.595 90.77ZM109.293 95.18L109.167 93.938C108.855 94.346 108.495 94.664 108.087 94.892C107.691 95.12 107.211 95.234 106.647 95.234C105.915 95.234 105.273 95.048 104.721 94.676C104.169 94.304 103.737 93.788 103.425 93.128C103.125 92.456 102.975 91.682 102.975 90.806C102.975 89.882 103.143 89.078 103.479 88.394C103.815 87.71 104.271 87.176 104.847 86.792C105.423 86.408 106.077 86.216 106.809 86.216C107.229 86.216 107.631 86.3 108.015 86.468C108.411 86.636 108.795 86.942 109.167 87.386V83.318L107.637 83.138V82.508L110.445 81.698L110.697 81.842L110.625 84.398V94.136L112.083 94.352V95L109.293 95.18ZM117.31 95.234C116.614 95.234 115.948 95.072 115.312 94.748C114.688 94.412 114.178 93.914 113.782 93.254C113.386 92.582 113.188 91.754 113.188 90.77C113.188 89.774 113.386 88.94 113.782 88.268C114.178 87.584 114.688 87.074 115.312 86.738C115.948 86.39 116.614 86.216 117.31 86.216C118.006 86.216 118.666 86.39 119.29 86.738C119.926 87.074 120.442 87.584 120.838 88.268C121.246 88.94 121.45 89.774 121.45 90.77C121.45 91.754 121.246 92.582 120.838 93.254C120.442 93.914 119.926 94.412 119.29 94.748C118.666 95.072 118.006 95.234 117.31 95.234ZM117.31 94.424C118.09 94.424 118.69 94.118 119.11 93.506C119.53 92.882 119.74 91.97 119.74 90.77C119.74 89.558 119.53 88.634 119.11 87.998C118.69 87.362 118.09 87.044 117.31 87.044C116.53 87.044 115.93 87.362 115.51 87.998C115.102 88.634 114.898 89.558 114.898 90.77C114.898 91.97 115.102 92.882 115.51 93.506C115.93 94.118 116.53 94.424 117.31 94.424ZM126.095 95.234C125.363 95.234 124.787 94.994 124.367 94.514C123.947 94.022 123.743 93.182 123.755 91.994L123.809 87.512L122.531 87.242V86.594L125.177 86.342L125.357 86.522L125.267 89.042V91.832C125.267 92.612 125.387 93.164 125.627 93.488C125.867 93.8 126.227 93.956 126.707 93.956C127.547 93.956 128.387 93.566 129.227 92.786L129.281 87.494L128.003 87.242V86.594L130.613 86.342L130.793 86.522L130.739 89.042V94.1L131.963 94.352V95L129.461 95.144L129.281 93.542C128.801 94.13 128.285 94.562 127.733 94.838C127.193 95.102 126.647 95.234 126.095 95.234ZM136.265 95.234C135.641 95.234 135.143 95.066 134.771 94.73C134.399 94.394 134.213 93.878 134.213 93.182C134.213 92.954 134.213 92.732 134.213 92.516C134.225 92.288 134.231 92 134.231 91.652V87.404H132.737V86.612L134.339 86.414L134.807 84.002H135.887L135.779 86.45H138.209V87.404H135.761V92.984C135.761 93.44 135.851 93.776 136.031 93.992C136.211 94.196 136.451 94.298 136.751 94.298C136.955 94.298 137.147 94.256 137.327 94.172C137.519 94.088 137.729 93.968 137.957 93.812L138.389 94.28C137.897 94.916 137.189 95.234 136.265 95.234ZM139.959 84.182L143.667 83.228L143.919 83.408L143.847 85.982V91.202C143.847 91.646 143.847 92.096 143.847 92.552C143.859 93.008 143.871 93.464 143.883 93.92L146.439 94.352V95H139.761V94.352L142.299 93.92C142.311 93.464 142.317 93.008 142.317 92.552C142.329 92.096 142.335 91.646 142.335 91.202V84.722L139.959 84.92V84.182Z" fill="black"/>
<circle cx="315.445" cy="87.4451" r="42.4451" stroke="black" stroke-width="4"/>
<path d="M280.327 95V94.352L281.623 94.118C281.635 93.662 281.641 93.17 281.641 92.642C281.653 92.102 281.659 91.628 281.659 91.22V90.356C281.659 89.864 281.653 89.456 281.641 89.132C281.641 88.808 281.629 88.466 281.605 88.106L280.183 87.944V87.314L282.703 86.216L282.973 86.396L283.171 88.52C283.471 87.8 283.855 87.236 284.323 86.828C284.803 86.42 285.283 86.216 285.763 86.216C286.039 86.216 286.297 86.276 286.537 86.396C286.777 86.516 286.951 86.678 287.059 86.882C287.059 87.758 286.705 88.196 285.997 88.196C285.793 88.196 285.601 88.16 285.421 88.088C285.241 88.004 285.067 87.89 284.899 87.746L284.683 87.548C284.323 87.812 284.023 88.136 283.783 88.52C283.543 88.904 283.345 89.354 283.189 89.87V91.22C283.189 91.616 283.189 92.078 283.189 92.606C283.201 93.134 283.213 93.626 283.225 94.082L284.701 94.352V95H280.327ZM291.849 87.044C291.513 87.044 291.171 87.14 290.823 87.332C290.487 87.524 290.193 87.83 289.941 88.25C289.701 88.67 289.545 89.228 289.473 89.924H292.749C293.181 89.924 293.463 89.834 293.595 89.654C293.739 89.474 293.811 89.252 293.811 88.988C293.811 88.64 293.721 88.322 293.541 88.034C293.373 87.734 293.139 87.494 292.839 87.314C292.551 87.134 292.221 87.044 291.849 87.044ZM291.831 95.234C290.619 95.234 289.647 94.844 288.915 94.064C288.183 93.272 287.817 92.186 287.817 90.806C287.817 89.882 288.003 89.078 288.375 88.394C288.759 87.71 289.263 87.176 289.887 86.792C290.523 86.408 291.213 86.216 291.957 86.216C292.581 86.216 293.145 86.354 293.649 86.63C294.153 86.906 294.555 87.302 294.855 87.818C295.155 88.322 295.305 88.94 295.305 89.672C295.305 89.876 295.293 90.068 295.269 90.248C295.245 90.416 295.215 90.56 295.179 90.68H289.437C289.461 91.784 289.737 92.624 290.265 93.2C290.793 93.776 291.489 94.064 292.353 94.064C292.929 94.064 293.409 93.95 293.793 93.722C294.177 93.482 294.531 93.176 294.855 92.804L295.287 93.146C294.951 93.782 294.495 94.292 293.919 94.676C293.343 95.048 292.647 95.234 291.831 95.234ZM303.495 95.18C303.063 95.18 302.703 95.054 302.415 94.802C302.127 94.55 301.947 94.214 301.875 93.794C301.383 94.274 300.951 94.634 300.579 94.874C300.207 95.114 299.757 95.234 299.229 95.234C298.569 95.234 297.999 95.048 297.519 94.676C297.051 94.292 296.817 93.728 296.817 92.984C296.817 92.636 296.895 92.312 297.051 92.012C297.219 91.712 297.519 91.418 297.951 91.13C298.383 90.842 299.001 90.554 299.805 90.266C300.081 90.17 300.399 90.068 300.759 89.96C301.119 89.852 301.479 89.756 301.839 89.672V89.222C301.839 88.346 301.707 87.764 301.443 87.476C301.179 87.188 300.747 87.044 300.147 87.044C300.015 87.044 299.865 87.05 299.697 87.062C299.541 87.074 299.367 87.104 299.175 87.152L298.833 88.322C298.665 88.898 298.353 89.186 297.897 89.186C297.393 89.186 297.111 88.94 297.051 88.448C297.219 87.764 297.615 87.224 298.239 86.828C298.875 86.42 299.649 86.216 300.561 86.216C301.509 86.216 302.211 86.456 302.667 86.936C303.123 87.404 303.351 88.208 303.351 89.348V93.182C303.351 93.566 303.411 93.842 303.531 94.01C303.651 94.166 303.807 94.244 303.999 94.244C304.155 94.244 304.287 94.208 304.395 94.136C304.503 94.064 304.605 93.968 304.701 93.848L305.061 94.244C304.845 94.592 304.605 94.838 304.341 94.982C304.089 95.114 303.807 95.18 303.495 95.18ZM298.419 92.714C298.419 93.194 298.557 93.536 298.833 93.74C299.109 93.944 299.451 94.046 299.859 94.046C300.039 94.046 300.207 94.022 300.363 93.974C300.531 93.926 300.729 93.836 300.957 93.704C301.185 93.56 301.479 93.356 301.839 93.092V90.338C301.527 90.422 301.221 90.518 300.921 90.626C300.621 90.722 300.375 90.806 300.183 90.878C299.667 91.082 299.283 91.292 299.031 91.508C298.779 91.724 298.611 91.934 298.527 92.138C298.455 92.342 298.419 92.534 298.419 92.714ZM307.595 90.77C307.595 91.946 307.829 92.816 308.297 93.38C308.777 93.932 309.377 94.208 310.097 94.208C310.493 94.208 310.841 94.13 311.141 93.974C311.453 93.806 311.777 93.536 312.113 93.164V88.178C311.705 87.818 311.339 87.572 311.015 87.44C310.691 87.308 310.379 87.242 310.079 87.242C309.635 87.242 309.221 87.368 308.837 87.62C308.465 87.86 308.165 88.244 307.937 88.772C307.709 89.288 307.595 89.954 307.595 90.77ZM312.293 95.18L312.167 93.938C311.855 94.346 311.495 94.664 311.087 94.892C310.691 95.12 310.211 95.234 309.647 95.234C308.915 95.234 308.273 95.048 307.721 94.676C307.169 94.304 306.737 93.788 306.425 93.128C306.125 92.456 305.975 91.682 305.975 90.806C305.975 89.882 306.143 89.078 306.479 88.394C306.815 87.71 307.271 87.176 307.847 86.792C308.423 86.408 309.077 86.216 309.809 86.216C310.229 86.216 310.631 86.3 311.015 86.468C311.411 86.636 311.795 86.942 312.167 87.386V83.318L310.637 83.138V82.508L313.445 81.698L313.697 81.842L313.625 84.398V94.136L315.083 94.352V95L312.293 95.18ZM320.31 95.234C319.614 95.234 318.948 95.072 318.312 94.748C317.688 94.412 317.178 93.914 316.782 93.254C316.386 92.582 316.188 91.754 316.188 90.77C316.188 89.774 316.386 88.94 316.782 88.268C317.178 87.584 317.688 87.074 318.312 86.738C318.948 86.39 319.614 86.216 320.31 86.216C321.006 86.216 321.666 86.39 322.29 86.738C322.926 87.074 323.442 87.584 323.838 88.268C324.246 88.94 324.45 89.774 324.45 90.77C324.45 91.754 324.246 92.582 323.838 93.254C323.442 93.914 322.926 94.412 322.29 94.748C321.666 95.072 321.006 95.234 320.31 95.234ZM320.31 94.424C321.09 94.424 321.69 94.118 322.11 93.506C322.53 92.882 322.74 91.97 322.74 90.77C322.74 89.558 322.53 88.634 322.11 87.998C321.69 87.362 321.09 87.044 320.31 87.044C319.53 87.044 318.93 87.362 318.51 87.998C318.102 88.634 317.898 89.558 317.898 90.77C317.898 91.97 318.102 92.882 318.51 93.506C318.93 94.118 319.53 94.424 320.31 94.424ZM329.095 95.234C328.363 95.234 327.787 94.994 327.367 94.514C326.947 94.022 326.743 93.182 326.755 91.994L326.809 87.512L325.531 87.242V86.594L328.177 86.342L328.357 86.522L328.267 89.042V91.832C328.267 92.612 328.387 93.164 328.627 93.488C328.867 93.8 329.227 93.956 329.707 93.956C330.547 93.956 331.387 93.566 332.227 92.786L332.281 87.494L331.003 87.242V86.594L333.613 86.342L333.793 86.522L333.739 89.042V94.1L334.963 94.352V95L332.461 95.144L332.281 93.542C331.801 94.13 331.285 94.562 330.733 94.838C330.193 95.102 329.647 95.234 329.095 95.234ZM339.265 95.234C338.641 95.234 338.143 95.066 337.771 94.73C337.399 94.394 337.213 93.878 337.213 93.182C337.213 92.954 337.213 92.732 337.213 92.516C337.225 92.288 337.231 92 337.231 91.652V87.404H335.737V86.612L337.339 86.414L337.807 84.002H338.887L338.779 86.45H341.209V87.404H338.761V92.984C338.761 93.44 338.851 93.776 339.031 93.992C339.211 94.196 339.451 94.298 339.751 94.298C339.955 94.298 340.147 94.256 340.327 94.172C340.519 94.088 340.729 93.968 340.957 93.812L341.389 94.28C340.897 94.916 340.189 95.234 339.265 95.234ZM342.311 95V93.83C342.791 93.362 343.253 92.9 343.697 92.444C344.153 91.976 344.573 91.538 344.957 91.13C345.857 90.182 346.517 89.324 346.937 88.556C347.357 87.788 347.567 87.056 347.567 86.36C347.567 85.616 347.369 85.028 346.973 84.596C346.589 84.164 346.067 83.948 345.407 83.948C345.287 83.948 345.149 83.954 344.993 83.966C344.849 83.978 344.693 84.002 344.525 84.038L344.183 85.28C344.063 85.724 343.919 86.042 343.751 86.234C343.595 86.414 343.391 86.504 343.139 86.504C342.743 86.504 342.437 86.312 342.221 85.928C342.293 85.292 342.503 84.77 342.851 84.362C343.199 83.942 343.637 83.636 344.165 83.444C344.693 83.24 345.257 83.138 345.857 83.138C347.021 83.138 347.867 83.426 348.395 84.002C348.923 84.566 349.187 85.298 349.187 86.198C349.187 86.726 349.079 87.242 348.863 87.746C348.659 88.238 348.299 88.796 347.783 89.42C347.267 90.032 346.547 90.782 345.623 91.67C345.383 91.91 345.089 92.192 344.741 92.516C344.405 92.84 344.051 93.176 343.679 93.524H349.709V95H342.311Z" fill="black"/>
<path d="M202.158 243.197L205.218 228.761L201.654 228.545L201.798 227.501L207.738 225.665L208.206 226.025L207.414 230.849C207.942 229.937 208.494 229.097 209.07 228.329C209.67 227.537 210.294 226.901 210.942 226.421C211.59 225.917 212.226 225.665 212.85 225.665C213.354 225.665 213.822 225.749 214.254 225.917C214.686 226.061 215.022 226.337 215.262 226.745C215.238 227.345 215.058 227.837 214.722 228.221C214.41 228.581 213.954 228.761 213.354 228.761C213.042 228.761 212.694 228.677 212.31 228.509C211.95 228.317 211.59 228.089 211.23 227.825C210.366 228.545 209.574 229.397 208.854 230.381C208.134 231.365 207.45 232.493 206.802 233.765L206.37 235.637C206.106 236.885 205.854 238.145 205.614 239.417C205.398 240.665 205.17 241.925 204.93 243.197L202.518 243.485L202.158 243.197ZM215.312 243.197L215.78 240.893L221.072 235.889C222.656 234.401 223.964 233.129 224.996 232.073C226.028 231.017 226.832 230.093 227.408 229.301C228.008 228.509 228.428 227.789 228.668 227.141C228.932 226.469 229.064 225.797 229.064 225.125C229.064 223.733 228.704 222.689 227.984 221.993C227.264 221.273 226.232 220.913 224.888 220.913C223.808 220.913 222.872 221.153 222.08 221.633L221.828 223.829C221.732 224.909 221.516 225.629 221.18 225.989C220.868 226.325 220.472 226.493 219.992 226.493C219.608 226.493 219.284 226.361 219.02 226.097C218.756 225.833 218.6 225.521 218.552 225.161C218.984 223.145 219.788 221.693 220.964 220.805C222.14 219.893 223.688 219.437 225.608 219.437C227.792 219.437 229.388 219.977 230.396 221.057C231.404 222.113 231.908 223.421 231.908 224.981C231.908 225.989 231.692 226.925 231.26 227.789C230.828 228.653 230.204 229.517 229.388 230.381C228.596 231.221 227.612 232.145 226.436 233.153C225.284 234.161 223.976 235.325 222.512 236.645L218.336 240.425H229.532L228.956 243.197H215.312Z" fill="black"/>
<path d="M43.3356 245L46.3956 230.564L42.8316 230.348L42.9756 229.304L48.9156 227.468L49.3836 227.828L48.5916 232.652C49.1196 231.74 49.6716 230.9 50.2476 230.132C50.8476 229.34 51.4716 228.704 52.1196 228.224C52.7676 227.72 53.4036 227.468 54.0276 227.468C54.5316 227.468 54.9996 227.552 55.4316 227.72C55.8636 227.864 56.1996 228.14 56.4396 228.548C56.4156 229.148 56.2356 229.64 55.8996 230.024C55.5876 230.384 55.1316 230.564 54.5316 230.564C54.2196 230.564 53.8716 230.48 53.4876 230.312C53.1276 230.12 52.7676 229.892 52.4076 229.628C51.5436 230.348 50.7516 231.2 50.0316 232.184C49.3116 233.168 48.6276 234.296 47.9796 235.568L47.5476 237.44C47.2836 238.688 47.0316 239.948 46.7916 241.22C46.5756 242.468 46.3476 243.728 46.1076 245L43.6956 245.288L43.3356 245ZM61.3497 223.292L68.9457 221.384L69.3417 221.744L68.1537 226.892L66.0297 237.404C65.8377 238.364 65.6457 239.336 65.4537 240.32C65.2617 241.28 65.0697 242.24 64.8777 243.2L70.2417 243.74L69.9537 245H56.9217L57.1737 243.74L62.2137 243.236L66.0297 224.336L61.0617 224.732L61.3497 223.292Z" fill="black"/>
<path d="M112 0L103.34 15H120.66L112 0ZM113.5 43V13.5H110.5V43H113.5Z" fill="black"/>
<path d="M315 0L306.34 15H323.66L315 0ZM316.5 43V13.5H313.5V43H316.5Z" fill="black"/>
</svg>
