<svg width="183" height="630" viewBox="0 0 183 630" fill="none" xmlns="http://www.w3.org/2000/svg">
<circle cx="92.4451" cy="224.445" r="42.4451" stroke="black" stroke-width="4"/>
<circle cx="91.4451" cy="487.445" r="42.4451" stroke="black" stroke-width="4"/>
<circle cx="91.4451" cy="358.445" r="42.4451" stroke="black" stroke-width="4"/>
<path d="M78.9004 612.468C78.4204 612.468 77.9764 612.312 77.5684 612C77.1844 611.688 76.9924 611.22 76.9924 610.596C76.9924 610.356 77.0044 610.08 77.0284 609.768C77.0764 609.432 77.1604 608.964 77.2804 608.364C75.8884 609.636 74.6164 610.644 73.4644 611.388C72.3124 612.108 71.1844 612.468 70.0804 612.468C69.4084 612.468 68.8204 612.276 68.3164 611.892C67.8364 611.508 67.5964 610.824 67.5964 609.84C67.5964 609.168 67.6804 608.424 67.8484 607.608C68.0404 606.768 68.2084 606 68.3524 605.304L70.0084 597.528L66.4444 597.348L66.5884 596.268L72.8524 594.468L73.3204 594.828L71.0524 605.016C70.8844 605.76 70.7524 606.42 70.6564 606.996C70.5604 607.548 70.5124 608.028 70.5124 608.436C70.5124 609.468 70.9684 609.984 71.8804 609.984C72.6484 609.984 73.4524 609.744 74.2924 609.264C75.1324 608.76 76.2364 607.968 77.6044 606.888L78.5764 602.1C78.8164 600.948 79.0444 599.796 79.2604 598.644C79.5004 597.492 79.7044 596.34 79.8724 595.188L82.2124 594.468L82.6804 594.828L80.1244 607.14C80.0284 607.596 79.9444 608.004 79.8724 608.364C79.8244 608.724 79.8004 609 79.8004 609.192C79.8004 609.432 79.8844 609.624 80.0524 609.768C80.2204 609.912 80.4124 609.984 80.6284 609.984C81.1084 609.984 81.6364 609.768 82.2124 609.336C82.7884 608.904 83.4484 608.256 84.1924 607.392L85.0564 608.076C84.5044 608.796 83.9164 609.492 83.2924 610.164C82.6684 610.836 81.9964 611.388 81.2764 611.82C80.5564 612.252 79.7644 612.468 78.9004 612.468ZM85.9299 617.724C86.3379 615.876 86.7339 613.992 87.1179 612.072C87.5019 610.152 87.8859 608.232 88.2699 606.312L89.9259 597.672C90.3099 595.776 90.6819 593.88 91.0419 591.984C91.4019 590.064 91.7379 588.156 92.0499 586.26H98.8539L98.5659 587.7L94.3899 588.168C94.0779 589.704 93.7539 591.276 93.4179 592.884C93.1059 594.468 92.7939 596.064 92.4819 597.672L90.8259 606.312C90.5139 607.872 90.2019 609.456 89.8899 611.064C89.5779 612.648 89.2899 614.232 89.0259 615.816L93.0219 616.284L92.7339 617.724H85.9299ZM99.977 608.004L102.389 596.7H98.717L98.969 595.26L102.857 594.9L104.549 590.076H106.385L105.341 594.936H109.913L109.625 596.88L104.981 596.736L102.785 607.068C102.569 608.028 102.461 608.724 102.461 609.156C102.461 609.42 102.545 609.624 102.713 609.768C102.905 609.912 103.109 609.984 103.325 609.984C104.237 609.984 105.413 609.12 106.853 607.392L107.753 608.076C107.249 608.796 106.673 609.492 106.025 610.164C105.377 610.836 104.681 611.388 103.937 611.82C103.193 612.252 102.413 612.468 101.597 612.468C101.069 612.468 100.601 612.312 100.193 612C99.809 611.688 99.617 611.232 99.617 610.632C99.617 610.368 99.641 610.056 99.689 609.696C99.737 609.312 99.833 608.748 99.977 608.004ZM120.249 586.26C119.841 588.108 119.445 589.992 119.061 591.912C118.677 593.832 118.293 595.752 117.909 597.672L116.253 606.312C115.869 608.208 115.497 610.104 115.137 612C114.801 613.92 114.465 615.828 114.129 617.724H107.325L107.613 616.284L111.789 615.816C112.125 614.256 112.449 612.684 112.761 611.1C113.073 609.516 113.385 607.92 113.697 606.312L115.353 597.672C115.665 596.112 115.977 594.54 116.289 592.956C116.601 591.348 116.889 589.752 117.153 588.168L113.157 587.7L113.445 586.26H120.249Z" fill="black"/>
<path d="M91 269L82.3397 284H99.6603L91 269ZM92.5 316V282.5H89.5V316H92.5Z" fill="black"/>
<path d="M92 0L83.3397 15H100.66L92 0ZM93.5 47V13.5H90.5V47H93.5Z" fill="black"/>
<path d="M92 135L83.3397 150H100.66L92 135ZM93.5 182V148.5H90.5V182H93.5Z" fill="black"/>
<path d="M92 403L83.3397 418H100.66L92 403ZM93.5 446V416.5H90.5V446H93.5Z" fill="black"/>
<path d="M92 532L83.3397 547H100.66L92 532ZM93.5 575V545.5H90.5V575H93.5Z" fill="black"/>
<path d="M56.3273 366V365.352L57.6233 365.118C57.6353 364.662 57.6413 364.17 57.6413 363.642C57.6533 363.102 57.6593 362.628 57.6593 362.22V361.356C57.6593 360.864 57.6533 360.456 57.6413 360.132C57.6413 359.808 57.6293 359.466 57.6053 359.106L56.1833 358.944V358.314L58.7033 357.216L58.9733 357.396L59.1713 359.52C59.4713 358.8 59.8553 358.236 60.3233 357.828C60.8033 357.42 61.2833 357.216 61.7633 357.216C62.0393 357.216 62.2973 357.276 62.5373 357.396C62.7773 357.516 62.9513 357.678 63.0593 357.882C63.0593 358.758 62.7053 359.196 61.9973 359.196C61.7933 359.196 61.6013 359.16 61.4213 359.088C61.2413 359.004 61.0673 358.89 60.8993 358.746L60.6833 358.548C60.3233 358.812 60.0233 359.136 59.7833 359.52C59.5433 359.904 59.3453 360.354 59.1893 360.87V362.22C59.1893 362.616 59.1893 363.078 59.1893 363.606C59.2013 364.134 59.2133 364.626 59.2253 365.082L60.7013 365.352V366H56.3273ZM67.8488 358.044C67.5128 358.044 67.1708 358.14 66.8228 358.332C66.4868 358.524 66.1928 358.83 65.9408 359.25C65.7008 359.67 65.5448 360.228 65.4728 360.924H68.7488C69.1808 360.924 69.4628 360.834 69.5948 360.654C69.7388 360.474 69.8108 360.252 69.8108 359.988C69.8108 359.64 69.7208 359.322 69.5408 359.034C69.3728 358.734 69.1388 358.494 68.8388 358.314C68.5508 358.134 68.2208 358.044 67.8488 358.044ZM67.8308 366.234C66.6188 366.234 65.6468 365.844 64.9148 365.064C64.1828 364.272 63.8168 363.186 63.8168 361.806C63.8168 360.882 64.0028 360.078 64.3748 359.394C64.7588 358.71 65.2628 358.176 65.8868 357.792C66.5228 357.408 67.2128 357.216 67.9568 357.216C68.5808 357.216 69.1448 357.354 69.6488 357.63C70.1528 357.906 70.5548 358.302 70.8548 358.818C71.1548 359.322 71.3048 359.94 71.3048 360.672C71.3048 360.876 71.2928 361.068 71.2688 361.248C71.2448 361.416 71.2148 361.56 71.1788 361.68H65.4368C65.4608 362.784 65.7368 363.624 66.2648 364.2C66.7928 364.776 67.4888 365.064 68.3528 365.064C68.9288 365.064 69.4088 364.95 69.7928 364.722C70.1768 364.482 70.5308 364.176 70.8548 363.804L71.2868 364.146C70.9508 364.782 70.4948 365.292 69.9188 365.676C69.3428 366.048 68.6468 366.234 67.8308 366.234ZM79.4948 366.18C79.0628 366.18 78.7028 366.054 78.4148 365.802C78.1268 365.55 77.9468 365.214 77.8748 364.794C77.3828 365.274 76.9508 365.634 76.5788 365.874C76.2068 366.114 75.7568 366.234 75.2288 366.234C74.5688 366.234 73.9988 366.048 73.5188 365.676C73.0508 365.292 72.8168 364.728 72.8168 363.984C72.8168 363.636 72.8948 363.312 73.0508 363.012C73.2188 362.712 73.5188 362.418 73.9508 362.13C74.3828 361.842 75.0008 361.554 75.8048 361.266C76.0808 361.17 76.3988 361.068 76.7588 360.96C77.1188 360.852 77.4788 360.756 77.8388 360.672V360.222C77.8388 359.346 77.7068 358.764 77.4428 358.476C77.1788 358.188 76.7468 358.044 76.1468 358.044C76.0148 358.044 75.8648 358.05 75.6968 358.062C75.5408 358.074 75.3668 358.104 75.1748 358.152L74.8328 359.322C74.6648 359.898 74.3528 360.186 73.8968 360.186C73.3928 360.186 73.1108 359.94 73.0508 359.448C73.2188 358.764 73.6148 358.224 74.2388 357.828C74.8748 357.42 75.6488 357.216 76.5608 357.216C77.5088 357.216 78.2108 357.456 78.6668 357.936C79.1228 358.404 79.3508 359.208 79.3508 360.348V364.182C79.3508 364.566 79.4108 364.842 79.5308 365.01C79.6508 365.166 79.8068 365.244 79.9988 365.244C80.1548 365.244 80.2868 365.208 80.3948 365.136C80.5028 365.064 80.6048 364.968 80.7008 364.848L81.0608 365.244C80.8448 365.592 80.6048 365.838 80.3408 365.982C80.0888 366.114 79.8068 366.18 79.4948 366.18ZM74.4188 363.714C74.4188 364.194 74.5568 364.536 74.8328 364.74C75.1088 364.944 75.4508 365.046 75.8588 365.046C76.0388 365.046 76.2068 365.022 76.3628 364.974C76.5308 364.926 76.7288 364.836 76.9568 364.704C77.1848 364.56 77.4788 364.356 77.8388 364.092V361.338C77.5268 361.422 77.2208 361.518 76.9208 361.626C76.6208 361.722 76.3748 361.806 76.1828 361.878C75.6668 362.082 75.2828 362.292 75.0308 362.508C74.7788 362.724 74.6108 362.934 74.5268 363.138C74.4548 363.342 74.4188 363.534 74.4188 363.714ZM83.595 361.77C83.595 362.946 83.829 363.816 84.297 364.38C84.777 364.932 85.377 365.208 86.097 365.208C86.493 365.208 86.841 365.13 87.141 364.974C87.453 364.806 87.777 364.536 88.113 364.164V359.178C87.705 358.818 87.339 358.572 87.015 358.44C86.691 358.308 86.379 358.242 86.079 358.242C85.635 358.242 85.221 358.368 84.837 358.62C84.465 358.86 84.165 359.244 83.937 359.772C83.709 360.288 83.595 360.954 83.595 361.77ZM88.293 366.18L88.167 364.938C87.855 365.346 87.495 365.664 87.087 365.892C86.691 366.12 86.211 366.234 85.647 366.234C84.915 366.234 84.273 366.048 83.721 365.676C83.169 365.304 82.737 364.788 82.425 364.128C82.125 363.456 81.975 362.682 81.975 361.806C81.975 360.882 82.143 360.078 82.479 359.394C82.815 358.71 83.271 358.176 83.847 357.792C84.423 357.408 85.077 357.216 85.809 357.216C86.229 357.216 86.631 357.3 87.015 357.468C87.411 357.636 87.795 357.942 88.167 358.386V354.318L86.637 354.138V353.508L89.445 352.698L89.697 352.842L89.625 355.398V365.136L91.083 365.352V366L88.293 366.18ZM96.3099 366.234C95.6139 366.234 94.9479 366.072 94.3119 365.748C93.6879 365.412 93.1779 364.914 92.7819 364.254C92.3859 363.582 92.1879 362.754 92.1879 361.77C92.1879 360.774 92.3859 359.94 92.7819 359.268C93.1779 358.584 93.6879 358.074 94.3119 357.738C94.9479 357.39 95.6139 357.216 96.3099 357.216C97.0059 357.216 97.6659 357.39 98.2899 357.738C98.9259 358.074 99.4419 358.584 99.8379 359.268C100.246 359.94 100.45 360.774 100.45 361.77C100.45 362.754 100.246 363.582 99.8379 364.254C99.4419 364.914 98.9259 365.412 98.2899 365.748C97.6659 366.072 97.0059 366.234 96.3099 366.234ZM96.3099 365.424C97.0899 365.424 97.6899 365.118 98.1099 364.506C98.5299 363.882 98.7399 362.97 98.7399 361.77C98.7399 360.558 98.5299 359.634 98.1099 358.998C97.6899 358.362 97.0899 358.044 96.3099 358.044C95.5299 358.044 94.9299 358.362 94.5099 358.998C94.1019 359.634 93.8979 360.558 93.8979 361.77C93.8979 362.97 94.1019 363.882 94.5099 364.506C94.9299 365.118 95.5299 365.424 96.3099 365.424ZM105.095 366.234C104.363 366.234 103.787 365.994 103.367 365.514C102.947 365.022 102.743 364.182 102.755 362.994L102.809 358.512L101.531 358.242V357.594L104.177 357.342L104.357 357.522L104.267 360.042V362.832C104.267 363.612 104.387 364.164 104.627 364.488C104.867 364.8 105.227 364.956 105.707 364.956C106.547 364.956 107.387 364.566 108.227 363.786L108.281 358.494L107.003 358.242V357.594L109.613 357.342L109.793 357.522L109.739 360.042V365.1L110.963 365.352V366L108.461 366.144L108.281 364.542C107.801 365.13 107.285 365.562 106.733 365.838C106.193 366.102 105.647 366.234 105.095 366.234ZM115.265 366.234C114.641 366.234 114.143 366.066 113.771 365.73C113.399 365.394 113.213 364.878 113.213 364.182C113.213 363.954 113.213 363.732 113.213 363.516C113.225 363.288 113.231 363 113.231 362.652V358.404H111.737V357.612L113.339 357.414L113.807 355.002H114.887L114.779 357.45H117.209V358.404H114.761V363.984C114.761 364.44 114.851 364.776 115.031 364.992C115.211 365.196 115.451 365.298 115.751 365.298C115.955 365.298 116.147 365.256 116.327 365.172C116.519 365.088 116.729 364.968 116.957 364.812L117.389 365.28C116.897 365.916 116.189 366.234 115.265 366.234ZM118.959 355.182L122.667 354.228L122.919 354.408L122.847 356.982V362.202C122.847 362.646 122.847 363.096 122.847 363.552C122.859 364.008 122.871 364.464 122.883 364.92L125.439 365.352V366H118.761V365.352L121.299 364.92C121.311 364.464 121.317 364.008 121.317 363.552C121.329 363.096 121.335 362.646 121.335 362.202V355.722L118.959 355.92V355.182Z" fill="black"/>
<circle cx="92.4451" cy="91.4451" r="42.4451" stroke="black" stroke-width="4"/>
<path d="M57.3273 99V98.352L58.6233 98.118C58.6353 97.662 58.6413 97.17 58.6413 96.642C58.6533 96.102 58.6593 95.628 58.6593 95.22V94.356C58.6593 93.864 58.6533 93.456 58.6413 93.132C58.6413 92.808 58.6293 92.466 58.6053 92.106L57.1833 91.944V91.314L59.7033 90.216L59.9733 90.396L60.1713 92.52C60.4713 91.8 60.8553 91.236 61.3233 90.828C61.8033 90.42 62.2833 90.216 62.7633 90.216C63.0393 90.216 63.2973 90.276 63.5373 90.396C63.7773 90.516 63.9513 90.678 64.0593 90.882C64.0593 91.758 63.7053 92.196 62.9973 92.196C62.7933 92.196 62.6013 92.16 62.4213 92.088C62.2413 92.004 62.0673 91.89 61.8993 91.746L61.6833 91.548C61.3233 91.812 61.0233 92.136 60.7833 92.52C60.5433 92.904 60.3453 93.354 60.1893 93.87V95.22C60.1893 95.616 60.1893 96.078 60.1893 96.606C60.2013 97.134 60.2133 97.626 60.2253 98.082L61.7013 98.352V99H57.3273ZM68.8488 91.044C68.5128 91.044 68.1708 91.14 67.8228 91.332C67.4868 91.524 67.1928 91.83 66.9408 92.25C66.7008 92.67 66.5448 93.228 66.4728 93.924H69.7488C70.1808 93.924 70.4628 93.834 70.5948 93.654C70.7388 93.474 70.8108 93.252 70.8108 92.988C70.8108 92.64 70.7208 92.322 70.5408 92.034C70.3728 91.734 70.1388 91.494 69.8388 91.314C69.5508 91.134 69.2208 91.044 68.8488 91.044ZM68.8308 99.234C67.6188 99.234 66.6468 98.844 65.9148 98.064C65.1828 97.272 64.8168 96.186 64.8168 94.806C64.8168 93.882 65.0028 93.078 65.3748 92.394C65.7588 91.71 66.2628 91.176 66.8868 90.792C67.5228 90.408 68.2128 90.216 68.9568 90.216C69.5808 90.216 70.1448 90.354 70.6488 90.63C71.1528 90.906 71.5548 91.302 71.8548 91.818C72.1548 92.322 72.3048 92.94 72.3048 93.672C72.3048 93.876 72.2928 94.068 72.2688 94.248C72.2448 94.416 72.2148 94.56 72.1788 94.68H66.4368C66.4608 95.784 66.7368 96.624 67.2648 97.2C67.7928 97.776 68.4888 98.064 69.3528 98.064C69.9288 98.064 70.4088 97.95 70.7928 97.722C71.1768 97.482 71.5308 97.176 71.8548 96.804L72.2868 97.146C71.9508 97.782 71.4948 98.292 70.9188 98.676C70.3428 99.048 69.6468 99.234 68.8308 99.234ZM80.4948 99.18C80.0628 99.18 79.7028 99.054 79.4148 98.802C79.1268 98.55 78.9468 98.214 78.8748 97.794C78.3828 98.274 77.9508 98.634 77.5788 98.874C77.2068 99.114 76.7568 99.234 76.2288 99.234C75.5688 99.234 74.9988 99.048 74.5188 98.676C74.0508 98.292 73.8168 97.728 73.8168 96.984C73.8168 96.636 73.8948 96.312 74.0508 96.012C74.2188 95.712 74.5188 95.418 74.9508 95.13C75.3828 94.842 76.0008 94.554 76.8048 94.266C77.0808 94.17 77.3988 94.068 77.7588 93.96C78.1188 93.852 78.4788 93.756 78.8388 93.672V93.222C78.8388 92.346 78.7068 91.764 78.4428 91.476C78.1788 91.188 77.7468 91.044 77.1468 91.044C77.0148 91.044 76.8648 91.05 76.6968 91.062C76.5408 91.074 76.3668 91.104 76.1748 91.152L75.8328 92.322C75.6648 92.898 75.3528 93.186 74.8968 93.186C74.3928 93.186 74.1108 92.94 74.0508 92.448C74.2188 91.764 74.6148 91.224 75.2388 90.828C75.8748 90.42 76.6488 90.216 77.5608 90.216C78.5088 90.216 79.2108 90.456 79.6668 90.936C80.1228 91.404 80.3508 92.208 80.3508 93.348V97.182C80.3508 97.566 80.4108 97.842 80.5308 98.01C80.6508 98.166 80.8068 98.244 80.9988 98.244C81.1548 98.244 81.2868 98.208 81.3948 98.136C81.5028 98.064 81.6048 97.968 81.7008 97.848L82.0608 98.244C81.8448 98.592 81.6048 98.838 81.3408 98.982C81.0888 99.114 80.8068 99.18 80.4948 99.18ZM75.4188 96.714C75.4188 97.194 75.5568 97.536 75.8328 97.74C76.1088 97.944 76.4508 98.046 76.8588 98.046C77.0388 98.046 77.2068 98.022 77.3628 97.974C77.5308 97.926 77.7288 97.836 77.9568 97.704C78.1848 97.56 78.4788 97.356 78.8388 97.092V94.338C78.5268 94.422 78.2208 94.518 77.9208 94.626C77.6208 94.722 77.3748 94.806 77.1828 94.878C76.6668 95.082 76.2828 95.292 76.0308 95.508C75.7788 95.724 75.6108 95.934 75.5268 96.138C75.4548 96.342 75.4188 96.534 75.4188 96.714ZM84.595 94.77C84.595 95.946 84.829 96.816 85.297 97.38C85.777 97.932 86.377 98.208 87.097 98.208C87.493 98.208 87.841 98.13 88.141 97.974C88.453 97.806 88.777 97.536 89.113 97.164V92.178C88.705 91.818 88.339 91.572 88.015 91.44C87.691 91.308 87.379 91.242 87.079 91.242C86.635 91.242 86.221 91.368 85.837 91.62C85.465 91.86 85.165 92.244 84.937 92.772C84.709 93.288 84.595 93.954 84.595 94.77ZM89.293 99.18L89.167 97.938C88.855 98.346 88.495 98.664 88.087 98.892C87.691 99.12 87.211 99.234 86.647 99.234C85.915 99.234 85.273 99.048 84.721 98.676C84.169 98.304 83.737 97.788 83.425 97.128C83.125 96.456 82.975 95.682 82.975 94.806C82.975 93.882 83.143 93.078 83.479 92.394C83.815 91.71 84.271 91.176 84.847 90.792C85.423 90.408 86.077 90.216 86.809 90.216C87.229 90.216 87.631 90.3 88.015 90.468C88.411 90.636 88.795 90.942 89.167 91.386V87.318L87.637 87.138V86.508L90.445 85.698L90.697 85.842L90.625 88.398V98.136L92.083 98.352V99L89.293 99.18ZM97.3099 99.234C96.6139 99.234 95.9479 99.072 95.3119 98.748C94.6879 98.412 94.1779 97.914 93.7819 97.254C93.3859 96.582 93.1879 95.754 93.1879 94.77C93.1879 93.774 93.3859 92.94 93.7819 92.268C94.1779 91.584 94.6879 91.074 95.3119 90.738C95.9479 90.39 96.6139 90.216 97.3099 90.216C98.0059 90.216 98.6659 90.39 99.2899 90.738C99.9259 91.074 100.442 91.584 100.838 92.268C101.246 92.94 101.45 93.774 101.45 94.77C101.45 95.754 101.246 96.582 100.838 97.254C100.442 97.914 99.9259 98.412 99.2899 98.748C98.6659 99.072 98.0059 99.234 97.3099 99.234ZM97.3099 98.424C98.0899 98.424 98.6899 98.118 99.1099 97.506C99.5299 96.882 99.7399 95.97 99.7399 94.77C99.7399 93.558 99.5299 92.634 99.1099 91.998C98.6899 91.362 98.0899 91.044 97.3099 91.044C96.5299 91.044 95.9299 91.362 95.5099 91.998C95.1019 92.634 94.8979 93.558 94.8979 94.77C94.8979 95.97 95.1019 96.882 95.5099 97.506C95.9299 98.118 96.5299 98.424 97.3099 98.424ZM106.095 99.234C105.363 99.234 104.787 98.994 104.367 98.514C103.947 98.022 103.743 97.182 103.755 95.994L103.809 91.512L102.531 91.242V90.594L105.177 90.342L105.357 90.522L105.267 93.042V95.832C105.267 96.612 105.387 97.164 105.627 97.488C105.867 97.8 106.227 97.956 106.707 97.956C107.547 97.956 108.387 97.566 109.227 96.786L109.281 91.494L108.003 91.242V90.594L110.613 90.342L110.793 90.522L110.739 93.042V98.1L111.963 98.352V99L109.461 99.144L109.281 97.542C108.801 98.13 108.285 98.562 107.733 98.838C107.193 99.102 106.647 99.234 106.095 99.234ZM116.265 99.234C115.641 99.234 115.143 99.066 114.771 98.73C114.399 98.394 114.213 97.878 114.213 97.182C114.213 96.954 114.213 96.732 114.213 96.516C114.225 96.288 114.231 96 114.231 95.652V91.404H112.737V90.612L114.339 90.414L114.807 88.002H115.887L115.779 90.45H118.209V91.404H115.761V96.984C115.761 97.44 115.851 97.776 116.031 97.992C116.211 98.196 116.451 98.298 116.751 98.298C116.955 98.298 117.147 98.256 117.327 98.172C117.519 98.088 117.729 97.968 117.957 97.812L118.389 98.28C117.897 98.916 117.189 99.234 116.265 99.234ZM119.311 99V97.83C119.791 97.362 120.253 96.9 120.697 96.444C121.153 95.976 121.573 95.538 121.957 95.13C122.857 94.182 123.517 93.324 123.937 92.556C124.357 91.788 124.567 91.056 124.567 90.36C124.567 89.616 124.369 89.028 123.973 88.596C123.589 88.164 123.067 87.948 122.407 87.948C122.287 87.948 122.149 87.954 121.993 87.966C121.849 87.978 121.693 88.002 121.525 88.038L121.183 89.28C121.063 89.724 120.919 90.042 120.751 90.234C120.595 90.414 120.391 90.504 120.139 90.504C119.743 90.504 119.437 90.312 119.221 89.928C119.293 89.292 119.503 88.77 119.851 88.362C120.199 87.942 120.637 87.636 121.165 87.444C121.693 87.24 122.257 87.138 122.857 87.138C124.021 87.138 124.867 87.426 125.395 88.002C125.923 88.566 126.187 89.298 126.187 90.198C126.187 90.726 126.079 91.242 125.863 91.746C125.659 92.238 125.299 92.796 124.783 93.42C124.267 94.032 123.547 94.782 122.623 95.67C122.383 95.91 122.089 96.192 121.741 96.516C121.405 96.84 121.051 97.176 120.679 97.524H126.709V99H119.311Z" fill="black"/>
<path d="M78.1579 231.197L81.2179 216.761L77.6539 216.545L77.7979 215.501L83.7379 213.665L84.2059 214.025L83.4139 218.849C83.9419 217.937 84.4939 217.097 85.0699 216.329C85.6699 215.537 86.2939 214.901 86.9419 214.421C87.5899 213.917 88.2259 213.665 88.8499 213.665C89.3539 213.665 89.8219 213.749 90.2539 213.917C90.6859 214.061 91.0219 214.337 91.2619 214.745C91.2379 215.345 91.0579 215.837 90.7219 216.221C90.4099 216.581 89.9539 216.761 89.3539 216.761C89.0419 216.761 88.6939 216.677 88.3099 216.509C87.9499 216.317 87.5899 216.089 87.2299 215.825C86.3659 216.545 85.5739 217.397 84.8539 218.381C84.1339 219.365 83.4499 220.493 82.8019 221.765L82.3699 223.637C82.1059 224.885 81.8539 226.145 81.6139 227.417C81.3979 228.665 81.1699 229.925 80.9299 231.197L78.5179 231.485L78.1579 231.197ZM91.3119 231.197L91.7799 228.893L97.0719 223.889C98.6559 222.401 99.9639 221.129 100.996 220.073C102.028 219.017 102.832 218.093 103.408 217.301C104.008 216.509 104.428 215.789 104.668 215.141C104.932 214.469 105.064 213.797 105.064 213.125C105.064 211.733 104.704 210.689 103.984 209.993C103.264 209.273 102.232 208.913 100.888 208.913C99.8079 208.913 98.8719 209.153 98.0799 209.633L97.8279 211.829C97.7319 212.909 97.5159 213.629 97.1799 213.989C96.8679 214.325 96.4719 214.493 95.9919 214.493C95.6079 214.493 95.2839 214.361 95.0199 214.097C94.7559 213.833 94.5999 213.521 94.5519 213.161C94.9839 211.145 95.7879 209.693 96.9639 208.805C98.1399 207.893 99.6879 207.437 101.608 207.437C103.792 207.437 105.388 207.977 106.396 209.057C107.404 210.113 107.908 211.421 107.908 212.981C107.908 213.989 107.692 214.925 107.26 215.789C106.828 216.653 106.204 217.517 105.388 218.381C104.596 219.221 103.612 220.145 102.436 221.153C101.284 222.161 99.9759 223.325 98.5119 224.645L94.3359 228.425H105.532L104.956 231.197H91.3119Z" fill="black"/>
<path d="M78.3356 499L81.3956 484.564L77.8316 484.348L77.9756 483.304L83.9156 481.468L84.3836 481.828L83.5916 486.652C84.1196 485.74 84.6716 484.9 85.2476 484.132C85.8476 483.34 86.4716 482.704 87.1196 482.224C87.7676 481.72 88.4036 481.468 89.0276 481.468C89.5316 481.468 89.9996 481.552 90.4316 481.72C90.8636 481.864 91.1996 482.14 91.4396 482.548C91.4156 483.148 91.2356 483.64 90.8996 484.024C90.5876 484.384 90.1316 484.564 89.5316 484.564C89.2196 484.564 88.8716 484.48 88.4876 484.312C88.1276 484.12 87.7676 483.892 87.4076 483.628C86.5436 484.348 85.7516 485.2 85.0316 486.184C84.3116 487.168 83.6276 488.296 82.9796 489.568L82.5476 491.44C82.2836 492.688 82.0316 493.948 81.7916 495.22C81.5756 496.468 81.3476 497.728 81.1076 499L78.6956 499.288L78.3356 499ZM96.3497 477.292L103.946 475.384L104.342 475.744L103.154 480.892L101.03 491.404C100.838 492.364 100.646 493.336 100.454 494.32C100.262 495.28 100.07 496.24 99.8777 497.2L105.242 497.74L104.954 499H91.9217L92.1737 497.74L97.2137 497.236L101.03 478.336L96.0617 478.732L96.3497 477.292Z" fill="black"/>
</svg>
