<svg width="462" height="352" viewBox="0 0 462 352" fill="none" xmlns="http://www.w3.org/2000/svg">
<path d="M43.9004 183.468C43.4204 183.468 42.9764 183.312 42.5684 183C42.1844 182.688 41.9924 182.22 41.9924 181.596C41.9924 181.356 42.0044 181.08 42.0284 180.768C42.0764 180.432 42.1604 179.964 42.2804 179.364C40.8884 180.636 39.6164 181.644 38.4644 182.388C37.3124 183.108 36.1844 183.468 35.0804 183.468C34.4084 183.468 33.8204 183.276 33.3164 182.892C32.8364 182.508 32.5964 181.824 32.5964 180.84C32.5964 180.168 32.6804 179.424 32.8484 178.608C33.0404 177.768 33.2084 177 33.3524 176.304L35.0084 168.528L31.4444 168.348L31.5884 167.268L37.8524 165.468L38.3204 165.828L36.0524 176.016C35.8844 176.76 35.7524 177.42 35.6564 177.996C35.5604 178.548 35.5124 179.028 35.5124 179.436C35.5124 180.468 35.9684 180.984 36.8804 180.984C37.6484 180.984 38.4524 180.744 39.2924 180.264C40.1324 179.76 41.2364 178.968 42.6044 177.888L43.5764 173.1C43.8164 171.948 44.0444 170.796 44.2604 169.644C44.5004 168.492 44.7044 167.34 44.8724 166.188L47.2124 165.468L47.6804 165.828L45.1244 178.14C45.0284 178.596 44.9444 179.004 44.8724 179.364C44.8244 179.724 44.8004 180 44.8004 180.192C44.8004 180.432 44.8844 180.624 45.0524 180.768C45.2204 180.912 45.4124 180.984 45.6284 180.984C46.1084 180.984 46.6364 180.768 47.2124 180.336C47.7884 179.904 48.4484 179.256 49.1924 178.392L50.0564 179.076C49.5044 179.796 48.9164 180.492 48.2924 181.164C47.6684 181.836 46.9964 182.388 46.2764 182.82C45.5564 183.252 44.7644 183.468 43.9004 183.468ZM50.9299 188.724C51.3379 186.876 51.7339 184.992 52.1179 183.072C52.5019 181.152 52.8859 179.232 53.2699 177.312L54.9259 168.672C55.3099 166.776 55.6819 164.88 56.0419 162.984C56.4019 161.064 56.7379 159.156 57.0499 157.26H63.8539L63.5659 158.7L59.3899 159.168C59.0779 160.704 58.7539 162.276 58.4179 163.884C58.1059 165.468 57.7939 167.064 57.4819 168.672L55.8259 177.312C55.5139 178.872 55.2019 180.456 54.8899 182.064C54.5779 183.648 54.2899 185.232 54.0259 186.816L58.0219 187.284L57.7339 188.724H50.9299ZM64.977 179.004L67.389 167.7H63.717L63.969 166.26L67.857 165.9L69.549 161.076H71.385L70.341 165.936H74.913L74.625 167.88L69.981 167.736L67.785 178.068C67.569 179.028 67.461 179.724 67.461 180.156C67.461 180.42 67.545 180.624 67.713 180.768C67.905 180.912 68.109 180.984 68.325 180.984C69.237 180.984 70.413 180.12 71.853 178.392L72.753 179.076C72.249 179.796 71.673 180.492 71.025 181.164C70.377 181.836 69.681 182.388 68.937 182.82C68.193 183.252 67.413 183.468 66.597 183.468C66.069 183.468 65.601 183.312 65.193 183C64.809 182.688 64.617 182.232 64.617 181.632C64.617 181.368 64.641 181.056 64.689 180.696C64.737 180.312 64.833 179.748 64.977 179.004ZM85.2486 157.26C84.8406 159.108 84.4446 160.992 84.0606 162.912C83.6766 164.832 83.2926 166.752 82.9086 168.672L81.2526 177.312C80.8686 179.208 80.4966 181.104 80.1366 183C79.8006 184.92 79.4646 186.828 79.1286 188.724H72.3246L72.6126 187.284L76.7886 186.816C77.1246 185.256 77.4486 183.684 77.7606 182.1C78.0726 180.516 78.3846 178.92 78.6966 177.312L80.3526 168.672C80.6646 167.112 80.9766 165.54 81.2886 163.956C81.6006 162.348 81.8886 160.752 82.1526 159.168L78.1566 158.7L78.4446 157.26H85.2486Z" fill="black"/>
<path d="M462 173L447 164.34V181.66L462 173ZM416 174.5H448.5V171.5H416V174.5Z" fill="black"/>
<path d="M462 173L447 164.34V181.66L462 173ZM416 174.5H448.5V171.5H416V174.5Z" fill="black"/>
<path d="M166 307L151.253 297.915L166.494 289.687L166 307ZM96.3199 174.787L160.906 294.408L158.266 295.834L93.6801 176.213L96.3199 174.787Z" fill="black"/>
<path d="M165 51L165.197 68.3194L150.1 59.8307L165 51ZM93.6925 174.765L157.076 62.0324L159.691 63.5027L96.3075 176.235L93.6925 174.765Z" fill="black"/>
<circle cx="211.623" cy="176.248" r="42.4451" stroke="black" stroke-width="4"/>
<circle cx="211.445" cy="307.445" r="42.4451" stroke="black" stroke-width="4"/>
<circle cx="371.445" cy="171.445" r="42.4451" stroke="black" stroke-width="4"/>
<circle cx="211.5" cy="44.5" r="42.5" stroke="black" stroke-width="4"/>
<path d="M211 89L202.34 104H219.66L211 89ZM212.5 132V102.5H209.5V132H212.5Z" fill="black"/>
<path d="M212 223L203.34 238H220.66L212 223ZM213.5 266V236.5H210.5V266H213.5Z" fill="black"/>
<path d="M327 175L312 166.34V183.66L327 175ZM255 176.5H313.5V173.5H255V176.5Z" fill="black"/>
<path d="M167 176L152 167.34V184.66L167 176ZM95 177.5H153.5V174.5H95V177.5Z" fill="black"/>
<path d="M327 161L326.622 143.684L311.815 152.669L327 161ZM254.718 44.7782L318.714 150.237L321.279 148.681L257.282 43.2218L254.718 44.7782Z" fill="black"/>
<path d="M327 183L312.031 191.714L327.062 200.32L327 183ZM257.302 307.745L321.594 195.461L318.99 193.97L254.698 306.255L257.302 307.745Z" fill="black"/>
<path d="M197.336 51L200.396 36.564L196.832 36.348L196.976 35.304L202.916 33.468L203.384 33.828L202.592 38.652C203.12 37.74 203.672 36.9 204.248 36.132C204.848 35.34 205.472 34.704 206.12 34.224C206.768 33.72 207.404 33.468 208.028 33.468C208.532 33.468 209 33.552 209.432 33.72C209.864 33.864 210.2 34.14 210.44 34.548C210.416 35.148 210.236 35.64 209.9 36.024C209.588 36.384 209.132 36.564 208.532 36.564C208.22 36.564 207.872 36.48 207.488 36.312C207.128 36.12 206.768 35.892 206.408 35.628C205.544 36.348 204.752 37.2 204.032 38.184C203.312 39.168 202.628 40.296 201.98 41.568L201.548 43.44C201.284 44.688 201.032 45.948 200.792 47.22C200.576 48.468 200.348 49.728 200.108 51L197.696 51.288L197.336 51ZM217.438 51.468C216.262 51.468 215.206 51.276 214.27 50.892C213.334 50.508 212.59 49.86 212.038 48.948C211.486 48.036 211.21 46.8 211.21 45.24C211.402 44.904 211.606 44.664 211.822 44.52C212.038 44.376 212.326 44.316 212.686 44.34C213.67 44.364 214.162 45.084 214.162 46.5V49.236C215.194 49.764 216.298 50.028 217.474 50.028C218.986 50.028 220.258 49.56 221.29 48.624C222.322 47.664 222.838 46.236 222.838 44.34C222.838 42.9 222.454 41.796 221.686 41.028C220.942 40.26 219.766 39.876 218.158 39.876H216.934L217.258 38.328H218.59C219.526 38.328 220.414 38.124 221.254 37.716C222.094 37.308 222.778 36.684 223.306 35.844C223.834 34.98 224.098 33.912 224.098 32.64C224.098 31.296 223.738 30.312 223.018 29.688C222.298 29.04 221.446 28.716 220.462 28.716C219.334 28.716 218.326 28.92 217.438 29.328L217.186 31.704C217.114 32.328 216.946 32.844 216.682 33.252C216.442 33.636 216.046 33.828 215.494 33.828C215.158 33.828 214.834 33.708 214.522 33.468C214.21 33.228 214.03 32.94 213.982 32.604C214.342 30.9 215.098 29.58 216.25 28.644C217.426 27.708 218.998 27.24 220.966 27.24C222.886 27.24 224.35 27.744 225.358 28.752C226.366 29.76 226.87 31.032 226.87 32.568C226.87 34.32 226.318 35.736 225.214 36.816C224.134 37.896 222.754 38.652 221.074 39.084C222.634 39.42 223.81 40.056 224.602 40.992C225.394 41.928 225.79 43.104 225.79 44.52C225.79 46.056 225.394 47.34 224.602 48.372C223.834 49.38 222.814 50.148 221.542 50.676C220.27 51.204 218.902 51.468 217.438 51.468Z" fill="black"/>
<path d="M340.827 179V178.352L342.123 178.118C342.135 177.662 342.141 177.17 342.141 176.642C342.153 176.102 342.159 175.628 342.159 175.22V174.356C342.159 173.864 342.153 173.456 342.141 173.132C342.141 172.808 342.129 172.466 342.105 172.106L340.683 171.944V171.314L343.203 170.216L343.473 170.396L343.671 172.52C343.971 171.8 344.355 171.236 344.823 170.828C345.303 170.42 345.783 170.216 346.263 170.216C346.539 170.216 346.797 170.276 347.037 170.396C347.277 170.516 347.451 170.678 347.559 170.882C347.559 171.758 347.205 172.196 346.497 172.196C346.293 172.196 346.101 172.16 345.921 172.088C345.741 172.004 345.567 171.89 345.399 171.746L345.183 171.548C344.823 171.812 344.523 172.136 344.283 172.52C344.043 172.904 343.845 173.354 343.689 173.87V175.22C343.689 175.616 343.689 176.078 343.689 176.606C343.701 177.134 343.713 177.626 343.725 178.082L345.201 178.352V179H340.827ZM352.349 171.044C352.013 171.044 351.671 171.14 351.323 171.332C350.987 171.524 350.693 171.83 350.441 172.25C350.201 172.67 350.045 173.228 349.973 173.924H353.249C353.681 173.924 353.963 173.834 354.095 173.654C354.239 173.474 354.311 173.252 354.311 172.988C354.311 172.64 354.221 172.322 354.041 172.034C353.873 171.734 353.639 171.494 353.339 171.314C353.051 171.134 352.721 171.044 352.349 171.044ZM352.331 179.234C351.119 179.234 350.147 178.844 349.415 178.064C348.683 177.272 348.317 176.186 348.317 174.806C348.317 173.882 348.503 173.078 348.875 172.394C349.259 171.71 349.763 171.176 350.387 170.792C351.023 170.408 351.713 170.216 352.457 170.216C353.081 170.216 353.645 170.354 354.149 170.63C354.653 170.906 355.055 171.302 355.355 171.818C355.655 172.322 355.805 172.94 355.805 173.672C355.805 173.876 355.793 174.068 355.769 174.248C355.745 174.416 355.715 174.56 355.679 174.68H349.937C349.961 175.784 350.237 176.624 350.765 177.2C351.293 177.776 351.989 178.064 352.853 178.064C353.429 178.064 353.909 177.95 354.293 177.722C354.677 177.482 355.031 177.176 355.355 176.804L355.787 177.146C355.451 177.782 354.995 178.292 354.419 178.676C353.843 179.048 353.147 179.234 352.331 179.234ZM363.995 179.18C363.563 179.18 363.203 179.054 362.915 178.802C362.627 178.55 362.447 178.214 362.375 177.794C361.883 178.274 361.451 178.634 361.079 178.874C360.707 179.114 360.257 179.234 359.729 179.234C359.069 179.234 358.499 179.048 358.019 178.676C357.551 178.292 357.317 177.728 357.317 176.984C357.317 176.636 357.395 176.312 357.551 176.012C357.719 175.712 358.019 175.418 358.451 175.13C358.883 174.842 359.501 174.554 360.305 174.266C360.581 174.17 360.899 174.068 361.259 173.96C361.619 173.852 361.979 173.756 362.339 173.672V173.222C362.339 172.346 362.207 171.764 361.943 171.476C361.679 171.188 361.247 171.044 360.647 171.044C360.515 171.044 360.365 171.05 360.197 171.062C360.041 171.074 359.867 171.104 359.675 171.152L359.333 172.322C359.165 172.898 358.853 173.186 358.397 173.186C357.893 173.186 357.611 172.94 357.551 172.448C357.719 171.764 358.115 171.224 358.739 170.828C359.375 170.42 360.149 170.216 361.061 170.216C362.009 170.216 362.711 170.456 363.167 170.936C363.623 171.404 363.851 172.208 363.851 173.348V177.182C363.851 177.566 363.911 177.842 364.031 178.01C364.151 178.166 364.307 178.244 364.499 178.244C364.655 178.244 364.787 178.208 364.895 178.136C365.003 178.064 365.105 177.968 365.201 177.848L365.561 178.244C365.345 178.592 365.105 178.838 364.841 178.982C364.589 179.114 364.307 179.18 363.995 179.18ZM358.919 176.714C358.919 177.194 359.057 177.536 359.333 177.74C359.609 177.944 359.951 178.046 360.359 178.046C360.539 178.046 360.707 178.022 360.863 177.974C361.031 177.926 361.229 177.836 361.457 177.704C361.685 177.56 361.979 177.356 362.339 177.092V174.338C362.027 174.422 361.721 174.518 361.421 174.626C361.121 174.722 360.875 174.806 360.683 174.878C360.167 175.082 359.783 175.292 359.531 175.508C359.279 175.724 359.111 175.934 359.027 176.138C358.955 176.342 358.919 176.534 358.919 176.714ZM368.095 174.77C368.095 175.946 368.329 176.816 368.797 177.38C369.277 177.932 369.877 178.208 370.597 178.208C370.993 178.208 371.341 178.13 371.641 177.974C371.953 177.806 372.277 177.536 372.613 177.164V172.178C372.205 171.818 371.839 171.572 371.515 171.44C371.191 171.308 370.879 171.242 370.579 171.242C370.135 171.242 369.721 171.368 369.337 171.62C368.965 171.86 368.665 172.244 368.437 172.772C368.209 173.288 368.095 173.954 368.095 174.77ZM372.793 179.18L372.667 177.938C372.355 178.346 371.995 178.664 371.587 178.892C371.191 179.12 370.711 179.234 370.147 179.234C369.415 179.234 368.773 179.048 368.221 178.676C367.669 178.304 367.237 177.788 366.925 177.128C366.625 176.456 366.475 175.682 366.475 174.806C366.475 173.882 366.643 173.078 366.979 172.394C367.315 171.71 367.771 171.176 368.347 170.792C368.923 170.408 369.577 170.216 370.309 170.216C370.729 170.216 371.131 170.3 371.515 170.468C371.911 170.636 372.295 170.942 372.667 171.386V167.318L371.137 167.138V166.508L373.945 165.698L374.197 165.842L374.125 168.398V178.136L375.583 178.352V179L372.793 179.18ZM380.81 179.234C380.114 179.234 379.448 179.072 378.812 178.748C378.188 178.412 377.678 177.914 377.282 177.254C376.886 176.582 376.688 175.754 376.688 174.77C376.688 173.774 376.886 172.94 377.282 172.268C377.678 171.584 378.188 171.074 378.812 170.738C379.448 170.39 380.114 170.216 380.81 170.216C381.506 170.216 382.166 170.39 382.79 170.738C383.426 171.074 383.942 171.584 384.338 172.268C384.746 172.94 384.95 173.774 384.95 174.77C384.95 175.754 384.746 176.582 384.338 177.254C383.942 177.914 383.426 178.412 382.79 178.748C382.166 179.072 381.506 179.234 380.81 179.234ZM380.81 178.424C381.59 178.424 382.19 178.118 382.61 177.506C383.03 176.882 383.24 175.97 383.24 174.77C383.24 173.558 383.03 172.634 382.61 171.998C382.19 171.362 381.59 171.044 380.81 171.044C380.03 171.044 379.43 171.362 379.01 171.998C378.602 172.634 378.398 173.558 378.398 174.77C378.398 175.97 378.602 176.882 379.01 177.506C379.43 178.118 380.03 178.424 380.81 178.424ZM389.595 179.234C388.863 179.234 388.287 178.994 387.867 178.514C387.447 178.022 387.243 177.182 387.255 175.994L387.309 171.512L386.031 171.242V170.594L388.677 170.342L388.857 170.522L388.767 173.042V175.832C388.767 176.612 388.887 177.164 389.127 177.488C389.367 177.8 389.727 177.956 390.207 177.956C391.047 177.956 391.887 177.566 392.727 176.786L392.781 171.494L391.503 171.242V170.594L394.113 170.342L394.293 170.522L394.239 173.042V178.1L395.463 178.352V179L392.961 179.144L392.781 177.542C392.301 178.13 391.785 178.562 391.233 178.838C390.693 179.102 390.147 179.234 389.595 179.234ZM399.765 179.234C399.141 179.234 398.643 179.066 398.271 178.73C397.899 178.394 397.713 177.878 397.713 177.182C397.713 176.954 397.713 176.732 397.713 176.516C397.725 176.288 397.731 176 397.731 175.652V171.404H396.237V170.612L397.839 170.414L398.307 168.002H399.387L399.279 170.45H401.709V171.404H399.261V176.984C399.261 177.44 399.351 177.776 399.531 177.992C399.711 178.196 399.951 178.298 400.251 178.298C400.455 178.298 400.647 178.256 400.827 178.172C401.019 178.088 401.229 177.968 401.457 177.812L401.889 178.28C401.397 178.916 400.689 179.234 399.765 179.234Z" fill="black"/>
<path d="M197.336 183L200.396 168.564L196.832 168.348L196.976 167.304L202.916 165.468L203.384 165.828L202.592 170.652C203.12 169.74 203.672 168.9 204.248 168.132C204.848 167.34 205.472 166.704 206.12 166.224C206.768 165.72 207.404 165.468 208.028 165.468C208.532 165.468 209 165.552 209.432 165.72C209.864 165.864 210.2 166.14 210.44 166.548C210.416 167.148 210.236 167.64 209.9 168.024C209.588 168.384 209.132 168.564 208.532 168.564C208.22 168.564 207.872 168.48 207.488 168.312C207.128 168.12 206.768 167.892 206.408 167.628C205.544 168.348 204.752 169.2 204.032 170.184C203.312 171.168 202.628 172.296 201.98 173.568L201.548 175.44C201.284 176.688 201.032 177.948 200.792 179.22C200.576 180.468 200.348 181.728 200.108 183L197.696 183.288L197.336 183ZM210.49 183L210.958 180.696L216.25 175.692C217.834 174.204 219.142 172.932 220.174 171.876C221.206 170.82 222.01 169.896 222.586 169.104C223.186 168.312 223.606 167.592 223.846 166.944C224.11 166.272 224.242 165.6 224.242 164.928C224.242 163.536 223.882 162.492 223.162 161.796C222.442 161.076 221.41 160.716 220.066 160.716C218.986 160.716 218.05 160.956 217.258 161.436L217.006 163.632C216.91 164.712 216.694 165.432 216.358 165.792C216.046 166.128 215.65 166.296 215.17 166.296C214.786 166.296 214.462 166.164 214.198 165.9C213.934 165.636 213.778 165.324 213.73 164.964C214.162 162.948 214.966 161.496 216.142 160.608C217.318 159.696 218.866 159.24 220.786 159.24C222.97 159.24 224.566 159.78 225.574 160.86C226.582 161.916 227.086 163.224 227.086 164.784C227.086 165.792 226.87 166.728 226.438 167.592C226.006 168.456 225.382 169.32 224.566 170.184C223.774 171.024 222.79 171.948 221.614 172.956C220.462 173.964 219.154 175.128 217.69 176.448L213.514 180.228H224.71L224.134 183H210.49Z" fill="black"/>
<path d="M198.336 319L201.396 304.564L197.832 304.348L197.976 303.304L203.916 301.468L204.384 301.828L203.592 306.652C204.12 305.74 204.672 304.9 205.248 304.132C205.848 303.34 206.472 302.704 207.12 302.224C207.768 301.72 208.404 301.468 209.028 301.468C209.532 301.468 210 301.552 210.432 301.72C210.864 301.864 211.2 302.14 211.44 302.548C211.416 303.148 211.236 303.64 210.9 304.024C210.588 304.384 210.132 304.564 209.532 304.564C209.22 304.564 208.872 304.48 208.488 304.312C208.128 304.12 207.768 303.892 207.408 303.628C206.544 304.348 205.752 305.2 205.032 306.184C204.312 307.168 203.628 308.296 202.98 309.568L202.548 311.44C202.284 312.688 202.032 313.948 201.792 315.22C201.576 316.468 201.348 317.728 201.108 319L198.696 319.288L198.336 319ZM216.35 297.292L223.946 295.384L224.342 295.744L223.154 300.892L221.03 311.404C220.838 312.364 220.646 313.336 220.454 314.32C220.262 315.28 220.07 316.24 219.878 317.2L225.242 317.74L224.954 319H211.922L212.174 317.74L217.214 317.236L221.03 298.336L216.062 298.732L216.35 297.292Z" fill="black"/>
</svg>
