<svg width="704" height="138" viewBox="0 0 704 138" fill="none" xmlns="http://www.w3.org/2000/svg">
<path d="M48.2669 91.312C47.9469 91.312 47.6509 91.208 47.3789 91C47.1229 90.792 46.9949 90.48 46.9949 90.064C46.9949 89.904 47.0029 89.72 47.0189 89.512C47.0509 89.288 47.1069 88.976 47.1869 88.576C46.2589 89.424 45.4109 90.096 44.6429 90.592C43.8749 91.072 43.1229 91.312 42.3869 91.312C41.9389 91.312 41.5469 91.184 41.2109 90.928C40.8909 90.672 40.7309 90.216 40.7309 89.56C40.7309 89.112 40.7869 88.616 40.8989 88.072C41.0269 87.512 41.1389 87 41.2349 86.536L42.3389 81.352L39.9629 81.232L40.0589 80.512L44.2349 79.312L44.5469 79.552L43.0349 86.344C42.9229 86.84 42.8349 87.28 42.7709 87.664C42.7069 88.032 42.6749 88.352 42.6749 88.624C42.6749 89.312 42.9789 89.656 43.5869 89.656C44.0989 89.656 44.6349 89.496 45.1949 89.176C45.7549 88.84 46.4909 88.312 47.4029 87.592L48.0509 84.4C48.2109 83.632 48.3629 82.864 48.5069 82.096C48.6669 81.328 48.8029 80.56 48.9149 79.792L50.4749 79.312L50.7869 79.552L49.0829 87.76C49.0189 88.064 48.9629 88.336 48.9149 88.576C48.8829 88.816 48.8669 89 48.8669 89.128C48.8669 89.288 48.9229 89.416 49.0349 89.512C49.1469 89.608 49.2749 89.656 49.4189 89.656C49.7389 89.656 50.0909 89.512 50.4749 89.224C50.8589 88.936 51.2989 88.504 51.7949 87.928L52.3709 88.384C52.0029 88.864 51.6109 89.328 51.1949 89.776C50.7789 90.224 50.3309 90.592 49.8509 90.88C49.3709 91.168 48.8429 91.312 48.2669 91.312ZM52.9533 94.816C53.2253 93.584 53.4893 92.328 53.7453 91.048C54.0013 89.768 54.2573 88.488 54.5133 87.208L55.6173 81.448C55.8733 80.184 56.1213 78.92 56.3613 77.656C56.6013 76.376 56.8253 75.104 57.0333 73.84H61.5693L61.3773 74.8L58.5933 75.112C58.3853 76.136 58.1693 77.184 57.9453 78.256C57.7373 79.312 57.5293 80.376 57.3213 81.448L56.2173 87.208C56.0093 88.248 55.8013 89.304 55.5933 90.376C55.3853 91.432 55.1933 92.488 55.0173 93.544L57.6813 93.856L57.4893 94.816H52.9533ZM62.318 88.336L63.926 80.8H61.478L61.646 79.84L64.238 79.6L65.366 76.384H66.59L65.894 79.624H68.942L68.75 80.92L65.654 80.824L64.19 87.712C64.046 88.352 63.974 88.816 63.974 89.104C63.974 89.28 64.03 89.416 64.142 89.512C64.27 89.608 64.406 89.656 64.55 89.656C65.158 89.656 65.942 89.08 66.902 87.928L67.502 88.384C67.166 88.864 66.782 89.328 66.35 89.776C65.918 90.224 65.454 90.592 64.958 90.88C64.462 91.168 63.942 91.312 63.398 91.312C63.046 91.312 62.734 91.208 62.462 91C62.206 90.792 62.078 90.488 62.078 90.088C62.078 89.912 62.094 89.704 62.126 89.464C62.158 89.208 62.222 88.832 62.318 88.336ZM75.8324 73.84C75.5604 75.072 75.2964 76.328 75.0404 77.608C74.7844 78.888 74.5284 80.168 74.2724 81.448L73.1684 87.208C72.9124 88.472 72.6644 89.736 72.4244 91C72.2004 92.28 71.9764 93.552 71.7524 94.816H67.2164L67.4084 93.856L70.1924 93.544C70.4164 92.504 70.6324 91.456 70.8404 90.4C71.0484 89.344 71.2564 88.28 71.4644 87.208L72.5684 81.448C72.7764 80.408 72.9844 79.36 73.1924 78.304C73.4004 77.232 73.5924 76.168 73.7684 75.112L71.1044 74.8L71.2964 73.84H75.8324Z" fill="black"/>
<path d="M627.571 96.368C627.635 96.016 627.787 95.744 628.027 95.552C628.251 95.376 628.531 95.288 628.867 95.288C629.219 95.288 629.539 95.36 629.827 95.504C630.131 95.664 630.459 95.872 630.811 96.128L630.883 96.176C631.667 95.68 632.387 95.096 633.043 94.424C633.267 94.2 633.483 93.968 633.691 93.728C633.899 93.488 634.107 93.24 634.315 92.984C634.251 92.04 634.171 91.2 634.075 90.464C633.995 89.712 633.899 88.936 633.787 88.136C633.691 87.336 633.571 86.408 633.427 85.352C633.315 84.328 633.211 83.584 633.115 83.12C633.035 82.64 632.947 82.328 632.851 82.184C632.755 82.04 632.635 81.968 632.491 81.968C632.283 81.968 632.067 82.072 631.843 82.28C631.635 82.472 631.315 82.896 630.883 83.552L630.331 83.168C630.811 82.144 631.315 81.416 631.843 80.984C632.371 80.536 632.883 80.312 633.379 80.312C633.683 80.312 633.939 80.392 634.147 80.552C634.371 80.712 634.555 81.024 634.699 81.488C634.859 81.936 634.987 82.608 635.083 83.504C635.227 84.896 635.339 86.208 635.419 87.44C635.515 88.672 635.587 89.848 635.635 90.968C636.195 89.944 636.667 89.04 637.051 88.256C637.451 87.472 637.795 86.704 638.083 85.952C638.387 85.184 638.667 84.344 638.923 83.432C639.195 82.504 639.419 81.808 639.595 81.344C639.787 80.88 639.971 80.568 640.147 80.408C640.323 80.248 640.523 80.168 640.747 80.168C641.019 80.168 641.235 80.248 641.395 80.408C641.555 80.552 641.635 80.744 641.635 80.984C641.635 81.288 641.595 81.568 641.515 81.824C641.435 82.08 641.275 82.448 641.035 82.928C640.779 83.44 640.507 83.976 640.219 84.536C639.947 85.08 639.579 85.76 639.115 86.576C638.667 87.36 638.179 88.216 637.651 89.144C637.139 90.056 636.555 91.008 635.899 92C635.595 92.464 635.267 92.944 634.915 93.44C634.563 93.952 634.139 94.48 633.643 95.024C632.859 95.872 632.107 96.536 631.387 97.016C630.683 97.512 629.979 97.76 629.275 97.76C628.747 97.76 628.339 97.624 628.051 97.352C627.763 97.096 627.603 96.768 627.571 96.368ZM641.793 95.816C642.065 94.584 642.329 93.328 642.585 92.048C642.841 90.768 643.097 89.488 643.353 88.208L644.457 82.448C644.713 81.184 644.961 79.92 645.201 78.656C645.441 77.376 645.665 76.104 645.873 74.84H650.409L650.217 75.8L647.433 76.112C647.225 77.136 647.009 78.184 646.785 79.256C646.577 80.312 646.369 81.376 646.161 82.448L645.057 88.208C644.849 89.248 644.641 90.304 644.433 91.376C644.225 92.432 644.033 93.488 643.857 94.544L646.521 94.856L646.329 95.816H641.793ZM651.158 89.336L652.766 81.8H650.318L650.486 80.84L653.078 80.6L654.206 77.384H655.43L654.734 80.624H657.782L657.59 81.92L654.494 81.824L653.03 88.712C652.886 89.352 652.814 89.816 652.814 90.104C652.814 90.28 652.87 90.416 652.982 90.512C653.11 90.608 653.246 90.656 653.39 90.656C653.998 90.656 654.782 90.08 655.742 88.928L656.342 89.384C656.006 89.864 655.622 90.328 655.19 90.776C654.758 91.224 654.294 91.592 653.798 91.88C653.302 92.168 652.782 92.312 652.238 92.312C651.886 92.312 651.574 92.208 651.302 92C651.046 91.792 650.918 91.488 650.918 91.088C650.918 90.912 650.934 90.704 650.966 90.464C650.998 90.208 651.062 89.832 651.158 89.336ZM664.672 74.84C664.4 76.072 664.136 77.328 663.88 78.608C663.624 79.888 663.368 81.168 663.112 82.448L662.008 88.208C661.752 89.472 661.504 90.736 661.264 92C661.04 93.28 660.816 94.552 660.592 95.816H656.056L656.248 94.856L659.032 94.544C659.256 93.504 659.472 92.456 659.68 91.4C659.888 90.344 660.096 89.28 660.304 88.208L661.408 82.448C661.616 81.408 661.824 80.36 662.032 79.304C662.24 78.232 662.432 77.168 662.608 76.112L659.944 75.8L660.136 74.84H664.672Z" fill="black"/>
<circle cx="214.5" cy="86.5" r="49.5" stroke="black" stroke-width="4"/>
<circle cx="496.5" cy="86.5" r="49.5" stroke="black" stroke-width="4"/>
<path d="M170.875 24V8.256H175.795C176.867 8.256 177.819 8.4 178.651 8.688C179.483 8.96 180.131 9.424 180.595 10.08C181.075 10.72 181.315 11.584 181.315 12.672C181.315 13.888 180.995 14.872 180.355 15.624C179.715 16.36 178.851 16.864 177.763 17.136L181.771 24H179.515L175.723 17.352H172.867V24H170.875ZM172.867 15.72H175.507C176.739 15.72 177.683 15.472 178.339 14.976C178.995 14.464 179.323 13.696 179.323 12.672C179.323 11.632 178.995 10.904 178.339 10.488C177.683 10.072 176.739 9.864 175.507 9.864H172.867V15.72ZM188.841 24.288C187.801 24.288 186.857 24.048 186.009 23.568C185.161 23.072 184.489 22.368 183.993 21.456C183.497 20.544 183.249 19.456 183.249 18.192C183.249 16.912 183.497 15.816 183.993 14.904C184.505 13.992 185.161 13.288 185.961 12.792C186.761 12.296 187.601 12.048 188.481 12.048C189.969 12.048 191.113 12.544 191.913 13.536C192.729 14.528 193.137 15.856 193.137 17.52C193.137 17.728 193.129 17.936 193.113 18.144C193.113 18.336 193.097 18.504 193.065 18.648H185.193C185.273 19.88 185.657 20.864 186.345 21.6C187.049 22.336 187.961 22.704 189.081 22.704C189.641 22.704 190.153 22.624 190.617 22.464C191.097 22.288 191.553 22.064 191.985 21.792L192.681 23.088C192.185 23.408 191.617 23.688 190.977 23.928C190.353 24.168 189.641 24.288 188.841 24.288ZM185.169 17.232H191.409C191.409 16.048 191.153 15.152 190.641 14.544C190.145 13.92 189.441 13.608 188.529 13.608C187.713 13.608 186.977 13.928 186.321 14.568C185.681 15.192 185.297 16.08 185.169 17.232ZM199.067 24.288C198.235 24.288 197.443 24.136 196.691 23.832C195.939 23.512 195.283 23.128 194.723 22.68L195.707 21.36C196.219 21.76 196.747 22.096 197.291 22.368C197.835 22.624 198.451 22.752 199.139 22.752C199.907 22.752 200.483 22.576 200.867 22.224C201.251 21.856 201.443 21.424 201.443 20.928C201.443 20.528 201.307 20.192 201.035 19.92C200.779 19.648 200.443 19.424 200.027 19.248C199.627 19.056 199.211 18.88 198.779 18.72C198.235 18.512 197.699 18.28 197.171 18.024C196.643 17.752 196.211 17.408 195.875 16.992C195.539 16.56 195.371 16.016 195.371 15.36C195.371 14.416 195.723 13.632 196.427 13.008C197.147 12.368 198.139 12.048 199.403 12.048C200.123 12.048 200.795 12.176 201.419 12.432C202.043 12.688 202.579 13 203.027 13.368L202.067 14.616C201.667 14.312 201.251 14.064 200.819 13.872C200.387 13.68 199.915 13.584 199.403 13.584C198.667 13.584 198.123 13.752 197.771 14.088C197.435 14.424 197.267 14.816 197.267 15.264C197.267 15.632 197.387 15.936 197.627 16.176C197.867 16.4 198.179 16.6 198.563 16.776C198.947 16.936 199.355 17.104 199.787 17.28C200.347 17.488 200.899 17.728 201.443 18C201.987 18.256 202.435 18.608 202.787 19.056C203.155 19.488 203.339 20.072 203.339 20.808C203.339 21.432 203.171 22.008 202.835 22.536C202.515 23.064 202.035 23.488 201.395 23.808C200.771 24.128 199.995 24.288 199.067 24.288ZM210.801 24.288C209.761 24.288 208.817 24.048 207.969 23.568C207.121 23.072 206.449 22.368 205.953 21.456C205.457 20.544 205.209 19.456 205.209 18.192C205.209 16.912 205.457 15.816 205.953 14.904C206.465 13.992 207.121 13.288 207.921 12.792C208.721 12.296 209.561 12.048 210.441 12.048C211.929 12.048 213.073 12.544 213.873 13.536C214.689 14.528 215.097 15.856 215.097 17.52C215.097 17.728 215.089 17.936 215.073 18.144C215.073 18.336 215.057 18.504 215.025 18.648H207.153C207.233 19.88 207.617 20.864 208.305 21.6C209.009 22.336 209.921 22.704 211.041 22.704C211.601 22.704 212.113 22.624 212.577 22.464C213.057 22.288 213.513 22.064 213.945 21.792L214.641 23.088C214.145 23.408 213.577 23.688 212.937 23.928C212.313 24.168 211.601 24.288 210.801 24.288ZM207.129 17.232H213.369C213.369 16.048 213.113 15.152 212.601 14.544C212.105 13.92 211.401 13.608 210.489 13.608C209.673 13.608 208.937 13.928 208.281 14.568C207.641 15.192 207.257 16.08 207.129 17.232ZM217.98 24V12.336H219.612L219.78 14.448H219.852C220.252 13.712 220.74 13.128 221.316 12.696C221.892 12.264 222.508 12.048 223.164 12.048C223.628 12.048 224.044 12.128 224.412 12.288L224.028 14.016C223.836 13.952 223.66 13.904 223.5 13.872C223.34 13.84 223.14 13.824 222.9 13.824C222.404 13.824 221.884 14.024 221.34 14.424C220.812 14.824 220.348 15.52 219.948 16.512V24H217.98ZM229.429 24L225.229 12.336H227.269L229.477 18.96C229.653 19.536 229.829 20.112 230.005 20.688C230.197 21.264 230.381 21.832 230.557 22.392H230.653C230.829 21.832 231.005 21.264 231.181 20.688C231.373 20.112 231.549 19.536 231.709 18.96L233.917 12.336H235.861L231.733 24H229.429ZM242.555 24.288C241.611 24.288 240.723 24.048 239.891 23.568C239.075 23.088 238.411 22.392 237.899 21.48C237.403 20.568 237.155 19.472 237.155 18.192C237.155 16.88 237.403 15.768 237.899 14.856C238.411 13.944 239.075 13.248 239.891 12.768C240.723 12.288 241.611 12.048 242.555 12.048C243.515 12.048 244.403 12.288 245.219 12.768C246.035 13.248 246.691 13.944 247.187 14.856C247.699 15.768 247.955 16.88 247.955 18.192C247.955 19.472 247.699 20.568 247.187 21.48C246.691 22.392 246.035 23.088 245.219 23.568C244.403 24.048 243.515 24.288 242.555 24.288ZM242.555 22.656C243.563 22.656 244.371 22.248 244.979 21.432C245.603 20.6 245.915 19.52 245.915 18.192C245.915 16.848 245.603 15.76 244.979 14.928C244.371 14.096 243.563 13.68 242.555 13.68C241.563 13.68 240.755 14.096 240.131 14.928C239.507 15.76 239.195 16.848 239.195 18.192C239.195 19.52 239.507 20.6 240.131 21.432C240.755 22.248 241.563 22.656 242.555 22.656ZM251.027 24V12.336H252.995V24H251.027ZM252.035 9.936C251.651 9.936 251.331 9.824 251.075 9.6C250.835 9.36 250.715 9.04 250.715 8.64C250.715 8.256 250.835 7.944 251.075 7.704C251.331 7.464 251.651 7.344 252.035 7.344C252.419 7.344 252.731 7.464 252.971 7.704C253.227 7.944 253.355 8.256 253.355 8.64C253.355 9.04 253.227 9.36 252.971 9.6C252.731 9.824 252.419 9.936 252.035 9.936ZM256.933 24V12.336H258.565L258.733 14.448H258.805C259.205 13.712 259.693 13.128 260.269 12.696C260.845 12.264 261.461 12.048 262.117 12.048C262.581 12.048 262.997 12.128 263.365 12.288L262.981 14.016C262.789 13.952 262.613 13.904 262.453 13.872C262.293 13.84 262.093 13.824 261.853 13.824C261.357 13.824 260.837 14.024 260.293 14.424C259.765 14.824 259.301 15.52 258.901 16.512V24H256.933Z" fill="black"/>
<path d="M472.883 26V10.256H477.803C478.875 10.256 479.827 10.4 480.659 10.688C481.491 10.96 482.139 11.424 482.603 12.08C483.083 12.72 483.323 13.584 483.323 14.672C483.323 15.888 483.003 16.872 482.363 17.624C481.723 18.36 480.859 18.864 479.771 19.136L483.779 26H481.523L477.731 19.352H474.875V26H472.883ZM474.875 17.72H477.515C478.747 17.72 479.691 17.472 480.347 16.976C481.003 16.464 481.331 15.696 481.331 14.672C481.331 13.632 481.003 12.904 480.347 12.488C479.691 12.072 478.747 11.864 477.515 11.864H474.875V17.72ZM486.355 26V14.336H488.323V26H486.355ZM487.363 11.936C486.979 11.936 486.659 11.824 486.403 11.6C486.163 11.36 486.043 11.04 486.043 10.64C486.043 10.256 486.163 9.944 486.403 9.704C486.659 9.464 486.979 9.344 487.363 9.344C487.747 9.344 488.059 9.464 488.299 9.704C488.555 9.944 488.683 10.256 488.683 10.64C488.683 11.04 488.555 11.36 488.299 11.6C488.059 11.824 487.747 11.936 487.363 11.936ZM496.245 26.288C494.789 26.288 493.621 25.76 492.741 24.704C491.861 23.632 491.421 22.128 491.421 20.192C491.421 18.928 491.653 17.84 492.117 16.928C492.597 16 493.221 15.288 493.989 14.792C494.773 14.296 495.605 14.048 496.485 14.048C497.157 14.048 497.741 14.168 498.237 14.408C498.733 14.648 499.237 14.976 499.749 15.392L499.653 13.4V8.912H501.645V26H500.013L499.845 24.632H499.773C499.325 25.08 498.797 25.472 498.189 25.808C497.581 26.128 496.933 26.288 496.245 26.288ZM496.677 24.632C497.701 24.632 498.693 24.096 499.653 23.024V16.928C499.157 16.48 498.677 16.168 498.213 15.992C497.765 15.8 497.301 15.704 496.821 15.704C496.197 15.704 495.629 15.896 495.117 16.28C494.621 16.648 494.221 17.168 493.917 17.84C493.613 18.496 493.461 19.272 493.461 20.168C493.461 21.56 493.741 22.656 494.301 23.456C494.861 24.24 495.653 24.632 496.677 24.632ZM509.509 31.376C508.085 31.376 506.925 31.104 506.029 30.56C505.133 30.016 504.685 29.24 504.685 28.232C504.685 27.736 504.837 27.256 505.141 26.792C505.445 26.344 505.861 25.944 506.389 25.592V25.496C506.101 25.32 505.853 25.072 505.645 24.752C505.453 24.432 505.357 24.048 505.357 23.6C505.357 23.104 505.493 22.672 505.765 22.304C506.037 21.936 506.325 21.648 506.629 21.44V21.344C506.245 21.024 505.893 20.592 505.573 20.048C505.269 19.504 505.117 18.888 505.117 18.2C505.117 17.352 505.317 16.616 505.717 15.992C506.117 15.368 506.653 14.888 507.325 14.552C507.997 14.216 508.725 14.048 509.509 14.048C509.829 14.048 510.133 14.08 510.421 14.144C510.709 14.192 510.957 14.256 511.165 14.336H515.221V15.848H512.821C513.093 16.104 513.317 16.448 513.493 16.88C513.685 17.296 513.781 17.752 513.781 18.248C513.781 19.08 513.589 19.8 513.205 20.408C512.821 21.016 512.309 21.488 511.669 21.824C511.029 22.144 510.309 22.304 509.509 22.304C508.885 22.304 508.301 22.168 507.757 21.896C507.549 22.072 507.373 22.272 507.229 22.496C507.085 22.704 507.013 22.968 507.013 23.288C507.013 23.656 507.157 23.96 507.445 24.2C507.749 24.44 508.293 24.56 509.077 24.56H511.333C512.693 24.56 513.709 24.784 514.381 25.232C515.069 25.664 515.413 26.368 515.413 27.344C515.413 28.064 515.173 28.728 514.693 29.336C514.213 29.944 513.533 30.432 512.653 30.8C511.773 31.184 510.725 31.376 509.509 31.376ZM509.509 20.984C510.181 20.984 510.757 20.736 511.237 20.24C511.733 19.728 511.981 19.048 511.981 18.2C511.981 17.352 511.741 16.688 511.261 16.208C510.781 15.728 510.197 15.488 509.509 15.488C508.821 15.488 508.237 15.728 507.757 16.208C507.277 16.688 507.037 17.352 507.037 18.2C507.037 19.048 507.277 19.728 507.757 20.24C508.253 20.736 508.837 20.984 509.509 20.984ZM509.797 30.008C510.917 30.008 511.813 29.76 512.485 29.264C513.157 28.784 513.493 28.24 513.493 27.632C513.493 27.088 513.285 26.712 512.869 26.504C512.469 26.296 511.893 26.192 511.141 26.192H509.125C508.901 26.192 508.653 26.176 508.381 26.144C508.125 26.112 507.869 26.064 507.613 26C507.197 26.304 506.893 26.624 506.701 26.96C506.509 27.296 506.413 27.632 506.413 27.968C506.413 28.592 506.709 29.088 507.301 29.456C507.909 29.824 508.741 30.008 509.797 30.008ZM522.067 26.288C521.027 26.288 520.083 26.048 519.235 25.568C518.387 25.072 517.715 24.368 517.219 23.456C516.723 22.544 516.475 21.456 516.475 20.192C516.475 18.912 516.723 17.816 517.219 16.904C517.731 15.992 518.387 15.288 519.187 14.792C519.987 14.296 520.827 14.048 521.707 14.048C523.195 14.048 524.339 14.544 525.139 15.536C525.955 16.528 526.363 17.856 526.363 19.52C526.363 19.728 526.355 19.936 526.339 20.144C526.339 20.336 526.323 20.504 526.291 20.648H518.419C518.499 21.88 518.883 22.864 519.571 23.6C520.275 24.336 521.187 24.704 522.307 24.704C522.867 24.704 523.379 24.624 523.843 24.464C524.323 24.288 524.779 24.064 525.211 23.792L525.907 25.088C525.411 25.408 524.843 25.688 524.203 25.928C523.579 26.168 522.867 26.288 522.067 26.288ZM518.395 19.232H524.635C524.635 18.048 524.379 17.152 523.867 16.544C523.371 15.92 522.667 15.608 521.755 15.608C520.939 15.608 520.203 15.928 519.547 16.568C518.907 17.192 518.523 18.08 518.395 19.232Z" fill="black"/>
<path d="M326.5 87L311.5 78.3397V95.6603L326.5 87ZM444 87L429 78.3397V95.6603L444 87ZM266 88.5H313V85.5H266V88.5ZM383.5 88.5H430.5V85.5H383.5V88.5Z" fill="black"/>
<path d="M163 87L148 78.3398L148 95.6603L163 87ZM88 88.5L149.5 88.5L149.5 85.5L88 85.5L88 88.5Z" fill="black"/>
<path d="M620 87L605 78.3398L605 95.6603L620 87ZM545 88.5L606.5 88.5L606.5 85.5L545 85.5L545 88.5Z" fill="black"/>
<path d="M336.903 90.608C336.967 90.32 337.103 90.104 337.311 89.96C337.535 89.816 337.743 89.744 337.935 89.744C338.191 89.744 338.407 89.8 338.583 89.912C338.759 90.008 338.951 90.24 339.159 90.608L339.423 91.088C339.567 90.976 339.719 90.832 339.879 90.656C340.455 90.032 340.991 89.392 341.487 88.736C341.983 88.08 342.479 87.384 342.975 86.648L341.967 83.216C341.823 82.72 341.687 82.384 341.559 82.208C341.447 82.016 341.263 81.92 341.007 81.92C340.847 81.92 340.607 82.016 340.287 82.208C339.983 82.4 339.623 82.848 339.207 83.552L338.655 83.144C339.103 82.152 339.591 81.432 340.119 80.984C340.647 80.536 341.159 80.312 341.655 80.312C342.119 80.312 342.487 80.464 342.759 80.768C343.047 81.072 343.295 81.608 343.503 82.376L344.247 85.04C344.759 84.224 345.239 83.504 345.687 82.88C346.151 82.256 346.535 81.76 346.839 81.392C347.191 80.976 347.511 80.696 347.799 80.552C348.087 80.392 348.423 80.312 348.807 80.312C349.127 80.312 349.447 80.416 349.767 80.624C350.103 80.832 350.319 81.152 350.415 81.584C350.415 81.92 350.319 82.2 350.127 82.424C349.935 82.632 349.703 82.736 349.431 82.736C349.191 82.736 348.967 82.688 348.759 82.592C348.551 82.48 348.335 82.256 348.111 81.92L347.967 81.728C347.903 81.776 347.847 81.832 347.799 81.896C347.751 81.96 347.695 82.024 347.631 82.088C347.071 82.712 346.535 83.352 346.023 84.008C345.511 84.664 345.015 85.336 344.535 86.024L345.375 89.072C345.551 89.728 345.735 90.16 345.927 90.368C346.135 90.56 346.407 90.656 346.743 90.656C347.063 90.656 347.415 90.504 347.799 90.2C348.199 89.896 348.615 89.472 349.047 88.928L349.647 89.384C349.071 90.232 348.447 90.936 347.775 91.496C347.103 92.04 346.447 92.312 345.807 92.312C345.455 92.312 345.143 92.2 344.871 91.976C344.599 91.736 344.359 91.272 344.151 90.584L343.263 87.608C342.767 88.408 342.295 89.136 341.847 89.792C341.399 90.432 340.967 91 340.551 91.496C340.295 91.8 340.031 92.008 339.759 92.12C339.487 92.248 339.191 92.312 338.871 92.312C338.391 92.312 337.951 92.176 337.551 91.904C337.167 91.616 336.951 91.184 336.903 90.608ZM350.309 95.816C350.581 94.584 350.845 93.328 351.101 92.048C351.357 90.768 351.613 89.488 351.869 88.208L352.973 82.448C353.229 81.184 353.477 79.92 353.717 78.656C353.957 77.376 354.181 76.104 354.389 74.84H358.925L358.733 75.8L355.949 76.112C355.741 77.136 355.525 78.184 355.301 79.256C355.093 80.312 354.885 81.376 354.677 82.448L353.573 88.208C353.365 89.248 353.157 90.304 352.949 91.376C352.741 92.432 352.549 93.488 352.373 94.544L355.037 94.856L354.845 95.816H350.309ZM359.673 89.336L361.281 81.8H358.833L359.001 80.84L361.593 80.6L362.721 77.384H363.945L363.249 80.624H366.297L366.105 81.92L363.009 81.824L361.545 88.712C361.401 89.352 361.329 89.816 361.329 90.104C361.329 90.28 361.385 90.416 361.497 90.512C361.625 90.608 361.761 90.656 361.905 90.656C362.513 90.656 363.297 90.08 364.257 88.928L364.857 89.384C364.521 89.864 364.137 90.328 363.705 90.776C363.273 91.224 362.809 91.592 362.313 91.88C361.817 92.168 361.297 92.312 360.753 92.312C360.401 92.312 360.089 92.208 359.817 92C359.561 91.792 359.433 91.488 359.433 91.088C359.433 90.912 359.449 90.704 359.481 90.464C359.513 90.208 359.577 89.832 359.673 89.336ZM373.188 74.84C372.916 76.072 372.652 77.328 372.396 78.608C372.14 79.888 371.884 81.168 371.628 82.448L370.524 88.208C370.268 89.472 370.02 90.736 369.78 92C369.556 93.28 369.332 94.552 369.108 95.816H364.572L364.764 94.856L367.548 94.544C367.772 93.504 367.988 92.456 368.196 91.4C368.404 90.344 368.612 89.28 368.82 88.208L369.924 82.448C370.132 81.408 370.34 80.36 370.548 79.304C370.756 78.232 370.948 77.168 371.124 76.112L368.46 75.8L368.652 74.84H373.188Z" fill="black"/>
</svg>
