<svg xmlns="http://www.w3.org/2000/svg" viewBox="0 0 48 48" xmlns:xlink="http://www.w3.org/1999/xlink" xml:space="preserve" width="100%" height="100%"><path xmlns="http://www.w3.org/2000/svg" fill="none" stroke="currentColor" stroke-linecap="round" stroke-linejoin="round" stroke-width="4" d="M36 10V8c0-1.2-.8-2-2-2H18a2 2 0 0 0-1.6.6l-8 8a2 2 0 0 0-.4 1.2V40c0 1.2.8 2 2 2h24c1.2 0 2-.8 2-2V30M18 6v8c0 1.2-.8 2-2 2H8m22.8 1.6 5.4 5.4m2.4-7.8a4 4 0 0 1 0 6L25.4 34.4 18 36l1.4-7.4 13.4-13.4a4 4 0 0 1 6 0Z" style="stroke: rgb(65, 22, 113);"></path></svg>