<svg version="1.1" xmlns="http://www.w3.org/2000/svg" xmlns:xlink="http://www.w3.org/1999/xlink" width="261" height="261" viewBox="0 -80 261 261"><rect xmlns="http://www.w3.org/2000/svg" width="100%" height="100%" fill="#EEE" y="-80"/><defs><clipPath id="WtJBxeDuECFV"><path fill="none" stroke="none" d=" M 0 0 L 261 0 L 261 103 L 0 103 L 0 0 Z"/></clipPath></defs><g transform="scale(1,1)" clip-path="url(#WtJBxeDuECFV)"><g transform="translate(-70,-258)"><path fill="rgb(101,87,210)" stroke="none" paint-order="stroke fill markers" fill-rule="evenodd" d=" M 450 115 L 472 115 C 473.1045694996616 115 474 115.8954305003384 474 117 L 474 139 C 474 140.10456949966158 473.1045694996616 141 472 141 L 450 141 C 448.8954305003384 141 448 140.10456949966158 448 139 L 448 117 C 448 115.8954305003384 448.8954305003384 115 450 115 Z" fill-opacity="1"/><g transform="translate(448,115)"><path fill="none" stroke="rgb(255,255,255)" paint-order="fill stroke markers" d=" M 4.44 13.76 L 9.75 19.07 L 21.99 6.83" stroke-opacity="1" stroke-linecap="square" stroke-miterlimit="10" stroke-width="2.6"/><g transform="translate(-448,-115)"><text fill="rgb(0,0,0)" stroke="none" font-family="geogebra-sans-serif, sans-serif" font-size="32px" font-style="normal" font-weight="normal" text-decoration="normal" x="483" y="140" text-anchor="start" dominant-baseline="alphabetic" fill-opacity="1">Serif</text><g transform="scale(35,35)"><g transform="translate(2.319871908910857,8.587667257142858)"><path fill="rgb(0,0,0)" stroke="none" paint-order="stroke fill markers" d=" M 0.372 -0.326 L 0.121 -0.042 L 0.397 -0.042 Q 0.523 -0.042 0.571 -0.077 Q 0.616 -0.109 0.633 -0.187 Q 0.637 -0.209 0.64 -0.236 L 0.665 -0.236 L 0.637 0 L 0.082 0 Q 0.0590 0 0.057 -0.011 Q 0.057 -0.016 0.067 -0.027 L 0.305 -0.298 L 0.056 -0.66 Q 0.056 -0.679 0.063 -0.682 Q 0.065 -0.683 0.07 -0.683 L 0.071 -0.683 L 0.082 -0.683 L 0.637 -0.683 L 0.665 -0.458 L 0.64 -0.458 Q 0.625 -0.575 0.576 -0.614 L 0.576 -0.614 L 0.575 -0.615 L 0.575 -0.615 L 0.574 -0.615 L 0.573 -0.616 L 0.573 -0.616 Q 0.525 -0.652 0.4 -0.652 L 0.169 -0.652 L 0.374 -0.356 Q 0.381 -0.347 0.381 -0.342 Q 0.381 -0.336 0.372 -0.326 Z"/></g><g transform="translate(3.041871908910857,8.587667257142858)"><path fill="rgb(0,0,0)" stroke="none" paint-order="stroke fill markers" d=" M 0.331 0.24 L 0.331 0.24 Q 0.331 0.25 0.321 0.25 Q 0.309 0.25 0.268 0.209 Q 0.206 0.147 0.165 0.062 Q 0.099 -0.074 0.099 -0.25 Q 0.099 -0.419 0.162 -0.555 Q 0.214 -0.666 0.294 -0.733 Q 0.315 -0.75 0.321 -0.75 Q 0.331 -0.75 0.331 -0.74 Q 0.331 -0.735 0.318 -0.723 Q 0.157 -0.559 0.157 -0.25 Q 0.157 0.058 0.314 0.218 Q 0.331 0.235 0.331 0.24 Z"/></g><g transform="translate(3.4308719089108566,8.587667257142858)"><path fill="rgb(0,0,0)" stroke="none" paint-order="stroke fill markers" d=" M 0.486 -0.381 L 0.39 0.001 Q 0.366 0.099 0.283 0.16 Q 0.222 0.205 0.156 0.205 Q 0.089 0.205 0.061 0.159 Q 0.05 0.14 0.05 0.118 Q 0.05 0.067 0.091 0.055 Q 0.099 0.053 0.106 0.053 Q 0.138 0.053 0.142 0.081 Q 0.143 0.084 0.143 0.088 Q 0.143 0.111 0.123 0.129 Q 0.109 0.141 0.08 0.141 Q 0.098 0.183 0.156 0.183 Q 0.218 0.183 0.266 0.12 Q 0.305 0.068 0.328 -0.021 Q 0.329 -0.025 0.331 -0.034 Q 0.286 0.011 0.23 0.011 Q 0.15 0.011 0.121 -0.048 Q 0.108 -0.074 0.108 -0.108 Q 0.108 -0.163 0.161 -0.305 Q 0.163 -0.311 0.166 -0.318 Q 0.183 -0.364 0.183 -0.388 Q 0.183 -0.42 0.158 -0.42 Q 0.103 -0.42 0.068 -0.329 L 0.068 -0.328 Q 0.062 -0.313 0.057 -0.296 Q 0.046 -0.279 0.041 -0.278 Q 0.029 -0.278 0.029 -0.288 Q 0.029 -0.306 0.05 -0.351 Q 0.094 -0.442 0.161 -0.442 Q 0.214 -0.442 0.235 -0.397 Q 0.243 -0.38 0.243 -0.36 Q 0.243 -0.339 0.223 -0.288 Q 0.172 -0.156 0.172 -0.092 Q 0.172 -0.011 0.234 -0.011 Q 0.292 -0.011 0.335 -0.073 Q 0.345 -0.088 0.347 -0.096 L 0.392 -0.276 Q 0.399 -0.309 0.412 -0.356 Q 0.422 -0.399 0.426 -0.410 Q 0.439 -0.431 0.461 -0.431 Q 0.486 -0.426 0.49 -0.404 Q 0.49 -0.395 0.486 -0.381 Z"/></g><g transform="translate(3.920871908910857,8.737667257142858) scale(0.7,0.7)"><path fill="rgb(0,0,0)" stroke="none" paint-order="stroke fill markers" d=" M 0.045 0.122 L 0.045 0.122 L 0.157 -0.323 Q 0.164 -0.353 0.164 -0.374 Q 0.164 -0.42 0.133 -0.42 Q 0.092 -0.42 0.066 -0.325 Q 0.063 -0.314 0.06 -0.301 Q 0.049 -0.279 0.0430 -0.278 Q 0.031 -0.278 0.031 -0.288 Q 0.031 -0.304 0.049 -0.355 Q 0.056 -0.373 0.062 -0.385 Q 0.086 -0.434 0.122 -0.441 Q 0.129 -0.442 0.136 -0.442 Q 0.19 -0.442 0.215 -0.398 L 0.215 -0.397 Q 0.223 -0.384 0.226 -0.367 Q 0.289 -0.442 0.357 -0.442 Q 0.428 -0.442 0.466 -0.378 Q 0.488 -0.333 0.49 -0.282 Q 0.49 -0.174 0.414 -0.082 Q 0.345 0.002 0.263 0.01 Q 0.256 0.011 0.249 0.011 Q 0.186 0.011 0.157 -0.053 Q 0.12 0.079 0.109 0.141 Q 0.108 0.146 0.108 0.147 Q 0.108 0.158 0.121 0.161 L 0.122 0.161 L 0.122 0.161 Q 0.134 0.163 0.158 0.163 Q 0.18 0.163 0.182 0.174 Q 0.182 0.194 0.164 0.194 L 0.066 0.191 L 0.065 0.191 L -0.017 0.194 L -0.019 0.194 Q -0.032 0.194 -0.032 0.182 Q -0.0260 0.164 -0.0090 0.163 Q 0.028 0.163 0.0360 0.15 L 0.037 0.149 Q 0.039 0.145 0.041 0.138 Q 0.042 0.133 0.045 0.122 M 0.221 -0.312 L 0.221 -0.312 L 0.172 -0.116 Q 0.169 -0.104 0.169 -0.1 Q 0.169 -0.077 0.187 -0.048 Q 0.198 -0.029 0.215 -0.019 Q 0.23 -0.011 0.248 -0.011 Q 0.299 -0.011 0.344 -0.075 Q 0.357 -0.093 0.367 -0.114 Q 0.394 -0.171 0.412 -0.268 Q 0.418 -0.303 0.418 -0.326 Q 0.418 -0.405 0.37 -0.418 Q 0.362 -0.42 0.354 -0.42 Q 0.316 -0.42 0.273 -0.382 Q 0.23 -0.346 0.221 -0.312 Z"/></g><g transform="translate(4.272971908910857,8.737667257142858) scale(0.7,0.7)"><path fill="rgb(0,0,0)" stroke="none" paint-order="stroke fill markers" d=" M 0.088 -0.0590 L 0.088 -0.0590 L 0.146 -0.29 Q 0.162 -0.354 0.162 -0.374 Q 0.162 -0.42 0.131 -0.42 Q 0.09 -0.42 0.064 -0.325 Q 0.061 -0.314 0.058 -0.301 Q 0.047 -0.279 0.041 -0.278 Q 0.029 -0.278 0.029 -0.288 Q 0.029 -0.304 0.047 -0.355 Q 0.054 -0.373 0.06 -0.385 Q 0.084 -0.434 0.12 -0.441 Q 0.127 -0.442 0.134 -0.442 Q 0.19 -0.442 0.215 -0.394 Q 0.221 -0.383 0.224 -0.37 Q 0.225 -0.368 0.225 -0.365 Q 0.283 -0.437 0.353 -0.442 Q 0.409 -0.442 0.429 -0.403 Q 0.436 -0.391 0.436 -0.377 Q 0.436 -0.338 0.403 -0.323 Q 0.392 -0.318 0.381 -0.318 Q 0.350 -0.318 0.344 -0.345 Q 0.343 -0.349 0.343 -0.353 Q 0.343 -0.386 0.377 -0.402 L 0.378 -0.403 Q 0.386 -0.406 0.395 -0.408 L 0.375 -0.417 Q 0.362 -0.419 0.353 -0.42 Q 0.311 -0.42 0.273 -0.387 Q 0.242 -0.359 0.22 -0.313 Q 0.218 -0.308 0.217 -0.305 L 0.185 -0.175 L 0.145 -0.017 Q 0.136 0.0090 0.108 0.011 Q 0.083 0.006 0.079 -0.016 Q 0.079 -0.014 0.088 -0.0590 Z"/></g><g transform="translate(4.608271908910857,8.737667257142858) scale(0.7,0.7)"><path fill="rgb(0,0,0)" stroke="none" paint-order="stroke fill markers" d=" M 0.187 -0.231 L 0.134 -0.231 Q 0.118 -0.166 0.118 -0.127 Q 0.118 -0.048 0.164 -0.021 Q 0.181 -0.011 0.205 -0.011 Q 0.295 -0.011 0.367 -0.071 Q 0.388 -0.088 0.405 -0.11 Q 0.412 -0.12 0.418 -0.12 Q 0.427 -0.12 0.43 -0.107 Q 0.43 -0.096 0.396 -0.064 Q 0.313 0.011 0.203 0.011 Q 0.113 0.011 0.071 -0.066 Q 0.046 -0.111 0.046 -0.17 Q 0.046 -0.301 0.148 -0.382 Q 0.223 -0.442 0.308 -0.442 Q 0.38 -0.442 0.406 -0.392 Q 0.415 -0.376 0.415 -0.357 Q 0.415 -0.305 0.37 -0.271 L 0.369 -0.27 Q 0.356 -0.261 0.34 -0.254 Q 0.285 -0.231 0.187 -0.231 M 0.14 -0.253 L 0.181 -0.253 Q 0.382 -0.253 0.382 -0.357 Q 0.382 -0.397 0.343 -0.414 L 0.343 -0.414 Q 0.329 -0.419 0.308 -0.42 Q 0.252 -0.42 0.205 -0.374 Q 0.16 -0.33 0.14 -0.253 Z"/></g><g transform="translate(4.934471908910857,8.737667257142858) scale(0.7,0.7)"><path fill="rgb(0,0,0)" stroke="none" paint-order="stroke fill markers" d=" M 0.516 -0.683 L 0.372 -0.105 Q 0.366 -0.08 0.366 -0.057 Q 0.366 -0.011 0.396 -0.011 Q 0.434 -0.011 0.46 -0.091 Q 0.465 -0.108 0.472 -0.135 Q 0.48 -0.152 0.486 -0.153 Q 0.498 -0.153 0.498 -0.143 Q 0.498 -0.128 0.48 -0.073 Q 0.474 -0.056 0.468 -0.044 Q 0.44 0.011 0.394 0.011 Q 0.338 0.011 0.313 -0.037 Q 0.306 -0.049 0.303 -0.064 Q 0.24 0.011 0.173 0.011 Q 0.098 0.011 0.062 -0.057 Q 0.04 -0.097 0.04 -0.149 Q 0.04 -0.257 0.115 -0.349 Q 0.185 -0.433 0.267 -0.441 Q 0.274 -0.442 0.281 -0.442 Q 0.342 -0.442 0.373 -0.378 L 0.433 -0.615 L 0.436 -0.635 Q 0.436 -0.646 0.422 -0.649 Q 0.410 -0.652 0.386 -0.652 Q 0.364 -0.652 0.362 -0.664 Q 0.362 -0.681 0.376 -0.683 Q 0.470 -0.694 0.503 -0.694 Q 0.516 -0.694 0.516 -0.683 M 0.308 -0.119 L 0.308 -0.119 L 0.358 -0.315 Q 0.361 -0.33 0.361 -0.332 Q 0.361 -0.353 0.343 -0.383 Q 0.321 -0.42 0.282 -0.42 Q 0.23 -0.42 0.183 -0.352 Q 0.174 -0.339 0.166 -0.324 Q 0.137 -0.266 0.117 -0.159 Q 0.111 -0.125 0.111 -0.105 Q 0.111 -0.037 0.149 -0.017 Q 0.16 -0.011 0.175 -0.011 Q 0.231 -0.011 0.288 -0.082 Q 0.302 -0.098 0.307 -0.115 L 0.307 -0.116 Q 0.308 -0.118 0.308 -0.119 Z"/></g><g transform="translate(5.520694131133079,8.587667257142858)"><path fill="rgb(0,0,0)" stroke="none" paint-order="stroke fill markers" d=" M 0.661 -0.23 L 0.116 -0.23 Q 0.084 -0.23 0.083 -0.25 Q 0.083 -0.27 0.116 -0.27 L 0.661 -0.27 Q 0.693 -0.27 0.694 -0.25 Q 0.694 -0.23 0.661 -0.23 Z"/></g><g transform="translate(6.520916353355301,8.587667257142858)"><path fill="rgb(0,0,0)" stroke="none" paint-order="stroke fill markers" d=" M 0.486 -0.381 L 0.39 0.001 Q 0.366 0.099 0.283 0.16 Q 0.222 0.205 0.156 0.205 Q 0.089 0.205 0.061 0.159 Q 0.05 0.14 0.05 0.118 Q 0.05 0.067 0.091 0.055 Q 0.099 0.053 0.106 0.053 Q 0.138 0.053 0.142 0.081 Q 0.143 0.084 0.143 0.088 Q 0.143 0.111 0.123 0.129 Q 0.109 0.141 0.08 0.141 Q 0.098 0.183 0.156 0.183 Q 0.218 0.183 0.266 0.12 Q 0.305 0.068 0.328 -0.021 Q 0.329 -0.025 0.331 -0.034 Q 0.286 0.011 0.23 0.011 Q 0.15 0.011 0.121 -0.048 Q 0.108 -0.074 0.108 -0.108 Q 0.108 -0.163 0.161 -0.305 Q 0.163 -0.311 0.166 -0.318 Q 0.183 -0.364 0.183 -0.388 Q 0.183 -0.42 0.158 -0.42 Q 0.103 -0.42 0.068 -0.329 L 0.068 -0.328 Q 0.062 -0.313 0.057 -0.296 Q 0.046 -0.279 0.041 -0.278 Q 0.029 -0.278 0.029 -0.288 Q 0.029 -0.306 0.05 -0.351 Q 0.094 -0.442 0.161 -0.442 Q 0.214 -0.442 0.235 -0.397 Q 0.243 -0.38 0.243 -0.36 Q 0.243 -0.339 0.223 -0.288 Q 0.172 -0.156 0.172 -0.092 Q 0.172 -0.011 0.234 -0.011 Q 0.292 -0.011 0.335 -0.073 Q 0.345 -0.088 0.347 -0.096 L 0.392 -0.276 Q 0.399 -0.309 0.412 -0.356 Q 0.422 -0.399 0.426 -0.410 Q 0.439 -0.431 0.461 -0.431 Q 0.486 -0.426 0.49 -0.404 Q 0.49 -0.395 0.486 -0.381 Z"/></g><g transform="translate(7.010916353355301,8.737667257142858) scale(0.7,0.7)"><path fill="rgb(0,0,0)" stroke="none" paint-order="stroke fill markers" d=" M 0.206 -0.4 L 0.132 -0.105 Q 0.126 -0.08 0.126 -0.057 Q 0.126 -0.011 0.157 -0.011 Q 0.223 -0.011 0.273 -0.108 L 0.287 -0.139 Q 0.293 -0.152 0.302 -0.153 Q 0.314 -0.153 0.314 -0.143 Q 0.314 -0.13 0.288 -0.086 Q 0.23 0.011 0.155 0.011 Q 0.097 0.011 0.073 -0.037 Q 0.063 -0.057 0.063 -0.081 Q 0.063 -0.1 0.124 -0.34 L 0.139 -0.4 L 0.0510 -0.4 Q 0.0260 -0.4 0.024 -0.408 L 0.023 -0.408 L 0.023 -0.412 Q 0.023 -0.429 0.039 -0.431 L 0.053 -0.431 L 0.147 -0.431 L 0.186 -0.59 Q 0.195 -0.625 0.226 -0.626 Q 0.252 -0.626 0.255 -0.599 Q 0.255 -0.593 0.214 -0.431 L 0.302 -0.431 Q 0.328 -0.431 0.33 -0.42 Q 0.33 -0.402 0.314 -0.4 L 0.313 -0.4 L 0.3 -0.4 L 0.206 -0.4 Z"/></g><g transform="translate(7.263616353355301,8.737667257142858) scale(0.7,0.7)"><path fill="rgb(0,0,0)" stroke="none" paint-order="stroke fill markers" d=" M 0.088 -0.0590 L 0.088 -0.0590 L 0.146 -0.29 Q 0.162 -0.354 0.162 -0.374 Q 0.162 -0.42 0.131 -0.42 Q 0.09 -0.42 0.064 -0.325 Q 0.061 -0.314 0.058 -0.301 Q 0.047 -0.279 0.041 -0.278 Q 0.029 -0.278 0.029 -0.288 Q 0.029 -0.304 0.047 -0.355 Q 0.054 -0.373 0.06 -0.385 Q 0.084 -0.434 0.12 -0.441 Q 0.127 -0.442 0.134 -0.442 Q 0.19 -0.442 0.215 -0.394 Q 0.221 -0.383 0.224 -0.37 Q 0.225 -0.368 0.225 -0.365 Q 0.283 -0.437 0.353 -0.442 Q 0.409 -0.442 0.429 -0.403 Q 0.436 -0.391 0.436 -0.377 Q 0.436 -0.338 0.403 -0.323 Q 0.392 -0.318 0.381 -0.318 Q 0.350 -0.318 0.344 -0.345 Q 0.343 -0.349 0.343 -0.353 Q 0.343 -0.386 0.377 -0.402 L 0.378 -0.403 Q 0.386 -0.406 0.395 -0.408 L 0.375 -0.417 Q 0.362 -0.419 0.353 -0.42 Q 0.311 -0.42 0.273 -0.387 Q 0.242 -0.359 0.22 -0.313 Q 0.218 -0.308 0.217 -0.305 L 0.185 -0.175 L 0.145 -0.017 Q 0.136 0.0090 0.108 0.011 Q 0.083 0.006 0.079 -0.016 Q 0.079 -0.014 0.088 -0.0590 Z"/></g><g transform="translate(7.5989163533553015,8.737667257142858) scale(0.7,0.7)"><path fill="rgb(0,0,0)" stroke="none" paint-order="stroke fill markers" d=" M 0.350 -0.056 L 0.350 -0.056 Q 0.298 0.011 0.231 0.011 Q 0.15 0.011 0.121 -0.048 Q 0.108 -0.074 0.108 -0.109 Q 0.108 -0.163 0.161 -0.305 Q 0.163 -0.312 0.166 -0.319 Q 0.183 -0.362 0.183 -0.387 Q 0.183 -0.42 0.158 -0.42 Q 0.102 -0.42 0.067 -0.325 Q 0.066 -0.325 0.066 -0.324 L 0.066 -0.323 Q 0.061 -0.31 0.057 -0.296 Q 0.046 -0.279 0.041 -0.278 Q 0.029 -0.278 0.029 -0.288 Q 0.029 -0.306 0.05 -0.351 Q 0.094 -0.442 0.161 -0.442 Q 0.214 -0.442 0.235 -0.397 Q 0.243 -0.38 0.243 -0.36 Q 0.243 -0.34 0.226 -0.297 Q 0.172 -0.154 0.172 -0.093 Q 0.172 -0.011 0.234 -0.011 Q 0.297 -0.011 0.34 -0.08 Q 0.346 -0.089 0.348 -0.095 Q 0.37 -0.194 0.423 -0.396 Q 0.431 -0.431 0.462 -0.431 Q 0.487 -0.426 0.491 -0.404 Q 0.491 -0.406 0.476 -0.337 Q 0.462 -0.286 0.459 -0.269 L 0.431 -0.161 Q 0.411 -0.074 0.411 -0.057 Q 0.411 -0.011 0.442 -0.011 Q 0.484 -0.011 0.511 -0.111 Q 0.514 -0.121 0.517 -0.135 Q 0.525 -0.152 0.531 -0.153 Q 0.543 -0.153 0.543 -0.143 Q 0.543 -0.128 0.525 -0.073 Q 0.519 -0.056 0.513 -0.044 Q 0.486 0.011 0.439 0.011 Q 0.382 0.011 0.358 -0.037 Q 0.353 -0.046 0.350 -0.056 Z"/></g><g transform="translate(7.999316353355302,8.737667257142858) scale(0.7,0.7)"><path fill="rgb(0,0,0)" stroke="none" paint-order="stroke fill markers" d=" M 0.187 -0.231 L 0.134 -0.231 Q 0.118 -0.166 0.118 -0.127 Q 0.118 -0.048 0.164 -0.021 Q 0.181 -0.011 0.205 -0.011 Q 0.295 -0.011 0.367 -0.071 Q 0.388 -0.088 0.405 -0.11 Q 0.412 -0.12 0.418 -0.12 Q 0.427 -0.12 0.43 -0.107 Q 0.43 -0.096 0.396 -0.064 Q 0.313 0.011 0.203 0.011 Q 0.113 0.011 0.071 -0.066 Q 0.046 -0.111 0.046 -0.17 Q 0.046 -0.301 0.148 -0.382 Q 0.223 -0.442 0.308 -0.442 Q 0.38 -0.442 0.406 -0.392 Q 0.415 -0.376 0.415 -0.357 Q 0.415 -0.305 0.37 -0.271 L 0.369 -0.27 Q 0.356 -0.261 0.34 -0.254 Q 0.285 -0.231 0.187 -0.231 M 0.14 -0.253 L 0.181 -0.253 Q 0.382 -0.253 0.382 -0.357 Q 0.382 -0.397 0.343 -0.414 L 0.343 -0.414 Q 0.329 -0.419 0.308 -0.42 Q 0.252 -0.42 0.205 -0.374 Q 0.16 -0.33 0.14 -0.253 Z"/></g><g transform="translate(8.325516353355301,8.587667257142858)"><path fill="rgb(0,0,0)" stroke="none" paint-order="stroke fill markers" d=" M 0.289 -0.25 L 0.289 -0.25 Q 0.289 -0.081 0.226 0.055 Q 0.174 0.166 0.094 0.233 Q 0.073 0.25 0.067 0.25 Q 0.057 0.25 0.057 0.24 Q 0.057 0.235 0.07 0.223 Q 0.231 0.0590 0.231 -0.25 Q 0.231 -0.555 0.081 -0.712 L 0.076 -0.717 Q 0.057 -0.735 0.057 -0.74 Q 0.057 -0.75 0.067 -0.75 Q 0.079 -0.75 0.12 -0.709 Q 0.182 -0.647 0.223 -0.562 Q 0.289 -0.426 0.289 -0.25 Z"/></g><g transform="translate(8.7145163533553,8.107942857142858) scale(0.7,0.7)"><path fill="rgb(0,0,0)" stroke="none" paint-order="stroke fill markers" d=" M 0.449 -0.174 L 0.449 -0.174 L 0.421 0 L 0.05 0 Q 0.05 -0.025 0.056 -0.032 L 0.061 -0.037 L 0.253 -0.251 Q 0.358 -0.369 0.358 -0.472 Q 0.358 -0.561 0.304 -0.607 L 0.303 -0.608 L 0.302 -0.608 Q 0.27 -0.635 0.224 -0.635 Q 0.152 -0.635 0.109 -0.573 Q 0.097 -0.555 0.089 -0.533 Q 0.092 -0.534 0.102 -0.534 Q 0.142 -0.534 0.153 -0.498 L 0.153 -0.497 Q 0.155 -0.49 0.155 -0.482 Q 0.155 -0.442 0.117 -0.431 Q 0.109 -0.429 0.103 -0.429 Q 0.066 -0.429 0.054 -0.46 Q 0.05 -0.471 0.05 -0.485 Q 0.05 -0.562 0.109 -0.617 Q 0.162 -0.666 0.237 -0.666 Q 0.347 -0.666 0.408 -0.592 Q 0.443 -0.549 0.448 -0.49 Q 0.449 -0.481 0.449 -0.472 Q 0.449 -0.399 0.394 -0.333 Q 0.365 -0.299 0.304 -0.243 L 0.243 -0.189 L 0.233 -0.18 L 0.127 -0.077 L 0.307 -0.077 Q 0.395 -0.077 0.402 -0.085 Q 0.412 -0.099 0.424 -0.174 L 0.449 -0.174 Z"/></g><rect fill="rgb(0,0,0)" stroke="none" x="2.319871908910857" y="8.994175757142857" width="6.758876787443016" height="0.039999"/><g transform="translate(5.243310302632365,9.950126257142857)"><path fill="rgb(0,0,0)" stroke="none" paint-order="stroke fill markers" d=" M 0.756 -0.578 L 0.616 -0.021 Q 0.611 -0.002 0.606 -0.001 L 0.605 0 L 0.6 0 Q 0.59 0 0.584 -0.012 Q 0.583 -0.015 0.581 -0.019 L 0.332 -0.608 L 0.323 -0.626 L 0.191 -0.098 Q 0.187 -0.083 0.187 -0.075 Q 0.187 -0.041 0.23 -0.033 Q 0.24 -0.031 0.253 -0.031 Q 0.273 -0.031 0.273 -0.02 Q 0.273 0 0.255 0 L 0.155 -0.003 L 0.152 -0.003 L 0.053 0 L 0.052000000000000005 0 Q 0.039 0 0.039 -0.011 Q 0.039 -0.031 0.056 -0.031 Q 0.135 -0.034 0.156 -0.081 Q 0.16 -0.091 0.164 -0.106 L 0.298 -0.643 Q 0.298 -0.652 0.23 -0.652 Q 0.204 -0.652 0.202 -0.663 Q 0.202 -0.681 0.217 -0.683 L 0.231 -0.683 L 0.365 -0.683 Q 0.386 -0.683 0.391 -0.676 Q 0.393 -0.673 0.397 -0.664 L 0.618 -0.142 L 0.73 -0.587 Q 0.733 -0.596 0.733 -0.608 Q 0.733 -0.651 0.665 -0.652 Q 0.647 -0.652 0.647 -0.663 Q 0.647 -0.683 0.665 -0.683 L 0.766 -0.68 L 0.767 -0.68 L 0.867 -0.683 L 0.868 -0.683 Q 0.881 -0.683 0.881 -0.672 Q 0.881 -0.652 0.864 -0.652 Q 0.786 -0.649 0.764 -0.603 L 0.764 -0.603 Q 0.76 -0.593 0.756 -0.578 Z"/></g></g><path fill="rgb(255,255,255)" stroke="none" paint-order="stroke fill markers" fill-rule="evenodd" d=" M 37.5 109 L 161.5 109 C 163.43299662440776 109 165 110.56700337559222 165 112.5 L 165 140.5 C 165 142.43299662440776 163.43299662440776 144 161.5 144 L 37.5 144 C 35.56700337559222 144 34 142.43299662440776 34 140.5 L 34 112.5 C 34 110.56700337559222 35.56700337559222 109 37.5 109 Z" fill-opacity="1"/><path fill="none" stroke="rgb(179,179,179)" paint-order="fill stroke markers" d=" M 37.5 109 L 161.5 109 C 163.43299662440776 109 165 110.56700337559222 165 112.5 L 165 140.5 C 165 142.43299662440776 163.43299662440776 144 161.5 144 L 37.5 144 C 35.56700337559222 144 34 142.43299662440776 34 140.5 L 34 112.5 C 34 110.56700337559222 35.56700337559222 109 37.5 109 Z" stroke-opacity="1" stroke-linecap="round" stroke-linejoin="round" stroke-miterlimit="10"/><text fill="rgb(0,0,0)" stroke="none" font-family="geogebra-sans-serif, sans-serif" font-size="24px" font-style="normal" font-weight="normal" text-decoration="normal" x="44" y="136" text-anchor="start" dominant-baseline="alphabetic" fill-opacity="1">Show SVG</text><path fill="rgb(255,255,255)" stroke="none" paint-order="stroke fill markers" fill-rule="evenodd" d=" M 204.5 106 L 381.5 106 C 383.4329966244078 106 385 107.56700337559222 385 109.5 L 385 137.5 C 385 139.43299662440776 383.4329966244078 141 381.5 141 L 204.5 141 C 202.56700337559224 141 201 139.43299662440776 201 137.5 L 201 109.5 C 201 107.56700337559222 202.56700337559224 106 204.5 106 Z" fill-opacity="1"/><path fill="none" stroke="rgb(179,179,179)" paint-order="fill stroke markers" d=" M 204.5 106 L 381.5 106 C 383.4329966244078 106 385 107.56700337559222 385 109.5 L 385 137.5 C 385 139.43299662440776 383.4329966244078 141 381.5 141 L 204.5 141 C 202.56700337559224 141 201 139.43299662440776 201 137.5 L 201 109.5 C 201 107.56700337559222 202.56700337559224 106 204.5 106 Z" stroke-opacity="1" stroke-linecap="round" stroke-linejoin="round" stroke-miterlimit="10"/><text fill="rgb(0,0,0)" stroke="none" font-family="geogebra-sans-serif, sans-serif" font-size="24px" font-style="normal" font-weight="normal" text-decoration="normal" x="211" y="133" text-anchor="start" dominant-baseline="alphabetic" fill-opacity="1">Download SVG</text><path fill="rgb(255,255,255)" stroke="none" paint-order="stroke fill markers" fill-rule="evenodd" d=" M 212 30 L 722 30 C 724.2091389993232 30 726 31.790861000676827 726 34 L 726 75 C 726 77.20913899932317 724.2091389993232 79 722 79 L 212 79 C 209.7908610006768 79 208 77.20913899932317 208 75 L 208 34 C 208 31.790861000676827 209.7908610006768 30 212 30 Z" fill-opacity="1"/><path fill="none" stroke="rgb(180,179,186)" paint-order="fill stroke markers" d=" M 212 30 L 722 30 C 724.2091389993232 30 726 31.790861000676827 726 34 L 726 75 C 726 77.20913899932317 724.2091389993232 79 722 79 L 212 79 C 209.7908610006768 79 208 77.20913899932317 208 75 L 208 34 C 208 31.790861000676827 209.7908610006768 30 212 30 Z" stroke-opacity="1" stroke-linecap="round" stroke-linejoin="round" stroke-miterlimit="10"/><text fill="rgb(0,0,0)" stroke="none" font-family="geogebra-sans-serif, sans-serif" font-size="32px" font-style="normal" font-weight="normal" text-decoration="normal" x="210" y="66" text-anchor="start" dominant-baseline="alphabetic" fill-opacity="1">{\Sigma (y</text><text fill="rgb(0,0,0)" stroke="none" font-family="geogebra-sans-serif, sans-serif" font-size="28px" font-style="normal" font-weight="normal" text-decoration="normal" x="362" y="80" text-anchor="start" dominant-baseline="alphabetic" fill-opacity="1">pred</text><text fill="rgb(0,0,0)" stroke="none" font-family="geogebra-sans-serif, sans-serif" font-size="32px" font-style="normal" font-weight="normal" text-decoration="normal" x="423" y="66" text-anchor="start" dominant-baseline="alphabetic" fill-opacity="1"> - y</text><text fill="rgb(0,0,0)" stroke="none" font-family="geogebra-sans-serif, sans-serif" font-size="28px" font-style="normal" font-weight="normal" text-decoration="normal" x="466" y="80" text-anchor="start" dominant-baseline="alphabetic" fill-opacity="1">true</text><text fill="rgb(0,0,0)" stroke="none" font-family="geogebra-sans-serif, sans-serif" font-size="32px" font-style="normal" font-weight="normal" text-decoration="normal" x="521" y="66" text-anchor="start" dominant-baseline="alphabetic" fill-opacity="1">)^2 \ov</text><text fill="rgb(0,0,0)" stroke="none" font-family="geogebra-sans-serif, sans-serif" font-size="32px" font-style="normal" font-weight="normal" text-decoration="normal" x="30" y="66" text-anchor="start" dominant-baseline="alphabetic" fill-opacity="1">Enter LaTeX</text></g></g></g></g></svg>
