<?xml version="1.0" encoding="UTF-8"?>
<!DOCTYPE svg PUBLIC "-//W3C//DTD SVG 1.1//EN" "http://www.w3.org/Graphics/SVG/1.1/DTD/svg11.dtd">
<svg version="1.2" width="96.54mm" height="96.54mm" viewBox="5577 7816 9654 9654" preserveAspectRatio="xMidYMid" fill-rule="evenodd" stroke-width="28.222" stroke-linejoin="round" xmlns="http://www.w3.org/2000/svg" xmlns:ooo="http://xml.openoffice.org/svg/export" xmlns:xlink="http://www.w3.org/1999/xlink" xmlns:presentation="http://sun.com/xmlns/staroffice/presentation" xmlns:smil="http://www.w3.org/2001/SMIL20/" xmlns:anim="urn:oasis:names:tc:opendocument:xmlns:animation:1.0" xml:space="preserve">
 <defs class="EmbeddedBulletChars">
  <g id="bullet-char-template-57356" transform="scale(0.00048828125,-0.00048828125)">
   <path d="M 580,1141 L 1163,571 580,0 -4,571 580,1141 Z"/>
  </g>
  <g id="bullet-char-template-57354" transform="scale(0.00048828125,-0.00048828125)">
   <path d="M 8,1128 L 1137,1128 1137,0 8,0 8,1128 Z"/>
  </g>
  <g id="bullet-char-template-10146" transform="scale(0.00048828125,-0.00048828125)">
   <path d="M 174,0 L 602,739 174,1481 1456,739 174,0 Z M 1358,739 L 309,1346 659,739 1358,739 Z"/>
  </g>
  <g id="bullet-char-template-10132" transform="scale(0.00048828125,-0.00048828125)">
   <path d="M 2015,739 L 1276,0 717,0 1260,543 174,543 174,936 1260,936 717,1481 1274,1481 2015,739 Z"/>
  </g>
  <g id="bullet-char-template-10007" transform="scale(0.00048828125,-0.00048828125)">
   <path d="M 0,-2 C -7,14 -16,27 -25,37 L 356,567 C 262,823 215,952 215,954 215,979 228,992 255,992 264,992 276,990 289,987 310,991 331,999 354,1012 L 381,999 492,748 772,1049 836,1024 860,1049 C 881,1039 901,1025 922,1006 886,937 835,863 770,784 769,783 710,716 594,584 L 774,223 C 774,196 753,168 711,139 L 727,119 C 717,90 699,76 672,76 641,76 570,178 457,381 L 164,-76 C 142,-110 111,-127 72,-127 30,-127 9,-110 8,-76 1,-67 -2,-52 -2,-32 -2,-23 -1,-13 0,-2 Z"/>
  </g>
  <g id="bullet-char-template-10004" transform="scale(0.00048828125,-0.00048828125)">
   <path d="M 285,-33 C 182,-33 111,30 74,156 52,228 41,333 41,471 41,549 55,616 82,672 116,743 169,778 240,778 293,778 328,747 346,684 L 369,508 C 377,444 397,411 428,410 L 1163,1116 C 1174,1127 1196,1133 1229,1133 1271,1133 1292,1118 1292,1087 L 1292,965 C 1292,929 1282,901 1262,881 L 442,47 C 390,-6 338,-33 285,-33 Z"/>
  </g>
  <g id="bullet-char-template-9679" transform="scale(0.00048828125,-0.00048828125)">
   <path d="M 813,0 C 632,0 489,54 383,161 276,268 223,411 223,592 223,773 276,916 383,1023 489,1130 632,1184 813,1184 992,1184 1136,1130 1245,1023 1353,916 1407,772 1407,592 1407,412 1353,268 1245,161 1136,54 992,0 813,0 Z"/>
  </g>
  <g id="bullet-char-template-8226" transform="scale(0.00048828125,-0.00048828125)">
   <path d="M 346,457 C 273,457 209,483 155,535 101,586 74,649 74,723 74,796 101,859 155,911 209,963 273,989 346,989 419,989 480,963 531,910 582,859 608,796 608,723 608,648 583,586 532,535 482,483 420,457 346,457 Z"/>
  </g>
  <g id="bullet-char-template-8211" transform="scale(0.00048828125,-0.00048828125)">
   <path d="M -4,459 L 1135,459 1135,606 -4,606 -4,459 Z"/>
  </g>
  <g id="bullet-char-template-61548" transform="scale(0.00048828125,-0.00048828125)">
   <path d="M 173,740 C 173,903 231,1043 346,1159 462,1274 601,1332 765,1332 928,1332 1067,1274 1183,1159 1299,1043 1357,903 1357,740 1357,577 1299,437 1183,322 1067,206 928,148 765,148 601,148 462,206 346,322 231,437 173,577 173,740 Z"/>
  </g>
 </defs>
 <g class="Page">
  <g class="com.sun.star.drawing.ClosedBezierShape">
   <g id="id3">
    <rect class="BoundingBox" stroke="none" fill="none" x="7281" y="8679" width="7887" height="7891"/>
    <path fill="rgb(235,235,235)" stroke="none" d="M 15167,12624 C 15167,12689 15165,12754 15162,12818 15159,12882 15154,12947 15148,13011 15141,13075 15133,13139 15124,13203 15114,13267 15103,13331 15091,13394 15078,13457 15064,13520 15048,13583 15033,13645 15015,13708 14997,13769 14978,13831 14958,13892 14936,13953 14914,14014 14891,14074 14866,14134 14842,14193 14816,14252 14788,14311 14760,14369 14731,14427 14701,14484 14671,14541 14639,14597 14606,14652 14572,14708 14538,14762 14502,14816 14466,14869 14429,14922 14391,14974 14352,15026 14313,15077 14272,15127 14231,15176 14189,15225 14145,15273 14102,15321 14057,15368 14012,15413 13966,15459 13920,15503 13872,15547 13824,15590 13775,15632 13725,15673 13675,15714 13624,15754 13573,15792 13521,15831 13468,15868 13414,15904 13361,15940 13306,15974 13251,16007 13196,16041 13138,16072 13082,16103 13025,16133 12967,16162 12909,16190 12850,16217 12791,16244 12732,16268 12672,16293 12612,16316 12551,16338 12491,16360 12429,16380 12368,16399 12306,16417 12244,16435 12181,16450 12119,16466 12056,16480 11992,16493 11929,16505 11865,16516 11802,16526 11738,16535 11674,16543 11610,16550 11545,16556 11481,16561 11417,16564 11352,16567 11288,16569 11223,16569 11159,16569 11094,16567 11030,16564 10965,16561 10901,16556 10837,16550 10773,16543 10709,16535 10645,16526 10581,16516 10517,16505 10454,16493 10391,16480 10328,16466 10265,16450 10203,16435 10141,16417 10079,16399 10017,16380 9956,16360 9895,16338 9834,16316 9774,16293 9715,16268 9655,16244 9596,16217 9538,16190 9479,16162 9422,16133 9365,16103 9308,16072 9252,16041 9196,16007 9141,15974 9087,15940 9033,15904 8979,15868 8927,15831 8875,15792 8823,15754 8772,15714 8722,15673 8672,15632 8624,15590 8576,15547 8528,15503 8481,15459 8436,15413 8390,15368 8345,15321 8302,15273 8259,15225 8217,15176 8176,15127 8135,15077 8095,15026 8057,14974 8018,14922 7981,14869 7945,14816 7909,14762 7875,14708 7842,14652 7809,14597 7777,14541 7746,14484 7716,14427 7687,14369 7659,14311 7632,14252 7606,14193 7581,14134 7556,14074 7533,14014 7511,13953 7490,13892 7469,13831 7451,13769 7432,13708 7415,13645 7399,13583 7383,13520 7369,13457 7357,13394 7344,13331 7333,13267 7324,13203 7314,13139 7306,13075 7300,13011 7294,12947 7289,12882 7286,12818 7282,12754 7281,12689 7281,12624 7281,12560 7282,12495 7286,12431 7289,12367 7294,12302 7300,12238 7306,12174 7314,12110 7324,12046 7333,11982 7344,11918 7357,11855 7369,11792 7383,11729 7399,11666 7415,11604 7432,11541 7451,11480 7469,11417 7490,11356 7511,11295 7533,11234 7556,11174 7581,11114 7606,11055 7632,10996 7659,10937 7687,10879 7716,10821 7746,10764 7777,10707 7809,10651 7842,10596 7875,10540 7909,10486 7945,10432 7981,10379 8018,10326 8057,10274 8095,10222 8135,10171 8176,10121 8217,10072 8259,10023 8302,9975 8345,9927 8390,9880 8436,9835 8481,9789 8528,9745 8576,9701 8624,9658 8672,9616 8722,9575 8772,9534 8823,9494 8875,9456 8927,9417 8979,9380 9033,9344 9087,9308 9141,9274 9196,9241 9252,9207 9308,9176 9365,9145 9422,9115 9479,9086 9538,9058 9596,9031 9655,9004 9715,8980 9774,8955 9834,8932 9895,8910 9956,8888 10017,8868 10079,8849 10141,8831 10203,8813 10265,8798 10328,8782 10391,8768 10454,8755 10517,8743 10581,8732 10645,8722 10709,8713 10773,8705 10837,8698 10901,8692 10965,8687 11030,8684 11094,8681 11159,8679 11223,8679 11288,8679 11352,8681 11417,8684 11481,8687 11545,8692 11610,8698 11674,8705 11738,8713 11802,8722 11865,8732 11929,8743 11992,8755 12056,8768 12119,8782 12181,8798 12244,8813 12306,8831 12368,8849 12429,8868 12491,8888 12551,8910 12612,8932 12672,8955 12732,8980 12791,9004 12850,9031 12909,9058 12967,9086 13025,9115 13082,9145 13138,9176 13196,9207 13251,9241 13306,9274 13361,9308 13414,9344 13468,9380 13521,9417 13573,9456 13624,9494 13675,9534 13725,9575 13775,9616 13824,9658 13872,9701 13920,9745 13966,9789 14012,9835 14057,9880 14102,9927 14145,9975 14189,10023 14231,10072 14272,10121 14313,10171 14352,10222 14391,10274 14429,10326 14466,10379 14502,10432 14538,10486 14572,10540 14606,10596 14639,10651 14671,10707 14701,10764 14731,10821 14760,10879 14788,10937 14816,10996 14842,11055 14866,11114 14891,11174 14914,11234 14936,11295 14958,11356 14978,11417 14997,11480 15015,11541 15033,11604 15048,11666 15064,11729 15078,11792 15091,11855 15103,11918 15114,11982 15124,12046 15133,12110 15141,12174 15148,12238 15154,12302 15159,12367 15162,12431 15165,12495 15167,12560 15167,12624 Z"/>
   </g>
  </g>
  <g class="com.sun.star.drawing.ClosedBezierShape">
   <g id="id4">
    <rect class="BoundingBox" stroke="none" fill="none" x="7218" y="8616" width="8013" height="8017"/>
    <path fill="none" stroke="rgb(102,102,102)" stroke-width="126" stroke-linejoin="miter" d="M 15167,12625 C 15167,12689 15165,12754 15162,12818 15159,12882 15154,12947 15148,13011 15141,13075 15133,13139 15124,13203 15114,13267 15103,13331 15091,13394 15078,13457 15064,13520 15048,13583 15033,13645 15016,13708 14997,13769 14978,13831 14958,13892 14936,13953 14914,14014 14891,14074 14866,14134 14842,14193 14816,14252 14788,14311 14760,14369 14731,14427 14701,14484 14671,14541 14639,14597 14606,14652 14572,14708 14538,14762 14502,14816 14466,14869 14429,14922 14391,14974 14352,15026 14313,15077 14272,15127 14231,15176 14189,15225 14145,15273 14102,15321 14057,15368 14012,15413 13966,15459 13920,15503 13872,15547 13824,15590 13775,15632 13725,15673 13675,15714 13624,15754 13573,15792 13521,15831 13468,15868 13414,15904 13361,15940 13306,15974 13251,16007 13196,16041 13139,16072 13082,16103 13025,16133 12967,16162 12909,16190 12850,16217 12791,16244 12732,16268 12672,16293 12612,16316 12551,16338 12491,16360 12429,16380 12368,16399 12306,16417 12244,16435 12181,16450 12119,16466 12056,16480 11992,16493 11929,16505 11865,16516 11802,16526 11738,16535 11674,16543 11610,16550 11545,16556 11481,16561 11417,16564 11352,16567 11288,16569 11223,16569 11159,16569 11094,16567 11030,16564 10965,16561 10901,16556 10837,16550 10773,16543 10709,16535 10645,16526 10581,16516 10517,16505 10454,16493 10391,16480 10328,16466 10265,16450 10203,16435 10141,16417 10079,16399 10017,16380 9956,16360 9895,16338 9834,16316 9774,16293 9715,16268 9655,16244 9596,16217 9538,16190 9479,16162 9422,16133 9365,16103 9308,16072 9252,16041 9196,16007 9141,15974 9087,15940 9033,15904 8979,15868 8927,15831 8875,15792 8823,15754 8772,15714 8722,15673 8672,15632 8624,15590 8576,15547 8528,15503 8481,15459 8436,15413 8390,15368 8345,15321 8302,15273 8259,15225 8217,15176 8176,15127 8135,15077 8095,15026 8057,14974 8018,14922 7981,14869 7945,14816 7909,14762 7875,14708 7842,14652 7809,14597 7777,14541 7746,14484 7716,14427 7687,14369 7659,14311 7632,14252 7606,14193 7581,14134 7556,14074 7533,14014 7511,13953 7490,13892 7469,13831 7451,13769 7432,13708 7415,13645 7399,13583 7383,13520 7369,13457 7357,13394 7344,13331 7333,13267 7324,13203 7314,13139 7306,13075 7300,13011 7294,12947 7289,12882 7286,12818 7282,12754 7281,12689 7281,12625 7281,12560 7282,12495 7286,12431 7289,12367 7294,12302 7300,12238 7306,12174 7314,12110 7324,12046 7333,11982 7344,11918 7357,11855 7369,11792 7383,11729 7399,11666 7415,11604 7432,11541 7451,11480 7469,11417 7490,11356 7511,11295 7533,11234 7556,11174 7581,11114 7606,11055 7632,10996 7659,10937 7687,10879 7716,10821 7746,10764 7777,10707 7809,10651 7842,10596 7875,10540 7909,10486 7945,10432 7981,10379 8018,10326 8057,10274 8095,10222 8135,10171 8176,10121 8217,10072 8259,10023 8302,9975 8345,9927 8390,9880 8436,9835 8481,9789 8528,9745 8576,9701 8624,9658 8672,9616 8722,9575 8772,9534 8823,9494 8875,9456 8927,9417 8979,9380 9033,9344 9087,9308 9141,9274 9196,9241 9252,9207 9308,9176 9365,9145 9422,9115 9479,9086 9538,9058 9596,9031 9655,9004 9715,8980 9774,8955 9834,8932 9895,8910 9956,8888 10017,8868 10079,8849 10141,8831 10203,8813 10265,8798 10328,8782 10391,8768 10454,8755 10517,8743 10581,8732 10645,8722 10709,8713 10773,8705 10837,8698 10901,8692 10965,8687 11030,8684 11094,8681 11159,8679 11223,8679 11288,8679 11352,8681 11417,8684 11481,8687 11545,8692 11610,8698 11674,8705 11738,8713 11802,8722 11865,8732 11929,8743 11992,8755 12056,8768 12119,8782 12181,8798 12244,8813 12306,8831 12368,8849 12429,8868 12491,8888 12551,8910 12612,8932 12672,8955 12732,8980 12791,9004 12850,9031 12909,9058 12967,9086 13025,9115 13082,9145 13139,9176 13196,9207 13251,9241 13306,9274 13361,9308 13414,9344 13468,9380 13521,9417 13573,9456 13624,9494 13675,9534 13725,9575 13775,9616 13824,9658 13872,9701 13920,9745 13966,9789 14012,9835 14057,9880 14102,9927 14145,9975 14189,10023 14231,10072 14272,10121 14313,10171 14352,10222 14391,10274 14429,10326 14466,10379 14502,10432 14538,10486 14572,10540 14606,10596 14639,10651 14671,10707 14701,10764 14731,10821 14760,10879 14788,10937 14816,10996 14842,11055 14866,11114 14891,11174 14914,11234 14936,11295 14958,11356 14978,11417 14997,11480 15016,11541 15033,11604 15048,11666 15064,11729 15078,11792 15091,11855 15103,11918 15114,11982 15124,12046 15133,12110 15141,12174 15148,12238 15154,12302 15159,12367 15162,12431 15165,12495 15167,12560 15167,12625 Z"/>
   </g>
  </g>
  <g class="com.sun.star.drawing.OpenBezierShape">
   <g id="id5">
    <rect class="BoundingBox" stroke="none" fill="none" x="9804" y="8900" width="2273" height="980"/>
    <path fill="none" stroke="rgb(0,0,0)" stroke-width="63" stroke-linejoin="miter" d="M 9836,9879 C 9836,9248 10203,8932 10939,8932 11675,8932 12044,9161 12044,9619"/>
   </g>
  </g>
  <g class="com.sun.star.drawing.PolyPolygonShape">
   <g id="id6">
    <rect class="BoundingBox" stroke="none" fill="none" x="11959" y="9555" width="170" height="255"/>
    <path fill="rgb(0,0,0)" stroke="none" d="M 12043,9809 L 11959,9555 12043,9618 12128,9555 12043,9809 Z"/>
   </g>
  </g>
  <g class="com.sun.star.drawing.PolyPolygonShape">
   <g id="id7">
    <rect class="BoundingBox" stroke="none" fill="none" x="11897" y="9469" width="294" height="441"/>
    <path fill="none" stroke="rgb(0,0,0)" stroke-width="63" stroke-linejoin="miter" d="M 12043,9809 L 11959,9555 12043,9618 12128,9555 12043,9809 Z"/>
   </g>
  </g>
  <g class="com.sun.star.drawing.ClosedBezierShape">
   <g id="id8">
    <rect class="BoundingBox" stroke="none" fill="none" x="9221" y="9894" width="1263" height="1264"/>
    <path fill="rgb(245,245,245)" stroke="none" d="M 10483,10526 C 10483,10568 10479,10609 10471,10649 10463,10690 10451,10729 10435,10768 10419,10806 10400,10842 10377,10877 10354,10911 10328,10943 10298,10972 10269,11002 10237,11028 10203,11051 10168,11074 10132,11093 10094,11109 10055,11125 10016,11137 9975,11145 9935,11153 9894,11157 9851,11157 9810,11157 9769,11153 9728,11145 9688,11137 9648,11125 9610,11109 9572,11093 9535,11074 9501,11051 9466,11028 9435,11002 9405,10972 9376,10943 9350,10911 9327,10877 9304,10842 9284,10806 9269,10768 9253,10729 9241,10690 9233,10649 9225,10609 9221,10568 9221,10526 9221,10485 9225,10444 9233,10403 9241,10363 9253,10323 9269,10285 9284,10246 9304,10210 9327,10176 9350,10141 9376,10109 9405,10080 9435,10051 9466,10024 9501,10001 9535,9978 9572,9958 9610,9942 9648,9926 9688,9914 9728,9906 9769,9898 9810,9894 9851,9894 9894,9894 9935,9898 9975,9906 10016,9914 10055,9926 10094,9942 10132,9958 10168,9978 10203,10001 10237,10024 10269,10051 10298,10080 10328,10109 10354,10141 10377,10176 10400,10210 10419,10246 10435,10285 10451,10323 10463,10363 10471,10403 10479,10444 10483,10485 10483,10526 Z"/>
   </g>
  </g>
  <g class="com.sun.star.drawing.ClosedBezierShape">
   <g id="id9">
    <rect class="BoundingBox" stroke="none" fill="none" x="9174" y="9847" width="1357" height="1358"/>
    <path fill="none" stroke="rgb(102,102,102)" stroke-width="94" stroke-linejoin="miter" d="M 10483,10526 C 10483,10568 10479,10609 10471,10649 10463,10690 10451,10729 10435,10768 10419,10806 10400,10842 10377,10877 10354,10911 10328,10943 10298,10972 10269,11002 10237,11028 10203,11051 10168,11074 10132,11093 10094,11109 10055,11125 10016,11137 9975,11145 9935,11153 9894,11157 9851,11157 9810,11157 9769,11153 9728,11145 9688,11137 9648,11125 9610,11109 9572,11093 9535,11074 9501,11051 9466,11028 9435,11002 9405,10972 9376,10943 9350,10911 9327,10877 9304,10842 9284,10806 9269,10768 9253,10729 9241,10690 9233,10649 9225,10609 9221,10568 9221,10526 9221,10485 9225,10444 9233,10403 9241,10363 9253,10323 9269,10285 9284,10246 9304,10210 9327,10176 9350,10141 9376,10109 9405,10080 9435,10051 9466,10024 9501,10001 9535,9978 9572,9958 9610,9942 9648,9926 9688,9914 9728,9906 9769,9898 9810,9894 9851,9894 9894,9894 9935,9898 9975,9906 10016,9914 10055,9926 10094,9942 10132,9958 10168,9978 10203,10001 10237,10024 10269,10051 10298,10080 10328,10109 10354,10141 10377,10176 10400,10210 10419,10246 10435,10285 10451,10323 10463,10363 10471,10403 10479,10444 10483,10485 10483,10526 Z"/>
   </g>
  </g>
  <g class="com.sun.star.drawing.ClosedBezierShape">
   <g id="id10">
    <rect class="BoundingBox" stroke="none" fill="none" x="13163" y="10683" width="1263" height="1265"/>
    <path fill="rgb(245,245,245)" stroke="none" d="M 14425,11315 C 14425,11357 14421,11398 14413,11438 14405,11479 14393,11518 14377,11557 14362,11595 14342,11631 14319,11666 14296,11700 14270,11732 14241,11761 14211,11791 14179,11817 14145,11840 14111,11863 14074,11882 14036,11898 13998,11914 13958,11926 13918,11934 13877,11942 13836,11946 13795,11946 13753,11946 13712,11942 13672,11934 13630,11926 13590,11914 13552,11898 13514,11882 13478,11863 13443,11840 13409,11817 13377,11791 13348,11761 13318,11732 13292,11700 13269,11666 13246,11631 13227,11595 13211,11557 13195,11518 13183,11479 13175,11438 13167,11398 13163,11357 13163,11315 13163,11273 13167,11232 13175,11191 13183,11150 13195,11111 13211,11073 13227,11034 13246,10998 13269,10963 13292,10929 13318,10897 13348,10868 13377,10839 13409,10812 13443,10789 13478,10766 13514,10747 13552,10731 13590,10715 13630,10703 13672,10695 13712,10687 13753,10683 13795,10683 13836,10683 13877,10687 13918,10695 13958,10703 13998,10715 14036,10731 14074,10747 14111,10766 14145,10789 14179,10812 14211,10839 14241,10868 14270,10897 14296,10929 14319,10963 14342,10998 14362,11034 14377,11073 14393,11111 14405,11150 14413,11191 14421,11232 14425,11273 14425,11315 Z"/>
   </g>
  </g>
  <g class="com.sun.star.drawing.ClosedBezierShape">
   <g id="id11">
    <rect class="BoundingBox" stroke="none" fill="none" x="13116" y="10636" width="1357" height="1359"/>
    <path fill="none" stroke="rgb(102,102,102)" stroke-width="94" stroke-linejoin="miter" d="M 14425,11315 C 14425,11357 14421,11398 14413,11438 14405,11479 14393,11518 14377,11557 14362,11595 14342,11631 14319,11666 14296,11700 14270,11732 14241,11761 14211,11791 14179,11817 14145,11840 14111,11863 14074,11882 14036,11898 13998,11914 13958,11926 13918,11934 13877,11942 13836,11946 13795,11946 13753,11946 13712,11942 13672,11934 13630,11926 13590,11914 13552,11898 13514,11882 13478,11863 13443,11840 13409,11817 13377,11791 13348,11761 13318,11732 13292,11700 13269,11666 13246,11631 13227,11595 13211,11557 13195,11518 13183,11479 13175,11438 13167,11398 13163,11357 13163,11315 13163,11273 13167,11232 13175,11191 13183,11150 13195,11111 13211,11073 13227,11034 13246,10998 13269,10963 13292,10929 13318,10897 13348,10868 13377,10839 13409,10812 13443,10789 13478,10766 13514,10747 13552,10731 13590,10715 13630,10703 13672,10695 13712,10687 13753,10683 13795,10683 13836,10683 13877,10687 13918,10695 13958,10703 13998,10715 14036,10731 14074,10747 14111,10766 14145,10789 14179,10812 14211,10839 14241,10868 14270,10897 14296,10929 14319,10963 14342,10998 14362,11034 14377,11073 14393,11111 14405,11150 14413,11191 14421,11232 14425,11273 14425,11315 Z"/>
   </g>
  </g>
  <g class="com.sun.star.drawing.OpenBezierShape">
   <g id="id12">
    <rect class="BoundingBox" stroke="none" fill="none" x="11744" y="12371" width="1783" height="678"/>
    <path fill="none" stroke="rgb(0,0,0)" stroke-width="94" stroke-linejoin="miter" d="M 11744,12418 C 12900,12418 13479,12628 13479,13047"/>
   </g>
  </g>
  <g class="com.sun.star.drawing.PolyPolygonShape">
   <g id="id13">
    <rect class="BoundingBox" stroke="none" fill="none" x="13384" y="12975" width="191" height="286"/>
    <path fill="rgb(0,0,0)" stroke="none" d="M 13478,13260 L 13384,12975 13478,13046 13574,12975 13478,13260 Z"/>
   </g>
  </g>
  <g class="com.sun.star.drawing.PolyPolygonShape">
   <g id="id14">
    <rect class="BoundingBox" stroke="none" fill="none" x="13292" y="12846" width="376" height="564"/>
    <path fill="none" stroke="rgb(0,0,0)" stroke-width="94" stroke-linejoin="miter" d="M 13478,13260 L 13384,12975 13478,13046 13574,12975 13478,13260 Z"/>
   </g>
  </g>
  <g class="com.sun.star.drawing.OpenBezierShape">
   <g id="id15">
    <rect class="BoundingBox" stroke="none" fill="none" x="10246" y="11179" width="424" height="843"/>
    <path fill="none" stroke="rgb(0,0,0)" stroke-width="94" stroke-linejoin="miter" d="M 10668,11973 C 10418,11976 10293,11711 10293,11179"/>
   </g>
  </g>
  <g class="com.sun.star.drawing.PolyLineShape">
   <g id="id16">
    <rect class="BoundingBox" stroke="none" fill="none" x="10153" y="10924" width="281" height="450"/>
    <path fill="none" stroke="rgb(0,0,0)" stroke-width="94" stroke-linejoin="miter" d="M 10388,11358 L 10293,11073 10198,11358"/>
   </g>
  </g>
  <g class="com.sun.star.drawing.OpenBezierShape">
   <g id="id17">
    <rect class="BoundingBox" stroke="none" fill="none" x="11558" y="11267" width="1288" height="755"/>
    <path fill="none" stroke="rgb(0,0,0)" stroke-width="94" stroke-linejoin="miter" d="M 11559,11973 C 12167,11976 12470,11867 12470,11645 12470,11425 12595,11314 12845,11314"/>
   </g>
  </g>
  <g class="com.sun.star.drawing.PolyPolygonShape">
   <g id="id18">
    <rect class="BoundingBox" stroke="none" fill="none" x="12773" y="11219" width="286" height="193"/>
    <path fill="rgb(0,0,0)" stroke="none" d="M 13058,11315 L 12773,11410 12844,11315 12773,11219 13058,11315 Z"/>
   </g>
  </g>
  <g class="com.sun.star.drawing.PolyPolygonShape">
   <g id="id19">
    <rect class="BoundingBox" stroke="none" fill="none" x="12645" y="11126" width="562" height="378"/>
    <path fill="none" stroke="rgb(0,0,0)" stroke-width="94" stroke-linejoin="miter" d="M 13058,11315 L 12773,11410 12844,11315 12773,11219 13058,11315 Z"/>
   </g>
  </g>
  <g class="com.sun.star.drawing.ClosedBezierShape">
   <g id="id20">
    <rect class="BoundingBox" stroke="none" fill="none" x="10481" y="11786" width="1265" height="1265"/>
    <path fill="rgb(245,245,245)" stroke="none" d="M 11745,12418 C 11745,12460 11741,12501 11732,12542 11724,12583 11712,12623 11697,12661 11681,12699 11661,12736 11638,12770 11615,12804 11589,12836 11560,12866 11531,12895 11499,12921 11464,12944 11430,12967 11393,12987 11355,13002 11317,13018 11278,13030 11237,13038 11196,13046 11155,13050 11113,13050 11071,13050 11030,13046 10990,13038 10949,13030 10910,13018 10871,13002 10833,12987 10797,12967 10762,12944 10728,12921 10696,12895 10667,12866 10638,12836 10611,12804 10588,12770 10565,12736 10546,12699 10530,12661 10514,12623 10502,12583 10494,12542 10486,12501 10482,12460 10482,12418 10482,12377 10486,12336 10494,12295 10502,12255 10514,12215 10530,12177 10546,12139 10565,12102 10588,12068 10611,12033 10638,12001 10667,11972 10696,11943 10728,11917 10762,11894 10797,11871 10833,11851 10871,11835 10910,11820 10949,11808 10990,11799 11030,11791 11071,11787 11113,11787 11155,11787 11196,11791 11237,11799 11278,11808 11317,11820 11355,11835 11393,11851 11430,11871 11464,11894 11499,11917 11531,11943 11560,11972 11589,12001 11615,12033 11638,12068 11661,12102 11681,12139 11697,12177 11712,12215 11724,12255 11732,12295 11741,12336 11745,12377 11745,12418 Z"/>
   </g>
  </g>
  <g class="com.sun.star.drawing.ClosedBezierShape">
   <g id="id21">
    <rect class="BoundingBox" stroke="none" fill="none" x="10434" y="11739" width="1359" height="1359"/>
    <path fill="none" stroke="rgb(102,102,102)" stroke-width="94" stroke-linejoin="miter" d="M 11745,12418 C 11745,12460 11741,12501 11732,12542 11724,12583 11712,12623 11697,12661 11681,12699 11661,12736 11638,12770 11615,12804 11589,12836 11560,12866 11531,12895 11499,12921 11464,12944 11430,12967 11393,12987 11355,13002 11317,13018 11278,13030 11237,13038 11196,13046 11155,13050 11113,13050 11071,13050 11030,13046 10990,13038 10949,13030 10910,13018 10871,13002 10833,12987 10797,12967 10762,12944 10728,12921 10696,12895 10667,12866 10638,12836 10611,12804 10588,12770 10565,12736 10546,12699 10530,12661 10514,12623 10502,12583 10494,12542 10486,12501 10482,12460 10482,12418 10482,12377 10486,12336 10494,12295 10502,12255 10514,12215 10530,12177 10546,12139 10565,12102 10588,12068 10611,12033 10638,12001 10667,11972 10696,11943 10728,11917 10762,11894 10797,11871 10833,11851 10871,11835 10910,11820 10949,11808 10990,11799 11030,11791 11071,11787 11113,11787 11155,11787 11196,11791 11237,11799 11278,11808 11317,11820 11355,11835 11393,11851 11430,11871 11464,11894 11499,11917 11531,11943 11560,11972 11589,12001 11615,12033 11638,12068 11661,12102 11681,12139 11697,12177 11712,12215 11724,12255 11732,12295 11741,12336 11745,12377 11745,12418 Z"/>
   </g>
  </g>
  <g class="com.sun.star.drawing.OpenBezierShape">
   <g id="id22">
    <rect class="BoundingBox" stroke="none" fill="none" x="11510" y="13108" width="1325" height="906"/>
    <path fill="none" stroke="rgb(0,0,0)" stroke-width="63" stroke-linejoin="miter" d="M 12833,13981 C 11971,13981 11540,13690 11542,13109"/>
   </g>
  </g>
  <g class="com.sun.star.drawing.PolyPolygonShape">
   <g id="id23">
    <rect class="BoundingBox" stroke="none" fill="none" x="11416" y="12919" width="254" height="255"/>
    <path fill="rgb(0,0,0)" stroke="none" d="M 11543,12919 L 11669,13173 11542,13110 11416,13172 11543,12919 Z"/>
   </g>
  </g>
  <g class="com.sun.star.drawing.PolyPolygonShape">
   <g id="id24">
    <rect class="BoundingBox" stroke="none" fill="none" x="11345" y="12848" width="395" height="396"/>
    <path fill="none" stroke="rgb(0,0,0)" stroke-width="63" stroke-linejoin="miter" d="M 11543,12919 L 11669,13173 11542,13110 11416,13172 11543,12919 Z"/>
   </g>
  </g>
  <g class="com.sun.star.drawing.ClosedBezierShape">
   <g id="id25">
    <rect class="BoundingBox" stroke="none" fill="none" x="12847" y="13365" width="1264" height="1264"/>
    <path fill="rgb(245,245,245)" stroke="none" d="M 14110,13997 C 14110,14038 14106,14079 14098,14120 14090,14161 14078,14200 14062,14239 14046,14277 14027,14313 14004,14348 13981,14382 13955,14414 13925,14443 13896,14473 13864,14499 13830,14522 13795,14545 13759,14564 13721,14580 13682,14596 13642,14608 13601,14616 13561,14624 13520,14628 13478,14628 13437,14628 13396,14624 13355,14616 13315,14608 13275,14596 13237,14580 13199,14564 13162,14545 13128,14522 13093,14499 13061,14473 13032,14443 13003,14414 12977,14382 12954,14348 12931,14313 12911,14277 12895,14239 12880,14200 12868,14161 12860,14120 12851,14079 12847,14038 12847,13997 12847,13956 12851,13915 12860,13874 12868,13833 12880,13793 12895,13755 12911,13716 12931,13680 12954,13645 12977,13611 13003,13579 13032,13550 13061,13520 13093,13494 13128,13471 13162,13448 13199,13429 13237,13413 13275,13397 13315,13385 13355,13377 13396,13369 13437,13365 13478,13365 13520,13365 13561,13369 13601,13377 13642,13385 13682,13397 13721,13413 13759,13429 13795,13448 13830,13471 13864,13494 13896,13520 13925,13550 13955,13579 13981,13611 14004,13645 14027,13680 14046,13716 14062,13755 14078,13793 14090,13833 14098,13874 14106,13915 14110,13956 14110,13997 Z"/>
   </g>
  </g>
  <g class="com.sun.star.drawing.ClosedBezierShape">
   <g id="id26">
    <rect class="BoundingBox" stroke="none" fill="none" x="12800" y="13318" width="1358" height="1358"/>
    <path fill="none" stroke="rgb(102,102,102)" stroke-width="94" stroke-linejoin="miter" d="M 14110,13997 C 14110,14038 14106,14079 14098,14120 14090,14161 14078,14200 14062,14239 14046,14277 14027,14313 14004,14348 13981,14382 13955,14414 13925,14443 13896,14473 13864,14499 13830,14522 13795,14545 13759,14564 13721,14580 13682,14596 13642,14608 13601,14616 13561,14624 13520,14628 13478,14628 13437,14628 13396,14624 13355,14616 13315,14608 13275,14596 13237,14580 13199,14564 13162,14545 13128,14522 13093,14499 13061,14473 13032,14443 13003,14414 12977,14382 12954,14348 12931,14313 12911,14277 12895,14239 12880,14200 12868,14161 12860,14120 12851,14079 12847,14038 12847,13997 12847,13956 12851,13915 12860,13874 12868,13833 12880,13793 12895,13755 12911,13716 12931,13680 12954,13645 12977,13611 13003,13579 13032,13550 13061,13521 13093,13494 13128,13471 13162,13448 13199,13429 13237,13413 13275,13397 13315,13385 13355,13377 13396,13369 13437,13365 13478,13365 13520,13365 13561,13369 13601,13377 13642,13385 13682,13397 13721,13413 13759,13429 13795,13448 13830,13471 13864,13494 13896,13521 13925,13550 13955,13579 13981,13611 14004,13645 14027,13680 14046,13716 14062,13755 14078,13793 14090,13833 14098,13874 14106,13915 14110,13956 14110,13997 Z"/>
   </g>
  </g>
  <g class="com.sun.star.drawing.OpenBezierShape">
   <g id="id27">
    <rect class="BoundingBox" stroke="none" fill="none" x="8259" y="13336" width="676" height="579"/>
    <path fill="none" stroke="rgb(0,0,0)" stroke-width="94" stroke-linejoin="miter" d="M 8933,13866 C 8515,13869 8306,13693 8306,13337"/>
   </g>
  </g>
  <g class="com.sun.star.drawing.PolyPolygonShape">
   <g id="id28">
    <rect class="BoundingBox" stroke="none" fill="none" x="8211" y="13124" width="193" height="286"/>
    <path fill="rgb(0,0,0)" stroke="none" d="M 8307,13124 L 8402,13409 8307,13337 8211,13409 8307,13124 Z"/>
   </g>
  </g>
  <g class="com.sun.star.drawing.PolyPolygonShape">
   <g id="id29">
    <rect class="BoundingBox" stroke="none" fill="none" x="8118" y="12976" width="378" height="564"/>
    <path fill="none" stroke="rgb(0,0,0)" stroke-width="94" stroke-linejoin="miter" d="M 8307,13124 L 8402,13409 8307,13337 8211,13409 8307,13124 Z"/>
   </g>
  </g>
  <g class="com.sun.star.drawing.ClosedBezierShape">
   <g id="id30">
    <rect class="BoundingBox" stroke="none" fill="none" x="8747" y="13680" width="1264" height="1265"/>
    <path fill="rgb(245,245,245)" stroke="none" d="M 10010,14313 C 10010,14354 10006,14395 9998,14436 9990,14476 9978,14516 9962,14554 9946,14592 9927,14629 9904,14663 9881,14698 9854,14729 9824,14759 9795,14788 9763,14814 9729,14837 9694,14860 9658,14880 9620,14896 9581,14911 9542,14923 9501,14931 9461,14940 9420,14944 9378,14944 9337,14944 9296,14940 9255,14931 9215,14923 9175,14911 9137,14896 9099,14880 9062,14860 9028,14837 8993,14814 8961,14788 8932,14759 8903,14729 8877,14698 8854,14663 8831,14629 8811,14592 8795,14554 8780,14516 8768,14476 8760,14436 8751,14395 8747,14354 8747,14313 8747,14271 8751,14230 8760,14189 8768,14149 8780,14109 8795,14071 8811,14033 8831,13996 8854,13962 8877,13928 8903,13896 8932,13866 8961,13837 8993,13810 9028,13787 9062,13764 9099,13744 9137,13729 9175,13713 9215,13701 9255,13693 9296,13685 9337,13680 9378,13680 9420,13680 9461,13685 9501,13693 9542,13701 9581,13713 9620,13729 9658,13744 9694,13764 9729,13787 9763,13810 9795,13837 9824,13866 9854,13896 9881,13928 9904,13962 9927,13996 9946,14033 9962,14071 9978,14109 9990,14149 9998,14189 10006,14230 10010,14271 10010,14313 Z"/>
   </g>
  </g>
  <g class="com.sun.star.drawing.ClosedBezierShape">
   <g id="id31">
    <rect class="BoundingBox" stroke="none" fill="none" x="8700" y="13633" width="1358" height="1359"/>
    <path fill="none" stroke="rgb(102,102,102)" stroke-width="94" stroke-linejoin="miter" d="M 10010,14313 C 10010,14354 10006,14395 9998,14436 9990,14476 9978,14516 9962,14554 9946,14592 9927,14629 9904,14663 9881,14698 9854,14729 9824,14759 9795,14788 9763,14814 9729,14837 9694,14860 9658,14880 9620,14896 9581,14911 9542,14923 9501,14931 9461,14940 9420,14944 9378,14944 9337,14944 9296,14940 9255,14931 9215,14923 9175,14911 9137,14896 9099,14880 9062,14860 9028,14837 8993,14814 8961,14788 8932,14759 8903,14729 8877,14698 8854,14663 8831,14629 8811,14592 8795,14554 8780,14516 8768,14476 8760,14436 8751,14395 8747,14354 8747,14313 8747,14271 8751,14230 8760,14189 8768,14149 8780,14109 8795,14071 8811,14033 8831,13996 8854,13962 8877,13928 8903,13896 8932,13866 8961,13837 8993,13810 9028,13787 9062,13764 9099,13744 9137,13729 9175,13713 9215,13701 9255,13693 9296,13685 9337,13680 9378,13680 9420,13680 9461,13685 9501,13693 9542,13701 9581,13713 9620,13729 9658,13744 9694,13764 9729,13787 9763,13810 9795,13837 9824,13866 9854,13896 9881,13928 9904,13962 9927,13996 9946,14033 9962,14071 9978,14109 9990,14149 9998,14189 10006,14230 10010,14271 10010,14313 Z"/>
   </g>
  </g>
  <g class="com.sun.star.drawing.OpenBezierShape">
   <g id="id32">
    <rect class="BoundingBox" stroke="none" fill="none" x="8732" y="11210" width="696" height="753"/>
    <path fill="none" stroke="rgb(0,0,0)" stroke-width="63" stroke-linejoin="miter" d="M 8732,11930 C 9174,11930 9395,11691 9395,11211"/>
   </g>
  </g>
  <g class="com.sun.star.drawing.PolyPolygonShape">
   <g id="id33">
    <rect class="BoundingBox" stroke="none" fill="none" x="9310" y="11022" width="170" height="254"/>
    <path fill="rgb(0,0,0)" stroke="none" d="M 9395,11022 L 9479,11275 9395,11211 9310,11275 9395,11022 Z"/>
   </g>
  </g>
  <g class="com.sun.star.drawing.PolyPolygonShape">
   <g id="id34">
    <rect class="BoundingBox" stroke="none" fill="none" x="9247" y="10922" width="296" height="441"/>
    <path fill="none" stroke="rgb(0,0,0)" stroke-width="63" stroke-linejoin="miter" d="M 9395,11022 L 9479,11275 9395,11211 9310,11275 9395,11022 Z"/>
   </g>
  </g>
  <g class="com.sun.star.drawing.OpenBezierShape">
   <g id="id35">
    <rect class="BoundingBox" stroke="none" fill="none" x="9378" y="12529" width="1325" height="2454"/>
    <path fill="none" stroke="rgb(0,0,0)" stroke-width="94" stroke-linejoin="miter" d="M 9378,12576 C 9925,12576 10199,12971 10199,13759 10199,14549 10366,14940 10701,14934"/>
   </g>
  </g>
  <g class="com.sun.star.drawing.PolyPolygonShape">
   <g id="id36">
    <rect class="BoundingBox" stroke="none" fill="none" x="10627" y="14840" width="288" height="191"/>
    <path fill="rgb(0,0,0)" stroke="none" d="M 10914,14930 L 10632,15030 10701,14934 10627,14840 10914,14930 Z"/>
   </g>
  </g>
  <g class="com.sun.star.drawing.PolyPolygonShape">
   <g id="id37">
    <rect class="BoundingBox" stroke="none" fill="none" x="10496" y="14749" width="568" height="377"/>
    <path fill="none" stroke="rgb(0,0,0)" stroke-width="94" stroke-linejoin="miter" d="M 10914,14930 L 10632,15030 10701,14934 10627,14840 10914,14930 Z"/>
   </g>
  </g>
  <g class="com.sun.star.drawing.ClosedBezierShape">
   <g id="id38">
    <rect class="BoundingBox" stroke="none" fill="none" x="8117" y="11945" width="1263" height="1264"/>
    <path fill="rgb(245,245,245)" stroke="none" d="M 9379,12577 C 9379,12619 9375,12660 9367,12700 9359,12741 9347,12780 9331,12819 9315,12857 9296,12893 9273,12928 9250,12962 9224,12994 9194,13023 9165,13053 9133,13079 9099,13102 9064,13125 9028,13144 8990,13160 8952,13176 8912,13188 8871,13196 8831,13204 8790,13208 8748,13208 8707,13208 8666,13204 8625,13196 8584,13188 8544,13176 8506,13160 8468,13144 8431,13125 8397,13102 8363,13079 8331,13053 8301,13023 8272,12994 8246,12962 8223,12928 8200,12893 8181,12857 8165,12819 8149,12780 8137,12741 8129,12700 8121,12660 8117,12619 8117,12577 8117,12535 8121,12494 8129,12453 8137,12412 8149,12373 8165,12335 8181,12296 8200,12260 8223,12226 8246,12191 8272,12159 8301,12130 8331,12101 8363,12074 8397,12051 8431,12028 8468,12009 8506,11993 8544,11977 8584,11965 8625,11957 8666,11949 8707,11945 8748,11945 8790,11945 8831,11949 8871,11957 8912,11965 8952,11977 8990,11993 9028,12009 9064,12028 9099,12051 9133,12074 9165,12101 9194,12130 9224,12159 9250,12191 9273,12226 9296,12260 9315,12296 9331,12335 9347,12373 9359,12412 9367,12453 9375,12494 9379,12535 9379,12577 Z"/>
   </g>
  </g>
  <g class="com.sun.star.drawing.ClosedBezierShape">
   <g id="id39">
    <rect class="BoundingBox" stroke="none" fill="none" x="8070" y="11898" width="1357" height="1358"/>
    <path fill="none" stroke="rgb(102,102,102)" stroke-width="94" stroke-linejoin="miter" d="M 9379,12577 C 9379,12619 9375,12660 9367,12700 9359,12741 9347,12780 9331,12819 9315,12857 9296,12893 9273,12928 9250,12962 9224,12994 9194,13023 9165,13053 9133,13079 9099,13102 9064,13125 9028,13144 8990,13160 8952,13176 8912,13188 8871,13196 8831,13204 8790,13208 8748,13208 8707,13208 8666,13204 8625,13196 8584,13188 8544,13176 8506,13160 8468,13144 8431,13125 8397,13102 8363,13079 8331,13053 8301,13023 8272,12994 8246,12962 8223,12928 8200,12893 8181,12857 8165,12819 8149,12780 8137,12741 8129,12700 8121,12660 8117,12619 8117,12577 8117,12535 8121,12494 8129,12453 8137,12412 8149,12373 8165,12335 8181,12296 8200,12260 8223,12226 8246,12191 8272,12159 8301,12130 8331,12101 8363,12074 8397,12051 8431,12028 8468,12009 8506,11993 8544,11977 8584,11965 8625,11957 8666,11949 8707,11945 8748,11945 8790,11945 8831,11949 8871,11957 8912,11965 8952,11977 8990,11993 9028,12009 9064,12028 9099,12051 9133,12074 9165,12101 9194,12130 9224,12159 9250,12191 9273,12226 9296,12260 9315,12296 9331,12335 9347,12373 9359,12412 9367,12453 9375,12494 9379,12535 9379,12577 Z"/>
   </g>
  </g>
  <g class="com.sun.star.drawing.OpenBezierShape">
   <g id="id40">
    <rect class="BoundingBox" stroke="none" fill="none" x="11065" y="13294" width="602" height="988"/>
    <path fill="none" stroke="rgb(0,0,0)" stroke-width="63" stroke-linejoin="miter" d="M 11634,14281 C 11634,13870 11545,13665 11366,13665 11186,13665 11097,13541 11097,13294"/>
   </g>
  </g>
  <g class="com.sun.star.drawing.PolyPolygonShape">
   <g id="id41">
    <rect class="BoundingBox" stroke="none" fill="none" x="11013" y="13104" width="170" height="255"/>
    <path fill="rgb(0,0,0)" stroke="none" d="M 11098,13104 L 11182,13358 11098,13295 11013,13358 11098,13104 Z"/>
   </g>
  </g>
  <g class="com.sun.star.drawing.PolyPolygonShape">
   <g id="id42">
    <rect class="BoundingBox" stroke="none" fill="none" x="10951" y="13004" width="294" height="441"/>
    <path fill="none" stroke="rgb(0,0,0)" stroke-width="63" stroke-linejoin="miter" d="M 11098,13104 L 11182,13358 11098,13295 11013,13358 11098,13104 Z"/>
   </g>
  </g>
  <g class="com.sun.star.drawing.OpenBezierShape">
   <g id="id43">
    <rect class="BoundingBox" stroke="none" fill="none" x="9340" y="15184" width="1886" height="660"/>
    <path fill="none" stroke="rgb(0,0,0)" stroke-width="63" stroke-linejoin="miter" d="M 11193,15369 C 11193,15663 10893,15811 10294,15811 9695,15811 9387,15602 9372,15186"/>
   </g>
  </g>
  <g class="com.sun.star.drawing.PolyPolygonShape">
   <g id="id44">
    <rect class="BoundingBox" stroke="none" fill="none" x="9290" y="14997" width="170" height="257"/>
    <path fill="rgb(0,0,0)" stroke="none" d="M 9365,14997 L 9459,15247 9372,15187 9290,15253 9365,14997 Z"/>
   </g>
  </g>
  <g class="com.sun.star.drawing.PolyPolygonShape">
   <g id="id45">
    <rect class="BoundingBox" stroke="none" fill="none" x="9231" y="14897" width="294" height="445"/>
    <path fill="none" stroke="rgb(0,0,0)" stroke-width="63" stroke-linejoin="miter" d="M 9365,14997 L 9459,15247 9372,15187 9290,15253 9365,14997 Z"/>
   </g>
  </g>
  <g class="com.sun.star.drawing.ClosedBezierShape">
   <g id="id46">
    <rect class="BoundingBox" stroke="none" fill="none" x="11018" y="14296" width="1264" height="1264"/>
    <path fill="rgb(245,245,245)" stroke="none" d="M 12281,14927 C 12281,14968 12277,15009 12269,15050 12261,15092 12249,15131 12233,15169 12217,15208 12197,15244 12174,15278 12151,15313 12125,15345 12096,15374 12067,15403 12035,15429 12000,15452 11966,15476 11930,15495 11891,15511 11853,15527 11814,15539 11773,15547 11732,15555 11691,15559 11650,15559 11609,15559 11568,15555 11527,15547 11486,15539 11447,15527 11409,15511 11370,15495 11334,15476 11300,15452 11265,15429 11233,15403 11204,15374 11175,15345 11149,15313 11125,15278 11101,15244 11082,15208 11066,15169 11050,15131 11038,15092 11030,15050 11022,15009 11018,14968 11018,14927 11018,14885 11022,14844 11030,14804 11038,14763 11050,14724 11066,14685 11082,14647 11101,14611 11125,14576 11149,14542 11175,14510 11204,14481 11233,14451 11265,14425 11300,14402 11334,14379 11370,14360 11409,14344 11447,14328 11486,14316 11527,14308 11568,14300 11609,14296 11650,14296 11691,14296 11732,14300 11773,14308 11814,14316 11853,14328 11891,14344 11930,14360 11966,14379 12000,14402 12035,14425 12067,14451 12096,14481 12125,14510 12151,14542 12174,14576 12197,14611 12217,14647 12233,14685 12249,14724 12261,14763 12269,14804 12277,14844 12281,14885 12281,14927 Z"/>
   </g>
  </g>
  <g class="com.sun.star.drawing.ClosedBezierShape">
   <g id="id47">
    <rect class="BoundingBox" stroke="none" fill="none" x="10971" y="14249" width="1358" height="1358"/>
    <path fill="none" stroke="rgb(102,102,102)" stroke-width="94" stroke-linejoin="miter" d="M 12281,14927 C 12281,14968 12277,15009 12269,15050 12261,15092 12249,15131 12233,15169 12217,15208 12197,15244 12174,15278 12151,15313 12125,15345 12096,15374 12067,15403 12035,15429 12000,15453 11966,15476 11930,15495 11891,15511 11853,15527 11814,15539 11773,15547 11732,15555 11691,15559 11650,15559 11609,15559 11568,15555 11527,15547 11486,15539 11447,15527 11409,15511 11370,15495 11334,15476 11300,15453 11265,15429 11233,15403 11204,15374 11175,15345 11149,15313 11125,15278 11102,15244 11082,15208 11066,15169 11050,15131 11038,15092 11030,15050 11022,15009 11018,14968 11018,14927 11018,14885 11022,14844 11030,14804 11038,14763 11050,14724 11066,14685 11082,14647 11102,14611 11125,14576 11149,14542 11175,14510 11204,14481 11233,14451 11265,14425 11300,14402 11334,14379 11370,14360 11409,14344 11447,14328 11486,14316 11527,14308 11568,14300 11609,14296 11650,14296 11691,14296 11732,14300 11773,14308 11814,14316 11853,14328 11891,14344 11930,14360 11966,14379 12000,14402 12035,14425 12067,14451 12096,14481 12125,14510 12151,14542 12174,14576 12197,14611 12217,14647 12233,14685 12249,14724 12261,14763 12269,14804 12277,14844 12281,14885 12281,14927 Z"/>
   </g>
  </g>
  <g class="com.sun.star.drawing.OpenBezierShape">
   <g id="id48">
    <rect class="BoundingBox" stroke="none" fill="none" x="11065" y="10923" width="551" height="549"/>
    <path fill="none" stroke="rgb(0,0,0)" stroke-width="94" stroke-linejoin="miter" d="M 11614,10971 C 11280,10968 11113,11134 11113,11470"/>
   </g>
  </g>
  <g class="com.sun.star.drawing.PolyPolygonShape">
   <g id="id49">
    <rect class="BoundingBox" stroke="none" fill="none" x="11017" y="11398" width="192" height="286"/>
    <path fill="rgb(0,0,0)" stroke="none" d="M 11114,11683 L 11018,11398 11114,11469 11208,11398 11114,11683 Z"/>
   </g>
  </g>
  <g class="com.sun.star.drawing.PolyPolygonShape">
   <g id="id50">
    <rect class="BoundingBox" stroke="none" fill="none" x="10925" y="11269" width="376" height="564"/>
    <path fill="none" stroke="rgb(0,0,0)" stroke-width="94" stroke-linejoin="miter" d="M 11114,11683 L 11018,11398 11114,11469 11208,11398 11114,11683 Z"/>
   </g>
  </g>
  <g class="com.sun.star.drawing.ClosedBezierShape">
   <g id="id51">
    <rect class="BoundingBox" stroke="none" fill="none" x="11428" y="9894" width="1264" height="1264"/>
    <path fill="rgb(245,245,245)" stroke="none" d="M 12691,10526 C 12691,10568 12687,10609 12679,10649 12671,10690 12659,10729 12643,10768 12627,10806 12607,10842 12584,10877 12561,10911 12535,10943 12506,10972 12477,11002 12445,11028 12410,11051 12375,11074 12339,11093 12300,11109 12262,11125 12223,11137 12182,11145 12141,11153 12100,11157 12059,11157 12018,11157 11977,11153 11936,11145 11895,11137 11856,11125 11818,11109 11779,11093 11743,11074 11709,11051 11674,11028 11642,11002 11613,10972 11584,10943 11558,10911 11535,10877 11512,10842 11492,10806 11476,10768 11460,10729 11448,10690 11440,10649 11432,10609 11428,10568 11428,10526 11428,10485 11432,10444 11440,10403 11448,10363 11460,10323 11476,10285 11492,10246 11512,10210 11535,10176 11558,10141 11584,10109 11613,10080 11642,10051 11674,10024 11709,10001 11743,9978 11779,9958 11818,9942 11856,9926 11895,9914 11936,9906 11977,9898 12018,9894 12059,9894 12100,9894 12141,9898 12182,9906 12223,9914 12262,9926 12300,9942 12339,9958 12375,9978 12410,10001 12445,10024 12477,10051 12506,10080 12535,10109 12561,10141 12584,10176 12607,10210 12627,10246 12643,10285 12659,10323 12671,10363 12679,10403 12687,10444 12691,10485 12691,10526 Z"/>
   </g>
  </g>
  <g class="com.sun.star.drawing.ClosedBezierShape">
   <g id="id52">
    <rect class="BoundingBox" stroke="none" fill="none" x="11381" y="9847" width="1358" height="1358"/>
    <path fill="none" stroke="rgb(102,102,102)" stroke-width="94" stroke-linejoin="miter" d="M 12691,10526 C 12691,10568 12687,10609 12679,10649 12671,10690 12659,10729 12643,10768 12627,10806 12607,10842 12584,10877 12561,10911 12535,10943 12506,10972 12477,11002 12445,11028 12410,11051 12375,11074 12339,11093 12300,11109 12262,11125 12223,11137 12182,11145 12141,11153 12100,11157 12059,11157 12018,11157 11977,11153 11936,11145 11895,11137 11856,11125 11818,11109 11779,11093 11743,11074 11709,11051 11674,11028 11642,11002 11613,10972 11584,10943 11558,10911 11535,10877 11512,10842 11492,10806 11476,10768 11460,10729 11448,10690 11440,10649 11432,10609 11428,10568 11428,10526 11428,10485 11432,10444 11440,10403 11448,10363 11460,10323 11476,10285 11492,10246 11512,10210 11535,10176 11558,10141 11584,10109 11613,10080 11642,10051 11674,10024 11709,10001 11743,9978 11779,9958 11818,9942 11856,9926 11895,9914 11936,9906 11977,9898 12018,9894 12059,9894 12100,9894 12141,9898 12182,9906 12223,9914 12262,9926 12300,9942 12339,9958 12375,9978 12410,10001 12445,10024 12477,10051 12506,10080 12535,10109 12561,10141 12584,10176 12607,10210 12627,10246 12643,10285 12659,10323 12671,10363 12679,10403 12687,10444 12691,10485 12691,10526 Z"/>
   </g>
  </g>
  <g class="com.sun.star.drawing.OpenBezierShape">
   <g id="id53">
    <rect class="BoundingBox" stroke="none" fill="none" x="5577" y="10477" width="3370" height="430"/>
    <path fill="none" stroke="rgb(85,48,141)" stroke-width="63" stroke-linejoin="miter" d="M 5578,10873 C 6798,10884 7408,10826 7408,10699 7408,10573 7921,10509 8946,10509"/>
   </g>
  </g>
  <g class="com.sun.star.drawing.PolyPolygonShape">
   <g id="id54">
    <rect class="BoundingBox" stroke="none" fill="none" x="8882" y="10383" width="254" height="255"/>
    <path fill="rgb(130,179,102)" stroke="none" d="M 9135,10510 L 8882,10637 8945,10510 8882,10383 9135,10510 Z"/>
   </g>
  </g>
  <g class="com.sun.star.drawing.PolyPolygonShape">
   <g id="id55">
    <rect class="BoundingBox" stroke="none" fill="none" x="8811" y="10312" width="396" height="397"/>
    <path fill="none" stroke="rgb(85,48,141)" stroke-width="63" stroke-linejoin="miter" d="M 9135,10510 L 8882,10637 8945,10510 8882,10383 9135,10510 Z"/>
   </g>
  </g>
  <g class="com.sun.star.drawing.OpenBezierShape">
   <g id="id56">
    <rect class="BoundingBox" stroke="none" fill="none" x="5577" y="10840" width="3189" height="831"/>
    <path fill="none" stroke="rgb(85,48,141)" stroke-width="63" stroke-linejoin="miter" d="M 5578,10872 C 7681,10883 8733,11149 8733,11670"/>
   </g>
  </g>
  <g class="com.sun.star.drawing.PolyPolygonShape">
   <g id="id57">
    <rect class="BoundingBox" stroke="none" fill="none" x="8605" y="11606" width="255" height="255"/>
    <path fill="rgb(85,48,141)" stroke="none" d="M 8732,11860 L 8606,11606 8732,11669 8859,11606 8732,11860 Z"/>
   </g>
  </g>
  <g class="com.sun.star.drawing.PolyPolygonShape">
   <g id="id58">
    <rect class="BoundingBox" stroke="none" fill="none" x="8536" y="11535" width="395" height="397"/>
    <path fill="none" stroke="rgb(85,48,141)" stroke-width="63" stroke-linejoin="miter" d="M 8732,11860 L 8606,11606 8732,11669 8859,11606 8732,11860 Z"/>
   </g>
  </g>
  <g class="com.sun.star.drawing.OpenBezierShape">
   <g id="id59">
    <rect class="BoundingBox" stroke="none" fill="none" x="5593" y="10478" width="3311" height="1975"/>
    <path fill="none" stroke="rgb(85,48,141)" stroke-width="94" stroke-linejoin="miter" d="M 5594,12404 C 6814,12414 7424,12104 7424,11473 7424,10841 7917,10525 8903,10525"/>
   </g>
  </g>
  <g class="com.sun.star.drawing.PolyPolygonShape">
   <g id="id60">
    <rect class="BoundingBox" stroke="none" fill="none" x="8831" y="10383" width="286" height="286"/>
    <path fill="rgb(85,48,141)" stroke="none" d="M 9116,10525 L 8831,10668 8902,10525 8831,10383 9116,10525 Z"/>
   </g>
  </g>
  <g class="com.sun.star.drawing.PolyPolygonShape">
   <g id="id61">
    <rect class="BoundingBox" stroke="none" fill="none" x="8726" y="10278" width="497" height="497"/>
    <path fill="none" stroke="rgb(85,48,141)" stroke-width="94" stroke-linejoin="miter" d="M 9116,10525 L 8831,10668 8902,10525 8831,10383 9116,10525 Z"/>
   </g>
  </g>
  <g class="com.sun.star.drawing.OpenBezierShape">
   <g id="id62">
    <rect class="BoundingBox" stroke="none" fill="none" x="5593" y="13902" width="2838" height="460"/>
    <path fill="none" stroke="rgb(85,48,141)" stroke-width="94" stroke-linejoin="miter" d="M 5594,13949 C 6645,13959 7170,14023 7170,14139 7170,14255 7591,14313 8430,14313"/>
   </g>
  </g>
  <g class="com.sun.star.drawing.PolyPolygonShape">
   <g id="id63">
    <rect class="BoundingBox" stroke="none" fill="none" x="8358" y="14170" width="286" height="286"/>
    <path fill="rgb(85,48,141)" stroke="none" d="M 8643,14313 L 8358,14455 8430,14313 8358,14170 8643,14313 Z"/>
   </g>
  </g>
  <g class="com.sun.star.drawing.PolyPolygonShape">
   <g id="id64">
    <rect class="BoundingBox" stroke="none" fill="none" x="8251" y="14064" width="499" height="498"/>
    <path fill="none" stroke="rgb(85,48,141)" stroke-width="94" stroke-linejoin="miter" d="M 8643,14313 L 8358,14455 8430,14313 8358,14170 8643,14313 Z"/>
   </g>
  </g>
  <g class="com.sun.star.drawing.OpenBezierShape">
   <g id="id65">
    <rect class="BoundingBox" stroke="none" fill="none" x="5593" y="12560" width="2325" height="1407"/>
    <path fill="none" stroke="rgb(85,48,141)" stroke-width="31" stroke-linejoin="miter" d="M 5594,13950 C 6435,13960 6856,13734 6856,13271 6856,12808 7210,12576 7917,12576"/>
   </g>
  </g>
  <g class="com.sun.star.drawing.PolyPolygonShape">
   <g id="id66">
    <rect class="BoundingBox" stroke="none" fill="none" x="7861" y="12466" width="223" height="223"/>
    <path fill="rgb(85,48,141)" stroke="none" d="M 8082,12577 L 7861,12688 7916,12577 7861,12466 8082,12577 Z"/>
   </g>
  </g>
  <g class="com.sun.star.drawing.PolyPolygonShape">
   <g id="id67">
    <rect class="BoundingBox" stroke="none" fill="none" x="7826" y="12431" width="292" height="293"/>
    <path fill="none" stroke="rgb(85,48,141)" stroke-width="31" stroke-linejoin="miter" d="M 8082,12577 L 7861,12688 7916,12577 7861,12466 8082,12577 Z"/>
   </g>
  </g>
 </g>
</svg>
