<?xml version="1.0" encoding="utf-8" standalone="no"?>
<!DOCTYPE svg PUBLIC "-//W3C//DTD SVG 1.1//EN"
  "http://www.w3.org/Graphics/SVG/1.1/DTD/svg11.dtd">
<!-- Created with matplotlib (https://matplotlib.org/) -->
<svg height="360pt" version="1.1" viewBox="0 0 720 360" width="720pt" xmlns="http://www.w3.org/2000/svg" xmlns:xlink="http://www.w3.org/1999/xlink">
 <metadata>
  <rdf:RDF xmlns:cc="http://creativecommons.org/ns#" xmlns:dc="http://purl.org/dc/elements/1.1/" xmlns:rdf="http://www.w3.org/1999/02/22-rdf-syntax-ns#">
   <cc:Work>
    <dc:type rdf:resource="http://purl.org/dc/dcmitype/StillImage"/>
    <dc:date>2021-02-03T11:59:41.650736</dc:date>
    <dc:format>image/svg+xml</dc:format>
    <dc:creator>
     <cc:Agent>
      <dc:title>Matplotlib v3.3.3, https://matplotlib.org/</dc:title>
     </cc:Agent>
    </dc:creator>
   </cc:Work>
  </rdf:RDF>
 </metadata>
 <defs>
  <style type="text/css">*{stroke-linecap:butt;stroke-linejoin:round;}</style>
 </defs>
 <g id="figure_1">
  <g id="patch_1">
   <path d="M 0 360
L 720 360
L 720 0
L 0 0
z
" style="fill:#ffffff;"/>
  </g>
  <g id="axes_1">
   <g id="patch_2">
    <path d="M 57.47 155
L 536.94 155
L 536.94 12.96
L 57.47 12.96
z
" style="fill:#ffffff;"/>
   </g>
   <g id="matplotlib.axis_1">
    <g id="xtick_1">
     <g id="line2d_1">
      <defs>
       <path d="M 0 0
L 0 3.5
" id="m90f1cc695d" style="stroke:#000000;stroke-width:0.8;"/>
      </defs>
      <g>
       <use style="stroke:#000000;stroke-width:0.8;" x="57.47" xlink:href="#m90f1cc695d" y="155"/>
      </g>
     </g>
     <g id="text_1">
      <!-- 0 -->
      <g transform="translate(53.6525 171.118125)scale(0.12 -0.12)">
       <defs>
        <path d="M 31.78125 66.40625
Q 24.171875 66.40625 20.328125 58.90625
Q 16.5 51.421875 16.5 36.375
Q 16.5 21.390625 20.328125 13.890625
Q 24.171875 6.390625 31.78125 6.390625
Q 39.453125 6.390625 43.28125 13.890625
Q 47.125 21.390625 47.125 36.375
Q 47.125 51.421875 43.28125 58.90625
Q 39.453125 66.40625 31.78125 66.40625
z
M 31.78125 74.21875
Q 44.046875 74.21875 50.515625 64.515625
Q 56.984375 54.828125 56.984375 36.375
Q 56.984375 17.96875 50.515625 8.265625
Q 44.046875 -1.421875 31.78125 -1.421875
Q 19.53125 -1.421875 13.0625 8.265625
Q 6.59375 17.96875 6.59375 36.375
Q 6.59375 54.828125 13.0625 64.515625
Q 19.53125 74.21875 31.78125 74.21875
z
" id="DejaVuSans-48"/>
       </defs>
       <use xlink:href="#DejaVuSans-48"/>
      </g>
     </g>
    </g>
    <g id="xtick_2">
     <g id="line2d_2">
      <g>
       <use style="stroke:#000000;stroke-width:0.8;" x="153.556172" xlink:href="#m90f1cc695d" y="155"/>
      </g>
     </g>
     <g id="text_2">
      <!-- 100 -->
      <g transform="translate(142.103672 171.118125)scale(0.12 -0.12)">
       <defs>
        <path d="M 12.40625 8.296875
L 28.515625 8.296875
L 28.515625 63.921875
L 10.984375 60.40625
L 10.984375 69.390625
L 28.421875 72.90625
L 38.28125 72.90625
L 38.28125 8.296875
L 54.390625 8.296875
L 54.390625 0
L 12.40625 0
z
" id="DejaVuSans-49"/>
       </defs>
       <use xlink:href="#DejaVuSans-49"/>
       <use x="63.623047" xlink:href="#DejaVuSans-48"/>
       <use x="127.246094" xlink:href="#DejaVuSans-48"/>
      </g>
     </g>
    </g>
    <g id="xtick_3">
     <g id="line2d_3">
      <g>
       <use style="stroke:#000000;stroke-width:0.8;" x="249.642345" xlink:href="#m90f1cc695d" y="155"/>
      </g>
     </g>
     <g id="text_3">
      <!-- 200 -->
      <g transform="translate(238.189845 171.118125)scale(0.12 -0.12)">
       <defs>
        <path d="M 19.1875 8.296875
L 53.609375 8.296875
L 53.609375 0
L 7.328125 0
L 7.328125 8.296875
Q 12.9375 14.109375 22.625 23.890625
Q 32.328125 33.6875 34.8125 36.53125
Q 39.546875 41.84375 41.421875 45.53125
Q 43.3125 49.21875 43.3125 52.78125
Q 43.3125 58.59375 39.234375 62.25
Q 35.15625 65.921875 28.609375 65.921875
Q 23.96875 65.921875 18.8125 64.3125
Q 13.671875 62.703125 7.8125 59.421875
L 7.8125 69.390625
Q 13.765625 71.78125 18.9375 73
Q 24.125 74.21875 28.421875 74.21875
Q 39.75 74.21875 46.484375 68.546875
Q 53.21875 62.890625 53.21875 53.421875
Q 53.21875 48.921875 51.53125 44.890625
Q 49.859375 40.875 45.40625 35.40625
Q 44.1875 33.984375 37.640625 27.21875
Q 31.109375 20.453125 19.1875 8.296875
z
" id="DejaVuSans-50"/>
       </defs>
       <use xlink:href="#DejaVuSans-50"/>
       <use x="63.623047" xlink:href="#DejaVuSans-48"/>
       <use x="127.246094" xlink:href="#DejaVuSans-48"/>
      </g>
     </g>
    </g>
    <g id="xtick_4">
     <g id="line2d_4">
      <g>
       <use style="stroke:#000000;stroke-width:0.8;" x="345.728517" xlink:href="#m90f1cc695d" y="155"/>
      </g>
     </g>
     <g id="text_4">
      <!-- 300 -->
      <g transform="translate(334.276017 171.118125)scale(0.12 -0.12)">
       <defs>
        <path d="M 40.578125 39.3125
Q 47.65625 37.796875 51.625 33
Q 55.609375 28.21875 55.609375 21.1875
Q 55.609375 10.40625 48.1875 4.484375
Q 40.765625 -1.421875 27.09375 -1.421875
Q 22.515625 -1.421875 17.65625 -0.515625
Q 12.796875 0.390625 7.625 2.203125
L 7.625 11.71875
Q 11.71875 9.328125 16.59375 8.109375
Q 21.484375 6.890625 26.8125 6.890625
Q 36.078125 6.890625 40.9375 10.546875
Q 45.796875 14.203125 45.796875 21.1875
Q 45.796875 27.640625 41.28125 31.265625
Q 36.765625 34.90625 28.71875 34.90625
L 20.21875 34.90625
L 20.21875 43.015625
L 29.109375 43.015625
Q 36.375 43.015625 40.234375 45.921875
Q 44.09375 48.828125 44.09375 54.296875
Q 44.09375 59.90625 40.109375 62.90625
Q 36.140625 65.921875 28.71875 65.921875
Q 24.65625 65.921875 20.015625 65.03125
Q 15.375 64.15625 9.8125 62.3125
L 9.8125 71.09375
Q 15.4375 72.65625 20.34375 73.4375
Q 25.25 74.21875 29.59375 74.21875
Q 40.828125 74.21875 47.359375 69.109375
Q 53.90625 64.015625 53.90625 55.328125
Q 53.90625 49.265625 50.4375 45.09375
Q 46.96875 40.921875 40.578125 39.3125
z
" id="DejaVuSans-51"/>
       </defs>
       <use xlink:href="#DejaVuSans-51"/>
       <use x="63.623047" xlink:href="#DejaVuSans-48"/>
       <use x="127.246094" xlink:href="#DejaVuSans-48"/>
      </g>
     </g>
    </g>
    <g id="xtick_5">
     <g id="line2d_5">
      <g>
       <use style="stroke:#000000;stroke-width:0.8;" x="441.814689" xlink:href="#m90f1cc695d" y="155"/>
      </g>
     </g>
     <g id="text_5">
      <!-- 400 -->
      <g transform="translate(430.362189 171.118125)scale(0.12 -0.12)">
       <defs>
        <path d="M 37.796875 64.3125
L 12.890625 25.390625
L 37.796875 25.390625
z
M 35.203125 72.90625
L 47.609375 72.90625
L 47.609375 25.390625
L 58.015625 25.390625
L 58.015625 17.1875
L 47.609375 17.1875
L 47.609375 0
L 37.796875 0
L 37.796875 17.1875
L 4.890625 17.1875
L 4.890625 26.703125
z
" id="DejaVuSans-52"/>
       </defs>
       <use xlink:href="#DejaVuSans-52"/>
       <use x="63.623047" xlink:href="#DejaVuSans-48"/>
       <use x="127.246094" xlink:href="#DejaVuSans-48"/>
      </g>
     </g>
    </g>
   </g>
   <g id="matplotlib.axis_2">
    <g id="ytick_1">
     <g id="line2d_6">
      <defs>
       <path d="M 0 0
L -3.5 0
" id="m7e5c151e5b" style="stroke:#000000;stroke-width:0.8;"/>
      </defs>
      <g>
       <use style="stroke:#000000;stroke-width:0.8;" x="57.47" xlink:href="#m7e5c151e5b" y="132.927356"/>
      </g>
     </g>
     <g id="text_6">
      <!-- −2 -->
      <g transform="translate(32.779375 137.486418)scale(0.12 -0.12)">
       <defs>
        <path d="M 10.59375 35.5
L 73.1875 35.5
L 73.1875 27.203125
L 10.59375 27.203125
z
" id="DejaVuSans-8722"/>
       </defs>
       <use xlink:href="#DejaVuSans-8722"/>
       <use x="83.789062" xlink:href="#DejaVuSans-50"/>
      </g>
     </g>
    </g>
    <g id="ytick_2">
     <g id="line2d_7">
      <g>
       <use style="stroke:#000000;stroke-width:0.8;" x="57.47" xlink:href="#m7e5c151e5b" y="84.30728"/>
      </g>
     </g>
     <g id="text_7">
      <!-- 0 -->
      <g transform="translate(42.835 88.866342)scale(0.12 -0.12)">
       <use xlink:href="#DejaVuSans-48"/>
      </g>
     </g>
    </g>
    <g id="ytick_3">
     <g id="line2d_8">
      <g>
       <use style="stroke:#000000;stroke-width:0.8;" x="57.47" xlink:href="#m7e5c151e5b" y="35.687204"/>
      </g>
     </g>
     <g id="text_8">
      <!-- 2 -->
      <g transform="translate(42.835 40.246267)scale(0.12 -0.12)">
       <use xlink:href="#DejaVuSans-50"/>
      </g>
     </g>
    </g>
    <g id="text_9">
     <!-- $\sin(x)$ -->
     <g transform="translate(25.451875 106.46)rotate(-90)scale(0.16 -0.16)">
      <defs>
       <path d="M 44.28125 53.078125
L 44.28125 44.578125
Q 40.484375 46.53125 36.375 47.5
Q 32.28125 48.484375 27.875 48.484375
Q 21.1875 48.484375 17.84375 46.4375
Q 14.5 44.390625 14.5 40.28125
Q 14.5 37.15625 16.890625 35.375
Q 19.28125 33.59375 26.515625 31.984375
L 29.59375 31.296875
Q 39.15625 29.25 43.1875 25.515625
Q 47.21875 21.78125 47.21875 15.09375
Q 47.21875 7.46875 41.1875 3.015625
Q 35.15625 -1.421875 24.609375 -1.421875
Q 20.21875 -1.421875 15.453125 -0.5625
Q 10.6875 0.296875 5.421875 2
L 5.421875 11.28125
Q 10.40625 8.6875 15.234375 7.390625
Q 20.0625 6.109375 24.8125 6.109375
Q 31.15625 6.109375 34.5625 8.28125
Q 37.984375 10.453125 37.984375 14.40625
Q 37.984375 18.0625 35.515625 20.015625
Q 33.0625 21.96875 24.703125 23.78125
L 21.578125 24.515625
Q 13.234375 26.265625 9.515625 29.90625
Q 5.8125 33.546875 5.8125 39.890625
Q 5.8125 47.609375 11.28125 51.796875
Q 16.75 56 26.8125 56
Q 31.78125 56 36.171875 55.265625
Q 40.578125 54.546875 44.28125 53.078125
z
" id="DejaVuSans-115"/>
       <path d="M 9.421875 54.6875
L 18.40625 54.6875
L 18.40625 0
L 9.421875 0
z
M 9.421875 75.984375
L 18.40625 75.984375
L 18.40625 64.59375
L 9.421875 64.59375
z
" id="DejaVuSans-105"/>
       <path d="M 54.890625 33.015625
L 54.890625 0
L 45.90625 0
L 45.90625 32.71875
Q 45.90625 40.484375 42.875 44.328125
Q 39.84375 48.1875 33.796875 48.1875
Q 26.515625 48.1875 22.3125 43.546875
Q 18.109375 38.921875 18.109375 30.90625
L 18.109375 0
L 9.078125 0
L 9.078125 54.6875
L 18.109375 54.6875
L 18.109375 46.1875
Q 21.34375 51.125 25.703125 53.5625
Q 30.078125 56 35.796875 56
Q 45.21875 56 50.046875 50.171875
Q 54.890625 44.34375 54.890625 33.015625
z
" id="DejaVuSans-110"/>
       <path d="M 31 75.875
Q 24.46875 64.65625 21.28125 53.65625
Q 18.109375 42.671875 18.109375 31.390625
Q 18.109375 20.125 21.3125 9.0625
Q 24.515625 -2 31 -13.1875
L 23.1875 -13.1875
Q 15.875 -1.703125 12.234375 9.375
Q 8.59375 20.453125 8.59375 31.390625
Q 8.59375 42.28125 12.203125 53.3125
Q 15.828125 64.359375 23.1875 75.875
z
" id="DejaVuSans-40"/>
       <path d="M 60.015625 54.6875
L 34.90625 27.875
L 50.296875 0
L 39.984375 0
L 28.421875 21.6875
L 8.296875 0
L -2.59375 0
L 24.3125 28.8125
L 10.015625 54.6875
L 20.3125 54.6875
L 30.8125 34.90625
L 49.125 54.6875
z
" id="DejaVuSans-Oblique-120"/>
       <path d="M 8.015625 75.875
L 15.828125 75.875
Q 23.140625 64.359375 26.78125 53.3125
Q 30.421875 42.28125 30.421875 31.390625
Q 30.421875 20.453125 26.78125 9.375
Q 23.140625 -1.703125 15.828125 -13.1875
L 8.015625 -13.1875
Q 14.5 -2 17.703125 9.0625
Q 20.90625 20.125 20.90625 31.390625
Q 20.90625 42.671875 17.703125 53.65625
Q 14.5 64.65625 8.015625 75.875
z
" id="DejaVuSans-41"/>
      </defs>
      <use transform="translate(0 0.015625)" xlink:href="#DejaVuSans-115"/>
      <use transform="translate(52.099609 0.015625)" xlink:href="#DejaVuSans-105"/>
      <use transform="translate(79.882812 0.015625)" xlink:href="#DejaVuSans-110"/>
      <use transform="translate(143.261719 0.015625)" xlink:href="#DejaVuSans-40"/>
      <use transform="translate(182.275391 0.015625)" xlink:href="#DejaVuSans-Oblique-120"/>
      <use transform="translate(241.455078 0.015625)" xlink:href="#DejaVuSans-41"/>
     </g>
    </g>
   </g>
   <g id="line2d_9">
    <path clip-path="url(#pd996ee37b8)" d="M 57.47 94.552513
L 58.430862 96.045922
L 59.391723 87.468018
L 60.352585 68.086491
L 61.313447 89.995054
L 62.274309 84.444952
L 63.23517 89.830564
L 64.196032 77.274996
L 65.156894 74.084877
L 66.117756 83.793403
L 67.078617 76.643888
L 68.039479 76.689466
L 69.961202 91.488911
L 70.922064 91.792723
L 71.882926 73.858499
L 72.843788 71.346657
L 73.804649 72.580024
L 74.765511 85.537661
L 75.726373 67.350479
L 76.687234 70.131599
L 77.648096 70.487723
L 78.608958 72.043167
L 79.56982 69.047956
L 80.530681 84.698806
L 81.491543 77.522145
L 82.452405 69.289106
L 84.374128 55.110615
L 85.33499 73.802068
L 86.295852 84.047188
L 87.256713 61.102528
L 89.178437 36.700529
L 90.139299 59.500013
L 91.10016 47.836999
L 92.061022 60.37459
L 93.021884 54.148467
L 93.982745 57.23102
L 94.943607 81.053831
L 95.904469 61.71125
L 96.865331 64.989319
L 97.826192 70.002382
L 98.787054 42.747426
L 99.747916 62.864661
L 100.708778 67.433284
L 101.669639 67.674824
L 102.630501 70.799528
L 103.591363 61.813094
L 104.552224 66.477105
L 105.513086 95.484077
L 106.473948 61.656369
L 107.43481 58.440916
L 108.395671 76.09613
L 109.356533 75.099927
L 110.317395 67.194446
L 111.278257 75.183252
L 112.239118 56.148991
L 113.19998 62.778603
L 114.160842 57.312
L 116.082565 74.38176
L 117.043427 74.639157
L 118.004289 51.849642
L 118.96515 50.228649
L 119.926012 67.154358
L 120.886874 74.31998
L 121.847735 55.500727
L 122.808597 60.609854
L 123.769459 69.576694
L 124.730321 69.666183
L 125.691182 59.731116
L 126.652044 66.524346
L 127.612906 58.004158
L 128.573768 62.657003
L 129.534629 74.577285
L 130.495491 65.342139
L 131.456353 58.713838
L 132.417214 56.345175
L 133.378076 51.322854
L 134.338938 52.356722
L 135.2998 66.337882
L 136.260661 68.546647
L 137.221523 84.824351
L 138.182385 83.023248
L 139.143246 85.721758
L 140.104108 70.077456
L 141.06497 59.585303
L 142.025832 68.935241
L 142.986693 98.038551
L 143.947555 63.081328
L 144.908417 71.348735
L 145.869279 63.561074
L 146.83014 54.52672
L 147.791002 73.677786
L 148.751864 89.979463
L 149.712725 74.395476
L 150.673587 66.476957
L 151.634449 72.307476
L 152.595311 89.328816
L 153.556172 82.463723
L 154.517034 68.158618
L 155.477896 71.693442
L 156.438758 63.197776
L 157.399619 59.140153
L 158.360481 74.395179
L 159.321343 99.581563
L 160.282204 80.136232
L 161.243066 95.004849
L 162.203928 55.405496
L 163.16479 91.236604
L 164.125651 68.081404
L 165.086513 68.969312
L 166.047375 68.345047
L 167.008236 74.225284
L 167.969098 74.943309
L 168.92996 74.267565
L 169.890822 78.560156
L 170.851683 74.751585
L 171.812545 90.468534
L 172.773407 85.489692
L 173.734269 87.358143
L 174.69513 99.649512
L 175.655992 91.243419
L 176.616854 61.873512
L 177.577715 87.288948
L 178.538577 89.981608
L 179.499439 98.21488
L 180.460301 69.91152
L 181.421162 88.612303
L 182.382024 81.384809
L 183.342886 75.037716
L 184.303747 65.992713
L 185.264609 77.388607
L 186.225471 92.876812
L 187.186333 86.172332
L 188.147194 89.087322
L 189.108056 99.475033
L 190.068918 74.824726
L 191.02978 89.060396
L 191.990641 63.761783
L 192.951503 82.446729
L 193.912365 114.081777
L 194.873226 94.825581
L 195.834088 88.19273
L 196.79495 86.901374
L 197.755812 107.941265
L 199.677535 87.089287
L 200.638397 88.556885
L 201.599259 95.225763
L 202.56012 107.722469
L 203.520982 72.788432
L 204.481844 110.132614
L 205.442705 100.564208
L 206.403567 106.747638
L 207.364429 117.612325
L 208.325291 80.32185
L 209.286152 109.936931
L 210.247014 93.24873
L 211.207876 106.714843
L 212.168737 104.525824
L 213.129599 126.24785
L 214.090461 114.726488
L 215.051323 94.928109
L 216.012184 90.763573
L 216.973046 103.689291
L 217.933908 122.822046
L 218.89477 91.319156
L 219.855631 123.34821
L 220.816493 79.953404
L 221.777355 118.417112
L 222.738216 93.523261
L 223.699078 107.354705
L 224.65994 93.762828
L 225.620802 96.986994
L 226.581663 96.842548
L 227.542525 101.632222
L 228.503387 127.598369
L 229.464248 94.04942
L 230.42511 126.843313
L 231.385972 88.844779
L 232.346834 108.395066
L 233.307695 97.02998
L 234.268557 118.765402
L 235.229419 127.917173
L 236.190281 101.258587
L 237.151142 148.543636
L 238.112004 103.869711
L 239.072866 114.468339
L 240.033727 96.495819
L 240.994589 106.155588
L 241.955451 109.826352
L 242.916313 94.976849
L 243.877174 109.865707
L 244.838036 120.966778
L 245.798898 104.713877
L 246.75976 107.17493
L 247.720621 92.197172
L 248.681483 92.789293
L 249.642345 103.771341
L 250.603206 108.941512
L 251.564068 118.649244
L 252.52493 101.85381
L 253.485792 90.431756
L 254.446653 98.856286
L 255.407515 98.473849
L 256.368377 103.172256
L 257.329238 110.207456
L 258.2901 114.889529
L 259.250962 107.708952
L 260.211824 119.110516
L 261.172685 118.29539
L 262.133547 104.753118
L 263.094409 114.149278
L 265.016132 84.387883
L 265.976994 111.106365
L 266.937856 102.777917
L 267.898717 118.535102
L 268.859579 92.734186
L 269.820441 108.931083
L 270.781303 93.064609
L 271.742164 87.068849
L 272.703026 108.607366
L 273.663888 87.131639
L 274.624749 79.199871
L 276.546473 89.603655
L 277.507335 92.257218
L 278.468196 96.738617
L 279.429058 76.801003
L 280.38992 98.21951
L 281.350782 66.592247
L 282.311643 113.898437
L 283.272505 88.695524
L 284.233367 85.423569
L 285.194228 85.861577
L 286.15509 104.251697
L 287.115952 94.967052
L 288.076814 94.24104
L 289.037675 115.959249
L 289.998537 102.893966
L 290.959399 87.094444
L 291.920261 97.700868
L 292.881122 94.372766
L 293.841984 86.080314
L 294.802846 76.354679
L 295.763707 94.613354
L 296.724569 99.053083
L 297.685431 104.836907
L 298.646293 89.295009
L 299.607154 100.931671
L 300.568016 103.45919
L 301.528878 104.074215
L 302.489739 99.114248
L 303.450601 73.483394
L 304.411463 75.541452
L 305.372325 78.358829
L 306.333186 73.893151
L 307.294048 84.051014
L 308.25491 84.201353
L 309.215772 89.633678
L 310.176633 57.31123
L 311.137495 65.80103
L 312.098357 88.004477
L 313.059218 81.592873
L 314.02008 62.092383
L 314.980942 90.78351
L 315.941804 59.188426
L 316.902665 61.961085
L 317.863527 80.159668
L 318.824389 54.930052
L 319.785251 80.470129
L 320.746112 70.571547
L 321.706974 46.098767
L 322.667836 77.573472
L 323.628697 63.724656
L 324.589559 65.609671
L 325.550421 68.690404
L 326.511283 92.738762
L 327.472144 75.96482
L 328.433006 65.239994
L 329.393868 73.43973
L 330.354729 51.724391
L 331.315591 70.158132
L 332.276453 55.404831
L 333.237315 78.051254
L 334.198176 56.068969
L 335.159038 66.519409
L 336.1199 64.665519
L 337.080762 63.312902
L 338.041623 67.734483
L 339.002485 50.018994
L 339.963347 53.850758
L 340.924208 52.185722
L 341.88507 61.113585
L 342.845932 79.144754
L 343.806794 57.280145
L 344.767655 66.700641
L 345.728517 87.357885
L 346.689379 65.428905
L 347.65024 54.510824
L 348.611102 75.650431
L 349.571964 53.66086
L 350.532826 46.103203
L 351.493687 84.502444
L 352.454549 42.896561
L 353.415411 56.846116
L 354.376273 41.872556
L 355.337134 53.655213
L 356.297996 54.088615
L 357.258858 76.940148
L 358.219719 64.139689
L 359.180581 46.650246
L 360.141443 42.195282
L 361.102305 72.585467
L 362.063166 65.593301
L 363.024028 79.156693
L 363.98489 74.0096
L 364.945752 49.01594
L 365.906613 19.416364
L 366.867475 72.570346
L 367.828337 65.90595
L 368.789198 80.973432
L 369.75006 58.508285
L 370.710922 70.855927
L 371.671784 68.056041
L 372.632645 51.730175
L 373.593507 46.270022
L 374.554369 54.844063
L 375.51523 62.378472
L 376.476092 57.068421
L 377.436954 65.149406
L 378.397816 52.036996
L 380.319539 56.012995
L 381.280401 50.412161
L 382.241263 73.40847
L 383.202124 79.487427
L 384.162986 68.809951
L 385.123848 93.049226
L 386.084709 59.30381
L 387.045571 58.287687
L 388.006433 64.853349
L 388.967295 50.324687
L 389.928156 57.98535
L 390.889018 67.370119
L 391.84988 89.725461
L 392.810741 52.040731
L 393.771603 68.929882
L 394.732465 71.298257
L 395.693327 56.207112
L 396.654188 55.942356
L 397.61505 92.65875
L 398.575912 67.42111
L 399.536774 95.328897
L 400.497635 80.820906
L 401.458497 54.848287
L 402.419359 68.593081
L 403.38022 87.785261
L 404.341082 84.151016
L 405.301944 87.281584
L 407.223667 61.869107
L 408.184529 87.459048
L 409.145391 92.244029
L 410.106253 75.956769
L 411.067114 75.455963
L 412.027976 75.491155
L 412.988838 56.445006
L 413.949699 100.053654
L 414.910561 85.455594
L 415.871423 86.099114
L 416.832285 87.376241
L 417.793146 74.255602
L 418.754008 81.586498
L 420.675731 101.409344
L 421.636593 91.203646
L 422.597455 95.528065
L 423.558317 97.614768
L 424.519178 78.307057
L 425.48004 80.207999
L 426.440902 84.53115
L 427.401764 83.591832
L 428.362625 83.27197
L 429.323487 82.472921
L 430.284349 111.877787
L 431.24521 100.028119
L 432.206072 82.656536
L 433.166934 94.290317
L 434.127796 91.049749
L 435.088657 90.408329
L 436.049519 91.277564
L 437.010381 89.093222
L 437.971242 83.620699
L 438.932104 99.183117
L 439.892966 103.535271
L 440.853828 110.280136
L 441.814689 89.601465
L 442.775551 120.05188
L 443.736413 74.28279
L 444.697275 106.779338
L 445.658136 100.79469
L 446.618998 73.056692
L 447.57986 122.01893
L 448.540721 120.035762
L 449.501583 92.129056
L 450.462445 88.01396
L 451.423307 79.893693
L 452.384168 115.729672
L 453.34503 105.468412
L 454.305892 87.276861
L 455.266754 113.543893
L 456.227615 95.973704
L 457.188477 91.387123
L 458.149339 139.590425
L 459.1102 107.436854
L 460.071062 93.442313
L 461.031924 96.874696
L 461.992786 85.784983
L 462.953647 118.939172
L 463.914509 95.269523
L 464.875371 122.507723
L 465.836232 100.764756
L 466.797094 93.701371
L 467.757956 106.293391
L 468.718818 121.590375
L 469.679679 99.141018
L 470.640541 106.244621
L 471.601403 85.263853
L 473.523126 116.946597
L 474.483988 106.520142
L 475.44485 117.532023
L 476.405711 124.00928
L 477.366573 95.290085
L 478.327435 97.322861
L 479.288297 112.691659
L 480.249158 105.000509
L 481.21002 114.888918
L 482.170882 128.989144
L 483.131743 96.813252
L 484.092605 128.535976
L 485.053467 125.199829
L 486.014329 98.908569
L 486.97519 97.030771
L 487.936052 105.310275
L 488.896914 101.502154
L 489.857776 100.793743
L 490.818637 105.993656
L 491.779499 108.487139
L 492.740361 100.981465
L 493.701222 118.107374
L 494.662084 84.630775
L 495.622946 105.670012
L 496.583808 110.31186
L 497.544669 93.700061
L 498.505531 129.689679
L 499.466393 102.589282
L 500.427255 109.472039
L 501.388116 95.300405
L 502.348978 106.188525
L 503.30984 90.338519
L 504.270701 93.734915
L 505.231563 101.526019
L 506.192425 114.985869
L 507.153287 99.143338
L 508.114148 110.68909
L 509.07501 99.922249
L 510.035872 98.244053
L 510.996733 103.136889
L 511.957595 85.027905
L 512.918457 90.742336
L 513.879319 95.449731
L 514.84018 93.327889
L 515.801042 104.238069
L 516.761904 98.657595
L 517.722766 75.579765
L 518.683627 100.41156
L 519.644489 97.861227
L 520.605351 99.550206
L 521.566212 116.778788
L 522.527074 94.036784
L 523.487936 78.192551
L 524.448798 109.552511
L 525.409659 77.913643
L 526.370521 91.070753
L 527.331383 92.731639
L 528.292244 105.592075
L 529.253106 81.883916
L 530.213968 90.374649
L 531.17483 88.899746
L 532.135691 80.081924
L 533.096553 72.673268
L 534.057415 107.087991
L 535.018277 80.045363
L 535.979138 72.891831
L 536.94 74.405245
L 536.94 74.405245
" style="fill:none;stroke:#d3d3d3;stroke-linecap:square;stroke-width:1.5;"/>
   </g>
   <g id="line2d_10">
    <path clip-path="url(#pd996ee37b8)" d="M 57.47 83.081866
L 58.430862 81.550542
L 59.391723 81.227348
L 60.352585 79.700209
L 61.313447 78.961915
L 63.23517 74.929915
L 67.078617 69.654491
L 68.039479 68.640824
L 69.000341 68.359571
L 70.922064 66.930467
L 71.882926 66.592185
L 72.843788 66.947317
L 74.765511 65.056327
L 75.726373 64.517395
L 76.687234 64.628243
L 77.648096 63.773652
L 78.608958 64.09796
L 79.56982 63.370869
L 80.530681 63.603015
L 81.491543 62.866888
L 82.452405 63.108279
L 83.413267 62.623802
L 86.295852 61.561041
L 87.256713 62.883009
L 88.217575 63.584568
L 89.178437 64.877919
L 90.139299 64.012846
L 91.10016 64.472651
L 92.061022 64.226639
L 93.021884 63.516635
L 93.982745 63.407918
L 94.943607 63.585339
L 95.904469 63.495217
L 96.865331 62.582658
L 97.826192 62.279184
L 98.787054 63.525335
L 99.747916 62.51419
L 100.708778 63.009717
L 101.669639 62.656444
L 102.630501 61.812498
L 103.591363 63.834248
L 104.552224 63.605997
L 105.513086 66.763549
L 107.43481 66.104587
L 108.395671 65.595306
L 109.356533 66.060734
L 110.317395 68.626414
L 111.278257 67.707251
L 112.239118 67.909217
L 113.19998 66.998391
L 114.160842 68.697419
L 115.121703 69.309654
L 116.082565 69.430807
L 117.043427 69.187252
L 118.004289 70.389705
L 118.96515 71.408428
L 119.926012 71.451483
L 120.886874 72.635892
L 121.847735 72.870962
L 122.808597 73.619171
L 123.769459 72.976626
L 124.730321 75.386046
L 125.691182 74.780157
L 126.652044 74.816389
L 129.534629 73.912578
L 130.495491 77.088281
L 131.456353 76.188216
L 132.417214 75.837241
L 133.378076 77.537011
L 134.338938 78.076631
L 135.2998 77.046038
L 136.260661 78.591462
L 139.143246 84.674854
L 140.104108 84.341595
L 141.06497 85.33025
L 142.025832 86.039492
L 142.986693 86.105054
L 143.947555 85.627647
L 144.908417 84.754088
L 145.869279 86.923744
L 146.83014 86.33989
L 149.712725 91.788462
L 150.673587 92.551264
L 151.634449 93.132099
L 152.595311 93.979433
L 153.556172 94.586074
L 154.517034 95.990419
L 155.477896 95.993936
L 156.438758 95.617054
L 157.399619 94.964497
L 158.360481 96.552607
L 159.321343 96.971108
L 160.282204 98.28347
L 161.243066 99.120945
L 162.203928 97.49365
L 163.16479 98.87951
L 164.125651 97.005283
L 165.086513 96.097702
L 166.047375 96.079227
L 168.92996 98.401962
L 169.890822 99.492348
L 170.851683 99.435713
L 171.812545 100.400238
L 172.773407 100.825899
L 173.734269 101.124933
L 174.69513 100.02452
L 175.655992 101.026877
L 177.577715 102.122678
L 178.538577 102.542372
L 179.499439 103.434661
L 180.460301 101.647692
L 182.382024 103.431847
L 183.342886 104.245479
L 184.303747 103.249914
L 185.264609 103.646547
L 187.186333 104.653402
L 188.147194 105.353412
L 189.108056 105.890269
L 190.068918 104.786514
L 191.02978 104.773917
L 191.990641 104.366369
L 193.912365 102.465405
L 194.873226 102.94394
L 195.834088 102.23228
L 196.79495 102.300946
L 197.755812 102.918083
L 199.677535 104.375716
L 200.638397 105.080381
L 202.56012 105.938423
L 203.520982 104.631084
L 204.481844 104.841067
L 206.403567 104.980329
L 207.364429 103.773182
L 208.325291 104.228016
L 209.286152 102.840573
L 210.247014 103.782714
L 211.207876 104.497863
L 212.168737 104.734987
L 214.090461 102.8475
L 216.973046 105.172157
L 217.933908 104.543066
L 218.89477 105.183103
L 220.816493 105.339141
L 221.777355 103.662205
L 222.738216 103.772182
L 224.65994 104.380803
L 226.581663 105.685585
L 227.542525 105.84174
L 228.503387 104.820167
L 230.42511 103.236625
L 231.385972 103.99408
L 232.346834 103.987906
L 233.307695 101.818889
L 234.268557 101.318389
L 235.229419 100.673618
L 237.151142 98.819624
L 238.112004 98.145288
L 239.072866 99.152185
L 240.033727 98.559083
L 240.994589 98.475762
L 241.955451 96.752442
L 242.916313 94.356024
L 243.877174 93.450898
L 244.838036 93.777016
L 245.798898 94.57356
L 246.75976 93.485642
L 247.720621 93.330603
L 248.681483 93.711866
L 249.642345 93.359251
L 250.603206 91.060282
L 251.564068 90.853902
L 252.52493 88.826924
L 253.485792 89.890186
L 254.446653 89.417376
L 255.407515 89.90417
L 256.368377 88.297768
L 257.329238 87.941585
L 258.2901 86.759655
L 259.250962 85.106375
L 260.211824 85.559932
L 261.172685 86.407865
L 262.133547 87.075748
L 263.094409 86.585269
L 264.055271 85.463834
L 265.016132 83.531574
L 265.976994 83.741373
L 266.937856 82.055824
L 267.898717 81.523339
L 268.859579 79.938722
L 269.820441 80.554377
L 270.781303 78.610889
L 271.742164 78.216738
L 272.703026 79.705334
L 273.663888 77.602516
L 274.624749 77.314411
L 275.585611 77.486492
L 276.546473 75.888783
L 277.507335 74.507772
L 278.468196 73.74909
L 279.429058 72.68293
L 280.38992 72.014543
L 281.350782 70.647696
L 282.311643 72.233962
L 283.272505 72.324818
L 284.233367 71.714199
L 285.194228 70.416547
L 286.15509 70.48504
L 287.115952 69.961176
L 288.076814 69.872389
L 289.037675 71.139821
L 289.998537 71.149486
L 290.959399 69.94523
L 291.920261 70.593518
L 292.881122 70.167555
L 293.841984 70.441886
L 294.802846 69.679556
L 295.763707 69.199126
L 296.724569 69.155251
L 297.685431 69.703776
L 299.607154 67.573129
L 300.568016 68.031783
L 301.528878 69.463917
L 302.489739 70.082939
L 303.450601 69.6545
L 304.411463 68.995441
L 305.372325 68.975252
L 307.294048 68.155854
L 308.25491 67.335389
L 309.215772 68.249386
L 311.137495 68.45356
L 313.059218 66.333661
L 314.02008 65.622151
L 315.941804 67.732464
L 316.902665 67.08509
L 317.863527 66.031827
L 318.824389 66.023195
L 320.746112 64.310697
L 322.667836 64.408914
L 325.550421 62.192571
L 326.511283 63.006381
L 327.472144 62.721635
L 328.433006 64.405485
L 332.276453 64.916214
L 333.237315 67.558947
L 334.198176 67.417507
L 336.1199 65.640682
L 337.080762 66.762984
L 338.041623 65.568828
L 339.002485 66.080465
L 339.963347 66.377579
L 340.924208 66.365835
L 341.88507 66.875692
L 342.845932 66.722062
L 343.806794 67.888996
L 344.767655 68.183107
L 345.728517 69.336523
L 346.689379 67.846806
L 347.65024 67.985082
L 348.611102 67.451478
L 349.571964 67.148315
L 350.532826 68.263762
L 351.493687 67.295247
L 352.454549 68.159369
L 353.415411 67.783593
L 354.376273 68.858626
L 355.337134 69.107096
L 356.297996 69.693096
L 358.219719 68.834729
L 360.141443 70.210065
L 362.063166 73.80816
L 363.024028 73.989112
L 363.98489 72.640564
L 364.945752 73.238244
L 365.906613 73.699706
L 366.867475 72.96383
L 367.828337 71.456753
L 368.789198 74.614952
L 369.75006 75.254512
L 370.710922 76.293634
L 371.671784 77.028145
L 372.632645 77.966276
L 373.593507 78.147051
L 374.554369 76.742631
L 375.51523 77.844641
L 376.476092 77.748016
L 377.436954 79.256588
L 378.397816 79.795176
L 379.358677 79.994919
L 380.319539 81.721187
L 381.280401 81.512048
L 382.241263 79.97432
L 383.202124 79.50267
L 384.162986 78.805787
L 385.123848 80.527314
L 386.084709 82.621606
L 387.045571 83.499079
L 388.967295 84.997908
L 389.928156 85.353711
L 390.889018 85.922002
L 391.84988 83.865417
L 392.810741 83.383055
L 393.771603 83.128268
L 394.732465 82.542248
L 395.693327 84.708843
L 396.654188 83.511656
L 397.61505 85.089828
L 398.575912 85.476299
L 399.536774 87.595079
L 400.497635 88.313394
L 401.458497 88.003133
L 402.419359 88.801304
L 403.38022 89.832126
L 404.341082 90.567939
L 405.301944 90.665265
L 406.262806 91.808492
L 407.223667 91.376324
L 408.184529 93.163179
L 409.145391 93.290283
L 410.106253 94.597304
L 411.067114 95.002513
L 412.027976 95.556169
L 413.949699 95.585606
L 414.910561 94.702755
L 415.871423 96.434217
L 419.71487 100.809056
L 421.636593 102.177474
L 422.597455 101.439188
L 424.519178 100.835875
L 425.48004 100.854886
L 426.440902 101.708638
L 427.401764 102.280447
L 428.362625 99.774863
L 429.323487 100.946111
L 430.284349 100.84204
L 431.24521 101.302179
L 432.206072 102.196115
L 433.166934 102.423449
L 434.127796 103.138363
L 436.049519 101.805555
L 437.010381 102.294888
L 437.971242 101.716138
L 438.932104 102.703212
L 440.853828 102.762095
L 441.814689 101.565719
L 442.775551 100.85915
L 443.736413 100.307098
L 445.658136 101.321099
L 446.618998 101.840282
L 447.57986 101.851533
L 448.540721 101.720985
L 449.501583 102.493344
L 450.462445 101.728654
L 452.384168 101.769985
L 454.305892 102.778719
L 455.266754 102.309203
L 456.227615 102.69781
L 457.188477 102.172893
L 458.149339 101.260159
L 459.1102 102.089512
L 460.071062 103.092266
L 461.031924 103.756598
L 461.992786 103.568156
L 462.953647 102.325104
L 463.914509 103.32972
L 465.836232 99.593947
L 466.797094 98.97574
L 467.757956 96.77795
L 468.718818 97.094817
L 470.640541 98.74445
L 471.601403 99.008711
L 472.562265 98.200756
L 474.483988 96.20435
L 475.44485 96.019033
L 476.405711 95.569514
L 477.366573 96.583479
L 478.327435 97.826545
L 479.288297 97.077368
L 480.249158 98.217717
L 481.21002 97.592941
L 482.170882 97.465003
L 483.131743 96.160971
L 484.092605 95.825512
L 485.053467 95.76859
L 486.014329 93.537452
L 486.97519 93.726866
L 487.936052 94.511722
L 488.896914 94.479256
L 489.857776 95.381135
L 490.818637 95.533124
L 491.779499 94.743266
L 492.740361 95.367213
L 493.701222 93.159067
L 494.662084 92.108601
L 495.622946 92.158757
L 496.583808 91.072714
L 497.544669 88.981614
L 498.505531 88.919118
L 499.466393 89.067125
L 500.427255 88.140686
L 501.388116 86.976666
L 502.348978 87.037152
L 503.30984 87.342872
L 504.270701 84.822919
L 505.231563 84.868059
L 506.192425 85.931691
L 507.153287 84.430455
L 508.114148 82.584739
L 509.07501 81.032706
L 510.035872 81.647536
L 510.996733 80.789647
L 511.957595 79.019091
L 512.918457 77.766281
L 513.879319 78.471815
L 514.84018 76.594196
L 515.801042 77.255402
L 516.761904 76.673495
L 517.722766 77.131454
L 518.683627 76.975777
L 519.644489 75.508497
L 520.605351 74.683891
L 521.566212 75.666543
L 522.527074 75.103126
L 523.487936 75.447937
L 525.409659 73.385213
L 526.370521 72.74374
L 527.331383 72.395709
L 528.292244 73.752594
L 529.253106 72.089417
L 530.213968 71.082795
L 531.17483 72.118482
L 532.135691 72.584296
L 533.096553 71.608078
L 534.057415 71.151918
L 535.018277 69.642557
L 535.979138 68.616427
L 536.94 68.715977
L 536.94 68.715977
" style="fill:none;stroke:#ffa500;stroke-linecap:square;stroke-width:1.5;"/>
   </g>
   <g id="line2d_11">
    <path clip-path="url(#pd996ee37b8)" d="M 57.47 67.117487
L 62.274309 65.09483
L 66.117756 63.694353
L 69.961202 62.50286
L 73.804649 61.532429
L 77.648096 60.7929
L 81.491543 60.29177
L 85.33499 60.03412
L 89.178437 60.022562
L 93.021884 60.257213
L 96.865331 60.735695
L 100.708778 61.453155
L 104.552224 62.402322
L 108.395671 63.57357
L 112.239118 64.955026
L 117.043427 66.955922
L 121.847735 69.231555
L 126.652044 71.745894
L 132.417214 75.021909
L 139.143246 79.105826
L 152.595311 87.625737
L 161.243066 92.952501
L 167.008236 96.274045
L 172.773407 99.322897
L 177.577715 101.604954
L 182.382024 103.613124
L 186.225471 105.000934
L 190.068918 106.178942
L 193.912365 107.135206
L 197.755812 107.86003
L 201.599259 108.346066
L 205.442705 108.588386
L 209.286152 108.584534
L 213.129599 108.334547
L 216.973046 107.840962
L 220.816493 107.108782
L 224.65994 106.14543
L 228.503387 104.960673
L 232.346834 103.566522
L 237.151142 101.551099
L 241.955451 99.262641
L 246.75976 96.737382
L 252.52493 93.451021
L 259.250962 89.359126
L 284.233367 73.833481
L 289.998537 70.650608
L 294.802846 68.23306
L 299.607154 66.070027
L 303.450601 64.546018
L 307.294048 63.222357
L 311.137495 62.112464
L 314.980942 61.227592
L 318.824389 60.576712
L 322.667836 60.166423
L 326.511283 60.000886
L 330.354729 60.081777
L 334.198176 60.408277
L 338.041623 60.977076
L 341.88507 61.782406
L 345.728517 62.816104
L 349.571964 64.067689
L 353.415411 65.524472
L 358.219719 67.611324
L 363.024028 69.962536
L 367.828337 72.54088
L 373.593507 75.877009
L 381.280401 80.610205
L 401.458497 93.237899
L 407.223667 96.539535
L 412.027976 99.080984
L 416.832285 101.38851
L 421.636593 103.425574
L 425.48004 104.838662
L 429.323487 106.043594
L 433.166934 107.028153
L 437.010381 107.782358
L 440.853828 108.298563
L 444.697275 108.571532
L 448.540721 108.5985
L 452.384168 108.379193
L 456.227615 107.915834
L 460.071062 107.213121
L 463.914509 106.278179
L 467.757956 105.120486
L 471.601403 103.751779
L 476.405711 101.76549
L 481.21002 99.502772
L 486.014329 96.999451
L 491.779499 93.733912
L 498.505531 89.658136
L 510.996733 81.748432
L 519.644489 76.381451
L 526.370521 72.473974
L 532.135691 69.412324
L 536.94 67.117487
L 536.94 67.117487
" style="fill:none;stroke:#ffa500;stroke-dasharray:5.55,2.4;stroke-dashoffset:0;stroke-width:1.5;"/>
   </g>
   <g id="patch_3">
    <path d="M 57.47 155
L 57.47 12.96
" style="fill:none;stroke:#b0b0b0;stroke-linecap:square;stroke-linejoin:miter;stroke-width:0.8;"/>
   </g>
   <g id="patch_4">
    <path d="M 536.94 155
L 536.94 12.96
" style="fill:none;stroke:#b0b0b0;stroke-linecap:square;stroke-linejoin:miter;stroke-width:0.8;"/>
   </g>
   <g id="patch_5">
    <path d="M 57.47 155
L 536.94 155
" style="fill:none;stroke:#b0b0b0;stroke-linecap:square;stroke-linejoin:miter;stroke-width:0.8;"/>
   </g>
   <g id="patch_6">
    <path d="M 57.47 12.96
L 536.94 12.96
" style="fill:none;stroke:#b0b0b0;stroke-linecap:square;stroke-linejoin:miter;stroke-width:0.8;"/>
   </g>
   <g id="legend_1">
    <g id="line2d_12">
     <path d="M 571.7135 28.678125
L 595.7135 28.678125
" style="fill:none;stroke:#d3d3d3;stroke-linecap:square;stroke-width:1.5;"/>
    </g>
    <g id="line2d_13"/>
    <g id="text_10">
     <!-- Input value -->
     <g transform="translate(605.3135 32.878125)scale(0.12 -0.12)">
      <defs>
       <path d="M 9.8125 72.90625
L 19.671875 72.90625
L 19.671875 0
L 9.8125 0
z
" id="DejaVuSans-73"/>
       <path d="M 18.109375 8.203125
L 18.109375 -20.796875
L 9.078125 -20.796875
L 9.078125 54.6875
L 18.109375 54.6875
L 18.109375 46.390625
Q 20.953125 51.265625 25.265625 53.625
Q 29.59375 56 35.59375 56
Q 45.5625 56 51.78125 48.09375
Q 58.015625 40.1875 58.015625 27.296875
Q 58.015625 14.40625 51.78125 6.484375
Q 45.5625 -1.421875 35.59375 -1.421875
Q 29.59375 -1.421875 25.265625 0.953125
Q 20.953125 3.328125 18.109375 8.203125
z
M 48.6875 27.296875
Q 48.6875 37.203125 44.609375 42.84375
Q 40.53125 48.484375 33.40625 48.484375
Q 26.265625 48.484375 22.1875 42.84375
Q 18.109375 37.203125 18.109375 27.296875
Q 18.109375 17.390625 22.1875 11.75
Q 26.265625 6.109375 33.40625 6.109375
Q 40.53125 6.109375 44.609375 11.75
Q 48.6875 17.390625 48.6875 27.296875
z
" id="DejaVuSans-112"/>
       <path d="M 8.5 21.578125
L 8.5 54.6875
L 17.484375 54.6875
L 17.484375 21.921875
Q 17.484375 14.15625 20.5 10.265625
Q 23.53125 6.390625 29.59375 6.390625
Q 36.859375 6.390625 41.078125 11.03125
Q 45.3125 15.671875 45.3125 23.6875
L 45.3125 54.6875
L 54.296875 54.6875
L 54.296875 0
L 45.3125 0
L 45.3125 8.40625
Q 42.046875 3.421875 37.71875 1
Q 33.40625 -1.421875 27.6875 -1.421875
Q 18.265625 -1.421875 13.375 4.4375
Q 8.5 10.296875 8.5 21.578125
z
M 31.109375 56
z
" id="DejaVuSans-117"/>
       <path d="M 18.3125 70.21875
L 18.3125 54.6875
L 36.8125 54.6875
L 36.8125 47.703125
L 18.3125 47.703125
L 18.3125 18.015625
Q 18.3125 11.328125 20.140625 9.421875
Q 21.96875 7.515625 27.59375 7.515625
L 36.8125 7.515625
L 36.8125 0
L 27.59375 0
Q 17.1875 0 13.234375 3.875
Q 9.28125 7.765625 9.28125 18.015625
L 9.28125 47.703125
L 2.6875 47.703125
L 2.6875 54.6875
L 9.28125 54.6875
L 9.28125 70.21875
z
" id="DejaVuSans-116"/>
       <path id="DejaVuSans-32"/>
       <path d="M 2.984375 54.6875
L 12.5 54.6875
L 29.59375 8.796875
L 46.6875 54.6875
L 56.203125 54.6875
L 35.6875 0
L 23.484375 0
z
" id="DejaVuSans-118"/>
       <path d="M 34.28125 27.484375
Q 23.390625 27.484375 19.1875 25
Q 14.984375 22.515625 14.984375 16.5
Q 14.984375 11.71875 18.140625 8.90625
Q 21.296875 6.109375 26.703125 6.109375
Q 34.1875 6.109375 38.703125 11.40625
Q 43.21875 16.703125 43.21875 25.484375
L 43.21875 27.484375
z
M 52.203125 31.203125
L 52.203125 0
L 43.21875 0
L 43.21875 8.296875
Q 40.140625 3.328125 35.546875 0.953125
Q 30.953125 -1.421875 24.3125 -1.421875
Q 15.921875 -1.421875 10.953125 3.296875
Q 6 8.015625 6 15.921875
Q 6 25.140625 12.171875 29.828125
Q 18.359375 34.515625 30.609375 34.515625
L 43.21875 34.515625
L 43.21875 35.40625
Q 43.21875 41.609375 39.140625 45
Q 35.0625 48.390625 27.6875 48.390625
Q 23 48.390625 18.546875 47.265625
Q 14.109375 46.140625 10.015625 43.890625
L 10.015625 52.203125
Q 14.9375 54.109375 19.578125 55.046875
Q 24.21875 56 28.609375 56
Q 40.484375 56 46.34375 49.84375
Q 52.203125 43.703125 52.203125 31.203125
z
" id="DejaVuSans-97"/>
       <path d="M 9.421875 75.984375
L 18.40625 75.984375
L 18.40625 0
L 9.421875 0
z
" id="DejaVuSans-108"/>
       <path d="M 56.203125 29.59375
L 56.203125 25.203125
L 14.890625 25.203125
Q 15.484375 15.921875 20.484375 11.0625
Q 25.484375 6.203125 34.421875 6.203125
Q 39.59375 6.203125 44.453125 7.46875
Q 49.3125 8.734375 54.109375 11.28125
L 54.109375 2.78125
Q 49.265625 0.734375 44.1875 -0.34375
Q 39.109375 -1.421875 33.890625 -1.421875
Q 20.796875 -1.421875 13.15625 6.1875
Q 5.515625 13.8125 5.515625 26.8125
Q 5.515625 40.234375 12.765625 48.109375
Q 20.015625 56 32.328125 56
Q 43.359375 56 49.78125 48.890625
Q 56.203125 41.796875 56.203125 29.59375
z
M 47.21875 32.234375
Q 47.125 39.59375 43.09375 43.984375
Q 39.0625 48.390625 32.421875 48.390625
Q 24.90625 48.390625 20.390625 44.140625
Q 15.875 39.890625 15.1875 32.171875
z
" id="DejaVuSans-101"/>
      </defs>
      <use xlink:href="#DejaVuSans-73"/>
      <use x="29.492188" xlink:href="#DejaVuSans-110"/>
      <use x="92.871094" xlink:href="#DejaVuSans-112"/>
      <use x="156.347656" xlink:href="#DejaVuSans-117"/>
      <use x="219.726562" xlink:href="#DejaVuSans-116"/>
      <use x="258.935547" xlink:href="#DejaVuSans-32"/>
      <use x="290.722656" xlink:href="#DejaVuSans-118"/>
      <use x="349.902344" xlink:href="#DejaVuSans-97"/>
      <use x="411.181641" xlink:href="#DejaVuSans-108"/>
      <use x="438.964844" xlink:href="#DejaVuSans-117"/>
      <use x="502.34375" xlink:href="#DejaVuSans-101"/>
     </g>
    </g>
    <g id="line2d_14">
     <path d="M 571.7135 46.291875
L 595.7135 46.291875
" style="fill:none;stroke:#ffa500;stroke-linecap:square;stroke-width:1.5;"/>
    </g>
    <g id="line2d_15"/>
    <g id="text_11">
     <!-- Predicted value -->
     <g transform="translate(605.3135 50.491875)scale(0.12 -0.12)">
      <defs>
       <path d="M 19.671875 64.796875
L 19.671875 37.40625
L 32.078125 37.40625
Q 38.96875 37.40625 42.71875 40.96875
Q 46.484375 44.53125 46.484375 51.125
Q 46.484375 57.671875 42.71875 61.234375
Q 38.96875 64.796875 32.078125 64.796875
z
M 9.8125 72.90625
L 32.078125 72.90625
Q 44.34375 72.90625 50.609375 67.359375
Q 56.890625 61.8125 56.890625 51.125
Q 56.890625 40.328125 50.609375 34.8125
Q 44.34375 29.296875 32.078125 29.296875
L 19.671875 29.296875
L 19.671875 0
L 9.8125 0
z
" id="DejaVuSans-80"/>
       <path d="M 41.109375 46.296875
Q 39.59375 47.171875 37.8125 47.578125
Q 36.03125 48 33.890625 48
Q 26.265625 48 22.1875 43.046875
Q 18.109375 38.09375 18.109375 28.8125
L 18.109375 0
L 9.078125 0
L 9.078125 54.6875
L 18.109375 54.6875
L 18.109375 46.1875
Q 20.953125 51.171875 25.484375 53.578125
Q 30.03125 56 36.53125 56
Q 37.453125 56 38.578125 55.875
Q 39.703125 55.765625 41.0625 55.515625
z
" id="DejaVuSans-114"/>
       <path d="M 45.40625 46.390625
L 45.40625 75.984375
L 54.390625 75.984375
L 54.390625 0
L 45.40625 0
L 45.40625 8.203125
Q 42.578125 3.328125 38.25 0.953125
Q 33.9375 -1.421875 27.875 -1.421875
Q 17.96875 -1.421875 11.734375 6.484375
Q 5.515625 14.40625 5.515625 27.296875
Q 5.515625 40.1875 11.734375 48.09375
Q 17.96875 56 27.875 56
Q 33.9375 56 38.25 53.625
Q 42.578125 51.265625 45.40625 46.390625
z
M 14.796875 27.296875
Q 14.796875 17.390625 18.875 11.75
Q 22.953125 6.109375 30.078125 6.109375
Q 37.203125 6.109375 41.296875 11.75
Q 45.40625 17.390625 45.40625 27.296875
Q 45.40625 37.203125 41.296875 42.84375
Q 37.203125 48.484375 30.078125 48.484375
Q 22.953125 48.484375 18.875 42.84375
Q 14.796875 37.203125 14.796875 27.296875
z
" id="DejaVuSans-100"/>
       <path d="M 48.78125 52.59375
L 48.78125 44.1875
Q 44.96875 46.296875 41.140625 47.34375
Q 37.3125 48.390625 33.40625 48.390625
Q 24.65625 48.390625 19.8125 42.84375
Q 14.984375 37.3125 14.984375 27.296875
Q 14.984375 17.28125 19.8125 11.734375
Q 24.65625 6.203125 33.40625 6.203125
Q 37.3125 6.203125 41.140625 7.25
Q 44.96875 8.296875 48.78125 10.40625
L 48.78125 2.09375
Q 45.015625 0.34375 40.984375 -0.53125
Q 36.96875 -1.421875 32.421875 -1.421875
Q 20.0625 -1.421875 12.78125 6.34375
Q 5.515625 14.109375 5.515625 27.296875
Q 5.515625 40.671875 12.859375 48.328125
Q 20.21875 56 33.015625 56
Q 37.15625 56 41.109375 55.140625
Q 45.0625 54.296875 48.78125 52.59375
z
" id="DejaVuSans-99"/>
      </defs>
      <use xlink:href="#DejaVuSans-80"/>
      <use x="58.552734" xlink:href="#DejaVuSans-114"/>
      <use x="97.416016" xlink:href="#DejaVuSans-101"/>
      <use x="158.939453" xlink:href="#DejaVuSans-100"/>
      <use x="222.416016" xlink:href="#DejaVuSans-105"/>
      <use x="250.199219" xlink:href="#DejaVuSans-99"/>
      <use x="305.179688" xlink:href="#DejaVuSans-116"/>
      <use x="344.388672" xlink:href="#DejaVuSans-101"/>
      <use x="405.912109" xlink:href="#DejaVuSans-100"/>
      <use x="469.388672" xlink:href="#DejaVuSans-32"/>
      <use x="501.175781" xlink:href="#DejaVuSans-118"/>
      <use x="560.355469" xlink:href="#DejaVuSans-97"/>
      <use x="621.634766" xlink:href="#DejaVuSans-108"/>
      <use x="649.417969" xlink:href="#DejaVuSans-117"/>
      <use x="712.796875" xlink:href="#DejaVuSans-101"/>
     </g>
    </g>
    <g id="line2d_16">
     <path d="M 571.7135 63.905625
L 595.7135 63.905625
" style="fill:none;stroke:#ffa500;stroke-dasharray:5.55,2.4;stroke-dashoffset:0;stroke-width:1.5;"/>
    </g>
    <g id="line2d_17"/>
    <g id="text_12">
     <!-- Expected value -->
     <g transform="translate(605.3135 68.105625)scale(0.12 -0.12)">
      <defs>
       <path d="M 9.8125 72.90625
L 55.90625 72.90625
L 55.90625 64.59375
L 19.671875 64.59375
L 19.671875 43.015625
L 54.390625 43.015625
L 54.390625 34.71875
L 19.671875 34.71875
L 19.671875 8.296875
L 56.78125 8.296875
L 56.78125 0
L 9.8125 0
z
" id="DejaVuSans-69"/>
       <path d="M 54.890625 54.6875
L 35.109375 28.078125
L 55.90625 0
L 45.3125 0
L 29.390625 21.484375
L 13.484375 0
L 2.875 0
L 24.125 28.609375
L 4.6875 54.6875
L 15.28125 54.6875
L 29.78125 35.203125
L 44.28125 54.6875
z
" id="DejaVuSans-120"/>
      </defs>
      <use xlink:href="#DejaVuSans-69"/>
      <use x="63.183594" xlink:href="#DejaVuSans-120"/>
      <use x="122.363281" xlink:href="#DejaVuSans-112"/>
      <use x="185.839844" xlink:href="#DejaVuSans-101"/>
      <use x="247.363281" xlink:href="#DejaVuSans-99"/>
      <use x="302.34375" xlink:href="#DejaVuSans-116"/>
      <use x="341.552734" xlink:href="#DejaVuSans-101"/>
      <use x="403.076172" xlink:href="#DejaVuSans-100"/>
      <use x="466.552734" xlink:href="#DejaVuSans-32"/>
      <use x="498.339844" xlink:href="#DejaVuSans-118"/>
      <use x="557.519531" xlink:href="#DejaVuSans-97"/>
      <use x="618.798828" xlink:href="#DejaVuSans-108"/>
      <use x="646.582031" xlink:href="#DejaVuSans-117"/>
      <use x="709.960938" xlink:href="#DejaVuSans-101"/>
     </g>
    </g>
   </g>
  </g>
  <g id="axes_2">
   <g id="patch_7">
    <path d="M 57.47 328.52
L 536.94 328.52
L 536.94 186.48
L 57.47 186.48
z
" style="fill:#ffffff;"/>
   </g>
   <g id="matplotlib.axis_3">
    <g id="xtick_6">
     <g id="line2d_18">
      <g>
       <use style="stroke:#000000;stroke-width:0.8;" x="57.47" xlink:href="#m90f1cc695d" y="328.52"/>
      </g>
     </g>
     <g id="text_13">
      <!-- 0 -->
      <g transform="translate(53.6525 344.638125)scale(0.12 -0.12)">
       <use xlink:href="#DejaVuSans-48"/>
      </g>
     </g>
    </g>
    <g id="xtick_7">
     <g id="line2d_19">
      <g>
       <use style="stroke:#000000;stroke-width:0.8;" x="153.556172" xlink:href="#m90f1cc695d" y="328.52"/>
      </g>
     </g>
     <g id="text_14">
      <!-- 100 -->
      <g transform="translate(142.103672 344.638125)scale(0.12 -0.12)">
       <use xlink:href="#DejaVuSans-49"/>
       <use x="63.623047" xlink:href="#DejaVuSans-48"/>
       <use x="127.246094" xlink:href="#DejaVuSans-48"/>
      </g>
     </g>
    </g>
    <g id="xtick_8">
     <g id="line2d_20">
      <g>
       <use style="stroke:#000000;stroke-width:0.8;" x="249.642345" xlink:href="#m90f1cc695d" y="328.52"/>
      </g>
     </g>
     <g id="text_15">
      <!-- 200 -->
      <g transform="translate(238.189845 344.638125)scale(0.12 -0.12)">
       <use xlink:href="#DejaVuSans-50"/>
       <use x="63.623047" xlink:href="#DejaVuSans-48"/>
       <use x="127.246094" xlink:href="#DejaVuSans-48"/>
      </g>
     </g>
    </g>
    <g id="xtick_9">
     <g id="line2d_21">
      <g>
       <use style="stroke:#000000;stroke-width:0.8;" x="345.728517" xlink:href="#m90f1cc695d" y="328.52"/>
      </g>
     </g>
     <g id="text_16">
      <!-- 300 -->
      <g transform="translate(334.276017 344.638125)scale(0.12 -0.12)">
       <use xlink:href="#DejaVuSans-51"/>
       <use x="63.623047" xlink:href="#DejaVuSans-48"/>
       <use x="127.246094" xlink:href="#DejaVuSans-48"/>
      </g>
     </g>
    </g>
    <g id="xtick_10">
     <g id="line2d_22">
      <g>
       <use style="stroke:#000000;stroke-width:0.8;" x="441.814689" xlink:href="#m90f1cc695d" y="328.52"/>
      </g>
     </g>
     <g id="text_17">
      <!-- 400 -->
      <g transform="translate(430.362189 344.638125)scale(0.12 -0.12)">
       <use xlink:href="#DejaVuSans-52"/>
       <use x="63.623047" xlink:href="#DejaVuSans-48"/>
       <use x="127.246094" xlink:href="#DejaVuSans-48"/>
      </g>
     </g>
    </g>
   </g>
   <g id="matplotlib.axis_4">
    <g id="ytick_4">
     <g id="line2d_23">
      <g>
       <use style="stroke:#000000;stroke-width:0.8;" x="57.47" xlink:href="#m7e5c151e5b" y="315.116395"/>
      </g>
     </g>
     <g id="text_18">
      <!-- −2 -->
      <g transform="translate(32.779375 319.675457)scale(0.12 -0.12)">
       <use xlink:href="#DejaVuSans-8722"/>
       <use x="83.789062" xlink:href="#DejaVuSans-50"/>
      </g>
     </g>
    </g>
    <g id="ytick_5">
     <g id="line2d_24">
      <g>
       <use style="stroke:#000000;stroke-width:0.8;" x="57.47" xlink:href="#m7e5c151e5b" y="285.60483"/>
      </g>
     </g>
     <g id="text_19">
      <!-- −1 -->
      <g transform="translate(32.779375 290.163893)scale(0.12 -0.12)">
       <use xlink:href="#DejaVuSans-8722"/>
       <use x="83.789062" xlink:href="#DejaVuSans-49"/>
      </g>
     </g>
    </g>
    <g id="ytick_6">
     <g id="line2d_25">
      <g>
       <use style="stroke:#000000;stroke-width:0.8;" x="57.47" xlink:href="#m7e5c151e5b" y="256.093266"/>
      </g>
     </g>
     <g id="text_20">
      <!-- 0 -->
      <g transform="translate(42.835 260.652328)scale(0.12 -0.12)">
       <use xlink:href="#DejaVuSans-48"/>
      </g>
     </g>
    </g>
    <g id="ytick_7">
     <g id="line2d_26">
      <g>
       <use style="stroke:#000000;stroke-width:0.8;" x="57.47" xlink:href="#m7e5c151e5b" y="226.581702"/>
      </g>
     </g>
     <g id="text_21">
      <!-- 1 -->
      <g transform="translate(42.835 231.140764)scale(0.12 -0.12)">
       <use xlink:href="#DejaVuSans-49"/>
      </g>
     </g>
    </g>
    <g id="ytick_8">
     <g id="line2d_27">
      <g>
       <use style="stroke:#000000;stroke-width:0.8;" x="57.47" xlink:href="#m7e5c151e5b" y="197.070137"/>
      </g>
     </g>
     <g id="text_22">
      <!-- 2 -->
      <g transform="translate(42.835 201.6292)scale(0.12 -0.12)">
       <use xlink:href="#DejaVuSans-50"/>
      </g>
     </g>
    </g>
    <g id="text_23">
     <!-- $\cos(x)$ -->
     <g transform="translate(25.451875 281.98)rotate(-90)scale(0.16 -0.16)">
      <defs>
       <path d="M 30.609375 48.390625
Q 23.390625 48.390625 19.1875 42.75
Q 14.984375 37.109375 14.984375 27.296875
Q 14.984375 17.484375 19.15625 11.84375
Q 23.34375 6.203125 30.609375 6.203125
Q 37.796875 6.203125 41.984375 11.859375
Q 46.1875 17.53125 46.1875 27.296875
Q 46.1875 37.015625 41.984375 42.703125
Q 37.796875 48.390625 30.609375 48.390625
z
M 30.609375 56
Q 42.328125 56 49.015625 48.375
Q 55.71875 40.765625 55.71875 27.296875
Q 55.71875 13.875 49.015625 6.21875
Q 42.328125 -1.421875 30.609375 -1.421875
Q 18.84375 -1.421875 12.171875 6.21875
Q 5.515625 13.875 5.515625 27.296875
Q 5.515625 40.765625 12.171875 48.375
Q 18.84375 56 30.609375 56
z
" id="DejaVuSans-111"/>
      </defs>
      <use transform="translate(0 0.125)" xlink:href="#DejaVuSans-99"/>
      <use transform="translate(54.980469 0.125)" xlink:href="#DejaVuSans-111"/>
      <use transform="translate(116.162109 0.125)" xlink:href="#DejaVuSans-115"/>
      <use transform="translate(168.261719 0.125)" xlink:href="#DejaVuSans-40"/>
      <use transform="translate(207.275391 0.125)" xlink:href="#DejaVuSans-Oblique-120"/>
      <use transform="translate(266.455078 0.125)" xlink:href="#DejaVuSans-41"/>
     </g>
    </g>
   </g>
   <g id="line2d_28">
    <path clip-path="url(#pcc9bfa2784)" d="M 57.47 242.037441
L 58.430862 229.991999
L 59.391723 248.316551
L 60.352585 229.606051
L 61.313447 240.973327
L 62.274309 209.839648
L 63.23517 207.649724
L 64.196032 225.567912
L 65.156894 220.749945
L 66.117756 212.434594
L 67.078617 223.084928
L 68.039479 222.841757
L 69.000341 236.437925
L 69.961202 219.692634
L 70.922064 219.423982
L 71.882926 233.284991
L 72.843788 244.296081
L 73.804649 216.000361
L 74.765511 204.532101
L 75.726373 223.963417
L 76.687234 239.427496
L 77.648096 209.110602
L 78.608958 243.180017
L 79.56982 218.023471
L 80.530681 239.619488
L 81.491543 210.459702
L 82.452405 240.19445
L 83.413267 221.090086
L 84.374128 217.787649
L 85.33499 227.259349
L 86.295852 226.754899
L 87.256713 253.447081
L 88.217575 236.291907
L 89.178437 253.69332
L 90.139299 221.74736
L 91.10016 236.40049
L 92.061022 237.841768
L 93.021884 222.657404
L 93.982745 236.807166
L 94.943607 248.500711
L 95.904469 240.681243
L 96.865331 223.210824
L 97.826192 240.544064
L 98.787054 250.461532
L 99.747916 213.784782
L 100.708778 251.116601
L 101.669639 240.424015
L 102.630501 220.428037
L 103.591363 268.329971
L 104.552224 242.785763
L 105.513086 284.449478
L 106.473948 240.764258
L 107.43481 237.441746
L 108.395671 242.884001
L 109.356533 254.413522
L 110.317395 277.907702
L 111.278257 238.470463
L 112.239118 246.487659
L 113.19998 233.574219
L 114.160842 273.668994
L 115.121703 259.142515
L 117.043427 251.478072
L 118.004289 271.877035
L 118.96515 271.589873
L 119.926012 256.695251
L 120.886874 268.097203
L 121.847735 257.951848
L 122.808597 267.496869
L 123.769459 252.391131
L 124.730321 284.576531
L 125.691182 250.039649
L 126.652044 260.407883
L 127.612906 253.446193
L 128.573768 255.396234
L 129.534629 257.792969
L 130.495491 303.293502
L 131.456353 246.956026
L 132.417214 253.935365
L 133.378076 295.039162
L 134.338938 276.342983
L 135.2998 251.984095
L 136.260661 279.72097
L 137.221523 283.79067
L 138.182385 282.076615
L 139.143246 293.94916
L 140.104108 264.375124
L 141.06497 288.241535
L 142.025832 277.950948
L 142.986693 265.406792
L 143.947555 265.09968
L 144.908417 258.301278
L 145.869279 306.735402
L 146.83014 269.021532
L 147.791002 292.520374
L 148.751864 294.435098
L 149.712725 303.136282
L 150.673587 289.119545
L 151.634449 282.487985
L 152.595311 282.338905
L 153.556172 279.123123
L 154.517034 308.93267
L 155.477896 278.737083
L 156.438758 280.899911
L 157.399619 280.159673
L 158.360481 315.745629
L 159.321343 283.920309
L 160.282204 305.288623
L 161.243066 291.057602
L 162.203928 270.722402
L 163.16479 314.069662
L 164.125651 258.334266
L 166.047375 281.591432
L 167.008236 290.700414
L 167.969098 288.956808
L 168.92996 294.355728
L 169.890822 302.409652
L 170.851683 280.431496
L 171.812545 298.109473
L 172.773407 284.279868
L 173.734269 281.700563
L 174.69513 261.626892
L 175.655992 298.273021
L 176.616854 308.885415
L 177.577715 286.120201
L 178.538577 283.731967
L 179.499439 308.978256
L 180.460301 262.270911
L 181.421162 306.214475
L 182.382024 307.675193
L 183.342886 320.727618
L 184.303747 280.070895
L 185.264609 293.692149
L 186.225471 292.814025
L 187.186333 293.078369
L 188.147194 310.498431
L 189.108056 302.411199
L 190.068918 271.863174
L 191.02978 279.772895
L 191.990641 293.256773
L 192.951503 267.991928
L 193.912365 269.651172
L 194.873226 284.054196
L 195.834088 264.918463
L 196.79495 274.723921
L 197.755812 295.042704
L 198.716673 294.90366
L 199.677535 296.218098
L 200.638397 302.639949
L 201.599259 288.685989
L 202.56012 295.067311
L 203.520982 268.523724
L 204.481844 290.797724
L 205.442705 277.480725
L 206.403567 282.785695
L 207.364429 261.784677
L 208.325291 289.416307
L 209.286152 253.606935
L 210.247014 301.179012
L 211.207876 291.817186
L 212.168737 278.245982
L 213.129599 272.309144
L 214.090461 261.12166
L 215.051323 280.429287
L 216.012184 282.589399
L 216.973046 289.597732
L 217.933908 277.512082
L 218.89477 281.899597
L 219.855631 291.325448
L 220.816493 280.372515
L 221.777355 245.624665
L 222.738216 266.673469
L 223.699078 276.638378
L 224.65994 269.406021
L 225.620802 280.70676
L 226.581663 280.066019
L 227.542525 272.864754
L 228.503387 273.032026
L 229.464248 257.162439
L 230.42511 271.163356
L 231.385972 281.544657
L 232.346834 270.53807
L 233.307695 242.256354
L 234.268557 266.475615
L 235.229419 268.888232
L 236.190281 249.348681
L 237.151142 257.019654
L 238.112004 250.192817
L 239.072866 280.083889
L 240.033727 250.743281
L 240.994589 257.793643
L 241.955451 234.070605
L 242.916313 231.304887
L 243.877174 240.381392
L 244.838036 266.659884
L 245.798898 262.391134
L 246.75976 238.879268
L 247.720621 249.769755
L 248.681483 255.182634
L 249.642345 248.723997
L 250.603206 218.706629
L 251.564068 244.501491
L 252.52493 225.103553
L 253.485792 258.82752
L 254.446653 244.417256
L 255.407515 254.084779
L 256.368377 229.070614
L 257.329238 239.827931
L 258.2901 221.377939
L 259.250962 219.561909
L 260.211824 246.816567
L 261.172685 259.442232
L 262.133547 252.457123
L 263.094409 231.891163
L 264.055271 232.683597
L 265.016132 223.836685
L 265.976994 240.732317
L 266.937856 218.557636
L 267.898717 218.024171
L 268.859579 223.331572
L 269.820441 243.033507
L 270.781303 213.580818
L 271.742164 237.475495
L 272.703026 256.821206
L 273.663888 207.548294
L 274.624749 238.66004
L 275.585611 244.53118
L 276.546473 218.576757
L 277.507335 218.917535
L 278.468196 225.496173
L 279.429058 223.869959
L 280.38992 222.898995
L 281.350782 202.285764
L 282.311643 244.215481
L 283.272505 239.353121
L 284.233367 231.160693
L 285.194228 212.583585
L 286.15509 225.565902
L 287.115952 224.480204
L 288.076814 231.530085
L 289.037675 232.338006
L 289.998537 226.766285
L 290.959399 212.693143
L 291.920261 238.691555
L 292.881122 226.421644
L 293.841984 239.937977
L 294.802846 224.564963
L 295.763707 224.280891
L 296.724569 227.08454
L 297.685431 230.376425
L 298.646293 209.41797
L 299.607154 199.199601
L 300.568016 227.922985
L 301.528878 242.934422
L 302.489739 236.56635
L 303.450601 228.334832
L 304.411463 225.414037
L 305.372325 237.412123
L 306.333186 232.005735
L 307.294048 230.909428
L 308.25491 220.878353
L 309.215772 246.272558
L 310.176633 229.833895
L 311.137495 240.170203
L 312.098357 211.876797
L 313.059218 207.42213
L 314.02008 216.082742
L 314.980942 247.132728
L 315.941804 255.407475
L 316.902665 224.94937
L 317.863527 210.302283
L 318.824389 229.853675
L 319.785251 220.399203
L 320.746112 215.954034
L 321.706974 219.757658
L 322.667836 242.532259
L 323.628697 219.605142
L 324.589559 219.455424
L 325.550421 211.888524
L 326.511283 241.024858
L 327.472144 233.040915
L 328.433006 260.305555
L 329.393868 244.266241
L 330.354729 232.721535
L 331.315591 245.329416
L 332.276453 235.967033
L 333.237315 272.655407
L 334.198176 238.126405
L 336.1199 229.494543
L 337.080762 260.175973
L 338.041623 219.172115
L 339.002485 243.34742
L 339.963347 244.407967
L 340.924208 238.623113
L 341.88507 254.311555
L 342.845932 250.307913
L 343.806794 264.377446
L 344.767655 255.53317
L 345.728517 263.544042
L 346.689379 216.980064
L 347.65024 245.04305
L 348.611102 245.920477
L 349.571964 236.047001
L 350.532826 266.208525
L 351.493687 229.559802
L 352.454549 255.808937
L 353.415411 240.639946
L 354.376273 269.238095
L 355.337134 251.177507
L 356.297996 258.984203
L 357.258858 252.723533
L 358.219719 248.373952
L 359.180581 259.116228
L 360.141443 259.026282
L 361.102305 274.721733
L 362.063166 278.179759
L 363.98489 244.130307
L 364.945752 267.004114
L 365.906613 279.050099
L 366.867475 252.973344
L 367.828337 237.983117
L 368.789198 290.627824
L 369.75006 268.860544
L 370.710922 270.908644
L 371.671784 269.358958
L 372.632645 283.547575
L 373.593507 272.135701
L 374.554369 238.159674
L 375.51523 277.401217
L 376.476092 262.564331
L 377.436954 282.353983
L 378.397816 280.291584
L 379.358677 273.127847
L 380.319539 297.362384
L 381.280401 269.995598
L 382.241263 252.266254
L 383.202124 260.83387
L 384.162986 257.425323
L 385.123848 283.606782
L 386.084709 300.486155
L 387.045571 285.318444
L 388.006433 278.76075
L 388.967295 295.016678
L 389.928156 281.395558
L 390.889018 277.802791
L 391.84988 239.170851
L 392.810741 265.7403
L 393.771603 264.878022
L 394.732465 260.83751
L 395.693327 309.552071
L 396.654188 250.755156
L 397.61505 285.831522
L 398.575912 274.362271
L 399.536774 301.321614
L 400.497635 275.065496
L 401.458497 277.650688
L 402.419359 282.467451
L 403.38022 280.461722
L 404.341082 276.613888
L 405.301944 268.95017
L 406.262806 286.128306
L 407.223667 274.729194
L 408.184529 301.418444
L 409.145391 271.102673
L 410.106253 293.822907
L 411.067114 279.34446
L 412.027976 282.256639
L 412.988838 293.636595
L 413.949699 273.428718
L 414.910561 260.631924
L 415.871423 322.063636
L 416.832285 289.343872
L 417.793146 305.6104
L 418.754008 297.920443
L 419.71487 299.940156
L 420.675731 291.717768
L 421.636593 290.576814
L 422.597455 264.857683
L 423.558317 268.503795
L 424.519178 272.791311
L 425.48004 275.885719
L 426.440902 294.154138
L 427.401764 287.400327
L 428.362625 247.382225
L 429.323487 311.517627
L 430.284349 280.507747
L 431.24521 280.214808
L 432.206072 298.613387
L 433.166934 275.351911
L 434.127796 288.378428
L 435.088657 264.131481
L 436.049519 261.957098
L 437.010381 279.182364
L 437.971242 265.123635
L 438.932104 301.465633
L 439.892966 276.201396
L 440.853828 278.566149
L 441.814689 255.649695
L 442.775551 267.504226
L 443.736413 268.711981
L 444.697275 278.620846
L 445.658136 276.111754
L 446.618998 292.583151
L 447.57986 287.583923
L 448.540721 280.708771
L 449.501583 279.557002
L 450.462445 258.01778
L 451.423307 272.297217
L 452.384168 280.785378
L 453.34503 278.081779
L 454.305892 277.013174
L 455.266754 268.692263
L 456.227615 270.92385
L 457.188477 259.395927
L 458.149339 276.6724
L 459.1102 282.061108
L 460.071062 288.146096
L 461.992786 265.90642
L 462.953647 253.333157
L 463.914509 289.302032
L 464.875371 234.451018
L 465.836232 241.292793
L 466.797094 253.878145
L 467.757956 232.068318
L 468.718818 277.575513
L 469.679679 268.029751
L 470.640541 272.582197
L 471.601403 263.796446
L 472.562265 251.183597
L 473.523126 242.502886
L 474.483988 246.077478
L 475.44485 259.40518
L 476.405711 252.81523
L 477.366573 264.724362
L 478.327435 270.793913
L 479.288297 248.676113
L 480.249158 273.171447
L 481.21002 251.809484
L 482.170882 273.03557
L 483.131743 242.488986
L 484.092605 259.838746
L 485.053467 265.348385
L 486.014329 230.073835
L 486.97519 252.811514
L 487.936052 262.496909
L 488.896914 252.216931
L 489.857776 262.698147
L 490.818637 256.673866
L 491.779499 243.96239
L 492.740361 259.487926
L 493.701222 213.352074
L 494.662084 242.015903
L 495.622946 252.184916
L 496.583808 233.868992
L 497.544669 228.949021
L 498.505531 235.468904
L 499.466393 249.079368
L 500.427255 232.065343
L 501.388116 235.766123
L 502.348978 245.369616
L 503.30984 249.676349
L 504.270701 215.692592
L 505.231563 244.513896
L 506.192425 262.390839
L 507.153287 227.779573
L 508.114148 208.980397
L 509.07501 221.626855
L 510.035872 247.979389
L 510.996733 228.197703
L 511.957595 220.751003
L 512.918457 226.85696
L 513.879319 247.438926
L 514.84018 210.170763
L 515.801042 242.452408
L 516.761904 230.002508
L 517.722766 247.804167
L 518.683627 235.064188
L 519.644489 214.905257
L 520.605351 223.462121
L 521.566212 235.67443
L 522.527074 231.467967
L 523.487936 245.356256
L 524.448798 207.722909
L 525.409659 227.344029
L 527.331383 232.714962
L 528.292244 248.050652
L 529.253106 202.35039
L 530.213968 220.718649
L 531.17483 248.975898
L 532.135691 246.110466
L 533.096553 224.309344
L 534.057415 215.98366
L 535.018277 192.936364
L 536.94 240.143185
L 536.94 240.143185
" style="fill:none;stroke:#d3d3d3;stroke-linecap:square;stroke-width:1.5;"/>
   </g>
   <g id="line2d_29">
    <path clip-path="url(#pcc9bfa2784)" d="M 57.47 253.151259
L 58.430862 250.353192
L 59.391723 249.82314
L 60.352585 250.609225
L 61.313447 249.072624
L 63.23517 244.905272
L 65.156894 244.276144
L 66.117756 242.785647
L 68.039479 242.422143
L 69.000341 242.48886
L 70.922064 239.625843
L 71.882926 241.427795
L 72.843788 244.784556
L 73.804649 244.242157
L 74.765511 242.534597
L 75.726373 243.831355
L 76.687234 246.468769
L 77.648096 245.415429
L 78.608958 247.931102
L 80.530681 247.132006
L 81.491543 245.588779
L 82.452405 248.192822
L 83.413267 249.147706
L 84.374128 250.660638
L 85.33499 250.213988
L 86.295852 248.601843
L 87.256713 252.878056
L 88.217575 256.637405
L 89.178437 260.997722
L 90.139299 260.395612
L 91.10016 263.131197
L 92.061022 263.988592
L 93.021884 263.745131
L 93.982745 264.776671
L 94.943607 263.006903
L 95.904469 263.864959
L 96.865331 261.986924
L 97.826192 261.56299
L 98.787054 265.102683
L 99.747916 262.413825
L 100.708778 263.515919
L 101.669639 263.144887
L 102.630501 260.431749
L 103.591363 263.50555
L 104.552224 263.59964
L 105.513086 263.136792
L 107.43481 264.497068
L 108.395671 262.762412
L 109.356533 262.71539
L 110.317395 265.254758
L 111.278257 263.098072
L 112.239118 265.138363
L 113.19998 264.315516
L 114.160842 267.316034
L 115.121703 268.5951
L 116.082565 267.886679
L 117.043427 266.739295
L 118.96515 272.482841
L 119.926012 272.637525
L 120.886874 272.622262
L 122.808597 275.86294
L 123.769459 274.573563
L 124.730321 275.682719
L 126.652044 275.989558
L 127.612906 276.66958
L 128.573768 276.778292
L 129.534629 274.950899
L 130.495491 276.27336
L 131.456353 276.130539
L 132.417214 277.027944
L 134.338938 280.51768
L 135.2998 279.09848
L 136.260661 279.695117
L 137.221523 278.468028
L 138.182385 277.536692
L 140.104108 277.183774
L 141.06497 278.689731
L 142.025832 279.313809
L 142.986693 273.785753
L 143.947555 275.088985
L 144.908417 274.402659
L 145.869279 275.816965
L 146.83014 277.717674
L 147.791002 278.397554
L 148.751864 277.776066
L 149.712725 278.562869
L 150.673587 279.574256
L 151.634449 279.973158
L 152.595311 278.099205
L 153.556172 277.252908
L 154.517034 278.272964
L 155.477896 278.785292
L 157.399619 281.320678
L 158.360481 281.822784
L 159.321343 278.103278
L 160.282204 278.713446
L 161.243066 277.21092
L 162.203928 278.996874
L 163.16479 279.323777
L 164.125651 278.906872
L 165.086513 279.271547
L 166.047375 280.044897
L 167.008236 280.453859
L 167.969098 280.734268
L 169.890822 281.44215
L 170.851683 281.363146
L 171.812545 280.740222
L 172.773407 279.677626
L 173.734269 278.219735
L 174.69513 272.618646
L 175.655992 272.974464
L 176.616854 274.56414
L 177.577715 274.223866
L 178.538577 273.327909
L 180.460301 274.172162
L 181.421162 274.905145
L 183.342886 276.934038
L 184.303747 278.175265
L 185.264609 278.69773
L 186.225471 277.766951
L 187.186333 277.682807
L 188.147194 278.162763
L 189.108056 277.417701
L 190.068918 277.411074
L 191.02978 275.83566
L 191.990641 277.266961
L 192.951503 275.57232
L 193.912365 269.590597
L 194.873226 268.629234
L 195.834088 266.677132
L 196.79495 266.354701
L 197.755812 265.108475
L 198.716673 265.50233
L 200.638397 268.347759
L 201.599259 268.05821
L 202.56012 266.670546
L 203.520982 268.065544
L 205.442705 263.480024
L 206.403567 261.279857
L 207.364429 256.661164
L 208.325291 259.286415
L 209.286152 255.10746
L 210.247014 257.597549
L 211.207876 257.600502
L 212.168737 256.254329
L 213.129599 252.247966
L 214.090461 248.949243
L 215.051323 250.744387
L 216.012184 252.997203
L 216.973046 254.005765
L 217.933908 250.884411
L 218.89477 253.051725
L 219.855631 251.358472
L 220.816493 254.47402
L 221.777355 250.404444
L 222.738216 250.897791
L 223.699078 250.228571
L 224.65994 251.06804
L 225.620802 252.510461
L 226.581663 253.711037
L 227.542525 253.157953
L 228.503387 249.618457
L 229.464248 249.241999
L 230.42511 246.136181
L 231.385972 249.310101
L 232.346834 248.142075
L 233.307695 246.36792
L 235.229419 241.323725
L 236.190281 240.30936
L 237.151142 237.304394
L 238.112004 236.524005
L 239.072866 237.587479
L 240.033727 238.031586
L 240.994589 237.554538
L 241.955451 235.679209
L 242.916313 235.209541
L 243.877174 233.643061
L 244.838036 232.669717
L 245.798898 233.680567
L 246.75976 232.476797
L 247.720621 234.402509
L 248.681483 236.606073
L 249.642345 235.901197
L 250.603206 234.350165
L 251.564068 232.449395
L 252.52493 231.597778
L 253.485792 235.066035
L 254.446653 234.894678
L 255.407515 235.738892
L 256.368377 234.471365
L 258.2901 231.383833
L 259.250962 230.325499
L 260.211824 228.860009
L 261.172685 228.163557
L 262.133547 228.616183
L 263.094409 227.41775
L 264.055271 227.459939
L 265.016132 228.706275
L 265.976994 227.74157
L 266.937856 227.298683
L 267.898717 226.213339
L 268.859579 226.64798
L 269.820441 226.117725
L 270.781303 226.27267
L 271.742164 228.451289
L 272.703026 228.60603
L 273.663888 228.634034
L 274.624749 232.1997
L 275.585611 234.902488
L 277.507335 233.826693
L 278.468196 233.116514
L 279.429058 234.529897
L 280.38992 233.600726
L 281.350782 234.110014
L 282.311643 232.390394
L 283.272505 233.556421
L 284.233367 234.349007
L 285.194228 233.926354
L 286.15509 232.695183
L 287.115952 232.194459
L 288.076814 232.027952
L 289.037675 230.350357
L 289.998537 229.576693
L 292.881122 229.58278
L 293.841984 231.620898
L 294.802846 233.32042
L 295.763707 232.771218
L 296.724569 231.999579
L 297.685431 230.924388
L 298.646293 230.615269
L 299.607154 229.987345
L 300.568016 229.200252
L 301.528878 228.73583
L 302.489739 228.621714
L 303.450601 231.69102
L 304.411463 233.596947
L 306.333186 238.700031
L 307.294048 238.974058
L 308.25491 238.485923
L 309.215772 239.294841
L 310.176633 243.789894
L 311.137495 247.526892
L 312.098357 245.547483
L 313.059218 243.927187
L 314.02008 245.055816
L 314.980942 244.773512
L 315.941804 249.850765
L 316.902665 251.273235
L 317.863527 249.158341
L 318.824389 252.337027
L 319.785251 250.490497
L 320.746112 249.473681
L 321.706974 252.63105
L 322.667836 253.045265
L 323.628697 252.897811
L 324.589559 252.469115
L 325.550421 251.027805
L 326.511283 249.103051
L 327.472144 249.185555
L 328.433006 253.32699
L 329.393868 254.501485
L 330.354729 257.427213
L 331.315591 258.609197
L 332.276453 260.750272
L 334.198176 264.126107
L 336.1199 262.443597
L 337.080762 264.951805
L 338.041623 262.332916
L 339.002485 265.035285
L 339.963347 267.062994
L 341.88507 269.948392
L 342.845932 267.772118
L 343.806794 270.251826
L 344.767655 270.786682
L 345.728517 268.232904
L 346.689379 265.020301
L 347.65024 266.896914
L 348.611102 265.187435
L 349.571964 266.164753
L 350.532826 269.382413
L 351.493687 265.260369
L 352.454549 268.501279
L 353.415411 269.060733
L 354.376273 272.110981
L 355.337134 273.626529
L 356.297996 275.399179
L 357.258858 272.822586
L 358.219719 272.432604
L 360.141443 277.0909
L 361.102305 277.214681
L 362.063166 278.255335
L 363.024028 275.845704
L 363.98489 272.68846
L 365.906613 277.784533
L 366.867475 275.655099
L 367.828337 273.076643
L 368.789198 273.574176
L 369.75006 275.389159
L 370.710922 275.746054
L 371.671784 276.356672
L 373.593507 280.341589
L 374.554369 279.156633
L 376.476092 281.179757
L 377.436954 281.901783
L 378.397816 283.335096
L 379.358677 284.486787
L 380.319539 285.264513
L 381.280401 286.363055
L 383.202124 279.538231
L 384.162986 278.466958
L 385.123848 275.957842
L 387.045571 278.986798
L 388.006433 279.954131
L 388.967295 281.460748
L 389.928156 282.66077
L 390.889018 282.990092
L 391.84988 276.976585
L 392.810741 278.810587
L 393.771603 278.699625
L 394.732465 277.793209
L 395.693327 279.017419
L 396.654188 279.449724
L 397.61505 277.318136
L 398.575912 278.136925
L 399.536774 277.498403
L 400.497635 276.506924
L 401.458497 278.401043
L 402.419359 279.21492
L 403.38022 277.390057
L 404.341082 276.023938
L 405.301944 273.316121
L 406.262806 274.27123
L 407.223667 275.975689
L 408.184529 276.31893
L 409.145391 272.920411
L 410.106253 274.038583
L 412.027976 275.289486
L 412.988838 277.065229
L 413.949699 272.519855
L 414.910561 269.831776
L 415.871423 271.383096
L 416.832285 271.610122
L 417.793146 273.070109
L 418.754008 274.000034
L 419.71487 274.290463
L 420.675731 272.507325
L 421.636593 272.315741
L 422.597455 268.408146
L 423.558317 265.115223
L 424.519178 266.146039
L 425.48004 266.991569
L 426.440902 268.301544
L 427.401764 269.220561
L 428.362625 266.268077
L 429.323487 268.150644
L 430.284349 264.15527
L 431.24521 262.60094
L 432.206072 264.656786
L 433.166934 263.442213
L 434.127796 264.279939
L 436.049519 260.595156
L 437.010381 261.25085
L 437.971242 261.332405
L 438.932104 262.620189
L 439.892966 260.272332
L 440.853828 257.554109
L 441.814689 256.125603
L 442.775551 252.226312
L 443.736413 255.279617
L 444.697275 253.933019
L 445.658136 253.488364
L 446.618998 256.855621
L 448.540721 251.505057
L 449.501583 253.227333
L 450.462445 253.208678
L 451.423307 255.734102
L 452.384168 253.42218
L 453.34503 252.710769
L 454.305892 254.737559
L 455.266754 251.759194
L 456.227615 252.06904
L 457.188477 251.876499
L 458.149339 248.034925
L 459.1102 248.481302
L 460.071062 251.265853
L 461.031924 252.308337
L 461.992786 253.845063
L 462.953647 249.949937
L 463.914509 252.481544
L 464.875371 248.520445
L 465.836232 246.194847
L 466.797094 246.019548
L 467.757956 243.422885
L 468.718818 241.979369
L 469.679679 243.131958
L 470.640541 243.515509
L 471.601403 246.42123
L 472.562265 244.92032
L 473.523126 241.930392
L 475.44485 238.09529
L 476.405711 235.735822
L 478.327435 240.84686
L 479.288297 238.708287
L 480.249158 240.256289
L 481.21002 238.164757
L 482.170882 236.432177
L 483.131743 236.315041
L 484.092605 234.186977
L 485.053467 232.739224
L 486.014329 232.19422
L 486.97519 233.56839
L 487.936052 234.435201
L 488.896914 234.684295
L 489.857776 236.313225
L 490.818637 236.09265
L 491.779499 234.706499
L 492.740361 235.910786
L 493.701222 234.096061
L 494.662084 236.541161
L 495.622946 235.883446
L 496.583808 234.158047
L 497.544669 233.921325
L 498.505531 231.690944
L 499.466393 231.771018
L 500.427255 230.511153
L 501.388116 230.837915
L 502.348978 230.276302
L 503.30984 232.889995
L 504.270701 232.36482
L 505.231563 232.118123
L 507.153287 231.084735
L 508.114148 230.092657
L 509.07501 229.563556
L 510.035872 230.385812
L 510.996733 229.64945
L 511.957595 230.280804
L 512.918457 230.582972
L 513.879319 231.660714
L 514.84018 231.163408
L 515.801042 230.526097
L 516.761904 230.130778
L 517.722766 235.269542
L 520.605351 232.511752
L 521.566212 230.753861
L 522.527074 230.82471
L 523.487936 235.069209
L 524.448798 233.725562
L 525.409659 235.276681
L 527.331383 234.815621
L 528.292244 233.838414
L 529.253106 233.357341
L 530.213968 233.024449
L 531.17483 235.089711
L 532.135691 238.381611
L 533.096553 239.774915
L 534.057415 237.913862
L 535.018277 236.854638
L 535.979138 237.465807
L 536.94 240.680656
L 536.94 240.680656
" style="fill:none;stroke:#cd5c5c;stroke-linecap:square;stroke-width:1.5;"/>
   </g>
   <g id="line2d_30">
    <path clip-path="url(#pcc9bfa2784)" d="M 57.47 235.225439
L 62.274309 238.011293
L 67.078617 241.083453
L 72.843788 245.079205
L 79.56982 250.051397
L 93.021884 260.397665
L 100.708778 266.152859
L 106.473948 270.214411
L 111.278257 273.356952
L 116.082565 276.226143
L 119.926012 278.293991
L 123.769459 280.136758
L 127.612906 281.735762
L 131.456353 283.07479
L 135.2998 284.140268
L 139.143246 284.921393
L 142.986693 285.410246
L 145.869279 285.581987
L 148.751864 285.585495
L 151.634449 285.420751
L 155.477896 284.941127
L 159.321343 284.169031
L 163.16479 283.112291
L 167.008236 281.781619
L 170.851683 280.190508
L 174.69513 278.355088
L 178.538577 276.293968
L 183.342886 273.432212
L 188.147194 270.295915
L 193.912365 266.240145
L 200.638397 261.222978
L 222.738216 244.47862
L 228.503387 240.527241
L 233.307695 237.501791
L 238.112004 234.770715
L 241.955451 232.827037
L 245.798898 231.119242
L 249.642345 229.664645
L 253.485792 228.477993
L 257.329238 227.571317
L 261.172685 226.953809
L 265.016132 226.631731
L 267.898717 226.586125
L 270.781303 226.708856
L 274.624749 227.13301
L 278.468196 227.850775
L 282.311643 228.854875
L 286.15509 230.13513
L 289.998537 231.67856
L 293.841984 233.469517
L 297.685431 235.489844
L 302.489739 238.306395
L 307.294048 241.404579
L 313.059218 245.424816
L 319.785251 250.415592
L 343.806794 268.556036
L 349.571964 272.440704
L 354.376273 275.396882
L 358.219719 277.543846
L 362.063166 279.473335
L 365.906613 281.165787
L 369.75006 282.604042
L 373.593507 283.773518
L 377.436954 284.662361
L 381.280401 285.261557
L 385.123848 285.565031
L 388.006433 285.596606
L 390.889018 285.459864
L 394.732465 285.017203
L 398.575912 284.281298
L 402.419359 283.259611
L 406.262806 281.962499
L 410.106253 280.403113
L 413.949699 278.597263
L 417.793146 276.563257
L 422.597455 273.731526
L 427.401764 270.620514
L 433.166934 266.588272
L 439.892966 261.588501
L 462.953647 244.137942
L 468.718818 240.212781
L 473.523126 237.214684
L 478.327435 234.515507
L 482.170882 232.600284
L 486.014329 230.923243
L 489.857776 229.501387
L 493.701222 228.349131
L 497.544669 227.478158
L 501.388116 226.897297
L 505.231563 226.612439
L 508.114148 226.594897
L 510.996733 226.745643
L 514.84018 227.206794
L 518.683627 227.96081
L 522.527074 229.000044
L 526.370521 230.313962
L 530.213968 231.889242
L 534.057415 233.709913
L 536.94 235.225439
L 536.94 235.225439
" style="fill:none;stroke:#cd5c5c;stroke-dasharray:5.55,2.4;stroke-dashoffset:0;stroke-width:1.5;"/>
   </g>
   <g id="patch_8">
    <path d="M 57.47 328.52
L 57.47 186.48
" style="fill:none;stroke:#b0b0b0;stroke-linecap:square;stroke-linejoin:miter;stroke-width:0.8;"/>
   </g>
   <g id="patch_9">
    <path d="M 536.94 328.52
L 536.94 186.48
" style="fill:none;stroke:#b0b0b0;stroke-linecap:square;stroke-linejoin:miter;stroke-width:0.8;"/>
   </g>
   <g id="patch_10">
    <path d="M 57.47 328.52
L 536.94 328.52
" style="fill:none;stroke:#b0b0b0;stroke-linecap:square;stroke-linejoin:miter;stroke-width:0.8;"/>
   </g>
   <g id="patch_11">
    <path d="M 57.47 186.48
L 536.94 186.48
" style="fill:none;stroke:#b0b0b0;stroke-linecap:square;stroke-linejoin:miter;stroke-width:0.8;"/>
   </g>
   <g id="legend_2">
    <g id="line2d_31">
     <path d="M 571.7135 202.198125
L 595.7135 202.198125
" style="fill:none;stroke:#d3d3d3;stroke-linecap:square;stroke-width:1.5;"/>
    </g>
    <g id="line2d_32"/>
    <g id="text_24">
     <!-- Input value -->
     <g transform="translate(605.3135 206.398125)scale(0.12 -0.12)">
      <use xlink:href="#DejaVuSans-73"/>
      <use x="29.492188" xlink:href="#DejaVuSans-110"/>
      <use x="92.871094" xlink:href="#DejaVuSans-112"/>
      <use x="156.347656" xlink:href="#DejaVuSans-117"/>
      <use x="219.726562" xlink:href="#DejaVuSans-116"/>
      <use x="258.935547" xlink:href="#DejaVuSans-32"/>
      <use x="290.722656" xlink:href="#DejaVuSans-118"/>
      <use x="349.902344" xlink:href="#DejaVuSans-97"/>
      <use x="411.181641" xlink:href="#DejaVuSans-108"/>
      <use x="438.964844" xlink:href="#DejaVuSans-117"/>
      <use x="502.34375" xlink:href="#DejaVuSans-101"/>
     </g>
    </g>
    <g id="line2d_33">
     <path d="M 571.7135 219.811875
L 595.7135 219.811875
" style="fill:none;stroke:#cd5c5c;stroke-linecap:square;stroke-width:1.5;"/>
    </g>
    <g id="line2d_34"/>
    <g id="text_25">
     <!-- Predicted value -->
     <g transform="translate(605.3135 224.011875)scale(0.12 -0.12)">
      <use xlink:href="#DejaVuSans-80"/>
      <use x="58.552734" xlink:href="#DejaVuSans-114"/>
      <use x="97.416016" xlink:href="#DejaVuSans-101"/>
      <use x="158.939453" xlink:href="#DejaVuSans-100"/>
      <use x="222.416016" xlink:href="#DejaVuSans-105"/>
      <use x="250.199219" xlink:href="#DejaVuSans-99"/>
      <use x="305.179688" xlink:href="#DejaVuSans-116"/>
      <use x="344.388672" xlink:href="#DejaVuSans-101"/>
      <use x="405.912109" xlink:href="#DejaVuSans-100"/>
      <use x="469.388672" xlink:href="#DejaVuSans-32"/>
      <use x="501.175781" xlink:href="#DejaVuSans-118"/>
      <use x="560.355469" xlink:href="#DejaVuSans-97"/>
      <use x="621.634766" xlink:href="#DejaVuSans-108"/>
      <use x="649.417969" xlink:href="#DejaVuSans-117"/>
      <use x="712.796875" xlink:href="#DejaVuSans-101"/>
     </g>
    </g>
    <g id="line2d_35">
     <path d="M 571.7135 237.425625
L 595.7135 237.425625
" style="fill:none;stroke:#cd5c5c;stroke-dasharray:5.55,2.4;stroke-dashoffset:0;stroke-width:1.5;"/>
    </g>
    <g id="line2d_36"/>
    <g id="text_26">
     <!-- Expected value -->
     <g transform="translate(605.3135 241.625625)scale(0.12 -0.12)">
      <use xlink:href="#DejaVuSans-69"/>
      <use x="63.183594" xlink:href="#DejaVuSans-120"/>
      <use x="122.363281" xlink:href="#DejaVuSans-112"/>
      <use x="185.839844" xlink:href="#DejaVuSans-101"/>
      <use x="247.363281" xlink:href="#DejaVuSans-99"/>
      <use x="302.34375" xlink:href="#DejaVuSans-116"/>
      <use x="341.552734" xlink:href="#DejaVuSans-101"/>
      <use x="403.076172" xlink:href="#DejaVuSans-100"/>
      <use x="466.552734" xlink:href="#DejaVuSans-32"/>
      <use x="498.339844" xlink:href="#DejaVuSans-118"/>
      <use x="557.519531" xlink:href="#DejaVuSans-97"/>
      <use x="618.798828" xlink:href="#DejaVuSans-108"/>
      <use x="646.582031" xlink:href="#DejaVuSans-117"/>
      <use x="709.960938" xlink:href="#DejaVuSans-101"/>
     </g>
    </g>
   </g>
  </g>
 </g>
 <defs>
  <clipPath id="pd996ee37b8">
   <rect height="142.04" width="479.47" x="57.47" y="12.96"/>
  </clipPath>
  <clipPath id="pcc9bfa2784">
   <rect height="142.04" width="479.47" x="57.47" y="186.48"/>
  </clipPath>
 </defs>
</svg>
