<?xml version="1.0" encoding="utf-8" standalone="no"?>
<!DOCTYPE svg PUBLIC "-//W3C//DTD SVG 1.1//EN"
  "http://www.w3.org/Graphics/SVG/1.1/DTD/svg11.dtd">
<!-- Created with matplotlib (https://matplotlib.org/) -->
<svg height="360pt" version="1.1" viewBox="0 0 720 360" width="720pt" xmlns="http://www.w3.org/2000/svg" xmlns:xlink="http://www.w3.org/1999/xlink">
 <metadata>
  <rdf:RDF xmlns:cc="http://creativecommons.org/ns#" xmlns:dc="http://purl.org/dc/elements/1.1/" xmlns:rdf="http://www.w3.org/1999/02/22-rdf-syntax-ns#">
   <cc:Work>
    <dc:type rdf:resource="http://purl.org/dc/dcmitype/StillImage"/>
    <dc:date>2021-02-03T11:59:41.259947</dc:date>
    <dc:format>image/svg+xml</dc:format>
    <dc:creator>
     <cc:Agent>
      <dc:title>Matplotlib v3.3.3, https://matplotlib.org/</dc:title>
     </cc:Agent>
    </dc:creator>
   </cc:Work>
  </rdf:RDF>
 </metadata>
 <defs>
  <style type="text/css">*{stroke-linecap:butt;stroke-linejoin:round;}</style>
 </defs>
 <g id="figure_1">
  <g id="patch_1">
   <path d="M 0 360
L 720 360
L 720 0
L 0 0
z
" style="fill:#ffffff;"/>
  </g>
  <g id="axes_1">
   <g id="patch_2">
    <path d="M 68.9 155
L 530.46 155
L 530.46 12.96
L 68.9 12.96
z
" style="fill:#ffffff;"/>
   </g>
   <g id="matplotlib.axis_1">
    <g id="xtick_1">
     <g id="line2d_1">
      <defs>
       <path d="M 0 0
L 0 3.5
" id="m64b7643c12" style="stroke:#000000;stroke-width:0.8;"/>
      </defs>
      <g>
       <use style="stroke:#000000;stroke-width:0.8;" x="68.9" xlink:href="#m64b7643c12" y="155"/>
      </g>
     </g>
     <g id="text_1">
      <!-- 0 -->
      <g transform="translate(65.0825 171.118125)scale(0.12 -0.12)">
       <defs>
        <path d="M 31.78125 66.40625
Q 24.171875 66.40625 20.328125 58.90625
Q 16.5 51.421875 16.5 36.375
Q 16.5 21.390625 20.328125 13.890625
Q 24.171875 6.390625 31.78125 6.390625
Q 39.453125 6.390625 43.28125 13.890625
Q 47.125 21.390625 47.125 36.375
Q 47.125 51.421875 43.28125 58.90625
Q 39.453125 66.40625 31.78125 66.40625
z
M 31.78125 74.21875
Q 44.046875 74.21875 50.515625 64.515625
Q 56.984375 54.828125 56.984375 36.375
Q 56.984375 17.96875 50.515625 8.265625
Q 44.046875 -1.421875 31.78125 -1.421875
Q 19.53125 -1.421875 13.0625 8.265625
Q 6.59375 17.96875 6.59375 36.375
Q 6.59375 54.828125 13.0625 64.515625
Q 19.53125 74.21875 31.78125 74.21875
z
" id="DejaVuSans-48"/>
       </defs>
       <use xlink:href="#DejaVuSans-48"/>
      </g>
     </g>
    </g>
    <g id="xtick_2">
     <g id="line2d_2">
      <g>
       <use style="stroke:#000000;stroke-width:0.8;" x="161.396994" xlink:href="#m64b7643c12" y="155"/>
      </g>
     </g>
     <g id="text_2">
      <!-- 100 -->
      <g transform="translate(149.944494 171.118125)scale(0.12 -0.12)">
       <defs>
        <path d="M 12.40625 8.296875
L 28.515625 8.296875
L 28.515625 63.921875
L 10.984375 60.40625
L 10.984375 69.390625
L 28.421875 72.90625
L 38.28125 72.90625
L 38.28125 8.296875
L 54.390625 8.296875
L 54.390625 0
L 12.40625 0
z
" id="DejaVuSans-49"/>
       </defs>
       <use xlink:href="#DejaVuSans-49"/>
       <use x="63.623047" xlink:href="#DejaVuSans-48"/>
       <use x="127.246094" xlink:href="#DejaVuSans-48"/>
      </g>
     </g>
    </g>
    <g id="xtick_3">
     <g id="line2d_3">
      <g>
       <use style="stroke:#000000;stroke-width:0.8;" x="253.893988" xlink:href="#m64b7643c12" y="155"/>
      </g>
     </g>
     <g id="text_3">
      <!-- 200 -->
      <g transform="translate(242.441488 171.118125)scale(0.12 -0.12)">
       <defs>
        <path d="M 19.1875 8.296875
L 53.609375 8.296875
L 53.609375 0
L 7.328125 0
L 7.328125 8.296875
Q 12.9375 14.109375 22.625 23.890625
Q 32.328125 33.6875 34.8125 36.53125
Q 39.546875 41.84375 41.421875 45.53125
Q 43.3125 49.21875 43.3125 52.78125
Q 43.3125 58.59375 39.234375 62.25
Q 35.15625 65.921875 28.609375 65.921875
Q 23.96875 65.921875 18.8125 64.3125
Q 13.671875 62.703125 7.8125 59.421875
L 7.8125 69.390625
Q 13.765625 71.78125 18.9375 73
Q 24.125 74.21875 28.421875 74.21875
Q 39.75 74.21875 46.484375 68.546875
Q 53.21875 62.890625 53.21875 53.421875
Q 53.21875 48.921875 51.53125 44.890625
Q 49.859375 40.875 45.40625 35.40625
Q 44.1875 33.984375 37.640625 27.21875
Q 31.109375 20.453125 19.1875 8.296875
z
" id="DejaVuSans-50"/>
       </defs>
       <use xlink:href="#DejaVuSans-50"/>
       <use x="63.623047" xlink:href="#DejaVuSans-48"/>
       <use x="127.246094" xlink:href="#DejaVuSans-48"/>
      </g>
     </g>
    </g>
    <g id="xtick_4">
     <g id="line2d_4">
      <g>
       <use style="stroke:#000000;stroke-width:0.8;" x="346.390982" xlink:href="#m64b7643c12" y="155"/>
      </g>
     </g>
     <g id="text_4">
      <!-- 300 -->
      <g transform="translate(334.938482 171.118125)scale(0.12 -0.12)">
       <defs>
        <path d="M 40.578125 39.3125
Q 47.65625 37.796875 51.625 33
Q 55.609375 28.21875 55.609375 21.1875
Q 55.609375 10.40625 48.1875 4.484375
Q 40.765625 -1.421875 27.09375 -1.421875
Q 22.515625 -1.421875 17.65625 -0.515625
Q 12.796875 0.390625 7.625 2.203125
L 7.625 11.71875
Q 11.71875 9.328125 16.59375 8.109375
Q 21.484375 6.890625 26.8125 6.890625
Q 36.078125 6.890625 40.9375 10.546875
Q 45.796875 14.203125 45.796875 21.1875
Q 45.796875 27.640625 41.28125 31.265625
Q 36.765625 34.90625 28.71875 34.90625
L 20.21875 34.90625
L 20.21875 43.015625
L 29.109375 43.015625
Q 36.375 43.015625 40.234375 45.921875
Q 44.09375 48.828125 44.09375 54.296875
Q 44.09375 59.90625 40.109375 62.90625
Q 36.140625 65.921875 28.71875 65.921875
Q 24.65625 65.921875 20.015625 65.03125
Q 15.375 64.15625 9.8125 62.3125
L 9.8125 71.09375
Q 15.4375 72.65625 20.34375 73.4375
Q 25.25 74.21875 29.59375 74.21875
Q 40.828125 74.21875 47.359375 69.109375
Q 53.90625 64.015625 53.90625 55.328125
Q 53.90625 49.265625 50.4375 45.09375
Q 46.96875 40.921875 40.578125 39.3125
z
" id="DejaVuSans-51"/>
       </defs>
       <use xlink:href="#DejaVuSans-51"/>
       <use x="63.623047" xlink:href="#DejaVuSans-48"/>
       <use x="127.246094" xlink:href="#DejaVuSans-48"/>
      </g>
     </g>
    </g>
    <g id="xtick_5">
     <g id="line2d_5">
      <g>
       <use style="stroke:#000000;stroke-width:0.8;" x="438.887976" xlink:href="#m64b7643c12" y="155"/>
      </g>
     </g>
     <g id="text_5">
      <!-- 400 -->
      <g transform="translate(427.435476 171.118125)scale(0.12 -0.12)">
       <defs>
        <path d="M 37.796875 64.3125
L 12.890625 25.390625
L 37.796875 25.390625
z
M 35.203125 72.90625
L 47.609375 72.90625
L 47.609375 25.390625
L 58.015625 25.390625
L 58.015625 17.1875
L 47.609375 17.1875
L 47.609375 0
L 37.796875 0
L 37.796875 17.1875
L 4.890625 17.1875
L 4.890625 26.703125
z
" id="DejaVuSans-52"/>
       </defs>
       <use xlink:href="#DejaVuSans-52"/>
       <use x="63.623047" xlink:href="#DejaVuSans-48"/>
       <use x="127.246094" xlink:href="#DejaVuSans-48"/>
      </g>
     </g>
    </g>
   </g>
   <g id="matplotlib.axis_2">
    <g id="ytick_1">
     <g id="line2d_6">
      <defs>
       <path d="M 0 0
L -3.5 0
" id="m3faecd9fda" style="stroke:#000000;stroke-width:0.8;"/>
      </defs>
      <g>
       <use style="stroke:#000000;stroke-width:0.8;" x="68.9" xlink:href="#m3faecd9fda" y="148.543716"/>
      </g>
     </g>
     <g id="text_6">
      <!-- −1.0 -->
      <g transform="translate(32.760625 153.102779)scale(0.12 -0.12)">
       <defs>
        <path d="M 10.59375 35.5
L 73.1875 35.5
L 73.1875 27.203125
L 10.59375 27.203125
z
" id="DejaVuSans-8722"/>
        <path d="M 10.6875 12.40625
L 21 12.40625
L 21 0
L 10.6875 0
z
" id="DejaVuSans-46"/>
       </defs>
       <use xlink:href="#DejaVuSans-8722"/>
       <use x="83.789062" xlink:href="#DejaVuSans-49"/>
       <use x="147.412109" xlink:href="#DejaVuSans-46"/>
       <use x="179.199219" xlink:href="#DejaVuSans-48"/>
      </g>
     </g>
    </g>
    <g id="ytick_2">
     <g id="line2d_7">
      <g>
       <use style="stroke:#000000;stroke-width:0.8;" x="68.9" xlink:href="#m3faecd9fda" y="116.261798"/>
      </g>
     </g>
     <g id="text_7">
      <!-- −0.5 -->
      <g transform="translate(32.760625 120.820861)scale(0.12 -0.12)">
       <defs>
        <path d="M 10.796875 72.90625
L 49.515625 72.90625
L 49.515625 64.59375
L 19.828125 64.59375
L 19.828125 46.734375
Q 21.96875 47.46875 24.109375 47.828125
Q 26.265625 48.1875 28.421875 48.1875
Q 40.625 48.1875 47.75 41.5
Q 54.890625 34.8125 54.890625 23.390625
Q 54.890625 11.625 47.5625 5.09375
Q 40.234375 -1.421875 26.90625 -1.421875
Q 22.3125 -1.421875 17.546875 -0.640625
Q 12.796875 0.140625 7.71875 1.703125
L 7.71875 11.625
Q 12.109375 9.234375 16.796875 8.0625
Q 21.484375 6.890625 26.703125 6.890625
Q 35.15625 6.890625 40.078125 11.328125
Q 45.015625 15.765625 45.015625 23.390625
Q 45.015625 31 40.078125 35.4375
Q 35.15625 39.890625 26.703125 39.890625
Q 22.75 39.890625 18.8125 39.015625
Q 14.890625 38.140625 10.796875 36.28125
z
" id="DejaVuSans-53"/>
       </defs>
       <use xlink:href="#DejaVuSans-8722"/>
       <use x="83.789062" xlink:href="#DejaVuSans-48"/>
       <use x="147.412109" xlink:href="#DejaVuSans-46"/>
       <use x="179.199219" xlink:href="#DejaVuSans-53"/>
      </g>
     </g>
    </g>
    <g id="ytick_3">
     <g id="line2d_8">
      <g>
       <use style="stroke:#000000;stroke-width:0.8;" x="68.9" xlink:href="#m3faecd9fda" y="83.97988"/>
      </g>
     </g>
     <g id="text_8">
      <!-- 0.0 -->
      <g transform="translate(42.81625 88.538943)scale(0.12 -0.12)">
       <use xlink:href="#DejaVuSans-48"/>
       <use x="63.623047" xlink:href="#DejaVuSans-46"/>
       <use x="95.410156" xlink:href="#DejaVuSans-48"/>
      </g>
     </g>
    </g>
    <g id="ytick_4">
     <g id="line2d_9">
      <g>
       <use style="stroke:#000000;stroke-width:0.8;" x="68.9" xlink:href="#m3faecd9fda" y="51.697962"/>
      </g>
     </g>
     <g id="text_9">
      <!-- 0.5 -->
      <g transform="translate(42.81625 56.257024)scale(0.12 -0.12)">
       <use xlink:href="#DejaVuSans-48"/>
       <use x="63.623047" xlink:href="#DejaVuSans-46"/>
       <use x="95.410156" xlink:href="#DejaVuSans-53"/>
      </g>
     </g>
    </g>
    <g id="ytick_5">
     <g id="line2d_10">
      <g>
       <use style="stroke:#000000;stroke-width:0.8;" x="68.9" xlink:href="#m3faecd9fda" y="19.416044"/>
      </g>
     </g>
     <g id="text_10">
      <!-- 1.0 -->
      <g transform="translate(42.81625 23.975106)scale(0.12 -0.12)">
       <use xlink:href="#DejaVuSans-49"/>
       <use x="63.623047" xlink:href="#DejaVuSans-46"/>
       <use x="95.410156" xlink:href="#DejaVuSans-48"/>
      </g>
     </g>
    </g>
    <g id="text_11">
     <!-- $\sin(x)$ -->
     <g transform="translate(25.433125 106.46)rotate(-90)scale(0.16 -0.16)">
      <defs>
       <path d="M 44.28125 53.078125
L 44.28125 44.578125
Q 40.484375 46.53125 36.375 47.5
Q 32.28125 48.484375 27.875 48.484375
Q 21.1875 48.484375 17.84375 46.4375
Q 14.5 44.390625 14.5 40.28125
Q 14.5 37.15625 16.890625 35.375
Q 19.28125 33.59375 26.515625 31.984375
L 29.59375 31.296875
Q 39.15625 29.25 43.1875 25.515625
Q 47.21875 21.78125 47.21875 15.09375
Q 47.21875 7.46875 41.1875 3.015625
Q 35.15625 -1.421875 24.609375 -1.421875
Q 20.21875 -1.421875 15.453125 -0.5625
Q 10.6875 0.296875 5.421875 2
L 5.421875 11.28125
Q 10.40625 8.6875 15.234375 7.390625
Q 20.0625 6.109375 24.8125 6.109375
Q 31.15625 6.109375 34.5625 8.28125
Q 37.984375 10.453125 37.984375 14.40625
Q 37.984375 18.0625 35.515625 20.015625
Q 33.0625 21.96875 24.703125 23.78125
L 21.578125 24.515625
Q 13.234375 26.265625 9.515625 29.90625
Q 5.8125 33.546875 5.8125 39.890625
Q 5.8125 47.609375 11.28125 51.796875
Q 16.75 56 26.8125 56
Q 31.78125 56 36.171875 55.265625
Q 40.578125 54.546875 44.28125 53.078125
z
" id="DejaVuSans-115"/>
       <path d="M 9.421875 54.6875
L 18.40625 54.6875
L 18.40625 0
L 9.421875 0
z
M 9.421875 75.984375
L 18.40625 75.984375
L 18.40625 64.59375
L 9.421875 64.59375
z
" id="DejaVuSans-105"/>
       <path d="M 54.890625 33.015625
L 54.890625 0
L 45.90625 0
L 45.90625 32.71875
Q 45.90625 40.484375 42.875 44.328125
Q 39.84375 48.1875 33.796875 48.1875
Q 26.515625 48.1875 22.3125 43.546875
Q 18.109375 38.921875 18.109375 30.90625
L 18.109375 0
L 9.078125 0
L 9.078125 54.6875
L 18.109375 54.6875
L 18.109375 46.1875
Q 21.34375 51.125 25.703125 53.5625
Q 30.078125 56 35.796875 56
Q 45.21875 56 50.046875 50.171875
Q 54.890625 44.34375 54.890625 33.015625
z
" id="DejaVuSans-110"/>
       <path d="M 31 75.875
Q 24.46875 64.65625 21.28125 53.65625
Q 18.109375 42.671875 18.109375 31.390625
Q 18.109375 20.125 21.3125 9.0625
Q 24.515625 -2 31 -13.1875
L 23.1875 -13.1875
Q 15.875 -1.703125 12.234375 9.375
Q 8.59375 20.453125 8.59375 31.390625
Q 8.59375 42.28125 12.203125 53.3125
Q 15.828125 64.359375 23.1875 75.875
z
" id="DejaVuSans-40"/>
       <path d="M 60.015625 54.6875
L 34.90625 27.875
L 50.296875 0
L 39.984375 0
L 28.421875 21.6875
L 8.296875 0
L -2.59375 0
L 24.3125 28.8125
L 10.015625 54.6875
L 20.3125 54.6875
L 30.8125 34.90625
L 49.125 54.6875
z
" id="DejaVuSans-Oblique-120"/>
       <path d="M 8.015625 75.875
L 15.828125 75.875
Q 23.140625 64.359375 26.78125 53.3125
Q 30.421875 42.28125 30.421875 31.390625
Q 30.421875 20.453125 26.78125 9.375
Q 23.140625 -1.703125 15.828125 -13.1875
L 8.015625 -13.1875
Q 14.5 -2 17.703125 9.0625
Q 20.90625 20.125 20.90625 31.390625
Q 20.90625 42.671875 17.703125 53.65625
Q 14.5 64.65625 8.015625 75.875
z
" id="DejaVuSans-41"/>
      </defs>
      <use transform="translate(0 0.015625)" xlink:href="#DejaVuSans-115"/>
      <use transform="translate(52.099609 0.015625)" xlink:href="#DejaVuSans-105"/>
      <use transform="translate(79.882812 0.015625)" xlink:href="#DejaVuSans-110"/>
      <use transform="translate(143.261719 0.015625)" xlink:href="#DejaVuSans-40"/>
      <use transform="translate(182.275391 0.015625)" xlink:href="#DejaVuSans-Oblique-120"/>
      <use transform="translate(241.455078 0.015625)" xlink:href="#DejaVuSans-41"/>
     </g>
    </g>
   </g>
   <g id="line2d_11">
    <path clip-path="url(#p9c4fe63c22)" d="M 68.9 83.97988
L 78.149699 67.892012
L 83.699519 58.663424
L 88.324369 51.405056
L 92.024248 45.96447
L 95.724128 40.9093
L 99.424008 36.290799
L 102.198918 33.141836
L 104.973828 30.282902
L 107.748737 27.730309
L 110.523647 25.498619
L 113.298557 23.600564
L 116.073467 22.046972
L 118.848377 20.846706
L 120.698317 20.246287
L 122.548257 19.80751
L 124.398196 19.531489
L 126.248136 19.418923
L 128.098076 19.470097
L 129.948016 19.684883
L 131.797956 20.062735
L 133.647896 20.602694
L 135.497836 21.303392
L 138.272745 22.651826
L 141.047655 24.350136
L 143.822565 26.388632
L 146.597475 28.755686
L 149.372385 31.437793
L 152.147295 34.419651
L 154.922204 37.684251
L 158.622084 42.444458
L 162.321964 47.62577
L 166.021844 53.175657
L 170.646693 60.545293
L 176.196513 69.867949
L 184.521242 84.386357
L 193.770942 100.461085
L 199.320762 109.669759
L 203.945611 116.905006
L 207.645491 122.323083
L 211.345371 127.352418
L 215.045251 131.942024
L 217.82016 135.067483
L 220.59507 137.901487
L 223.36998 140.42787
L 226.14489 142.632217
L 228.9198 144.501954
L 231.694709 146.026413
L 234.469619 147.196898
L 236.319559 147.777187
L 238.169499 148.195671
L 240.019439 148.451291
L 241.869379 148.543396
L 243.719319 148.471755
L 245.569259 148.236548
L 247.419198 147.838372
L 249.269138 147.278236
L 251.119078 146.557563
L 253.893988 145.179651
L 256.668898 143.452595
L 259.443808 141.386248
L 262.218717 138.992399
L 264.993627 136.284704
L 267.768537 133.278611
L 270.543447 129.99127
L 274.243327 125.203282
L 277.943206 119.997354
L 281.643086 114.426264
L 286.267936 107.035247
L 291.817756 97.694883
L 300.142485 83.166943
L 309.392184 67.105992
L 314.942004 57.917596
L 319.566854 50.705756
L 323.266733 45.310405
L 326.966613 40.307102
L 330.666493 35.746574
L 333.441403 32.644744
L 336.216313 29.835781
L 338.991222 27.335709
L 341.766132 25.158791
L 344.541042 23.317447
L 347.315952 21.822181
L 350.090862 20.681524
L 351.940802 20.121388
L 353.790741 19.723212
L 355.640681 19.488005
L 357.490621 19.416364
L 359.340561 19.508469
L 361.190501 19.764089
L 363.040441 20.182573
L 364.890381 20.762862
L 366.740321 21.503483
L 369.51523 22.910818
L 372.29014 24.666551
L 375.06505 26.760666
L 377.83996 29.181216
L 380.61487 31.914392
L 383.38978 34.9446
L 386.164689 38.254554
L 389.864569 43.070131
L 393.564449 48.30047
L 397.264329 53.892543
L 401.889178 61.304647
L 407.438998 70.662348
L 416.688697 86.824316
L 425.013427 101.245783
L 430.563246 110.413535
L 435.188096 117.601683
L 438.887976 122.974095
L 442.587856 127.951166
L 446.287735 132.482437
L 449.062645 135.560514
L 451.837555 138.344325
L 454.612465 140.817987
L 457.387375 142.967389
L 460.162285 144.780268
L 462.937194 146.246281
L 465.712104 147.357066
L 467.562044 147.897026
L 469.411984 148.274877
L 471.261924 148.489663
L 473.111864 148.540837
L 474.961804 148.428271
L 476.811743 148.15225
L 478.661683 147.713473
L 480.511623 147.113054
L 483.286533 145.912788
L 486.061443 144.359196
L 488.836353 142.461141
L 491.611263 140.229451
L 494.386172 137.676858
L 497.161082 134.817925
L 499.935992 131.668961
L 502.710902 128.247931
L 506.410782 123.297289
L 510.110661 117.948029
L 514.735511 110.783859
L 519.360361 103.195281
L 525.83515 92.088005
L 530.46 83.97988
L 530.46 83.97988
" style="fill:none;stroke:#ffa500;stroke-linecap:square;stroke-width:1.5;"/>
   </g>
   <g id="line2d_12">
    <path clip-path="url(#p9c4fe63c22)" d="M 68.9 38.326354
L 71.67491 35.010767
L 74.44982 31.974549
L 77.224729 29.23502
L 79.999639 26.80781
L 82.774549 24.706766
L 85.549459 22.943874
L 88.324369 21.529191
L 91.099279 20.470789
L 92.949218 19.966188
L 94.799158 19.623939
L 96.649098 19.444911
L 98.499038 19.429559
L 100.348978 19.577919
L 102.198918 19.889618
L 104.048858 20.363863
L 105.898798 20.999452
L 108.673707 22.25172
L 111.448617 23.856146
L 114.223527 25.803576
L 116.998437 28.082902
L 119.773347 30.681119
L 122.548257 33.583405
L 125.323166 36.773202
L 129.023046 41.441828
L 132.722926 46.541724
L 136.422806 52.021184
L 141.047655 59.319319
L 146.597475 68.581877
L 153.997234 81.440039
L 165.096874 100.755659
L 170.646693 109.949159
L 175.271543 117.166878
L 178.971423 122.56793
L 182.671303 127.57776
L 186.371182 132.145575
L 189.146092 135.253323
L 191.921002 138.068557
L 194.695912 140.575216
L 197.470822 142.758999
L 200.245731 144.607449
L 203.020641 146.110019
L 205.795551 147.258137
L 207.645491 147.823313
L 209.495431 148.226567
L 211.345371 148.466878
L 213.195311 148.543636
L 215.045251 148.456646
L 216.89519 148.206129
L 218.74513 147.79272
L 220.59507 147.217468
L 222.44501 146.481831
L 225.21992 145.081846
L 227.99483 143.333276
L 230.769739 141.246095
L 233.544649 138.832212
L 236.319559 136.105396
L 239.094469 133.081205
L 241.869379 129.776892
L 245.569259 124.968195
L 249.269138 119.743939
L 252.969018 114.157091
L 257.593868 106.750232
L 263.143687 97.39683
L 272.393387 81.236969
L 280.718116 66.811917
L 286.267936 57.63897
L 290.892786 50.444873
L 294.592665 45.066706
L 298.292545 40.083058
L 301.992425 35.544456
L 304.767335 32.460429
L 307.542244 29.67032
L 310.317154 27.190046
L 313.092064 25.033757
L 315.866974 23.213755
L 318.641884 21.740423
L 321.416794 20.622166
L 323.266733 20.077161
L 325.116673 19.694226
L 326.966613 19.474335
L 328.816553 19.418043
L 330.666493 19.525494
L 332.516433 19.796416
L 334.366373 20.230122
L 336.216313 20.82551
L 338.066253 21.581072
L 340.841162 23.010438
L 343.616072 24.787634
L 346.390982 26.902521
L 349.165892 29.343034
L 351.940802 32.095249
L 354.715711 35.143465
L 357.490621 38.470292
L 361.190501 43.306436
L 364.890381 48.554947
L 368.590261 54.162611
L 373.21511 61.590338
L 378.76493 70.960799
L 388.014629 87.128846
L 396.339359 101.539346
L 401.889178 110.691377
L 406.514028 117.861568
L 410.213908 123.216636
L 413.913788 128.173904
L 417.613667 132.683114
L 420.388577 135.743297
L 423.163487 138.508171
L 425.938397 140.961962
L 428.713307 143.09067
L 431.488216 144.882153
L 434.263126 146.326189
L 437.038036 147.41454
L 438.887976 147.939353
L 440.737916 148.301952
L 442.587856 148.501416
L 444.437796 148.537239
L 446.287735 148.40933
L 448.137675 148.118014
L 449.987615 147.66403
L 451.837555 147.048529
L 454.612465 145.825958
L 457.387375 144.250557
L 460.162285 142.331312
L 462.937194 140.079173
L 465.712104 137.506989
L 468.487014 134.629433
L 471.261924 131.462922
L 474.961804 126.82287
L 478.661683 121.748457
L 482.361563 116.291129
L 486.986413 109.01561
L 492.536232 99.772326
L 499.935992 86.925833
L 511.035631 67.596949
L 516.585451 58.383262
L 521.210301 51.142207
L 524.91018 45.718483
L 528.61006 40.682671
L 530.46 38.326354
L 530.46 38.326354
" style="fill:none;stroke:#ffa500;stroke-dasharray:5.55,2.4;stroke-dashoffset:0;stroke-width:1.5;"/>
   </g>
   <g id="patch_3">
    <path d="M 68.9 155
L 68.9 12.96
" style="fill:none;stroke:#b0b0b0;stroke-linecap:square;stroke-linejoin:miter;stroke-width:0.8;"/>
   </g>
   <g id="patch_4">
    <path d="M 530.46 155
L 530.46 12.96
" style="fill:none;stroke:#b0b0b0;stroke-linecap:square;stroke-linejoin:miter;stroke-width:0.8;"/>
   </g>
   <g id="patch_5">
    <path d="M 68.9 155
L 530.46 155
" style="fill:none;stroke:#b0b0b0;stroke-linecap:square;stroke-linejoin:miter;stroke-width:0.8;"/>
   </g>
   <g id="patch_6">
    <path d="M 68.9 12.96
L 530.46 12.96
" style="fill:none;stroke:#b0b0b0;stroke-linecap:square;stroke-linejoin:miter;stroke-width:0.8;"/>
   </g>
   <g id="legend_1">
    <g id="line2d_13">
     <path d="M 564.338 28.678125
L 588.338 28.678125
" style="fill:none;stroke:#ffa500;stroke-linecap:square;stroke-width:1.5;"/>
    </g>
    <g id="line2d_14"/>
    <g id="text_12">
     <!-- Input data -->
     <g transform="translate(597.938 32.878125)scale(0.12 -0.12)">
      <defs>
       <path d="M 9.8125 72.90625
L 19.671875 72.90625
L 19.671875 0
L 9.8125 0
z
" id="DejaVuSans-73"/>
       <path d="M 18.109375 8.203125
L 18.109375 -20.796875
L 9.078125 -20.796875
L 9.078125 54.6875
L 18.109375 54.6875
L 18.109375 46.390625
Q 20.953125 51.265625 25.265625 53.625
Q 29.59375 56 35.59375 56
Q 45.5625 56 51.78125 48.09375
Q 58.015625 40.1875 58.015625 27.296875
Q 58.015625 14.40625 51.78125 6.484375
Q 45.5625 -1.421875 35.59375 -1.421875
Q 29.59375 -1.421875 25.265625 0.953125
Q 20.953125 3.328125 18.109375 8.203125
z
M 48.6875 27.296875
Q 48.6875 37.203125 44.609375 42.84375
Q 40.53125 48.484375 33.40625 48.484375
Q 26.265625 48.484375 22.1875 42.84375
Q 18.109375 37.203125 18.109375 27.296875
Q 18.109375 17.390625 22.1875 11.75
Q 26.265625 6.109375 33.40625 6.109375
Q 40.53125 6.109375 44.609375 11.75
Q 48.6875 17.390625 48.6875 27.296875
z
" id="DejaVuSans-112"/>
       <path d="M 8.5 21.578125
L 8.5 54.6875
L 17.484375 54.6875
L 17.484375 21.921875
Q 17.484375 14.15625 20.5 10.265625
Q 23.53125 6.390625 29.59375 6.390625
Q 36.859375 6.390625 41.078125 11.03125
Q 45.3125 15.671875 45.3125 23.6875
L 45.3125 54.6875
L 54.296875 54.6875
L 54.296875 0
L 45.3125 0
L 45.3125 8.40625
Q 42.046875 3.421875 37.71875 1
Q 33.40625 -1.421875 27.6875 -1.421875
Q 18.265625 -1.421875 13.375 4.4375
Q 8.5 10.296875 8.5 21.578125
z
M 31.109375 56
z
" id="DejaVuSans-117"/>
       <path d="M 18.3125 70.21875
L 18.3125 54.6875
L 36.8125 54.6875
L 36.8125 47.703125
L 18.3125 47.703125
L 18.3125 18.015625
Q 18.3125 11.328125 20.140625 9.421875
Q 21.96875 7.515625 27.59375 7.515625
L 36.8125 7.515625
L 36.8125 0
L 27.59375 0
Q 17.1875 0 13.234375 3.875
Q 9.28125 7.765625 9.28125 18.015625
L 9.28125 47.703125
L 2.6875 47.703125
L 2.6875 54.6875
L 9.28125 54.6875
L 9.28125 70.21875
z
" id="DejaVuSans-116"/>
       <path id="DejaVuSans-32"/>
       <path d="M 45.40625 46.390625
L 45.40625 75.984375
L 54.390625 75.984375
L 54.390625 0
L 45.40625 0
L 45.40625 8.203125
Q 42.578125 3.328125 38.25 0.953125
Q 33.9375 -1.421875 27.875 -1.421875
Q 17.96875 -1.421875 11.734375 6.484375
Q 5.515625 14.40625 5.515625 27.296875
Q 5.515625 40.1875 11.734375 48.09375
Q 17.96875 56 27.875 56
Q 33.9375 56 38.25 53.625
Q 42.578125 51.265625 45.40625 46.390625
z
M 14.796875 27.296875
Q 14.796875 17.390625 18.875 11.75
Q 22.953125 6.109375 30.078125 6.109375
Q 37.203125 6.109375 41.296875 11.75
Q 45.40625 17.390625 45.40625 27.296875
Q 45.40625 37.203125 41.296875 42.84375
Q 37.203125 48.484375 30.078125 48.484375
Q 22.953125 48.484375 18.875 42.84375
Q 14.796875 37.203125 14.796875 27.296875
z
" id="DejaVuSans-100"/>
       <path d="M 34.28125 27.484375
Q 23.390625 27.484375 19.1875 25
Q 14.984375 22.515625 14.984375 16.5
Q 14.984375 11.71875 18.140625 8.90625
Q 21.296875 6.109375 26.703125 6.109375
Q 34.1875 6.109375 38.703125 11.40625
Q 43.21875 16.703125 43.21875 25.484375
L 43.21875 27.484375
z
M 52.203125 31.203125
L 52.203125 0
L 43.21875 0
L 43.21875 8.296875
Q 40.140625 3.328125 35.546875 0.953125
Q 30.953125 -1.421875 24.3125 -1.421875
Q 15.921875 -1.421875 10.953125 3.296875
Q 6 8.015625 6 15.921875
Q 6 25.140625 12.171875 29.828125
Q 18.359375 34.515625 30.609375 34.515625
L 43.21875 34.515625
L 43.21875 35.40625
Q 43.21875 41.609375 39.140625 45
Q 35.0625 48.390625 27.6875 48.390625
Q 23 48.390625 18.546875 47.265625
Q 14.109375 46.140625 10.015625 43.890625
L 10.015625 52.203125
Q 14.9375 54.109375 19.578125 55.046875
Q 24.21875 56 28.609375 56
Q 40.484375 56 46.34375 49.84375
Q 52.203125 43.703125 52.203125 31.203125
z
" id="DejaVuSans-97"/>
      </defs>
      <use xlink:href="#DejaVuSans-73"/>
      <use x="29.492188" xlink:href="#DejaVuSans-110"/>
      <use x="92.871094" xlink:href="#DejaVuSans-112"/>
      <use x="156.347656" xlink:href="#DejaVuSans-117"/>
      <use x="219.726562" xlink:href="#DejaVuSans-116"/>
      <use x="258.935547" xlink:href="#DejaVuSans-32"/>
      <use x="290.722656" xlink:href="#DejaVuSans-100"/>
      <use x="354.199219" xlink:href="#DejaVuSans-97"/>
      <use x="415.478516" xlink:href="#DejaVuSans-116"/>
      <use x="454.6875" xlink:href="#DejaVuSans-97"/>
     </g>
    </g>
    <g id="line2d_15">
     <path d="M 564.338 46.291875
L 588.338 46.291875
" style="fill:none;stroke:#ffa500;stroke-dasharray:5.55,2.4;stroke-dashoffset:0;stroke-width:1.5;"/>
    </g>
    <g id="line2d_16"/>
    <g id="text_13">
     <!-- Expected output -->
     <g transform="translate(597.938 50.491875)scale(0.12 -0.12)">
      <defs>
       <path d="M 9.8125 72.90625
L 55.90625 72.90625
L 55.90625 64.59375
L 19.671875 64.59375
L 19.671875 43.015625
L 54.390625 43.015625
L 54.390625 34.71875
L 19.671875 34.71875
L 19.671875 8.296875
L 56.78125 8.296875
L 56.78125 0
L 9.8125 0
z
" id="DejaVuSans-69"/>
       <path d="M 54.890625 54.6875
L 35.109375 28.078125
L 55.90625 0
L 45.3125 0
L 29.390625 21.484375
L 13.484375 0
L 2.875 0
L 24.125 28.609375
L 4.6875 54.6875
L 15.28125 54.6875
L 29.78125 35.203125
L 44.28125 54.6875
z
" id="DejaVuSans-120"/>
       <path d="M 56.203125 29.59375
L 56.203125 25.203125
L 14.890625 25.203125
Q 15.484375 15.921875 20.484375 11.0625
Q 25.484375 6.203125 34.421875 6.203125
Q 39.59375 6.203125 44.453125 7.46875
Q 49.3125 8.734375 54.109375 11.28125
L 54.109375 2.78125
Q 49.265625 0.734375 44.1875 -0.34375
Q 39.109375 -1.421875 33.890625 -1.421875
Q 20.796875 -1.421875 13.15625 6.1875
Q 5.515625 13.8125 5.515625 26.8125
Q 5.515625 40.234375 12.765625 48.109375
Q 20.015625 56 32.328125 56
Q 43.359375 56 49.78125 48.890625
Q 56.203125 41.796875 56.203125 29.59375
z
M 47.21875 32.234375
Q 47.125 39.59375 43.09375 43.984375
Q 39.0625 48.390625 32.421875 48.390625
Q 24.90625 48.390625 20.390625 44.140625
Q 15.875 39.890625 15.1875 32.171875
z
" id="DejaVuSans-101"/>
       <path d="M 48.78125 52.59375
L 48.78125 44.1875
Q 44.96875 46.296875 41.140625 47.34375
Q 37.3125 48.390625 33.40625 48.390625
Q 24.65625 48.390625 19.8125 42.84375
Q 14.984375 37.3125 14.984375 27.296875
Q 14.984375 17.28125 19.8125 11.734375
Q 24.65625 6.203125 33.40625 6.203125
Q 37.3125 6.203125 41.140625 7.25
Q 44.96875 8.296875 48.78125 10.40625
L 48.78125 2.09375
Q 45.015625 0.34375 40.984375 -0.53125
Q 36.96875 -1.421875 32.421875 -1.421875
Q 20.0625 -1.421875 12.78125 6.34375
Q 5.515625 14.109375 5.515625 27.296875
Q 5.515625 40.671875 12.859375 48.328125
Q 20.21875 56 33.015625 56
Q 37.15625 56 41.109375 55.140625
Q 45.0625 54.296875 48.78125 52.59375
z
" id="DejaVuSans-99"/>
       <path d="M 30.609375 48.390625
Q 23.390625 48.390625 19.1875 42.75
Q 14.984375 37.109375 14.984375 27.296875
Q 14.984375 17.484375 19.15625 11.84375
Q 23.34375 6.203125 30.609375 6.203125
Q 37.796875 6.203125 41.984375 11.859375
Q 46.1875 17.53125 46.1875 27.296875
Q 46.1875 37.015625 41.984375 42.703125
Q 37.796875 48.390625 30.609375 48.390625
z
M 30.609375 56
Q 42.328125 56 49.015625 48.375
Q 55.71875 40.765625 55.71875 27.296875
Q 55.71875 13.875 49.015625 6.21875
Q 42.328125 -1.421875 30.609375 -1.421875
Q 18.84375 -1.421875 12.171875 6.21875
Q 5.515625 13.875 5.515625 27.296875
Q 5.515625 40.765625 12.171875 48.375
Q 18.84375 56 30.609375 56
z
" id="DejaVuSans-111"/>
      </defs>
      <use xlink:href="#DejaVuSans-69"/>
      <use x="63.183594" xlink:href="#DejaVuSans-120"/>
      <use x="122.363281" xlink:href="#DejaVuSans-112"/>
      <use x="185.839844" xlink:href="#DejaVuSans-101"/>
      <use x="247.363281" xlink:href="#DejaVuSans-99"/>
      <use x="302.34375" xlink:href="#DejaVuSans-116"/>
      <use x="341.552734" xlink:href="#DejaVuSans-101"/>
      <use x="403.076172" xlink:href="#DejaVuSans-100"/>
      <use x="466.552734" xlink:href="#DejaVuSans-32"/>
      <use x="498.339844" xlink:href="#DejaVuSans-111"/>
      <use x="559.521484" xlink:href="#DejaVuSans-117"/>
      <use x="622.900391" xlink:href="#DejaVuSans-116"/>
      <use x="662.109375" xlink:href="#DejaVuSans-112"/>
      <use x="725.585938" xlink:href="#DejaVuSans-117"/>
      <use x="788.964844" xlink:href="#DejaVuSans-116"/>
     </g>
    </g>
   </g>
  </g>
  <g id="axes_2">
   <g id="patch_7">
    <path d="M 68.9 328.52
L 530.46 328.52
L 530.46 186.48
L 68.9 186.48
z
" style="fill:#ffffff;"/>
   </g>
   <g id="matplotlib.axis_3">
    <g id="xtick_6">
     <g id="line2d_17">
      <g>
       <use style="stroke:#000000;stroke-width:0.8;" x="68.9" xlink:href="#m64b7643c12" y="328.52"/>
      </g>
     </g>
     <g id="text_14">
      <!-- 0 -->
      <g transform="translate(65.0825 344.638125)scale(0.12 -0.12)">
       <use xlink:href="#DejaVuSans-48"/>
      </g>
     </g>
    </g>
    <g id="xtick_7">
     <g id="line2d_18">
      <g>
       <use style="stroke:#000000;stroke-width:0.8;" x="161.396994" xlink:href="#m64b7643c12" y="328.52"/>
      </g>
     </g>
     <g id="text_15">
      <!-- 100 -->
      <g transform="translate(149.944494 344.638125)scale(0.12 -0.12)">
       <use xlink:href="#DejaVuSans-49"/>
       <use x="63.623047" xlink:href="#DejaVuSans-48"/>
       <use x="127.246094" xlink:href="#DejaVuSans-48"/>
      </g>
     </g>
    </g>
    <g id="xtick_8">
     <g id="line2d_19">
      <g>
       <use style="stroke:#000000;stroke-width:0.8;" x="253.893988" xlink:href="#m64b7643c12" y="328.52"/>
      </g>
     </g>
     <g id="text_16">
      <!-- 200 -->
      <g transform="translate(242.441488 344.638125)scale(0.12 -0.12)">
       <use xlink:href="#DejaVuSans-50"/>
       <use x="63.623047" xlink:href="#DejaVuSans-48"/>
       <use x="127.246094" xlink:href="#DejaVuSans-48"/>
      </g>
     </g>
    </g>
    <g id="xtick_9">
     <g id="line2d_20">
      <g>
       <use style="stroke:#000000;stroke-width:0.8;" x="346.390982" xlink:href="#m64b7643c12" y="328.52"/>
      </g>
     </g>
     <g id="text_17">
      <!-- 300 -->
      <g transform="translate(334.938482 344.638125)scale(0.12 -0.12)">
       <use xlink:href="#DejaVuSans-51"/>
       <use x="63.623047" xlink:href="#DejaVuSans-48"/>
       <use x="127.246094" xlink:href="#DejaVuSans-48"/>
      </g>
     </g>
    </g>
    <g id="xtick_10">
     <g id="line2d_21">
      <g>
       <use style="stroke:#000000;stroke-width:0.8;" x="438.887976" xlink:href="#m64b7643c12" y="328.52"/>
      </g>
     </g>
     <g id="text_18">
      <!-- 400 -->
      <g transform="translate(427.435476 344.638125)scale(0.12 -0.12)">
       <use xlink:href="#DejaVuSans-52"/>
       <use x="63.623047" xlink:href="#DejaVuSans-48"/>
       <use x="127.246094" xlink:href="#DejaVuSans-48"/>
      </g>
     </g>
    </g>
   </g>
   <g id="matplotlib.axis_4">
    <g id="ytick_6">
     <g id="line2d_22">
      <g>
       <use style="stroke:#000000;stroke-width:0.8;" x="68.9" xlink:href="#m3faecd9fda" y="322.063716"/>
      </g>
     </g>
     <g id="text_19">
      <!-- −1.0 -->
      <g transform="translate(32.760625 326.622779)scale(0.12 -0.12)">
       <use xlink:href="#DejaVuSans-8722"/>
       <use x="83.789062" xlink:href="#DejaVuSans-49"/>
       <use x="147.412109" xlink:href="#DejaVuSans-46"/>
       <use x="179.199219" xlink:href="#DejaVuSans-48"/>
      </g>
     </g>
    </g>
    <g id="ytick_7">
     <g id="line2d_23">
      <g>
       <use style="stroke:#000000;stroke-width:0.8;" x="68.9" xlink:href="#m3faecd9fda" y="289.781878"/>
      </g>
     </g>
     <g id="text_20">
      <!-- −0.5 -->
      <g transform="translate(32.760625 294.340941)scale(0.12 -0.12)">
       <use xlink:href="#DejaVuSans-8722"/>
       <use x="83.789062" xlink:href="#DejaVuSans-48"/>
       <use x="147.412109" xlink:href="#DejaVuSans-46"/>
       <use x="179.199219" xlink:href="#DejaVuSans-53"/>
      </g>
     </g>
    </g>
    <g id="ytick_8">
     <g id="line2d_24">
      <g>
       <use style="stroke:#000000;stroke-width:0.8;" x="68.9" xlink:href="#m3faecd9fda" y="257.50004"/>
      </g>
     </g>
     <g id="text_21">
      <!-- 0.0 -->
      <g transform="translate(42.81625 262.059102)scale(0.12 -0.12)">
       <use xlink:href="#DejaVuSans-48"/>
       <use x="63.623047" xlink:href="#DejaVuSans-46"/>
       <use x="95.410156" xlink:href="#DejaVuSans-48"/>
      </g>
     </g>
    </g>
    <g id="ytick_9">
     <g id="line2d_25">
      <g>
       <use style="stroke:#000000;stroke-width:0.8;" x="68.9" xlink:href="#m3faecd9fda" y="225.218202"/>
      </g>
     </g>
     <g id="text_22">
      <!-- 0.5 -->
      <g transform="translate(42.81625 229.777264)scale(0.12 -0.12)">
       <use xlink:href="#DejaVuSans-48"/>
       <use x="63.623047" xlink:href="#DejaVuSans-46"/>
       <use x="95.410156" xlink:href="#DejaVuSans-53"/>
      </g>
     </g>
    </g>
    <g id="ytick_10">
     <g id="line2d_26">
      <g>
       <use style="stroke:#000000;stroke-width:0.8;" x="68.9" xlink:href="#m3faecd9fda" y="192.936364"/>
      </g>
     </g>
     <g id="text_23">
      <!-- 1.0 -->
      <g transform="translate(42.81625 197.495426)scale(0.12 -0.12)">
       <use xlink:href="#DejaVuSans-49"/>
       <use x="63.623047" xlink:href="#DejaVuSans-46"/>
       <use x="95.410156" xlink:href="#DejaVuSans-48"/>
      </g>
     </g>
    </g>
    <g id="text_24">
     <!-- $\cos(x)$ -->
     <g transform="translate(25.433125 281.98)rotate(-90)scale(0.16 -0.16)">
      <use transform="translate(0 0.125)" xlink:href="#DejaVuSans-99"/>
      <use transform="translate(54.980469 0.125)" xlink:href="#DejaVuSans-111"/>
      <use transform="translate(116.162109 0.125)" xlink:href="#DejaVuSans-115"/>
      <use transform="translate(168.261719 0.125)" xlink:href="#DejaVuSans-40"/>
      <use transform="translate(207.275391 0.125)" xlink:href="#DejaVuSans-Oblique-120"/>
      <use transform="translate(266.455078 0.125)" xlink:href="#DejaVuSans-41"/>
     </g>
    </g>
   </g>
   <g id="line2d_27">
    <path clip-path="url(#p2d6bea6603)" d="M 68.9 192.936364
L 70.74994 193.018237
L 72.59988 193.263651
L 74.44982 193.671983
L 76.29976 194.242196
L 78.149699 194.972845
L 80.924609 196.365472
L 83.699519 198.106871
L 86.474429 200.187107
L 89.249339 202.594313
L 92.024248 205.314754
L 94.799158 208.332913
L 97.574068 211.631569
L 101.273948 216.433363
L 104.973828 221.651509
L 108.673707 227.233104
L 113.298557 234.634683
L 118.848377 243.983739
L 128.098076 260.141413
L 136.422806 274.569978
L 141.972625 283.748075
L 146.597475 290.948086
L 150.297355 296.331981
L 153.997234 301.32218
L 157.697114 305.868091
L 160.472024 308.958053
L 163.246934 311.754447
L 166.021844 314.24132
L 168.796754 316.404485
L 171.571663 318.231601
L 174.346573 319.712244
L 177.121483 320.837968
L 178.971423 321.388017
L 180.821363 321.776032
L 182.671303 322.001029
L 184.521242 322.062437
L 186.371182 321.960101
L 188.221122 321.69428
L 190.071062 321.265648
L 191.921002 320.675293
L 193.770942 319.924711
L 196.545852 318.502688
L 199.320762 316.732647
L 202.095671 314.624684
L 204.870581 312.190825
L 207.645491 309.444957
L 210.420401 306.402744
L 213.195311 303.081541
L 216.89519 298.252252
L 220.59507 293.009799
L 224.29495 287.407332
L 228.9198 279.984812
L 234.469619 270.618604
L 243.719319 254.452584
L 252.044048 240.038429
L 257.593868 230.881157
L 262.218717 223.704981
L 265.918597 218.344131
L 269.618477 213.380262
L 273.318357 208.863699
L 276.093267 205.797551
L 278.868176 203.026364
L 281.643086 200.56595
L 284.417996 198.430344
L 287.192906 196.631729
L 289.967816 195.180367
L 292.742725 194.084538
L 294.592665 193.554676
L 296.442605 193.186993
L 298.292545 192.982422
L 300.142485 192.941482
L 301.992425 193.064276
L 303.842365 193.350494
L 305.692305 193.799409
L 307.542244 194.409883
L 310.317154 195.625018
L 313.092064 197.19315
L 315.866974 199.105332
L 318.641884 201.350654
L 321.416794 203.916308
L 324.191703 206.787656
L 326.966613 209.948318
L 330.666493 214.581187
L 334.366373 219.649185
L 338.066253 225.100933
L 342.691102 232.370735
L 348.240922 241.60912
L 355.640681 254.452584
L 367.665291 275.352633
L 373.21511 284.488717
L 377.83996 291.640773
L 381.53984 296.978364
L 385.239719 301.915707
L 388.939599 306.402744
L 391.714509 309.444957
L 394.489419 312.190825
L 397.264329 314.624684
L 400.039238 316.732647
L 402.814148 318.502688
L 405.589058 319.924711
L 408.363968 320.990602
L 410.213908 321.500257
L 412.063848 321.847593
L 413.913788 322.03173
L 415.763727 322.052201
L 417.613667 321.908953
L 419.463607 321.60235
L 421.313547 321.133169
L 423.163487 320.502601
L 425.938397 319.257756
L 428.713307 317.660585
L 431.488216 315.720198
L 434.263126 313.447666
L 437.038036 310.855954
L 439.812946 307.959847
L 442.587856 304.775868
L 446.287735 300.114379
L 449.987615 295.020848
L 453.687495 289.546914
L 458.312345 282.254424
L 463.862164 272.996673
L 471.261924 260.141413
L 482.361563 240.822452
L 487.911383 231.623894
L 492.536232 224.400333
L 496.236112 218.993606
L 499.935992 213.977274
L 503.635872 209.402196
L 506.410782 206.288544
L 509.185691 203.467053
L 511.960601 200.953819
L 514.735511 198.763181
L 517.510421 196.907636
L 520.285331 195.39777
L 523.06024 194.242196
L 524.91018 193.671983
L 526.76012 193.263651
L 528.61006 193.018237
L 530.46 192.936364
L 530.46 192.936364
" style="fill:none;stroke:#cd5c5c;stroke-linecap:square;stroke-width:1.5;"/>
   </g>
   <g id="line2d_28">
    <path clip-path="url(#p2d6bea6603)" d="M 68.9 211.846627
L 72.59988 216.66906
L 76.29976 221.905456
L 79.999639 227.502725
L 84.624489 234.920037
L 90.174309 244.281992
L 99.424008 260.445986
L 107.748737 274.863797
L 113.298557 284.026309
L 117.923407 291.208471
L 121.623287 296.575102
L 125.323166 301.545572
L 129.023046 306.069489
L 131.797956 309.141602
L 134.572866 311.9191
L 137.347776 314.386139
L 140.122685 316.528643
L 142.897595 318.334389
L 145.672505 319.793077
L 148.447415 320.896384
L 150.297355 321.431295
L 152.147295 321.804062
L 153.997234 322.01374
L 155.847174 322.059798
L 157.697114 321.942117
L 159.547054 321.660998
L 161.396994 321.217152
L 163.246934 320.611705
L 166.021844 319.404005
L 168.796754 317.843143
L 171.571663 315.938025
L 174.346573 313.699518
L 177.121483 311.140395
L 179.896393 308.275254
L 182.671303 305.120441
L 185.446212 301.693955
L 189.146092 296.736699
L 192.845972 291.381644
L 197.470822 284.211471
L 202.095671 276.618355
L 208.570461 265.50732
L 225.21992 236.642511
L 229.84477 229.134284
L 234.469619 222.075194
L 238.169499 216.826697
L 241.869379 211.990564
L 244.644289 208.663746
L 247.419198 205.615537
L 250.194108 202.863329
L 252.969018 200.422823
L 255.743928 198.307941
L 258.518838 196.530749
L 261.293747 195.101387
L 264.068657 194.028008
L 265.918597 193.513299
L 267.768537 193.160874
L 269.618477 192.971628
L 271.468417 192.94604
L 273.318357 193.084175
L 275.168297 193.385683
L 277.018236 193.849799
L 278.868176 194.475346
L 281.643086 195.712768
L 284.417996 197.302685
L 287.192906 199.236028
L 289.967816 201.501766
L 292.742725 204.086973
L 295.517635 206.976901
L 298.292545 210.155063
L 301.992425 214.809413
L 305.692305 219.89658
L 309.392184 225.364988
L 314.017034 232.651833
L 319.566854 241.904777
L 326.966613 254.757136
L 338.066253 274.079436
L 343.616072 283.283052
L 348.240922 290.512457
L 351.940802 295.924858
L 355.640681 300.947692
L 359.340561 305.530034
L 362.115471 308.64959
L 364.890381 311.477337
L 367.665291 313.997145
L 370.4402 316.194638
L 373.21511 318.057279
L 375.99002 319.574442
L 378.76493 320.737471
L 380.61487 321.312722
L 382.46481 321.72613
L 384.314749 321.976647
L 386.164689 322.063636
L 388.014629 321.986879
L 389.864569 321.746568
L 391.714509 321.343314
L 393.564449 320.77814
L 395.414389 320.052479
L 398.189299 318.667209
L 400.964208 316.932982
L 403.739118 314.859691
L 406.514028 312.459163
L 409.288938 309.745095
L 412.063848 306.732969
L 414.838758 303.43997
L 418.538637 298.64508
L 422.238517 293.433042
L 425.938397 287.8567
L 430.563246 280.460402
L 436.113066 271.115692
L 445.362766 254.960205
L 453.687495 240.528127
L 459.237315 231.344881
L 463.862164 224.138955
L 467.562044 218.749332
L 471.261924 213.752581
L 474.961804 209.199361
L 477.736713 206.103466
L 480.511623 203.300787
L 483.286533 200.807314
L 486.061443 198.637273
L 488.836353 196.803043
L 491.611263 195.315088
L 494.386172 194.181898
L 496.236112 193.626806
L 498.086052 193.23371
L 499.935992 193.003608
L 501.785932 192.937083
L 503.635872 193.034304
L 505.485812 193.295025
L 507.335752 193.718583
L 509.185691 194.303905
L 511.035631 195.049506
L 513.810541 196.464185
L 516.585451 198.227072
L 519.360361 200.328111
L 522.135271 202.755316
L 524.91018 205.494837
L 527.68509 208.531048
L 530.46 211.846627
L 530.46 211.846627
" style="fill:none;stroke:#cd5c5c;stroke-dasharray:5.55,2.4;stroke-dashoffset:0;stroke-width:1.5;"/>
   </g>
   <g id="patch_8">
    <path d="M 68.9 328.52
L 68.9 186.48
" style="fill:none;stroke:#b0b0b0;stroke-linecap:square;stroke-linejoin:miter;stroke-width:0.8;"/>
   </g>
   <g id="patch_9">
    <path d="M 530.46 328.52
L 530.46 186.48
" style="fill:none;stroke:#b0b0b0;stroke-linecap:square;stroke-linejoin:miter;stroke-width:0.8;"/>
   </g>
   <g id="patch_10">
    <path d="M 68.9 328.52
L 530.46 328.52
" style="fill:none;stroke:#b0b0b0;stroke-linecap:square;stroke-linejoin:miter;stroke-width:0.8;"/>
   </g>
   <g id="patch_11">
    <path d="M 68.9 186.48
L 530.46 186.48
" style="fill:none;stroke:#b0b0b0;stroke-linecap:square;stroke-linejoin:miter;stroke-width:0.8;"/>
   </g>
   <g id="legend_2">
    <g id="line2d_29">
     <path d="M 564.338 202.198125
L 588.338 202.198125
" style="fill:none;stroke:#cd5c5c;stroke-linecap:square;stroke-width:1.5;"/>
    </g>
    <g id="line2d_30"/>
    <g id="text_25">
     <!-- Input data -->
     <g transform="translate(597.938 206.398125)scale(0.12 -0.12)">
      <use xlink:href="#DejaVuSans-73"/>
      <use x="29.492188" xlink:href="#DejaVuSans-110"/>
      <use x="92.871094" xlink:href="#DejaVuSans-112"/>
      <use x="156.347656" xlink:href="#DejaVuSans-117"/>
      <use x="219.726562" xlink:href="#DejaVuSans-116"/>
      <use x="258.935547" xlink:href="#DejaVuSans-32"/>
      <use x="290.722656" xlink:href="#DejaVuSans-100"/>
      <use x="354.199219" xlink:href="#DejaVuSans-97"/>
      <use x="415.478516" xlink:href="#DejaVuSans-116"/>
      <use x="454.6875" xlink:href="#DejaVuSans-97"/>
     </g>
    </g>
    <g id="line2d_31">
     <path d="M 564.338 219.811875
L 588.338 219.811875
" style="fill:none;stroke:#cd5c5c;stroke-dasharray:5.55,2.4;stroke-dashoffset:0;stroke-width:1.5;"/>
    </g>
    <g id="line2d_32"/>
    <g id="text_26">
     <!-- Expected output -->
     <g transform="translate(597.938 224.011875)scale(0.12 -0.12)">
      <use xlink:href="#DejaVuSans-69"/>
      <use x="63.183594" xlink:href="#DejaVuSans-120"/>
      <use x="122.363281" xlink:href="#DejaVuSans-112"/>
      <use x="185.839844" xlink:href="#DejaVuSans-101"/>
      <use x="247.363281" xlink:href="#DejaVuSans-99"/>
      <use x="302.34375" xlink:href="#DejaVuSans-116"/>
      <use x="341.552734" xlink:href="#DejaVuSans-101"/>
      <use x="403.076172" xlink:href="#DejaVuSans-100"/>
      <use x="466.552734" xlink:href="#DejaVuSans-32"/>
      <use x="498.339844" xlink:href="#DejaVuSans-111"/>
      <use x="559.521484" xlink:href="#DejaVuSans-117"/>
      <use x="622.900391" xlink:href="#DejaVuSans-116"/>
      <use x="662.109375" xlink:href="#DejaVuSans-112"/>
      <use x="725.585938" xlink:href="#DejaVuSans-117"/>
      <use x="788.964844" xlink:href="#DejaVuSans-116"/>
     </g>
    </g>
   </g>
  </g>
 </g>
 <defs>
  <clipPath id="p9c4fe63c22">
   <rect height="142.04" width="461.56" x="68.9" y="12.96"/>
  </clipPath>
  <clipPath id="p2d6bea6603">
   <rect height="142.04" width="461.56" x="68.9" y="186.48"/>
  </clipPath>
 </defs>
</svg>
